<svg width="48" height="48" viewBox="0 0 48 48" fill="none" xmlns="http://www.w3.org/2000/svg">
<path d="M39.2899 33.8299C36.0861 37.0324 31.7413 38.831 27.2114 38.8301C22.6815 38.8291 18.3374 37.0287 15.1349 33.8249C11.9324 30.6211 10.1338 26.2763 10.1348 21.7464C10.1357 17.2164 11.9361 12.8724 15.1399 9.66992" fill="#AADB8F"/>
<path d="M38.0002 32.51C36.5879 33.9243 34.9108 35.0466 33.0647 35.8128C31.2186 36.579 29.2396 36.9741 27.2408 36.9755C23.2041 36.9783 19.3316 35.3774 16.4752 32.525C13.6189 29.6726 12.0126 25.8023 12.0098 21.7656C12.007 17.7289 13.6078 13.8564 16.4602 11" fill="#FFFFFD"/>
<path d="M37.4801 32.0005C34.732 34.5885 31.084 36.0046 27.3095 35.9485C23.5349 35.8924 19.9306 34.3684 17.2607 31.6998C14.5907 29.0311 13.0651 25.4276 13.0071 21.6531C12.9491 17.8786 14.3634 14.2298 16.9501 11.4805" fill="#E84242"/>
<path d="M20.3034 19.1774C20.4464 18.6439 19.7319 17.9889 18.7077 17.7145C17.6834 17.44 16.7372 17.65 16.5943 18.1835C16.4513 18.717 17.1658 19.3719 18.19 19.6463C19.2143 19.9208 20.1605 19.7108 20.3034 19.1774Z" fill="#8A2110"/>
<path d="M18.5802 24.722C19.6087 24.4463 20.3261 23.7886 20.1826 23.2528C20.039 22.7171 19.0887 22.5063 18.0602 22.7821C17.0316 23.0578 16.3142 23.7155 16.4578 24.2512C16.6013 24.787 17.5516 24.9978 18.5802 24.722Z" fill="#8A2110"/>
<path d="M21.2206 28.8349C21.9704 28.0851 22.2617 27.1607 21.8711 26.7701C21.4806 26.3796 20.5562 26.6709 19.8064 27.4207C19.0566 28.1705 18.7653 29.0949 19.1558 29.4854C19.5464 29.876 20.4708 29.5847 21.2206 28.8349Z" fill="#8A2110"/>
<path d="M25.6959 31.0937C25.9703 30.0695 25.7603 29.1233 25.2269 28.9803C24.6934 28.8374 24.0385 29.5518 23.764 30.5761C23.4896 31.6003 23.6995 32.5465 24.233 32.6895C24.7665 32.8324 25.4214 32.118 25.6959 31.0937Z" fill="#8A2110"/>
<path d="M30.2279 32.9308C30.7613 32.7879 30.9713 31.8417 30.6969 30.8174C30.4224 29.7932 29.7675 29.0787 29.234 29.2216C28.7005 29.3646 28.4906 30.3108 28.765 31.335C29.0394 32.3593 29.6944 33.0737 30.2279 32.9308Z" fill="#8A2110"/>
</svg>
