<svg width="48" height="48" viewBox="0 0 48 48" fill="none" xmlns="http://www.w3.org/2000/svg">
<path d="M39.1098 30.3096C39.108 30.6105 39.0879 30.9111 39.0498 31.2096C39.0883 30.9111 39.1083 30.6105 39.1098 30.3096Z" fill="#E2B544"/>
<path d="M29.8499 33.35L22.4699 26L18.8999 29.54L26.2799 36.92C28.8999 39.54 33.5399 39.2 36.5899 36.15C37.1922 35.5593 37.7074 34.8859 38.1199 34.15C35.2899 35.63 31.9399 35.43 29.8499 33.35Z" fill="#E2B544"/>
<path d="M38.9301 28.6902L38.8701 28.4902L38.9301 28.6902Z" fill="#EFC44F"/>
<path d="M38.75 28.0796C38.69 27.9062 38.62 27.7329 38.54 27.5596C38.62 27.7262 38.69 27.8996 38.75 28.0796Z" fill="#EFC44F"/>
<path d="M37.64 26.17C37.55 26.06 37.46 25.95 37.35 25.85L30 18.46L37.38 25.84C37.46 25.95 37.55 26.06 37.64 26.17Z" fill="#EFC44F"/>
<path d="M38.1301 26.8197L37.8901 26.4697L38.1301 26.8197Z" fill="#EFC44F"/>
<path d="M39.0002 29.28C39.0002 29.21 39.0002 29.14 39.0002 29.07C39.0002 29 39.0002 28.81 38.9202 28.69L38.8602 28.49C38.8602 28.35 38.7902 28.21 38.7402 28.08C38.6902 27.95 38.6102 27.73 38.5302 27.56C38.4114 27.3038 38.2744 27.0565 38.1202 26.82L37.8802 26.47L37.6302 26.17C37.5402 26.06 37.4502 25.95 37.3402 25.85L30.0002 18.46L22.4702 26L29.8502 33.38C31.9302 35.46 35.2902 35.67 38.1102 34.14C38.2464 33.8897 38.3699 33.6327 38.4802 33.37C38.5868 33.1115 38.6803 32.8479 38.7602 32.58V32.52C38.7602 32.36 38.8502 32.2 38.8802 32.04V31.97C38.9302 31.74 38.9702 31.5 39.0002 31.27C39.0383 30.9714 39.0584 30.6709 39.0602 30.37C39.0602 30.37 39.0602 30.37 39.0602 30.3C39.0651 29.959 39.045 29.618 39.0002 29.28Z" fill="#EFC44F"/>
<path d="M38.81 28.2901L38.75 28.0801C38.75 28.2201 38.83 28.3501 38.87 28.4901L38.81 28.2901Z" fill="#EFC44F"/>
<path d="M38.9999 29C38.9999 28.9 38.9999 28.81 38.9399 28.71C38.9399 28.84 38.9899 28.96 39.0199 29.09L38.9999 29Z" fill="#EFC44F"/>
<path d="M39.1001 29.8703C39.1001 29.7803 39.1001 29.7003 39.1001 29.6103C39.1001 29.5203 39.1001 29.3903 39.1001 29.2803C39.1473 29.6115 39.1707 29.9457 39.1701 30.2803C39.1101 30.1203 39.1001 30.0003 39.1001 29.8703Z" fill="#EFC44F"/>
<path d="M37.7701 26.3102L37.6401 26.1602L37.8901 26.4602L37.7701 26.3102Z" fill="#EFC44F"/>
<path d="M38.4499 27.3801C38.3899 27.2601 38.3199 27.1401 38.2499 27.0201L38.1299 26.8301C38.284 27.0667 38.421 27.3139 38.5399 27.5701L38.4499 27.3801Z" fill="#EFC44F"/>
<path d="M38.9402 31.8402C38.9402 31.6802 39.0002 31.5302 39.0302 31.3702V31.2702C39.0302 31.2702 39.0302 31.2702 39.0302 31.2002C39.0302 31.4302 38.9702 31.6702 38.9102 31.9002L38.9402 31.8402Z" fill="#EFC44F"/>
<path d="M38.7702 32.5195C38.6903 32.7874 38.5969 33.0511 38.4902 33.3095C38.5969 33.0429 38.6902 32.7795 38.7702 32.5195Z" fill="#EFC44F"/>
<path d="M14.3298 10.3203C13.5939 10.7328 12.9205 11.248 12.3298 11.8503C9.32983 14.8503 8.93983 19.5303 11.5598 22.1603L18.9398 29.5403L22.4698 26.0003L15.0898 18.6203C12.9998 16.5003 12.7998 13.1403 14.3298 10.3203Z" fill="#BF4562"/>
<path d="M17.2202 9.39008C17.5187 9.35192 17.8193 9.33188 18.1202 9.33008C17.8193 9.33161 17.5187 9.35165 17.2202 9.39008Z" fill="#BF4562"/>
<path d="M21.9999 10.5398L21.6499 10.2998L21.9999 10.5498V10.5398Z" fill="#DE5673"/>
<path d="M22.1201 10.6602C22.2843 10.7915 22.4412 10.9317 22.5901 11.0802C22.4412 10.9317 22.2843 10.7915 22.1201 10.6602Z" fill="#DE5673"/>
<path d="M21.4198 10.18L21.0898 10L21.4198 10.18Z" fill="#DE5673"/>
<path d="M20.8701 9.88969L20.3501 9.67969L20.8701 9.88969Z" fill="#DE5673"/>
<path d="M19.7402 9.50977L19.9402 9.56977L19.7402 9.50977Z" fill="#DE5673"/>
<path d="M22.5898 11.0804C22.4409 10.9319 22.284 10.7917 22.1198 10.6604L21.9998 10.5404L21.6498 10.2904L21.4598 10.1704L21.0898 10.0004L20.8598 9.89036L20.3398 9.68036L19.9398 9.56036L19.7398 9.50036L19.3798 9.43036H19.1398C18.8086 9.38316 18.4744 9.35977 18.1398 9.36036H18.0698C17.7689 9.36217 17.4683 9.3822 17.1698 9.42036C16.9298 9.42036 16.6898 9.49036 16.4598 9.54036H16.4098L15.9998 9.64036H15.9398C15.6719 9.72028 15.4083 9.81374 15.1498 9.92036C14.8871 10.0307 14.6301 10.1542 14.3798 10.2904C12.8498 13.1104 13.0498 16.4604 15.1398 18.5504L22.4698 26.0004L29.9698 18.5004L22.5898 11.0804Z" fill="#DE5673"/>
<path d="M21.0601 10.0002L20.8701 9.91016L21.1001 10.0202L21.0601 10.0002Z" fill="#DE5673"/>
<path d="M20.1399 9.61957L19.9399 9.55957L20.3399 9.67957L20.1399 9.61957Z" fill="#DE5673"/>
<path d="M18.8199 9.36036H18.5599H18.1899C18.5245 9.35977 18.8587 9.38316 19.1899 9.43036L18.8199 9.36036Z" fill="#DE5673"/>
<path d="M15.9199 9.66016C15.6532 9.74016 15.3899 9.83349 15.1299 9.94016C15.3883 9.83353 15.652 9.74008 15.9199 9.66016Z" fill="#DE5673"/>
<path d="M17.1598 9.39035H17.0598L16.5898 9.48035H16.5098C16.7498 9.43035 16.9898 9.39035 17.2198 9.36035L17.1598 9.39035Z" fill="#DE5673"/>
<path d="M19.4499 9.4502H19.3799L19.7399 9.5202L19.4499 9.4502Z" fill="#DE5673"/>
<path d="M35.3699 33.4495C35.2003 33.4473 35.034 33.402 34.8868 33.3179C34.7395 33.2337 34.616 33.1135 34.528 32.9685C34.44 32.8234 34.3903 32.6584 34.3837 32.4889C34.377 32.3194 34.4136 32.151 34.4899 31.9995C34.6309 31.7385 34.7448 31.4637 34.8299 31.1795C34.8299 31.0695 34.8799 30.9895 34.8999 30.9095C34.9199 30.8295 34.8999 30.6795 34.9599 30.5995C34.9875 30.4007 35.0008 30.2002 34.9999 29.9995V29.6995L34.9199 29.2395L34.8699 29.0595V28.9595C34.8699 28.8795 34.8099 28.7895 34.7699 28.7095V28.6095L34.6799 28.4495L34.6199 28.3595L34.5099 28.2095C34.4334 28.1072 34.3499 28.0103 34.2599 27.9195C34.1667 27.827 34.0926 27.7169 34.0419 27.5957C33.9912 27.4745 33.9648 27.3445 33.9644 27.2131C33.9639 27.0817 33.9893 26.9515 34.0392 26.8299C34.089 26.7083 34.1623 26.5978 34.2549 26.5045C34.3475 26.4113 34.4575 26.3372 34.5788 26.2865C34.7 26.2358 34.83 26.2095 34.9614 26.209C35.0928 26.2085 35.223 26.2339 35.3445 26.2838C35.4661 26.3337 35.5767 26.407 35.6699 26.4995C35.7904 26.6196 35.9039 26.7465 36.0099 26.8795L35.9999 26.9995L36.1999 27.2795L36.2899 27.4195L36.4499 27.7195L36.5199 27.8595C36.5799 27.9995 36.6399 28.1295 36.6899 28.2695L36.7399 28.4395C36.7399 28.5295 36.7999 28.6395 36.8299 28.7395V28.9695C36.8299 29.0395 36.8299 29.1195 36.8299 29.1995C36.8299 29.2795 36.8299 29.3695 36.8299 29.4595V29.9995C36.8307 30.267 36.814 30.5343 36.7799 30.7995C36.7799 30.9995 36.7799 31.1195 36.6999 31.2395V31.3495C36.6999 31.4495 36.6499 31.5695 36.6099 31.6895C36.4825 32.1191 36.3116 32.5346 36.0999 32.9295C36.0271 33.067 35.9232 33.1856 35.7964 33.2759C35.6697 33.3662 35.5237 33.4256 35.3699 33.4495Z" fill="white"/>
</svg>
