<svg width="52" height="52" viewBox="0 0 52 52" fill="none" xmlns="http://www.w3.org/2000/svg">
<path d="M30.4635 22.6739C31.1034 22.1264 31.5952 21.4266 31.8934 20.639C32.1916 19.8514 32.2868 19.0014 32.17 18.1674C32.0533 17.3333 31.7284 16.5421 31.2254 15.8667C30.7223 15.1913 30.0573 14.6534 29.2917 14.3026C28.526 13.9519 27.6844 13.7996 26.8444 13.8597C26.0043 13.9199 25.193 14.1905 24.4851 14.6468C23.7773 15.1031 23.1957 15.7303 22.794 16.4705C22.3924 17.2107 22.1835 18.0401 22.1868 18.8823C22.1928 18.0379 21.9859 17.2055 21.5852 16.4622C21.1846 15.7188 20.6032 15.0884 19.8946 14.6291C19.186 14.1697 18.3732 13.8963 17.531 13.834C16.6889 13.7717 15.8446 13.9226 15.0762 14.2727C14.3078 14.6228 13.6399 15.1609 13.1343 15.8372C12.6287 16.5135 12.3016 17.3064 12.1832 18.1425C12.0649 18.9786 12.1591 19.831 12.4571 20.6211C12.7551 21.4112 13.2474 22.1135 13.8885 22.6631C13.364 22.7319 12.8827 22.9901 12.5355 23.3893C12.1882 23.7884 11.999 24.3008 12.0035 24.8298V35.9773C12.0035 36.5519 12.2318 37.103 12.6381 37.5093C13.0444 37.9157 13.5955 38.1439 14.1702 38.1439H30.0627C30.6373 38.1439 31.1884 37.9157 31.5947 37.5093C32.0011 37.103 32.2293 36.5519 32.2293 35.9773V24.7973C32.2279 24.2932 32.0509 23.8054 31.7285 23.4178C31.4062 23.0302 30.9589 22.7672 30.4635 22.6739Z" fill="#EFC44F"/>
<path d="M27.885 25.1006H16.3367C15.4871 25.1006 14.7983 25.7893 14.7983 26.6389V34.1248C14.7983 34.9743 15.4871 35.6631 16.3367 35.6631H27.885C28.7346 35.6631 29.4233 34.9743 29.4233 34.1248V26.6389C29.4233 25.7893 28.7346 25.1006 27.885 25.1006Z" fill="#FFECB3"/>
<path d="M27.896 36.2054H16.3368C15.7852 36.2054 15.2561 35.9863 14.8661 35.5962C14.476 35.2061 14.2568 34.6771 14.2568 34.1254V26.6396C14.2568 26.0879 14.476 25.5589 14.8661 25.1688C15.2561 24.7787 15.7852 24.5596 16.3368 24.5596H27.896C28.1692 24.5596 28.4396 24.6134 28.692 24.7179C28.9443 24.8224 29.1736 24.9756 29.3668 25.1688C29.5599 25.3619 29.7131 25.5912 29.8177 25.8436C29.9222 26.0959 29.976 26.3664 29.976 26.6396V34.1362C29.9731 34.686 29.7527 35.2123 29.363 35.6C28.9732 35.9878 28.4458 36.2054 27.896 36.2054ZM16.3368 25.6429C16.0725 25.6429 15.819 25.7479 15.6321 25.9348C15.4452 26.1217 15.3402 26.3752 15.3402 26.6396V34.1362C15.3402 34.4006 15.4452 34.6541 15.6321 34.841C15.819 35.0279 16.0725 35.1329 16.3368 35.1329H27.896C28.0269 35.1329 28.1565 35.1071 28.2774 35.057C28.3983 35.0069 28.5082 34.9335 28.6008 34.841C28.6933 34.7484 28.7667 34.6386 28.8168 34.5176C28.8669 34.3967 28.8927 34.2671 28.8927 34.1362V26.6396C28.8927 26.5087 28.8669 26.3791 28.8168 26.2582C28.7667 26.1372 28.6933 26.0274 28.6008 25.9348C28.5082 25.8423 28.3983 25.7689 28.2774 25.7188C28.1565 25.6687 28.0269 25.6429 27.896 25.6429H16.3368Z" fill="#6B767C"/>
<path d="M17.1602 22.9455C19.4099 22.9455 21.2336 21.1218 21.2336 18.8722C21.2336 16.6225 19.4099 14.7988 17.1602 14.7988C14.9106 14.7988 13.0869 16.6225 13.0869 18.8722C13.0869 21.1218 14.9106 22.9455 17.1602 22.9455Z" fill="#6B767C"/>
<path d="M13.6825 17.6906C13.6825 18.3188 14.1918 18.8281 14.82 18.8281C15.4482 18.8281 15.9575 18.3188 15.9575 17.6906C15.9575 17.0624 15.4482 16.5531 14.82 16.5531C14.1918 16.5531 13.6825 17.0624 13.6825 17.6906Z" fill="white"/>
<path d="M17.225 16.5637C17.225 17.1919 17.7343 17.7012 18.3625 17.7012C18.9907 17.7012 19.5 17.1919 19.5 16.5637C19.5 15.9354 18.9907 15.4262 18.3625 15.4262C17.7343 15.4262 17.225 15.9354 17.225 16.5637Z" fill="white"/>
<path d="M18.3627 20.0529C18.3627 20.6812 18.872 21.1904 19.5002 21.1904C20.1284 21.1904 20.6377 20.6812 20.6377 20.0529C20.6377 19.4247 20.1284 18.9154 19.5002 18.9154C18.872 18.9154 18.3627 19.4247 18.3627 20.0529Z" fill="white"/>
<path d="M14.9281 21.1896C14.9281 21.8179 15.4374 22.3271 16.0656 22.3271C16.6938 22.3271 17.2031 21.8179 17.2031 21.1896C17.2031 20.5614 16.6938 20.0521 16.0656 20.0521C15.4374 20.0521 14.9281 20.5614 14.9281 21.1896Z" fill="white"/>
<path d="M17.3117 18.0918H17.0083C16.6853 18.0918 16.4233 18.3537 16.4233 18.6768V18.9801C16.4233 19.3032 16.6853 19.5651 17.0083 19.5651H17.3117C17.6348 19.5651 17.8967 19.3032 17.8967 18.9801V18.6768C17.8967 18.3537 17.6348 18.0918 17.3117 18.0918Z" fill="white"/>
<path d="M27.2027 22.9455C29.4524 22.9455 31.2761 21.1218 31.2761 18.8722C31.2761 16.6225 29.4524 14.7988 27.2027 14.7988C24.9531 14.7988 23.1294 16.6225 23.1294 18.8722C23.1294 21.1218 24.9531 22.9455 27.2027 22.9455Z" fill="#6B767C"/>
<path d="M23.7357 17.6906C23.7357 18.3188 24.245 18.8281 24.8732 18.8281C25.5015 18.8281 26.0107 18.3188 26.0107 17.6906C26.0107 17.0624 25.5015 16.5531 24.8732 16.5531C24.245 16.5531 23.7357 17.0624 23.7357 17.6906Z" fill="white"/>
<path d="M27.2675 16.5637C27.2675 17.1919 27.7768 17.7012 28.405 17.7012C29.0332 17.7012 29.5425 17.1919 29.5425 16.5637C29.5425 15.9354 29.0332 15.4262 28.405 15.4262C27.7768 15.4262 27.2675 15.9354 27.2675 16.5637Z" fill="white"/>
<path d="M28.4052 20.0529C28.4052 20.6812 28.9144 21.1904 29.5427 21.1904C30.1709 21.1904 30.6802 20.6812 30.6802 20.0529C30.6802 19.4247 30.1709 18.9154 29.5427 18.9154C28.9144 18.9154 28.4052 19.4247 28.4052 20.0529Z" fill="white"/>
<path d="M24.9818 21.1896C24.9818 21.8179 25.4911 22.3271 26.1193 22.3271C26.7476 22.3271 27.2568 21.8179 27.2568 21.1896C27.2568 20.5614 26.7476 20.0521 26.1193 20.0521C25.4911 20.0521 24.9818 20.5614 24.9818 21.1896Z" fill="white"/>
<path d="M27.3542 18.0918H27.0508C26.7277 18.0918 26.4658 18.3537 26.4658 18.6768V18.9801C26.4658 19.3032 26.7277 19.5651 27.0508 19.5651H27.3542C27.6772 19.5651 27.9392 19.3032 27.9392 18.9801V18.6768C27.9392 18.3537 27.6772 18.0918 27.3542 18.0918Z" fill="white"/>
<path d="M38.8915 37.9814L32.229 34.2655V26.498L38.8915 22.7497C39.0041 22.693 39.1293 22.6658 39.2553 22.6704C39.3813 22.6751 39.504 22.7116 39.6121 22.7764C39.7202 22.8413 39.8102 22.9325 39.8736 23.0415C39.937 23.1504 39.9719 23.2737 39.9748 23.3997V37.3314C39.9719 37.4574 39.937 37.5807 39.8736 37.6896C39.8102 37.7986 39.7202 37.8898 39.6121 37.9547C39.504 38.0195 39.3813 38.056 39.2553 38.0607C39.1293 38.0653 39.0041 38.0381 38.8915 37.9814Z" fill="#6B767C"/>
</svg>
