<svg width="48" height="48" viewBox="0 0 48 48" fill="none" xmlns="http://www.w3.org/2000/svg">
<path d="M36.48 17.39V11.11L23.64 7.25V23.71C21.9551 22.9364 20.0649 22.7294 18.2525 23.12C16.4401 23.5106 14.803 24.4777 13.5862 25.8766C12.3695 27.2754 11.6386 29.0308 11.503 30.8799C11.3674 32.7289 11.8343 34.5721 12.834 36.1336C13.8336 37.695 15.3121 38.8906 17.0482 39.5414C18.7842 40.1923 20.6843 40.2632 22.4641 39.7438C24.2438 39.2243 25.8074 38.1423 26.9207 36.6598C28.0341 35.1773 28.6373 33.374 28.64 31.52C28.64 31.26 28.64 31.01 28.64 30.75V15.25L36.48 17.39Z" fill="#E35470"/>
<path d="M26.8302 28.3596C26.8302 28.6096 26.8302 28.8696 26.8302 29.1296C26.8335 30.8012 26.3479 32.4373 25.4332 33.8364C24.5185 35.2355 23.2146 36.3366 21.682 37.0041C20.1495 37.6715 18.4552 37.8762 16.8077 37.5929C15.1603 37.3096 13.6317 36.5507 12.4102 35.4096C13.2835 37.1292 14.7106 38.5044 16.4614 39.3133C18.2122 40.1223 20.1845 40.3177 22.06 39.8682C23.9355 39.4187 25.6048 38.3504 26.7987 36.8357C27.9925 35.321 28.6413 33.4482 28.6402 31.5196C28.6402 31.2596 28.6402 31.0096 28.6402 30.7496V15.2496L36.4802 17.3896V15.5896L26.8302 12.8496V28.3596Z" fill="#BF4562"/>
</svg>
