<svg width="48" height="48" viewBox="0 0 48 48" fill="none" xmlns="http://www.w3.org/2000/svg">
<path fill-rule="evenodd" clip-rule="evenodd" d="M34.4727 19.7847L36.0805 17.8332C36.8684 16.8769 38.1168 16.4001 39.3604 16.5806C40.0791 16.685 40.5751 17.3383 40.4682 18.0399C40.441 18.2187 40.3754 18.3898 40.2758 18.5421L39.6719 19.4653C38.7523 20.8711 36.8393 21.283 35.3991 20.3854C35.383 20.3753 35.3669 20.3651 35.3509 20.3548L34.4727 19.7847Z" fill="#8F3ABF"/>
<path fill-rule="evenodd" clip-rule="evenodd" d="M14.2786 19.7847L12.6708 17.8332C11.8829 16.8769 10.6345 16.4001 9.39089 16.5806C8.67215 16.685 8.17615 17.3383 8.28305 18.0399C8.31028 18.2187 8.37586 18.3898 8.47551 18.5421L9.07939 19.4653C9.99899 20.8711 11.912 21.283 13.3522 20.3854C13.3684 20.3753 13.3844 20.3651 13.4003 20.3548L14.2786 19.7847Z" fill="#8F3ABF"/>
<path fill-rule="evenodd" clip-rule="evenodd" d="M11.2947 28.7891H12.8295C13.6298 28.7891 14.2785 29.4223 14.2785 30.2034V34.5862C14.2785 35.3674 13.6298 36.0006 12.8295 36.0006H11.2947C10.4944 36.0006 9.8457 35.3674 9.8457 34.5862V30.2034C9.8457 29.4223 10.4944 28.7891 11.2947 28.7891Z" fill="#393939"/>
<path fill-rule="evenodd" clip-rule="evenodd" d="M35.9217 28.7891H37.4565C38.2568 28.7891 38.9055 29.4223 38.9055 30.2034V34.5862C38.9055 35.3674 38.2568 36.0006 37.4565 36.0006H35.9217C35.1214 36.0006 34.4727 35.3674 34.4727 34.5862V30.2034C34.4727 29.4223 35.1214 28.7891 35.9217 28.7891Z" fill="#393939"/>
<path fill-rule="evenodd" clip-rule="evenodd" d="M8.74376 23.0195H39.8618L40.7199 31.1019C40.8098 31.9488 40.2363 32.7273 39.3853 32.9139C34.3839 34.01 29.3484 34.558 24.2789 34.558C19.2104 34.558 14.2295 34.0102 9.33606 32.9146C8.49832 32.727 7.93086 31.9648 8.0068 31.1291L8.74376 23.0195Z" fill="url(#paint0_linear)"/>
<path fill-rule="evenodd" clip-rule="evenodd" d="M11.5006 19.3071L8.86084 23.0567C13.6881 24.6343 18.9318 25.4231 24.5919 25.4231C30.252 25.4231 35.3516 24.6343 39.8907 23.0567L37.3841 19.3071C35.6318 15.3079 34.1312 12.9236 32.8824 12.1541C31.0093 11 27.4961 11 24.5919 11C21.6877 11 17.8003 11.2584 16.1645 12.1541C15.074 12.7513 13.5194 15.1356 11.5006 19.3071Z" fill="url(#paint1_linear)"/>
<path fill-rule="evenodd" clip-rule="evenodd" d="M11.3232 19.2326C14.5195 20.154 18.8782 20.6148 24.3993 20.6148C29.9204 20.6148 34.2632 20.1614 37.4277 19.2548L35.0517 14.7949C34.3962 13.5644 33.1766 12.7148 31.7713 12.5095C29.267 12.1438 26.8312 11.9609 24.4641 11.9609C22.0795 11.9609 19.6991 12.1465 17.3229 12.5176C16.0355 12.7187 14.9038 13.4622 14.2284 14.5507L11.3232 19.2326Z" fill="url(#paint2_linear)"/>
<path fill-rule="evenodd" clip-rule="evenodd" d="M18.9576 30.2305H29.3008C29.7089 30.2305 30.0396 30.5534 30.0396 30.9516C30.0396 31.3499 29.7089 31.6728 29.3008 31.6728H18.9576C18.5495 31.6728 18.2188 31.3499 18.2188 30.9516C18.2188 30.5534 18.5495 30.2305 18.9576 30.2305Z" fill="#C88D3E"/>
<path fill-rule="evenodd" clip-rule="evenodd" d="M13.3389 28.3078C15.7989 28.3078 16.2487 27.7164 16.2487 26.8407C16.2487 25.965 15.7952 24.9424 13.0472 24.9424C10.2992 24.9424 9.8457 25.965 9.8457 26.8407C9.8457 27.7164 10.879 28.3078 13.3389 28.3078Z" fill="#F8F8F8"/>
<path fill-rule="evenodd" clip-rule="evenodd" d="M35.9957 28.3078C38.4556 28.3078 38.9054 27.7164 38.9054 26.8407C38.9054 25.965 38.4519 24.9424 35.7039 24.9424C32.956 24.9424 32.5024 25.965 32.5024 26.8407C32.5024 27.7164 33.5357 28.3078 35.9957 28.3078Z" fill="#F8F8F8"/>
<defs>
<linearGradient id="paint0_linear" x1="41.3847" y1="29.0448" x2="11.0604" y2="22.6558" gradientUnits="userSpaceOnUse">
<stop stop-color="#DCA635"/>
<stop offset="1" stop-color="#F6D058"/>
</linearGradient>
<linearGradient id="paint1_linear" x1="8.92782" y1="17.2307" x2="34.818" y2="24.5887" gradientUnits="userSpaceOnUse">
<stop stop-color="#FDF700"/>
<stop offset="1" stop-color="#FFF986"/>
</linearGradient>
<linearGradient id="paint2_linear" x1="33.9824" y1="16.1112" x2="18.1093" y2="18.8493" gradientUnits="userSpaceOnUse">
<stop stop-color="#4F479D"/>
<stop offset="1" stop-color="#272264"/>
</linearGradient>
</defs>
</svg>
