<svg width="56" height="59" viewBox="0 0 56 59" fill="none" xmlns="http://www.w3.org/2000/svg">
<g filter="url(#filter0_d)">
<mask id="path-1-outside-1" maskUnits="userSpaceOnUse" x="6" y="6" width="44" height="47" fill="black">
<rect fill="white" x="6" y="6" width="44" height="47"/>
<path fill-rule="evenodd" clip-rule="evenodd" d="M36.11 18.0044H45C45.2652 18.0044 45.5196 18.1098 45.7071 18.2973C45.8946 18.4848 46 18.7392 46 19.0044V23.0044C46 23.2696 45.8946 23.524 45.7071 23.7115C45.5196 23.899 45.2652 24.0044 45 24.0044H11C10.7348 24.0044 10.4804 23.899 10.2929 23.7115C10.1054 23.524 10 23.2696 10 23.0044V19.0044C10 18.7392 10.1054 18.4848 10.2929 18.2973C10.4804 18.1098 10.7348 18.0044 11 18.0044H19.89C19.4435 17.6468 19.0555 17.2217 18.74 16.7444C18.3306 16.0866 18.1069 15.3301 18.0928 14.5554C18.0787 13.7807 18.2747 13.0167 18.66 12.3444C20 9.7444 22 9.9044 22.75 10.0944C24.77 10.5644 26.72 12.8344 28 15.0344C29.25 12.8344 31.25 10.5644 33.25 10.0944C34.05 9.9044 36 9.7444 37.34 12.3344C37.7253 13.0067 37.9213 13.7707 37.9072 14.5454C37.8931 15.3201 37.6694 16.0766 37.26 16.7344C36.9454 17.2152 36.5573 17.6437 36.11 18.0044ZM21.0978 14.4171C21.0889 14.6794 21.1557 14.9388 21.29 15.1644C21.88 16.1244 23.75 17.0044 25.82 17.3144C24.9 15.5444 23.18 13.2344 22 12.9944H21.97C21.85 12.9944 21.64 13.0744 21.34 13.6844C21.1907 13.9004 21.1067 14.1547 21.0978 14.4171ZM30.15 17.3244C32.25 16.9644 34.12 16.1644 34.71 15.1644C34.838 14.9372 34.8984 14.6781 34.8842 14.4177C34.8701 14.1573 34.7819 13.9064 34.63 13.6944C34.33 13.0844 34.12 13.0044 34 13.0044C32.79 13.2444 31.07 15.5544 30.15 17.3244ZM12 47.0044V27.0044C12 26.7392 12.1054 26.4848 12.2929 26.2973C12.4804 26.1098 12.7348 26.0044 13 26.0044H24V48.0044H13C12.7348 48.0044 12.4804 47.899 12.2929 47.7115C12.1054 47.524 12 47.2696 12 47.0044ZM26 48.0142V26.0142H30V48.0142H26ZM43 26.0044H32V48.0044H43C43.2652 48.0044 43.5196 47.899 43.7071 47.7115C43.8946 47.524 44 47.2696 44 47.0044V27.0044C44 26.7392 43.8946 26.4848 43.7071 26.2973C43.5196 26.1098 43.2652 26.0044 43 26.0044Z"/>
</mask>
<path fill-rule="evenodd" clip-rule="evenodd" d="M36.11 18.0044H45C45.2652 18.0044 45.5196 18.1098 45.7071 18.2973C45.8946 18.4848 46 18.7392 46 19.0044V23.0044C46 23.2696 45.8946 23.524 45.7071 23.7115C45.5196 23.899 45.2652 24.0044 45 24.0044H11C10.7348 24.0044 10.4804 23.899 10.2929 23.7115C10.1054 23.524 10 23.2696 10 23.0044V19.0044C10 18.7392 10.1054 18.4848 10.2929 18.2973C10.4804 18.1098 10.7348 18.0044 11 18.0044H19.89C19.4435 17.6468 19.0555 17.2217 18.74 16.7444C18.3306 16.0866 18.1069 15.3301 18.0928 14.5554C18.0787 13.7807 18.2747 13.0167 18.66 12.3444C20 9.7444 22 9.9044 22.75 10.0944C24.77 10.5644 26.72 12.8344 28 15.0344C29.25 12.8344 31.25 10.5644 33.25 10.0944C34.05 9.9044 36 9.7444 37.34 12.3344C37.7253 13.0067 37.9213 13.7707 37.9072 14.5454C37.8931 15.3201 37.6694 16.0766 37.26 16.7344C36.9454 17.2152 36.5573 17.6437 36.11 18.0044ZM21.0978 14.4171C21.0889 14.6794 21.1557 14.9388 21.29 15.1644C21.88 16.1244 23.75 17.0044 25.82 17.3144C24.9 15.5444 23.18 13.2344 22 12.9944H21.97C21.85 12.9944 21.64 13.0744 21.34 13.6844C21.1907 13.9004 21.1067 14.1547 21.0978 14.4171ZM30.15 17.3244C32.25 16.9644 34.12 16.1644 34.71 15.1644C34.838 14.9372 34.8984 14.6781 34.8842 14.4177C34.8701 14.1573 34.7819 13.9064 34.63 13.6944C34.33 13.0844 34.12 13.0044 34 13.0044C32.79 13.2444 31.07 15.5544 30.15 17.3244ZM12 47.0044V27.0044C12 26.7392 12.1054 26.4848 12.2929 26.2973C12.4804 26.1098 12.7348 26.0044 13 26.0044H24V48.0044H13C12.7348 48.0044 12.4804 47.899 12.2929 47.7115C12.1054 47.524 12 47.2696 12 47.0044ZM26 48.0142V26.0142H30V48.0142H26ZM43 26.0044H32V48.0044H43C43.2652 48.0044 43.5196 47.899 43.7071 47.7115C43.8946 47.524 44 47.2696 44 47.0044V27.0044C44 26.7392 43.8946 26.4848 43.7071 26.2973C43.5196 26.1098 43.2652 26.0044 43 26.0044Z" fill="url(#paint0_linear)"/>
<path d="M36.11 18.0044L33.5993 14.8905L24.7761 22.0044H36.11V18.0044ZM10.2929 23.7115L13.1213 20.8831L10.2929 23.7115ZM10.2929 18.2973L13.1213 21.1257L10.2929 18.2973ZM19.89 18.0044V22.0044H31.2829L22.3905 14.8823L19.89 18.0044ZM18.74 16.7444L15.3441 18.8581L15.373 18.9045L15.4031 18.9501L18.74 16.7444ZM18.66 12.3444L22.1305 14.3333L22.1748 14.256L22.2156 14.1769L18.66 12.3444ZM22.75 10.0944L21.7677 13.9719L21.8055 13.9815L21.8435 13.9903L22.75 10.0944ZM28 15.0344L24.5426 17.046L28.0411 23.059L31.4778 17.0104L28 15.0344ZM33.25 10.0944L34.1651 13.9883L34.1743 13.9861L33.25 10.0944ZM37.34 12.3344L33.7873 14.1725L33.8268 14.2487L33.8695 14.3233L37.34 12.3344ZM37.26 16.7344L40.607 18.9247L40.6319 18.8867L40.6559 18.8481L37.26 16.7344ZM21.29 15.1644L17.8534 17.2113L17.8676 17.2352L17.8821 17.2588L21.29 15.1644ZM25.82 17.3144L25.2276 21.2703L32.9883 22.4325L29.3692 15.4696L25.82 17.3144ZM22 12.9944L22.7972 9.07465L22.4027 8.9944H22V12.9944ZM21.34 13.6844L24.6306 15.9586L24.7988 15.7152L24.9294 15.4497L21.34 13.6844ZM34.71 15.1644L38.1551 17.197L38.1756 17.1622L38.1954 17.1271L34.71 15.1644ZM30.15 17.3244L26.6008 15.4796L22.8852 22.6281L30.8259 21.2669L30.15 17.3244ZM34.63 13.6944L31.0406 15.4597L31.1861 15.7556L31.3782 16.0237L34.63 13.6944ZM34 13.0044V9.0044H33.6071L33.2218 9.08084L34 13.0044ZM24 26.0044H28V22.0044H24V26.0044ZM24 48.0044V52.0044H28V48.0044H24ZM26 26.0142V22.0142H22V26.0142H26ZM26 48.0142H22V52.0142H26V48.0142ZM30 26.0142H34V22.0142H30V26.0142ZM30 48.0142V52.0142H34V48.0142H30ZM32 26.0044V22.0044H28V26.0044H32ZM32 48.0044H28V52.0044H32V48.0044ZM45 14.0044H36.11V22.0044H45V14.0044ZM48.5355 15.4689C47.5979 14.5312 46.3261 14.0044 45 14.0044V22.0044C44.2043 22.0044 43.4413 21.6883 42.8787 21.1257L48.5355 15.4689ZM50 19.0044C50 17.6783 49.4732 16.4066 48.5355 15.4689L42.8787 21.1257C42.3161 20.5631 42 19.8 42 19.0044H50ZM50 23.0044V19.0044H42V23.0044H50ZM48.5355 26.5399C49.4732 25.6022 50 24.3305 50 23.0044H42C42 22.2088 42.3161 21.4457 42.8787 20.8831L48.5355 26.5399ZM45 28.0044C46.3261 28.0044 47.5978 27.4776 48.5355 26.5399L42.8787 20.8831C43.4413 20.3205 44.2043 20.0044 45 20.0044V28.0044ZM11 28.0044H45V20.0044H11V28.0044ZM7.46447 26.5399C8.40215 27.4776 9.67392 28.0044 11 28.0044V20.0044C11.7956 20.0044 12.5587 20.3205 13.1213 20.8831L7.46447 26.5399ZM6 23.0044C6 24.3305 6.52678 25.6023 7.46447 26.5399L13.1213 20.8831C13.6839 21.4457 14 22.2088 14 23.0044H6ZM6 19.0044V23.0044H14V19.0044H6ZM7.46447 15.4689C6.52679 16.4065 6 17.6783 6 19.0044H14C14 19.8001 13.6839 20.5631 13.1213 21.1257L7.46447 15.4689ZM11 14.0044C9.67391 14.0044 8.40215 14.5312 7.46447 15.4689L13.1213 21.1257C12.5587 21.6883 11.7957 22.0044 11 22.0044V14.0044ZM19.89 14.0044H11V22.0044H19.89V14.0044ZM15.4031 18.9501C15.948 19.7745 16.6182 20.5087 17.3895 21.1265L22.3905 14.8823C22.2687 14.7848 22.1629 14.6688 22.0769 14.5387L15.4031 18.9501ZM14.0935 14.6282C14.1207 16.1252 14.5529 17.5869 15.3441 18.8581L22.1359 14.6307C22.1082 14.5862 22.0931 14.5351 22.0922 14.4827L14.0935 14.6282ZM15.1895 10.3555C14.445 11.6546 14.0663 13.1311 14.0935 14.6282L22.0922 14.4827C22.0912 14.4304 22.1045 14.3787 22.1305 14.3333L15.1895 10.3555ZM23.7323 6.21689C22.8633 5.99676 21.3417 5.80158 19.6278 6.38975C17.7936 7.01925 16.1978 8.39048 15.1044 10.5119L22.2156 14.1769C22.3554 13.9056 22.4465 13.8319 22.4295 13.8471C22.4076 13.8668 22.3369 13.918 22.2247 13.9566C22.1228 13.9915 22.0332 14.0004 21.969 14.0002C21.9107 14 21.8493 13.9926 21.7677 13.9719L23.7323 6.21689ZM31.4574 13.0228C30.6893 11.7027 29.6821 10.29 28.4829 9.08919C27.3349 7.93964 25.7038 6.67483 23.6565 6.19847L21.8435 13.9903C21.8162 13.984 22.1701 14.0892 22.8221 14.7421C23.4229 15.3438 24.0307 16.1661 24.5426 17.046L31.4574 13.0228ZM32.3349 6.20048C30.3092 6.67653 28.676 7.93296 27.5232 9.07941C26.3157 10.2802 25.2927 11.7023 24.5222 13.0584L31.4778 17.0104C31.9573 16.1665 32.5593 15.3536 33.1643 14.7519C33.824 14.0958 34.1908 13.9823 34.1651 13.9883L32.3349 6.20048ZM40.8927 10.4963C39.8088 8.4013 38.236 7.02388 36.3949 6.38988C34.6695 5.7957 33.1498 6.00694 32.3257 6.20266L34.1743 13.9861C34.1469 13.9927 34.1083 13.9998 34.0539 14C33.995 14.0002 33.9009 13.9921 33.7901 13.9539C33.6688 13.9122 33.5925 13.8564 33.5685 13.8348C33.5507 13.8188 33.6434 13.8943 33.7873 14.1725L40.8927 10.4963ZM41.9065 14.6182C41.9337 13.1211 41.555 11.6446 40.8105 10.3455L33.8695 14.3233C33.8955 14.3687 33.9088 14.4204 33.9078 14.4727L41.9065 14.6182ZM40.6559 18.8481C41.4471 17.5769 41.8793 16.1152 41.9065 14.6182L33.9078 14.4727C33.9069 14.5251 33.8918 14.5762 33.8641 14.6207L40.6559 18.8481ZM38.6207 21.1183C39.3933 20.4954 40.0636 19.7552 40.607 18.9247L33.913 14.5441C33.8272 14.6752 33.7213 14.7921 33.5993 14.8905L38.6207 21.1183ZM24.7266 13.1175C24.9845 13.5504 25.1125 14.0484 25.0955 14.5521L17.1001 14.282C17.0653 15.3105 17.3268 16.3273 17.8534 17.2113L24.7266 13.1175ZM26.4124 13.3585C25.7268 13.2558 25.1238 13.063 24.7116 12.8679C24.5083 12.7716 24.4076 12.7013 24.3861 12.6848C24.3476 12.6554 24.5115 12.7668 24.6979 13.07L17.8821 17.2588C18.7801 18.7199 20.2301 19.5974 21.2884 20.0984C22.4762 20.6608 23.8432 21.063 25.2276 21.2703L26.4124 13.3585ZM21.2028 16.9141C20.8452 16.8414 20.6136 16.7234 20.5272 16.6755C20.4333 16.6235 20.4043 16.5947 20.4405 16.6242C20.5203 16.6891 20.6933 16.8526 20.938 17.1455C21.4274 17.7311 21.9309 18.5052 22.2708 19.1592L29.3692 15.4696C28.7891 14.3536 27.9726 13.0877 27.077 12.0158C26.6292 11.48 26.0935 10.9103 25.4901 10.4193C24.9547 9.9835 24.0248 9.32432 22.7972 9.07465L21.2028 16.9141ZM21.97 16.9944H22V8.9944H21.97V16.9944ZM24.9294 15.4497C24.976 15.3548 24.8406 15.6787 24.4254 16.0593C24.1945 16.2709 23.8527 16.5225 23.3897 16.7137C22.9059 16.9134 22.4176 16.9944 21.97 16.9944V8.9944C19.3416 8.9944 18.1371 11.1332 17.7506 11.9191L24.9294 15.4497ZM25.0955 14.5521C25.0785 15.0558 24.9171 15.544 24.6306 15.9586L18.0494 11.4102C17.4644 12.2567 17.1348 13.2535 17.1001 14.282L25.0955 14.5521ZM31.2649 13.1318C31.3655 12.9614 31.4622 12.8472 31.5226 12.7832C31.5833 12.7189 31.6224 12.6894 31.6234 12.6886C31.6253 12.6872 31.603 12.7042 31.5494 12.7353C31.4965 12.7661 31.422 12.8056 31.3236 12.8509C30.9034 13.0444 30.2599 13.2472 29.4741 13.3819L30.8259 21.2669C32.1401 21.0416 33.4816 20.6644 34.6689 20.1179C35.7252 19.6316 37.2384 18.7506 38.1551 17.197L31.2649 13.1318ZM30.8901 14.6351C30.8629 14.1352 30.979 13.638 31.2246 13.2017L38.1954 17.1271C38.6969 16.2364 38.9339 15.2211 38.8783 14.2004L30.8901 14.6351ZM31.3782 16.0237C31.0867 15.6167 30.9173 15.135 30.8901 14.6351L38.8783 14.2004C38.8228 13.1797 38.4771 12.1961 37.8818 11.3651L31.3782 16.0237ZM34 17.0044C33.5524 17.0044 33.0641 16.9234 32.5804 16.7237C32.1173 16.5325 31.7755 16.2809 31.5446 16.0693C31.1294 15.6887 30.9939 15.3648 31.0406 15.4597L38.2194 11.9291C37.8329 11.1432 36.6284 9.0044 34 9.0044V17.0044ZM33.6992 19.1692C34.0391 18.5152 34.5408 17.7446 35.0289 17.1636C35.2729 16.8732 35.4449 16.7125 35.5235 16.6493C35.5589 16.6208 35.53 16.6491 35.4369 16.6998C35.3502 16.747 35.1247 16.8592 34.7782 16.928L33.2218 9.08084C31.9955 9.32407 31.0613 9.97197 30.5112 10.4142C29.8982 10.9069 29.3559 11.4793 28.9036 12.0177C27.9992 13.0942 27.1809 14.3636 26.6008 15.4796L33.6992 19.1692ZM8 27.0044V47.0044H16V27.0044H8ZM9.46447 23.4689C8.52678 24.4065 8 25.6783 8 27.0044H16C16 27.8 15.6839 28.5631 15.1213 29.1257L9.46447 23.4689ZM13 22.0044C11.6739 22.0044 10.4022 22.5312 9.46447 23.4689L15.1213 29.1257C14.5587 29.6883 13.7956 30.0044 13 30.0044V22.0044ZM24 22.0044H13V30.0044H24V22.0044ZM28 48.0044V26.0044H20V48.0044H28ZM13 52.0044H24V44.0044H13V52.0044ZM9.46445 50.5399C10.4022 51.4776 11.6739 52.0044 13 52.0044V44.0044C13.7956 44.0044 14.5587 44.3205 15.1213 44.8831L9.46445 50.5399ZM8 47.0044C8 48.3305 8.52679 49.6022 9.46445 50.5399L15.1213 44.8831C15.6839 45.4457 16 46.2087 16 47.0044H8ZM22 26.0142V48.0142H30V26.0142H22ZM30 22.0142H26V30.0142H30V22.0142ZM34 48.0142V26.0142H26V48.0142H34ZM26 52.0142H30V44.0142H26V52.0142ZM32 30.0044H43V22.0044H32V30.0044ZM36 48.0044V26.0044H28V48.0044H36ZM43 44.0044H32V52.0044H43V44.0044ZM40.8787 44.8831C41.4413 44.3205 42.2044 44.0044 43 44.0044V52.0044C44.3261 52.0044 45.5978 51.4776 46.5355 50.5399L40.8787 44.8831ZM40 47.0044C40 46.2088 40.3161 45.4457 40.8787 44.8831L46.5355 50.5399C47.4732 49.6022 48 48.3305 48 47.0044H40ZM40 27.0044V47.0044H48V27.0044H40ZM40.8787 29.1257C40.3161 28.5631 40 27.8 40 27.0044H48C48 25.6783 47.4732 24.4066 46.5355 23.4688L40.8787 29.1257ZM43 30.0044C42.2043 30.0044 41.4413 29.6883 40.8787 29.1257L46.5355 23.4688C45.5978 22.5312 44.3261 22.0044 43 22.0044V30.0044Z" fill="white" mask="url(#path-1-outside-1)"/>
</g>
<defs>
<filter id="filter0_d" x="0" y="0" width="56" height="58.0142" filterUnits="userSpaceOnUse" color-interpolation-filters="sRGB">
<feFlood flood-opacity="0" result="BackgroundImageFix"/>
<feColorMatrix in="SourceAlpha" type="matrix" values="0 0 0 0 0 0 0 0 0 0 0 0 0 0 0 0 0 0 127 0" result="hardAlpha"/>
<feOffset/>
<feGaussianBlur stdDeviation="3"/>
<feComposite in2="hardAlpha" operator="out"/>
<feColorMatrix type="matrix" values="0 0 0 0 0 0 0 0 0 0 0 0 0 0 0 0 0 0 0.25 0"/>
<feBlend mode="normal" in2="BackgroundImageFix" result="effect1_dropShadow"/>
<feBlend mode="normal" in="SourceGraphic" in2="effect1_dropShadow" result="shape"/>
</filter>
<linearGradient id="paint0_linear" x1="5.46537" y1="53.2715" x2="47.4382" y2="20.5708" gradientUnits="userSpaceOnUse">
<stop stop-color="#21A038"/>
<stop offset="0.429605" stop-color="#00D900"/>
<stop offset="1" stop-color="#FAED00"/>
</linearGradient>
</defs>
</svg>
