<svg width="119" height="50" viewBox="0 0 119 50" fill="none" xmlns="http://www.w3.org/2000/svg">
<g clip-path="url(#clip0)">
<path d="M59.25 41.1301C27 41.1301 0.74 35.5901 0 25.4301C0 25.6001 0 25.7701 0 25.9401C0 38.4301 26.53 49.5001 59.25 49.5001C91.97 49.5001 118.5 38.4301 118.5 25.9401C118.5 25.7701 118.5 25.6001 118.5 25.4301C117.76 35.5901 91.53 41.1301 59.25 41.1301Z" fill="#D1702F"/>
<path d="M118.5 25C118.435 23.31 117.84 21.6832 116.8 20.35C117.755 21.8808 118.325 23.6205 118.46 25.42C118.48 25.29 118.5 25.15 118.5 25Z" fill="#EE8D45"/>
<path d="M116.8 20.36C113.53 14.87 105.69 9.60998 95 5.81998C94.186 7.7113 93.1414 9.4948 91.89 11.13C90.5156 12.9566 88.8895 14.5794 87.06 15.95C84.7563 17.6889 82.2996 19.2152 79.72 20.51C78.0226 17.6494 77.4455 14.2612 78.1 11C78.64 8.16001 79.8426 5.48758 81.61 3.19998C81.85 2.88998 82.12 2.60998 82.38 2.30998C76.3794 1.08428 70.2896 0.345211 64.17 0.0999756C64.34 0.869976 64.46 1.59998 64.57 2.31998C64.838 4.34978 64.7772 6.40951 64.39 8.41998C64.0213 10.361 63.3462 12.231 62.39 13.96C61.08 16.2857 59.5389 18.4734 57.79 20.49C57.0716 20.098 56.4006 19.6249 55.79 19.08C55.2092 18.5871 54.6859 18.0303 54.23 17.42C53.3661 16.2893 52.6907 15.0263 52.23 13.68C51.3842 11.182 51.2151 8.50452 51.74 5.91998C52.1234 3.84134 52.9301 1.86374 54.11 0.109976C46.5397 0.421486 39.0208 1.50375 31.67 3.33998C32.507 4.91982 33.1387 6.60008 33.55 8.33998C33.9848 10.3084 34.1263 12.3302 33.97 14.34C33.97 14.88 33.84 15.47 33.77 16.05C33.7 16.63 33.59 17.25 33.47 17.9C33.1868 19.4003 32.7821 20.8752 32.26 22.31C29.2637 21.8779 26.5122 20.4137 24.48 18.17C22.6669 16.2052 21.4195 13.7864 20.87 11.17C20.5588 9.78964 20.441 8.37275 20.52 6.95998C11.36 10.61 4.66 15.39 1.7 20.36C0.73047 21.8871 0.147025 23.6271 0 25.43C0.74 35.59 27 41.13 59.25 41.13C91.5 41.13 117.76 35.59 118.47 25.43C118.332 23.6297 117.759 21.8898 116.8 20.36Z" fill="#EE8D45"/>
<path d="M20.8601 11.1401C21.4096 13.7565 22.657 16.1753 24.4701 18.1401C26.5023 20.3838 29.2539 21.848 32.2501 22.2801C32.7722 20.8453 33.1769 19.3704 33.4601 17.8701C33.5901 17.2201 33.7001 16.6001 33.7601 16.0201C33.8201 15.4401 33.9301 14.8501 33.9601 14.3101C34.1165 12.3003 33.9749 10.2784 33.5401 8.31006C33.1288 6.57016 32.4971 4.8899 31.6601 3.31006C27.867 4.26698 24.142 5.47634 20.5101 6.93006C20.4312 8.34283 20.549 9.75972 20.8601 11.1401Z" fill="#FAA75A"/>
<path d="M52.1198 13.69C52.5805 15.0363 53.2559 16.2993 54.1198 17.43C54.5756 18.0403 55.099 18.5971 55.6798 19.09C56.2903 19.6349 56.9614 20.108 57.6798 20.5C59.4514 18.4961 61.016 16.3184 62.3498 14C63.306 12.2711 63.9811 10.401 64.3498 8.46C64.737 6.44953 64.7978 4.3898 64.5298 2.36C64.4298 1.64 64.2998 0.9 64.1298 0.14C62.5298 0.0466667 60.9031 0 59.2498 0C57.5964 0 55.8831 0.0366667 54.1098 0.11C52.8897 1.85775 52.0453 3.83945 51.6298 5.93C51.1049 8.51454 51.2739 11.192 52.1198 13.69Z" fill="#FAA75A"/>
<path d="M78.1001 10.9999C77.4674 14.2489 78.0548 17.6171 79.7501 20.4599C82.3297 19.1651 84.7865 17.6389 87.0901 15.8999C88.9196 14.5294 90.5458 12.9066 91.9201 11.0799C93.1575 9.4588 94.1919 7.69234 95.0001 5.81995C90.8693 4.36267 86.6425 3.19321 82.3501 2.31995C82.0901 2.60995 81.8201 2.89995 81.5801 3.20995C79.8249 5.49751 78.6327 8.16615 78.1001 10.9999Z" fill="#FAA75A"/>
<path d="M32.2502 22.4799C32.6602 20.8999 32.8802 19.2999 33.1302 17.6999C33.2102 16.8999 33.3502 16.1199 33.3902 15.3199C33.481 14.5266 33.5211 13.7284 33.5102 12.9299C33.5264 11.3414 33.3722 9.75562 33.0502 8.19995C32.7063 6.62324 32.2416 5.07533 31.6602 3.56995C32.6025 4.92601 33.3279 6.42059 33.8102 7.99995C34.29 9.59874 34.526 11.2608 34.5102 12.9299C34.4823 14.5876 34.2745 16.2373 33.8902 17.8499C33.5424 19.4567 32.9913 21.0125 32.2502 22.4799Z" fill="#FFD18F"/>
<path d="M57.75 20.7299C58.81 19.1899 59.83 17.6399 60.75 16.0599C61.7179 14.5128 62.5254 12.871 63.16 11.1599C63.7682 9.44675 64.1514 7.66183 64.3 5.84995C64.373 4.9352 64.393 4.017 64.36 3.09995C64.36 2.17995 64.19 1.25995 64.15 0.319946C64.41 1.21995 64.67 2.11995 64.85 3.04995C65.0061 3.98513 65.083 4.93182 65.08 5.87995C65.0635 7.79279 64.7255 9.68924 64.08 11.4899C63.7569 12.39 63.3623 13.2628 62.9 14.0999C62.42 14.9199 61.9 15.7099 61.38 16.4799C60.3144 18.0138 59.0983 19.4375 57.75 20.7299Z" fill="#FFD18F"/>
<path d="M79.75 20.73C81.26 19.73 82.75 18.73 84.23 17.73C85.689 16.7108 87.0911 15.6125 88.43 14.44C89.734 13.2419 90.9288 11.9301 92 10.52C93.1086 9.08827 94.1112 7.5776 95 6C93.8688 9.51008 91.8218 12.6549 89.07 15.11C86.3134 17.5106 83.1596 19.4123 79.75 20.73Z" fill="#FFD18F"/>
</g>
<defs>
<clipPath id="clip0">
<rect width="118.5" height="49.5" fill="white"/>
</clipPath>
</defs>
</svg>
