<svg width="123" height="83" viewBox="0 0 123 83" fill="none" xmlns="http://www.w3.org/2000/svg">
<path d="M13.67 0H109.28C111.077 0.00131012 112.856 0.356858 114.515 1.0463C116.175 1.73575 117.682 2.74556 118.95 4.01799C120.219 5.29042 121.224 6.80048 121.909 8.46181C122.594 10.1231 122.944 11.9031 122.94 13.7V66.15C122.94 67.4761 122.413 68.7479 121.476 69.6855C120.538 70.6232 119.266 71.15 117.94 71.15H5.00003C3.67395 71.15 2.40218 70.6232 1.4645 69.6855C0.526817 68.7479 3.29218e-05 67.4761 3.29218e-05 66.15V13.7C-0.00391228 11.9023 0.346762 10.1215 1.03198 8.4595C1.71719 6.79752 2.72349 5.28701 3.99326 4.01445C5.26303 2.74189 6.77133 1.73229 8.43181 1.04343C10.0923 0.354573 11.8723 -4.32901e-06 13.67 0Z" fill="#EFC44F"/>
<path d="M58.4902 17.7402C58.4902 14.9567 56.2337 12.7002 53.4502 12.7002C50.6666 12.7002 48.4102 14.9567 48.4102 17.7402V39.6102C48.4102 42.3937 50.6666 44.6502 53.4502 44.6502C56.2337 44.6502 58.4902 42.3937 58.4902 39.6102V17.7402Z" fill="#D5D5D5"/>
<path d="M74.8398 17.7402C74.8398 14.9567 72.5833 12.7002 69.7998 12.7002C67.0163 12.7002 64.7598 14.9567 64.7598 17.7402V39.6102C64.7598 42.3937 67.0163 44.6502 69.7998 44.6502C72.5833 44.6502 74.8398 42.3937 74.8398 39.6102V17.7402Z" fill="#D5D5D5"/>
<path d="M35.1395 12.7002H29.0595C26.276 12.7002 24.0195 14.9567 24.0195 17.7402V39.6102C24.0195 42.3937 26.276 44.6502 29.0595 44.6502H35.1395C37.923 44.6502 40.1795 42.3937 40.1795 39.6102V17.7402C40.1795 14.9567 37.923 12.7002 35.1395 12.7002Z" fill="#D5D5D5"/>
<path d="M93.7694 12.7002H88.1094C85.2099 12.7002 82.8594 15.0507 82.8594 17.9502V39.4002C82.8594 42.2997 85.2099 44.6502 88.1094 44.6502H93.7694C96.6689 44.6502 99.0194 42.2997 99.0194 39.4002V17.9502C99.0194 15.0507 96.6689 12.7002 93.7694 12.7002Z" fill="#D5D5D5"/>
<path d="M73.8497 8.51953H49.5997C47.1586 8.51953 45.1797 10.4984 45.1797 12.9395V62.0995C45.1797 64.5406 47.1586 66.5195 49.5997 66.5195H73.8497C76.2908 66.5195 78.2697 64.5406 78.2697 62.0995V12.9395C78.2697 10.4984 76.2908 8.51953 73.8497 8.51953Z" stroke="#BB8411" stroke-miterlimit="10"/>
<path d="M61.7197 66.5195V8.51953" stroke="#BB8411" stroke-miterlimit="10"/>
<path d="M14.9405 71.1203C14.889 69.1305 15.2364 67.1505 15.9623 65.297C16.6882 63.4436 17.7778 61.7543 19.1669 60.3287C20.5561 58.9031 22.2167 57.77 24.0507 56.9964C25.8847 56.2228 27.855 55.8242 29.8455 55.8242C31.8361 55.8242 33.8064 56.2228 35.6404 56.9964C37.4744 57.77 39.135 58.9031 40.5241 60.3287C41.9133 61.7543 43.0029 63.4436 43.7288 65.297C44.4547 67.1505 44.8021 69.1305 44.7505 71.1203H14.9405Z" fill="#91745E"/>
<path d="M29.8097 82.4603C36.0726 82.4603 41.1497 77.3832 41.1497 71.1203C41.1497 64.8574 36.0726 59.7803 29.8097 59.7803C23.5468 59.7803 18.4697 64.8574 18.4697 71.1203C18.4697 77.3832 23.5468 82.4603 29.8097 82.4603Z" fill="#454240"/>
<path d="M29.8101 78.3496C33.8031 78.3496 37.0401 75.1127 37.0401 71.1196C37.0401 67.1266 33.8031 63.8896 29.8101 63.8896C25.8171 63.8896 22.5801 67.1266 22.5801 71.1196C22.5801 75.1127 25.8171 78.3496 29.8101 78.3496Z" fill="#FFF4E6"/>
<path d="M29.8095 69.0702C30.7981 69.0702 31.5995 68.2688 31.5995 67.2802C31.5995 66.2916 30.7981 65.4902 29.8095 65.4902C28.8209 65.4902 28.0195 66.2916 28.0195 67.2802C28.0195 68.2688 28.8209 69.0702 29.8095 69.0702Z" fill="#D5D5D5"/>
<path d="M29.8095 77.2499C30.7981 77.2499 31.5995 76.4485 31.5995 75.4599C31.5995 74.4713 30.7981 73.6699 29.8095 73.6699C28.8209 73.6699 28.0195 74.4713 28.0195 75.4599C28.0195 76.4485 28.8209 77.2499 29.8095 77.2499Z" fill="#D5D5D5"/>
<path d="M25.7197 72.9101C26.7083 72.9101 27.5097 72.1087 27.5097 71.1201C27.5097 70.1315 26.7083 69.3301 25.7197 69.3301C24.7311 69.3301 23.9297 70.1315 23.9297 71.1201C23.9297 72.1087 24.7311 72.9101 25.7197 72.9101Z" fill="#D5D5D5"/>
<path d="M33.8994 72.9101C34.888 72.9101 35.6894 72.1087 35.6894 71.1201C35.6894 70.1315 34.888 69.3301 33.8994 69.3301C32.9108 69.3301 32.1094 70.1315 32.1094 71.1201C32.1094 72.1087 32.9108 72.9101 33.8994 72.9101Z" fill="#D5D5D5"/>
<path d="M78.2305 71.1196C78.3311 67.2334 79.9457 63.5402 82.7299 60.8271C85.5142 58.114 89.248 56.5957 93.1355 56.5957C97.023 56.5957 100.757 58.114 103.541 60.8271C106.325 63.5402 107.94 67.2334 108.04 71.1196H78.2305Z" fill="#91745E"/>
<path d="M93.13 82.4603C99.393 82.4603 104.47 77.3832 104.47 71.1203C104.47 64.8574 99.393 59.7803 93.13 59.7803C86.8671 59.7803 81.79 64.8574 81.79 71.1203C81.79 77.3832 86.8671 82.4603 93.13 82.4603Z" fill="#454240"/>
<path d="M93.1304 78.3496C97.1234 78.3496 100.36 75.1127 100.36 71.1196C100.36 67.1266 97.1234 63.8896 93.1304 63.8896C89.1374 63.8896 85.9004 67.1266 85.9004 71.1196C85.9004 75.1127 89.1374 78.3496 93.1304 78.3496Z" fill="#FFF4E6"/>
<path d="M93.1298 69.0702C94.1184 69.0702 94.9198 68.2688 94.9198 67.2802C94.9198 66.2916 94.1184 65.4902 93.1298 65.4902C92.1413 65.4902 91.3398 66.2916 91.3398 67.2802C91.3398 68.2688 92.1413 69.0702 93.1298 69.0702Z" fill="#D5D5D5"/>
<path d="M93.1298 77.2499C94.1184 77.2499 94.9198 76.4485 94.9198 75.4599C94.9198 74.4713 94.1184 73.6699 93.1298 73.6699C92.1413 73.6699 91.3398 74.4713 91.3398 75.4599C91.3398 76.4485 92.1413 77.2499 93.1298 77.2499Z" fill="#D5D5D5"/>
<path d="M89.04 72.9101C90.0286 72.9101 90.83 72.1087 90.83 71.1201C90.83 70.1315 90.0286 69.3301 89.04 69.3301C88.0514 69.3301 87.25 70.1315 87.25 71.1201C87.25 72.1087 88.0514 72.9101 89.04 72.9101Z" fill="#D5D5D5"/>
<path d="M97.2197 72.9101C98.2083 72.9101 99.0097 72.1087 99.0097 71.1201C99.0097 70.1315 98.2083 69.3301 97.2197 69.3301C96.2311 69.3301 95.4297 70.1315 95.4297 71.1201C95.4297 72.1087 96.2311 72.9101 97.2197 72.9101Z" fill="#D5D5D5"/>
<path d="M122.68 12.7002H106.51C105.188 12.7132 103.924 13.2442 102.989 14.1791C102.054 15.1139 101.523 16.3781 101.51 17.7002V39.6102C101.51 42.3802 106.51 44.6102 106.51 44.6102C111.725 47.1699 117.247 49.0518 122.94 50.2102V15.5602C122.942 14.6009 122.855 13.6434 122.68 12.7002Z" fill="#D5D5D5"/>
<path d="M0.289766 12.7002H16.4598C17.7818 12.7132 19.046 13.2442 19.9809 14.1791C20.9158 15.1139 21.4467 16.3781 21.4598 17.7002V39.6102C21.4598 42.3802 16.4598 44.6102 16.4598 44.6102C11.2361 47.1577 5.70783 49.0262 0.00976562 50.1702V15.5602C0.014276 14.6002 0.108013 13.6428 0.289766 12.7002Z" fill="#D5D5D5"/>
<path d="M53.4502 44.7002C54.2264 44.7002 54.992 44.5195 55.6863 44.1723C56.3805 43.8252 56.9845 43.3212 57.4502 42.7002H49.4502C49.9159 43.3212 50.5198 43.8252 51.2141 44.1723C51.9084 44.5195 52.674 44.7002 53.4502 44.7002Z" fill="#6B767C"/>
<path d="M53.4499 12.7002C52.7311 12.703 52.0213 12.8608 51.369 13.1628C50.7167 13.4648 50.1372 13.9039 49.6699 14.4502H57.2399C56.7716 13.9026 56.1904 13.4628 55.5363 13.1607C54.8821 12.8587 54.1704 12.7016 53.4499 12.7002Z" fill="#6B767C"/>
<path d="M69.7998 44.7002C70.576 44.7002 71.3416 44.5195 72.0359 44.1723C72.7302 43.8252 73.3341 43.3212 73.7998 42.7002H65.7998C66.2655 43.3212 66.8695 43.8252 67.5637 44.1723C68.258 44.5195 69.0236 44.7002 69.7998 44.7002Z" fill="#6B767C"/>
<path d="M69.7995 12.7002C69.0807 12.703 68.3709 12.8608 67.7186 13.1628C67.0663 13.4648 66.4868 13.9039 66.0195 14.4502H73.5895C73.1212 13.9026 72.5401 13.4628 71.8859 13.1607C71.2318 12.8587 70.52 12.7016 69.7995 12.7002Z" fill="#6B767C"/>
<path d="M29.1296 44.7002H35.2196C35.9959 44.7002 36.7614 44.5195 37.4557 44.1723C38.15 43.8252 38.7539 43.3212 39.2196 42.7002H29.7396C29.4744 42.7002 29.2201 42.5948 29.0325 42.4073C28.845 42.2198 28.7396 41.9654 28.7396 41.7002V15.4302C28.7396 15.165 28.845 14.9106 29.0325 14.7231C29.2201 14.5356 29.4744 14.4302 29.7396 14.4302H38.9996C38.5305 13.8876 37.9502 13.4522 37.298 13.1537C36.6457 12.8552 35.9369 12.7006 35.2196 12.7002H29.1296C28.4084 12.7028 27.6962 12.8615 27.042 13.1653C26.3878 13.4691 25.807 13.9108 25.3396 14.4602C25.589 14.4827 25.8208 14.5979 25.9893 14.7831C26.1577 14.9682 26.2507 15.2099 26.2496 15.4602V41.7002C26.2496 41.9654 26.1443 42.2198 25.9568 42.4073C25.7692 42.5948 25.5149 42.7002 25.2496 42.7002H25.1396C25.6044 43.3198 26.2067 43.823 26.8991 44.1701C27.5915 44.5172 28.3551 44.6986 29.1296 44.7002Z" fill="#6B767C"/>
<path d="M93.9395 44.7002H87.9395C87.1632 44.7002 86.3977 44.5195 85.7034 44.1724C85.0091 43.8252 84.4052 43.3212 83.9395 42.7002H93.3995C93.6647 42.7002 93.919 42.5949 94.1066 42.4073C94.2941 42.2198 94.3995 41.9654 94.3995 41.7002V15.4302C94.3995 15.165 94.2941 14.9107 94.1066 14.7231C93.919 14.5356 93.6647 14.4302 93.3995 14.4302H84.1395C84.6108 13.885 85.1943 13.4482 85.8502 13.1496C86.5061 12.851 87.2188 12.6977 87.9395 12.7002H93.9395C94.6607 12.7029 95.3729 12.8615 96.0271 13.1653C96.6813 13.4691 97.2621 13.9109 97.7295 14.4602C97.4801 14.4828 97.2483 14.598 97.0798 14.7831C96.9114 14.9683 96.8184 15.2099 96.8195 15.4602V41.7002C96.8195 41.9654 96.9248 42.2198 97.1123 42.4073C97.2999 42.5949 97.5542 42.7002 97.8195 42.7002H97.9395C97.4737 43.3212 96.8698 43.8252 96.1755 44.1724C95.4812 44.5195 94.7157 44.7002 93.9395 44.7002Z" fill="#6B767C"/>
<path d="M50.9395 43.9397L49.5095 36.8297C49.3769 36.1738 48.9928 35.5959 48.4395 35.2197V39.6197C48.4412 40.4957 48.6731 41.3558 49.1119 42.114C49.5506 42.8722 50.1808 43.5017 50.9395 43.9397Z" fill="#B57B2D"/>
<path d="M21.4998 39.6096V37.2896L21.4098 36.8296C21.2108 36.2365 20.8024 35.7365 20.261 35.423C19.7197 35.1096 19.0827 35.0044 18.4693 35.1271C17.8559 35.2497 17.3084 35.5919 16.9292 36.0894C16.5501 36.5869 16.3654 37.2056 16.4098 37.8296L17.6598 44.0396C19.1098 43.1896 21.4998 41.5196 21.4998 39.6096Z" fill="#B57B2D"/>
<path d="M5.33994 34.8097C4.67957 34.9473 4.09975 35.3389 3.72559 35.9002C3.35142 36.4614 3.21291 37.1473 3.33994 37.8097L5.54994 48.8097C7.20994 48.3297 8.84994 47.8097 10.4599 47.1897L8.35994 36.8297C8.22712 36.1615 7.83439 35.5733 7.26809 35.1946C6.70179 34.8158 6.00826 34.6774 5.33994 34.8097Z" fill="#B57B2D"/>
<path d="M99.0198 39.62V39.2L98.5398 36.83C98.5139 36.4661 98.4108 36.1118 98.2374 35.7908C98.064 35.4698 97.8242 35.1894 97.534 34.9683C97.2438 34.7471 96.9099 34.5903 96.5544 34.5083C96.1989 34.4262 95.83 34.4207 95.4722 34.4923C95.1145 34.5638 94.776 34.7108 94.4795 34.9232C94.1829 35.1357 93.935 35.4089 93.7521 35.7247C93.5693 36.0404 93.4558 36.3915 93.4192 36.7545C93.3826 37.1175 93.4237 37.4841 93.5398 37.83L94.8898 44.56C96.0498 44.355 97.1002 43.747 97.8558 42.8433C98.6114 41.9395 99.0236 40.798 99.0198 39.62Z" fill="#B57B2D"/>
<path d="M82.8598 34.7794V39.6194C82.844 40.8164 83.2582 41.9793 84.0271 42.8968C84.796 43.8144 85.8685 44.4256 87.0498 44.6194L85.4898 36.8794C85.3773 36.2716 85.0494 35.7247 84.5664 35.339C84.0833 34.9533 83.4775 34.7546 82.8598 34.7794Z" fill="#B57B2D"/>
<path d="M6.53988 57.4004H5.99988C4.96711 57.4004 4.12988 58.2376 4.12988 59.2704V61.8104C4.12988 62.8432 4.96711 63.6804 5.99988 63.6804H6.53988C7.57266 63.6804 8.40988 62.8432 8.40988 61.8104V59.2704C8.40988 58.2376 7.57266 57.4004 6.53988 57.4004Z" fill="#FF215A"/>
<path d="M116.819 54.1602C115.558 54.1602 114.349 54.6611 113.457 55.5529C112.565 56.4446 112.064 57.654 112.064 58.9152C112.064 60.1763 112.565 61.3857 113.457 62.2775C114.349 63.1692 115.558 63.6702 116.819 63.6702" fill="#453B29"/>
<path d="M117.09 54.1602H116.55C115.517 54.1602 114.68 54.9974 114.68 56.0302V61.8002C114.68 62.8329 115.517 63.6702 116.55 63.6702H117.09C118.122 63.6702 118.96 62.8329 118.96 61.8002V56.0302C118.96 54.9974 118.122 54.1602 117.09 54.1602Z" fill="#FFF4E6"/>
<path d="M106.51 44.7002C111.73 47.2288 117.251 49.0805 122.94 50.2102V42.7002H103.33C104.306 43.4922 105.374 44.1637 106.51 44.7002Z" fill="#6B767C"/>
<path d="M121.43 12.7002C121.428 13.6278 121.06 14.5171 120.407 15.1758C119.754 15.8345 118.868 16.2097 117.94 16.2202H112.94C112.013 16.2097 111.127 15.8345 110.473 15.1758C109.82 14.5171 109.453 13.6278 109.45 12.7002" fill="#91745E"/>
<path d="M37.8696 43.8501L36.4596 36.8501C36.2606 36.2571 35.8522 35.757 35.3109 35.4436C34.7695 35.1301 34.1325 35.0249 33.5191 35.1476C32.9057 35.2702 32.3582 35.6124 31.979 36.1099C31.5999 36.6074 31.4152 37.2261 31.4596 37.8501L32.7996 44.7001H35.1796C36.1393 44.6808 37.0731 44.3857 37.8696 43.8501Z" fill="#B57B2D"/>
</svg>
