<svg width="39" height="33" viewBox="0 0 39 33" fill="none" xmlns="http://www.w3.org/2000/svg">
<path d="M4.96022 12.7652C5.63599 12.7607 6.30533 12.8999 6.92603 13.174C7.54672 13.4481 8.10531 13.8512 8.56656 14.3577C8.94987 14.7692 9.25742 15.2484 9.47434 15.7722C9.9704 17.0187 10.4665 18.2856 10.903 19.5626C10.903 19.6339 10.903 19.7509 11.0121 19.756C11.1212 19.7611 11.1163 19.6695 11.1609 19.6135C11.8753 18.6977 12.5945 17.7768 13.3386 16.8813C13.8347 16.2911 14.3307 15.706 14.8268 15.1311C16.4009 13.3096 18.0429 11.5543 19.7526 9.86513C21.4746 8.14551 23.2968 6.53478 25.2093 5.04182C26.4721 4.05494 27.7979 3.15577 29.1777 2.35033C30.5038 1.57836 31.9097 0.960594 33.3694 0.508518C34.058 0.306488 34.7614 0.16186 35.4727 0.0760484C36.071 -0.00680302 36.6754 -0.0323527 37.2783 -0.000269859C37.6365 0.0117968 37.9923 0.0629644 38.3399 0.152367C38.4617 0.193807 38.5796 0.246602 38.6921 0.310091C39.0195 0.477991 39.0641 0.717121 38.826 1.00204C38.7219 1.12327 38.6036 1.23092 38.4738 1.32258C38.1593 1.54074 37.8274 1.73136 37.4817 1.89242C36.9658 2.15699 36.4516 2.44361 35.939 2.75227C34.8751 3.39516 33.8558 4.11256 32.8882 4.89936C31.5304 5.99684 30.246 7.1867 29.0438 8.46088C27.8781 9.69214 26.7768 11.0048 25.7202 12.3124C24.0981 14.3476 22.5851 16.4743 21.1317 18.6468C19.6782 20.8193 18.2645 23.0733 16.8904 25.3272C16.2505 26.3804 15.6354 27.4438 15.0004 28.497C14.537 29.2807 14.0232 30.032 13.4626 30.7458C13.0405 31.2968 12.5521 31.7908 12.0092 32.2162C11.3786 32.696 10.6166 32.9595 9.8315 32.9692C9.34054 32.982 8.85051 32.9185 8.37805 32.781C7.53736 32.5348 6.79635 32.0174 6.26485 31.3055C5.73234 30.604 5.25464 29.8606 4.83621 29.0821C4.17149 27.8915 3.57126 26.6297 2.97599 25.3628L1.36381 21.8013C1.11578 21.2756 0.856177 20.7481 0.584999 20.219C0.112889 19.3576 -0.091344 18.3688 -0.000347886 17.385C0.0959236 16.3136 0.52086 15.3011 1.2134 14.493C1.90594 13.6849 2.83042 13.1227 3.85401 12.8873C4.21669 12.8016 4.58806 12.7606 4.96022 12.7652Z" fill="#21A038"/>
</svg>
