<svg width="20" height="20" viewBox="0 0 20 20" fill="none" xmlns="http://www.w3.org/2000/svg">
<path fill-rule="evenodd" clip-rule="evenodd" d="M10 0C4.48 0 0 4.48 0 10C0 15.52 4.48 20 10 20C15.52 20 20 15.52 20 10C20 4.48 15.52 0 10 0ZM10 18C5.59 18 2 14.41 2 10C2 5.59 5.59 2 10 2C14.41 2 18 5.59 18 10C18 14.41 14.41 18 10 18ZM8 12.17L13.88 6.29C14.27 5.9 14.91 5.9 15.3 6.29C15.69 6.68 15.69 7.31 15.3 7.7L8.71 14.29C8.32 14.68 7.69 14.68 7.3 14.29L4.71 11.7C4.32 11.31 4.32 10.68 4.71 10.29C4.89683 10.1027 5.15048 9.99751 5.415 9.99751C5.67952 9.99751 5.93317 10.1027 6.12 10.29L8 12.17Z" fill="url(#paint0_linear)"/>
<defs>
<linearGradient id="paint0_linear" x1="8.70504" y1="20" x2="18.7272" y2="8.55291" gradientUnits="userSpaceOnUse">
<stop stop-color="#21A038"/>
<stop offset="1" stop-color="#00D900"/>
</linearGradient>
</defs>
</svg>
