<svg width="68" height="60" viewBox="0 0 68 60" fill="none" xmlns="http://www.w3.org/2000/svg">
<g clip-path="url(#clip0)">
<path d="M0 25.76V59L65.75 48C67.7454 37.0977 67.83 25.9314 66 15L65.79 13.79L0 25.76Z" fill="#F7BE26"/>
<path d="M20 -1.77883e-07L15.12 6.29C15.5516 8.35313 15.1682 10.5033 14.05 12.29C12.37 15.19 9.57 16.8 7.38 16.29L0 25.76L65.75 13.76C50.5 -0.74 20 -1.77883e-07 20 -1.77883e-07Z" fill="#FEEB7D"/>
<path d="M25.1299 40.4799C27.661 40.4293 30.1395 41.2051 32.1899 42.6899C32.2807 42.3649 32.3079 42.0253 32.2699 41.6899C31.9699 39.2599 28.2699 37.6899 23.9199 38.2399C19.5699 38.7899 16.3399 41.1699 16.6399 43.5999C16.6591 43.7355 16.6892 43.8692 16.7299 43.9999C18.3499 41.8999 21.4999 40.4799 25.1299 40.4799Z" fill="#DE9100"/>
<path d="M25.0002 46.9999C28.7202 46.5499 31.6502 44.6999 32.2002 42.6399C30.1498 41.1551 27.6713 40.3793 25.1402 40.4299C21.5102 40.4299 18.3602 41.8499 16.7402 43.9499C17.3702 46.1899 20.9202 47.5399 25.0002 46.9999Z" fill="#E79F03"/>
<path d="M35.1102 18.0001C36.9562 17.9624 38.7643 18.5276 40.2602 19.6101C40.3271 19.3729 40.3475 19.125 40.3202 18.8801C40.1002 17.1101 37.3802 15.9801 34.2302 16.3601C31.0802 16.7401 28.7102 18.4901 28.9202 20.2701C28.9319 20.3715 28.952 20.4719 28.9802 20.5701C29.7482 19.7149 30.6965 19.0409 31.7565 18.5965C32.8165 18.1521 33.9619 17.9484 35.1102 18.0001Z" fill="#DE9100"/>
<path d="M35.0002 21.55C32.5302 21.85 30.3402 21.21 29.4002 20.07C29.2472 20.2175 29.1036 20.3745 28.9702 20.54C29.4402 22.14 32.0302 23.12 34.9702 22.76C37.6802 22.43 39.8202 21.08 40.2202 19.58C40.0702 19.47 39.9102 19.36 39.7502 19.25C38.5169 20.5927 36.8184 21.4151 35.0002 21.55Z" fill="#FEEB7D"/>
<path d="M35.0002 21.5501C36.8275 21.4253 38.5378 20.6059 39.7802 19.2601C38.3732 18.4086 36.7544 17.9718 35.1102 18.0001C33.0114 17.9335 30.9685 18.6826 29.4102 20.0901C30.3602 21.2101 32.5502 21.8501 35.0002 21.5501Z" fill="#E79F03"/>
<path d="M10.12 50.9001C10.9979 50.8776 11.8589 51.1446 12.57 51.6601C12.5926 51.5445 12.5926 51.4256 12.57 51.3101C12.47 50.4701 11.17 49.9301 9.67997 50.1101C8.18997 50.2901 7.05997 51.1101 7.15997 51.9701C7.15625 52.0167 7.15625 52.0635 7.15997 52.1101C7.531 51.6993 7.9897 51.3772 8.50208 51.1678C9.01447 50.9583 9.56742 50.8668 10.12 50.9001Z" fill="#DE9100"/>
<path d="M10.0702 53.18C10.5829 53.1765 11.0851 53.0342 11.5235 52.7684C11.9619 52.5025 12.3201 52.123 12.5602 51.67C11.8491 51.1545 10.9881 50.8875 10.1102 50.91C9.56512 50.8855 9.0214 50.9823 8.51821 51.1932C8.01502 51.4042 7.56488 51.7241 7.2002 52.13C7.4302 52.88 8.6602 53.35 10.0702 53.18Z" fill="#E79F03"/>
<path d="M58.3098 23.71C60.3955 24.0187 62.2825 25.118 63.5798 26.78C63.7057 26.4605 63.7799 26.1229 63.7998 25.78C63.9498 23.34 61.2098 21.34 57.6898 21.31C54.1698 21.28 51.1998 23.24 51.0498 25.68C51.0407 25.8165 51.0407 25.9535 51.0498 26.09C51.9616 25.114 53.1051 24.3841 54.3743 23.9681C55.6434 23.552 56.9971 23.4632 58.3098 23.71Z" fill="#DE9100"/>
<path d="M57.1701 30.17C60.1701 30.17 62.8201 28.74 63.5901 26.78C62.2928 25.118 60.4058 24.0187 58.3201 23.71C57.008 23.4705 55.6567 23.5657 54.3911 23.987C53.1256 24.4082 51.9868 25.1419 51.0801 26.12C51.2301 28.37 53.8501 30.15 57.1701 30.17Z" fill="#E79F03"/>
<path d="M48.1198 42.6C48.6733 42.6069 49.2185 42.736 49.7163 42.9781C50.2142 43.2201 50.6524 43.569 50.9998 44C51.026 43.7874 51.026 43.5725 50.9998 43.36C50.948 42.9753 50.8135 42.6064 50.6056 42.2786C50.3978 41.9508 50.1214 41.6718 49.7955 41.4609C49.4697 41.25 49.102 41.1121 48.7178 41.0567C48.3336 41.0013 47.942 41.0297 47.5698 41.14C46.7409 41.2637 45.9834 41.6792 45.4335 42.3116C44.8835 42.944 44.5773 43.7519 44.5698 44.59C44.5653 44.6766 44.5653 44.7634 44.5698 44.85C44.8849 44.1751 45.3867 43.6046 46.0158 43.2058C46.6449 42.8071 47.375 42.5969 48.1198 42.6Z" fill="#DE9100"/>
<path d="M48.0599 46.83C48.775 46.7022 49.4361 46.365 49.9595 45.8613C50.4829 45.3575 50.845 44.7097 50.9999 44C50.6523 43.5627 50.2117 43.2084 49.7101 42.9628C49.2085 42.7172 48.6584 42.5864 48.0999 42.58C47.3711 42.5966 46.6615 42.8171 46.0517 43.2166C45.4419 43.6161 44.9563 44.1785 44.6499 44.84C44.7356 45.1989 44.8931 45.5368 45.113 45.8331C45.3329 46.1295 45.6106 46.3782 45.9293 46.5642C46.2481 46.7502 46.6012 46.8696 46.9674 46.9153C47.3336 46.961 47.7052 46.932 48.0599 46.83Z" fill="#E79F03"/>
<path d="M60.7102 37.32C61.0335 37.3235 61.352 37.399 61.6425 37.5408C61.9331 37.6826 62.1885 37.8873 62.3902 38.14C62.4052 38.0171 62.4052 37.8929 62.3902 37.77C62.3607 37.5455 62.2828 37.33 62.1617 37.1386C62.0406 36.9472 61.8793 36.7845 61.689 36.6618C61.4986 36.539 61.2839 36.4592 61.0596 36.4278C60.8353 36.3964 60.6069 36.4142 60.3902 36.48C59.9078 36.5457 59.4659 36.7851 59.1475 37.1533C58.829 37.5215 58.6557 37.9932 58.6602 38.48C58.6575 38.53 58.6575 38.58 58.6602 38.63C58.8414 38.2389 59.1306 37.9077 59.4939 37.6756C59.8571 37.4435 60.2791 37.3201 60.7102 37.32Z" fill="#DE9100"/>
<path d="M60.68 39.77C61.0932 39.6993 61.4763 39.5077 61.7807 39.2193C62.085 38.9309 62.2971 38.5588 62.39 38.15C62.1883 37.8972 61.9329 37.6926 61.6423 37.5507C61.3518 37.4089 61.0333 37.3335 60.71 37.33C60.2875 37.3395 59.8761 37.4673 59.5225 37.6988C59.169 37.9304 58.8875 38.2564 58.71 38.64C58.762 38.8454 58.8548 39.0382 58.9829 39.207C59.1109 39.3758 59.2716 39.5171 59.4554 39.6225C59.6392 39.7279 59.8424 39.7953 60.0527 39.8207C60.2631 39.846 60.4764 39.8287 60.68 39.77Z" fill="#E79F03"/>
</g>
<defs>
<clipPath id="clip0">
<rect width="67.29" height="59.01" fill="white"/>
</clipPath>
</defs>
</svg>
