<svg width="59" height="60" viewBox="0 0 59 60" fill="none" xmlns="http://www.w3.org/2000/svg">
<g filter="url(#filter0_d)">
<mask id="path-1-outside-1" maskUnits="userSpaceOnUse" x="6" y="6" width="47" height="48" fill="black">
<rect fill="white" x="6" y="6" width="47" height="48"/>
<path fill-rule="evenodd" clip-rule="evenodd" d="M35.5 17.2515V28.2378H44C46.3375 28.2378 48.25 30.1503 48.25 32.4878V45.2378C48.25 47.5753 46.3375 49.4878 44 49.4878H14.25C11.9125 49.4878 10 47.5753 10 45.2378V23.9878C10 21.6503 11.9125 19.7378 14.25 19.7378H22.75V17.2515C22.75 16.1253 23.1962 15.0415 24.0037 14.234L27.6162 10.6215C28.0133 10.2236 28.5523 10 29.1144 10C29.6765 10 30.2155 10.2236 30.6125 10.6215L34.2463 14.2553C35.0537 15.0415 35.5 16.1253 35.5 17.2515ZM14.25 45.2378H18.5V40.9878H14.25V45.2378ZM18.5 36.7378H14.25V32.4878H18.5V36.7378ZM14.25 28.2378H18.5V23.9878H14.25V28.2378ZM31.25 45.2378H27V40.9878H31.25V45.2378ZM27 36.7378H31.25V32.4878H27V36.7378ZM31.25 28.2378H27V23.9878H31.25V28.2378ZM27 19.7378H31.25V15.4878H27V19.7378ZM44 45.2378H39.75V40.9878H44V45.2378ZM39.75 36.7378H44V32.4878H39.75V36.7378Z"/>
</mask>
<path fill-rule="evenodd" clip-rule="evenodd" d="M35.5 17.2515V28.2378H44C46.3375 28.2378 48.25 30.1503 48.25 32.4878V45.2378C48.25 47.5753 46.3375 49.4878 44 49.4878H14.25C11.9125 49.4878 10 47.5753 10 45.2378V23.9878C10 21.6503 11.9125 19.7378 14.25 19.7378H22.75V17.2515C22.75 16.1253 23.1962 15.0415 24.0037 14.234L27.6162 10.6215C28.0133 10.2236 28.5523 10 29.1144 10C29.6765 10 30.2155 10.2236 30.6125 10.6215L34.2463 14.2553C35.0537 15.0415 35.5 16.1253 35.5 17.2515ZM14.25 45.2378H18.5V40.9878H14.25V45.2378ZM18.5 36.7378H14.25V32.4878H18.5V36.7378ZM14.25 28.2378H18.5V23.9878H14.25V28.2378ZM31.25 45.2378H27V40.9878H31.25V45.2378ZM27 36.7378H31.25V32.4878H27V36.7378ZM31.25 28.2378H27V23.9878H31.25V28.2378ZM27 19.7378H31.25V15.4878H27V19.7378ZM44 45.2378H39.75V40.9878H44V45.2378ZM39.75 36.7378H44V32.4878H39.75V36.7378Z" fill="url(#paint0_linear)"/>
<path d="M35.5 28.2378H31.5V32.2378H35.5V28.2378ZM22.75 19.7378V23.7378H26.75V19.7378H22.75ZM24.0037 14.234L26.8322 17.0625L26.8322 17.0625L24.0037 14.234ZM27.6162 10.6215L30.4447 13.45L30.4479 13.4468L27.6162 10.6215ZM30.6125 10.6215L27.7809 13.4468L27.7841 13.45L30.6125 10.6215ZM34.2463 14.2553L31.4178 17.0837L31.4367 17.1026L31.4558 17.1212L34.2463 14.2553ZM18.5 45.2378V49.2378H22.5V45.2378H18.5ZM14.25 45.2378H10.25V49.2378H14.25V45.2378ZM18.5 40.9878H22.5V36.9878H18.5V40.9878ZM14.25 40.9878V36.9878H10.25V40.9878H14.25ZM14.25 36.7378H10.25V40.7378H14.25V36.7378ZM18.5 36.7378V40.7378H22.5V36.7378H18.5ZM14.25 32.4878V28.4878H10.25V32.4878H14.25ZM18.5 32.4878H22.5V28.4878H18.5V32.4878ZM18.5 28.2378V32.2378H22.5V28.2378H18.5ZM14.25 28.2378H10.25V32.2378H14.25V28.2378ZM18.5 23.9878H22.5V19.9878H18.5V23.9878ZM14.25 23.9878V19.9878H10.25V23.9878H14.25ZM27 45.2378H23V49.2378H27V45.2378ZM31.25 45.2378V49.2378H35.25V45.2378H31.25ZM27 40.9878V36.9878H23V40.9878H27ZM31.25 40.9878H35.25V36.9878H31.25V40.9878ZM31.25 36.7378V40.7378H35.25V36.7378H31.25ZM27 36.7378H23V40.7378H27V36.7378ZM31.25 32.4878H35.25V28.4878H31.25V32.4878ZM27 32.4878V28.4878H23V32.4878H27ZM27 28.2378H23V32.2378H27V28.2378ZM31.25 28.2378V32.2378H35.25V28.2378H31.25ZM27 23.9878V19.9878H23V23.9878H27ZM31.25 23.9878H35.25V19.9878H31.25V23.9878ZM31.25 19.7378V23.7378H35.25V19.7378H31.25ZM27 19.7378H23V23.7378H27V19.7378ZM31.25 15.4878H35.25V11.4878H31.25V15.4878ZM27 15.4878V11.4878H23V15.4878H27ZM39.75 45.2378H35.75V49.2378H39.75V45.2378ZM44 45.2378V49.2378H48V45.2378H44ZM39.75 40.9878V36.9878H35.75V40.9878H39.75ZM44 40.9878H48V36.9878H44V40.9878ZM44 36.7378V40.7378H48V36.7378H44ZM39.75 36.7378H35.75V40.7378H39.75V36.7378ZM44 32.4878H48V28.4878H44V32.4878ZM39.75 32.4878V28.4878H35.75V32.4878H39.75ZM39.5 28.2378V17.2515H31.5V28.2378H39.5ZM44 24.2378H35.5V32.2378H44V24.2378ZM52.25 32.4878C52.25 27.9411 48.5466 24.2378 44 24.2378V32.2378C44.0563 32.2378 44.1157 32.2572 44.1731 32.3146C44.2306 32.3721 44.25 32.4315 44.25 32.4878H52.25ZM52.25 45.2378V32.4878H44.25V45.2378H52.25ZM44 53.4878C48.5466 53.4878 52.25 49.7844 52.25 45.2378H44.25C44.25 45.2941 44.2306 45.3535 44.1731 45.4109C44.1157 45.4684 44.0563 45.4878 44 45.4878V53.4878ZM14.25 53.4878H44V45.4878H14.25V53.4878ZM6 45.2378C6 49.7844 9.70336 53.4878 14.25 53.4878V45.4878C14.1937 45.4878 14.1343 45.4684 14.0769 45.4109C14.0194 45.3535 14 45.2941 14 45.2378H6ZM6 23.9878V45.2378H14V23.9878H6ZM14.25 15.7378C9.70336 15.7378 6 19.4411 6 23.9878H14C14 23.9315 14.0194 23.8721 14.0769 23.8146C14.1343 23.7572 14.1937 23.7378 14.25 23.7378V15.7378ZM22.75 15.7378H14.25V23.7378H22.75V15.7378ZM18.75 17.2515V19.7378H26.75V17.2515H18.75ZM21.1753 11.4056C19.6187 12.9622 18.75 15.063 18.75 17.2515H26.75C26.75 17.1876 26.7738 17.1208 26.8322 17.0625L21.1753 11.4056ZM24.7878 7.79311L21.1753 11.4056L26.8322 17.0625L30.4447 13.45L24.7878 7.79311ZM29.1144 6C27.4898 6 25.9321 6.64629 24.7846 7.79629L30.4479 13.4468C30.0945 13.801 29.6147 14 29.1144 14V6ZM33.4441 7.79629C32.2967 6.64628 30.7389 6 29.1144 6V14C28.614 14 28.1343 13.801 27.7809 13.4468L33.4441 7.79629ZM37.0747 11.4269L33.4409 7.7931L27.7841 13.45L31.4178 17.0837L37.0747 11.4269ZM39.5 17.2515C39.5 15.0725 38.6364 12.947 37.0367 11.3894L31.4558 17.1212C31.4711 17.1361 31.5 17.178 31.5 17.2515H39.5ZM18.5 41.2378H14.25V49.2378H18.5V41.2378ZM14.5 40.9878V45.2378H22.5V40.9878H14.5ZM14.25 44.9878H18.5V36.9878H14.25V44.9878ZM18.25 45.2378V40.9878H10.25V45.2378H18.25ZM14.25 40.7378H18.5V32.7378H14.25V40.7378ZM10.25 32.4878V36.7378H18.25V32.4878H10.25ZM18.5 28.4878H14.25V36.4878H18.5V28.4878ZM22.5 36.7378V32.4878H14.5V36.7378H22.5ZM18.5 24.2378H14.25V32.2378H18.5V24.2378ZM14.5 23.9878V28.2378H22.5V23.9878H14.5ZM14.25 27.9878H18.5V19.9878H14.25V27.9878ZM18.25 28.2378V23.9878H10.25V28.2378H18.25ZM27 49.2378H31.25V41.2378H27V49.2378ZM23 40.9878V45.2378H31V40.9878H23ZM31.25 36.9878H27V44.9878H31.25V36.9878ZM35.25 45.2378V40.9878H27.25V45.2378H35.25ZM31.25 32.7378H27V40.7378H31.25V32.7378ZM27.25 32.4878V36.7378H35.25V32.4878H27.25ZM27 36.4878H31.25V28.4878H27V36.4878ZM31 36.7378V32.4878H23V36.7378H31ZM27 32.2378H31.25V24.2378H27V32.2378ZM23 23.9878V28.2378H31V23.9878H23ZM31.25 19.9878H27V27.9878H31.25V19.9878ZM35.25 28.2378V23.9878H27.25V28.2378H35.25ZM31.25 15.7378H27V23.7378H31.25V15.7378ZM27.25 15.4878V19.7378H35.25V15.4878H27.25ZM27 19.4878H31.25V11.4878H27V19.4878ZM31 19.7378V15.4878H23V19.7378H31ZM39.75 49.2378H44V41.2378H39.75V49.2378ZM35.75 40.9878V45.2378H43.75V40.9878H35.75ZM44 36.9878H39.75V44.9878H44V36.9878ZM48 45.2378V40.9878H40V45.2378H48ZM44 32.7378H39.75V40.7378H44V32.7378ZM40 32.4878V36.7378H48V32.4878H40ZM39.75 36.4878H44V28.4878H39.75V36.4878ZM43.75 36.7378V32.4878H35.75V36.7378H43.75Z" fill="white" mask="url(#path-1-outside-1)"/>
</g>
<defs>
<filter id="filter0_d" x="0" y="0" width="58.25" height="59.4878" filterUnits="userSpaceOnUse" color-interpolation-filters="sRGB">
<feFlood flood-opacity="0" result="BackgroundImageFix"/>
<feColorMatrix in="SourceAlpha" type="matrix" values="0 0 0 0 0 0 0 0 0 0 0 0 0 0 0 0 0 0 127 0" result="hardAlpha"/>
<feOffset/>
<feGaussianBlur stdDeviation="3"/>
<feComposite in2="hardAlpha" operator="out"/>
<feColorMatrix type="matrix" values="0 0 0 0 0 0 0 0 0 0 0 0 0 0 0 0 0 0 0.25 0"/>
<feBlend mode="normal" in2="BackgroundImageFix" result="effect1_dropShadow"/>
<feBlend mode="normal" in="SourceGraphic" in2="effect1_dropShadow" result="shape"/>
</filter>
<linearGradient id="paint0_linear" x1="5.18195" y1="54.9489" x2="49.0129" y2="20.0203" gradientUnits="userSpaceOnUse">
<stop stop-color="#21A038"/>
<stop offset="0.429605" stop-color="#00D900"/>
<stop offset="1" stop-color="#FAED00"/>
</linearGradient>
</defs>
</svg>
