<svg width="168" height="168" viewBox="0 0 168 168" fill="none" xmlns="http://www.w3.org/2000/svg">
<path d="M105.655 19.9453L93.1807 46.623L94.0865 47.0466L106.561 20.3689L105.655 19.9453Z" fill="#454240"/>
<path d="M92.3499 50.5499C92.1826 50.5487 92.0184 50.5055 91.8721 50.4243C91.7259 50.3431 91.6023 50.2266 91.5128 50.0853C91.4232 49.944 91.3706 49.7825 91.3596 49.6156C91.3486 49.4487 91.3796 49.2817 91.4499 49.1299L100.31 30.2299C100.426 29.9949 100.629 29.8147 100.876 29.7281C101.124 29.6415 101.395 29.6554 101.632 29.7667C101.869 29.8781 102.053 30.078 102.144 30.3236C102.236 30.5692 102.227 30.8408 102.12 31.0799L93.2599 49.9999C93.1753 50.1679 93.045 50.3086 92.8841 50.4059C92.7231 50.5032 92.538 50.5531 92.3499 50.5499Z" fill="#454240"/>
<path d="M106.62 22.0197C108.233 22.0197 109.54 20.7124 109.54 19.0997C109.54 17.487 108.233 16.1797 106.62 16.1797C105.008 16.1797 103.7 17.487 103.7 19.0997C103.7 20.7124 105.008 22.0197 106.62 22.0197Z" fill="#454240"/>
<path d="M75.3801 27.9858L74.4746 28.4102L86.0426 53.0939L86.9481 52.6696L75.3801 27.9858Z" fill="#454240"/>
<path d="M87.6697 56.3804C87.4784 56.3809 87.291 56.3265 87.1298 56.2237C86.9685 56.1209 86.84 55.974 86.7597 55.8004L78.5597 38.3104C78.4528 38.0712 78.444 37.7997 78.5353 37.5541C78.6265 37.3085 78.8104 37.1085 79.0476 36.9972C79.2847 36.8858 79.5561 36.872 79.8033 36.9586C80.0506 37.0452 80.2539 37.2254 80.3697 37.4604L88.5797 55.0004C88.65 55.1522 88.681 55.3192 88.67 55.4861C88.6591 55.653 88.6064 55.8145 88.5168 55.9558C88.4273 56.0971 88.3037 56.2136 88.1575 56.2948C88.0112 56.376 87.847 56.4192 87.6797 56.4204L87.6697 56.3804Z" fill="#454240"/>
<path d="M74.4598 29.9C75.9509 29.9 77.1598 28.6912 77.1598 27.2C77.1598 25.7088 75.9509 24.5 74.4598 24.5C72.9686 24.5 71.7598 25.7088 71.7598 27.2C71.7598 28.6912 72.9686 29.9 74.4598 29.9Z" fill="#454240"/>
<path d="M88.44 70.88C98.2099 70.88 106.13 64.7508 106.13 57.19C106.13 49.6292 98.2099 43.5 88.44 43.5C78.6701 43.5 70.75 49.6292 70.75 57.19C70.75 64.7508 78.6701 70.88 88.44 70.88Z" fill="#454240"/>
<path d="M41.6299 141.67H45.1299L55.7899 131H46.4599L41.6299 141.67Z" fill="#6B767C"/>
<path d="M123.71 141.67H120.21L109.54 131H118.88L123.71 141.67Z" fill="#6B767C"/>
<path d="M42.75 134.12L121.18 132.12C125.158 132.12 128.974 130.539 131.787 127.726C134.6 124.913 136.18 121.098 136.18 117.12V66.4996C136.167 64.5512 135.768 62.6247 135.004 60.8319C134.241 59.0391 133.13 57.4157 131.735 56.0557C130.339 54.6957 128.688 53.6263 126.876 52.9094C125.064 52.1925 123.128 51.8425 121.18 51.8796L96.63 52.2796L42 53.1696C33.75 53.1696 27.75 58.6696 27.75 76.4996V119.12C27.75 123.098 29.3304 126.913 32.1434 129.726C34.9564 132.539 38.7718 134.12 42.75 134.12Z" fill="#EFC44F"/>
<path d="M107.29 60.6699H53.79C45.5058 60.6699 38.79 67.3857 38.79 75.6699V106.34C38.79 114.624 45.5058 121.34 53.79 121.34H107.29C115.574 121.34 122.29 114.624 122.29 106.34V75.6699C122.29 67.3857 115.574 60.6699 107.29 60.6699Z" fill="#E8E8E8"/>
<path d="M34.0001 71.76C35.4526 71.76 36.6301 70.5825 36.6301 69.13C36.6301 67.6775 35.4526 66.5 34.0001 66.5C32.5476 66.5 31.3701 67.6775 31.3701 69.13C31.3701 70.5825 32.5476 71.76 34.0001 71.76Z" fill="white"/>
<path d="M34.0001 82.51C35.4526 82.51 36.6301 81.3325 36.6301 79.88C36.6301 78.4275 35.4526 77.25 34.0001 77.25C32.5476 77.25 31.3701 78.4275 31.3701 79.88C31.3701 81.3325 32.5476 82.51 34.0001 82.51Z" fill="white"/>
<path d="M34.0001 93.6301C35.4526 93.6301 36.6301 92.4526 36.6301 91.0001C36.6301 89.5476 35.4526 88.3701 34.0001 88.3701C32.5476 88.3701 31.3701 89.5476 31.3701 91.0001C31.3701 92.4526 32.5476 93.6301 34.0001 93.6301Z" fill="white"/>
<path d="M133.01 101.63H125.38V102.63H133.01V101.63Z" fill="#6B767C"/>
<path d="M133.01 103.5H125.38V104.5H133.01V103.5Z" fill="#6B767C"/>
<path d="M133.01 105.38H125.38V106.38H133.01V105.38Z" fill="#6B767C"/>
<path d="M133.01 107.25H125.38V108.25H133.01V107.25Z" fill="#6B767C"/>
<path d="M133.01 109.13H125.38V110.13H133.01V109.13Z" fill="#6B767C"/>
<path d="M133.01 111H125.38V112H133.01V111Z" fill="#6B767C"/>
<path d="M133.01 112.88H125.38V113.88H133.01V112.88Z" fill="#6B767C"/>
<path d="M111.83 66.75H98.2403C97.4339 66.75 96.7803 67.4037 96.7803 68.21V75.29C96.7803 76.0963 97.4339 76.75 98.2403 76.75H111.83C112.637 76.75 113.29 76.0963 113.29 75.29V68.21C113.29 67.4037 112.637 66.75 111.83 66.75Z" fill="#DE5673"/>
</svg>
