<svg width="244" height="230" viewBox="0 0 244 230" fill="none" xmlns="http://www.w3.org/2000/svg">
<g clip-path="url(#clip0)">
<path d="M199.785 230H216.321L215.541 227.158L208.761 217.977H200.051L199.785 230Z" fill="#454240"/>
<path d="M177.221 217.977V230.01H155.351C155.084 228.347 155.448 226.644 156.374 225.237C157.3 223.829 158.719 222.819 160.353 222.406C163.703 221.485 166.864 219.979 169.69 217.958L177.221 217.977Z" fill="#454240"/>
<path d="M148.838 31.755C149.522 33.9885 150.958 37.4577 153.507 38.7313C155.665 39.8148 157.957 42.229 159.564 44.1584C159.723 44.1531 159.879 44.1078 160.016 44.0265C160.154 43.9452 160.269 43.8306 160.35 43.6933C160.432 43.5559 160.477 43.4003 160.483 43.2407C160.488 43.0811 160.453 42.9228 160.381 42.7802L153.877 28.8086C153.686 28.399 153.413 28.0333 153.074 27.734C152.736 27.4347 152.339 27.2084 151.909 27.0692L146.955 25.482C146.777 25.4199 146.585 25.4119 146.403 25.459C146.221 25.5062 146.057 25.6063 145.931 25.7468C145.806 25.8872 145.725 26.0617 145.7 26.248C145.674 26.4344 145.704 26.6243 145.786 26.7936L147.687 30.9281C147.944 30.9194 148.195 30.9959 148.404 31.1455C148.612 31.2951 148.764 31.5094 148.838 31.755Z" fill="#454240"/>
<path d="M159.564 44.1576C157.957 42.2567 155.665 39.814 153.507 38.7305C150.968 37.4474 149.532 33.9783 148.838 31.7542C148.765 31.502 148.609 31.2819 148.395 31.1299C148.181 30.978 147.921 30.9032 147.659 30.9178C147.503 30.9135 147.347 30.9419 147.202 31.0011C147.058 31.0604 146.927 31.1493 146.819 31.2621C146.71 31.3748 146.627 31.509 146.573 31.656C146.52 31.8029 146.498 31.9594 146.508 32.1154C146.585 33.4935 147.222 35.6701 148.962 39.0822L154.106 49.176L161.713 46.9234C161.713 46.9234 160.847 45.6973 159.564 44.1576Z" fill="#FFCFA4"/>
<path d="M201.497 13.6197C203.922 14.3611 204.806 12.3841 206.042 13.1255C207.278 13.8669 203.085 19.389 203.37 19.6646C203.237 26.9356 209.161 17.6021 209.218 17.6687C209.613 17.6565 210.007 17.7211 210.378 17.8588L213.183 7.55585C213.183 7.55585 210.425 0.522499 195.117 0.0567769C179.808 -0.408945 184.657 2.55647 179.855 1.75809C175.053 0.959707 177.06 14.8933 181.377 15.6157C181.481 14.4846 181.605 13.3536 181.728 12.2321C190.79 11.4052 197.18 12.3081 201.497 13.6197Z" fill="#D39954"/>
<path d="M210.387 17.8499C210.016 17.7122 209.622 17.6476 209.227 17.6598C209.17 17.6027 203.246 26.9267 203.379 19.6557C203.085 19.3801 207.183 13.8009 206.051 13.1166C204.92 12.4323 203.931 14.3522 201.506 13.6108C197.18 12.2992 190.8 11.3773 181.738 12.2232C181.614 13.3447 181.491 14.4758 181.386 15.6068C180.511 24.7692 180.435 33.8555 185.741 36.3267C187.675 37.1975 189.836 37.4305 191.912 36.992C196.533 36.1271 200.964 32.6104 203.703 29.3218C204.253 28.6643 204.762 27.9722 205.224 27.2498C206.051 27.3065 206.876 27.107 207.585 26.6784C208.295 26.2498 208.855 25.613 209.189 24.8547C210.14 22.5166 212.536 18.7243 210.387 17.8499Z" fill="#FFCFA4"/>
<path d="M196.181 21.1568C196.764 21.1568 197.237 20.4844 197.237 19.655C197.237 18.8257 196.764 18.1533 196.181 18.1533C195.599 18.1533 195.126 18.8257 195.126 19.655C195.126 20.4844 195.599 21.1568 196.181 21.1568Z" fill="#454240"/>
<path d="M185.427 21.7085C186.01 21.7085 186.482 21.0362 186.482 20.2068C186.482 19.3774 186.01 18.7051 185.427 18.7051C184.844 18.7051 184.372 19.3774 184.372 20.2068C184.372 21.0362 184.844 21.7085 185.427 21.7085Z" fill="#454240"/>
<path d="M193.424 16.7373C193.424 16.7373 197.874 15.6158 199.386 16.7373C200.898 17.8589 198.844 14.0571 196.4 13.6579C193.956 13.2587 193.424 16.7373 193.424 16.7373Z" fill="#B57B2D"/>
<path d="M188.489 16.1004C188.489 16.1004 184.685 15.9388 183.801 17.336C182.917 18.7332 183.544 14.6367 185.361 13.7433C187.177 12.8499 188.489 16.1004 188.489 16.1004Z" fill="#B57B2D"/>
<path d="M187.519 28.7607L197.227 27.7627L193.196 31.2033C192.007 32.2203 189.012 33.1042 188.023 31.8687L187.519 28.7607Z" fill="white"/>
<path d="M189.535 27.2024C189.42 27.2016 189.306 27.1757 189.202 27.1264C188.023 26.5751 186.036 25.4726 186.036 24.199C186.043 23.9088 186.138 23.6275 186.307 23.3918C186.477 23.1562 186.714 22.9771 186.987 22.8779C188.28 22.2601 189.145 20.1786 189.364 19.4277C189.424 19.2248 189.563 19.0542 189.749 18.9535C189.936 18.8528 190.154 18.8302 190.357 18.8907C190.56 18.9512 190.731 19.0898 190.832 19.2761C190.932 19.4624 190.955 19.681 190.895 19.8839C190.895 20.017 189.887 23.2295 187.728 24.3035C188.367 24.8692 189.092 25.3281 189.877 25.6627C190.047 25.7367 190.187 25.8676 190.271 26.033C190.355 26.1984 190.379 26.388 190.338 26.5691C190.298 26.7502 190.195 26.9115 190.049 27.0254C189.902 27.1392 189.72 27.1985 189.535 27.1929V27.2024Z" fill="#EDA983"/>
<path d="M207.287 24.959C207.116 24.9612 206.949 24.9086 206.81 24.8087C206.671 24.7088 206.568 24.567 206.516 24.4042C206.464 24.2414 206.465 24.0661 206.52 23.9042C206.575 23.7423 206.681 23.6023 206.821 23.5048C208.257 22.4783 208.029 21.3948 208.01 21.3568C207.966 21.1542 208.002 20.9426 208.11 20.7657C208.218 20.5889 208.39 20.4602 208.59 20.4063C208.789 20.3566 209 20.3864 209.177 20.4893C209.355 20.5922 209.485 20.7602 209.541 20.9576C209.541 21.0431 210.121 23.1151 207.734 24.8259C207.602 24.9137 207.446 24.9601 207.287 24.959V24.959Z" fill="#EDA983"/>
<path d="M218.27 43.4166C216.986 42.1905 213.335 40.4892 203.389 39.1016V39.5673C195.649 45.346 192.397 41.9244 192.397 41.9244L191.931 39.1491L189.573 39.2536C189.573 39.2536 176.86 43.3976 163.672 61.2661L161.694 46.9238L154.087 49.1764C154.087 49.1764 145.862 88.259 162.873 79.838C176.109 73.2988 178.21 70.1243 178.496 69.0408L181.871 94.1993H199.471L199.044 93.3344L208.238 90.0458C208.5 89.9504 208.781 89.9213 209.056 89.9611C209.332 90.0009 209.593 90.1084 209.817 90.2739L211.452 91.4905C214.219 83.3755 216.427 75.0808 218.061 66.6647C221.246 69.6301 223.766 72.3674 224.565 74.4679C228.168 84.4667 213.221 92.8021 213.221 92.8021L215.123 100.805C215.123 100.805 235.804 98.6664 243.011 81.0355C250.219 63.4046 218.27 43.4166 218.27 43.4166Z" fill="#EFC44F"/>
<path d="M203.36 39.5669V39.1012L203.703 29.3115C200.974 32.6001 196.543 36.1073 191.912 36.9817L191.579 37.2003L191.912 39.1012L192.378 41.8765C192.378 41.8765 195.63 45.3457 203.36 39.5669Z" fill="#EDA983"/>
<path d="M208.058 98.5234L181.433 98.9987C180.483 110.09 178.134 137.397 177.079 147.291C175.747 159.828 169.652 217.976 169.652 217.976H177.079C177.079 217.976 187.956 177.696 187.186 159.048L194.127 112.904H197.37C197.37 112.904 198.159 149.971 200.023 162.784C201.886 175.596 200.023 217.995 200.023 217.995H208.733C208.733 217.995 213.63 177.715 212.032 163.82C210.777 152.918 210.501 116.126 210.444 100.9C209.895 100.705 209.396 100.39 208.984 99.9796C208.571 99.5687 208.255 99.0713 208.058 98.5234Z" fill="#6B767C"/>
<path d="M213.182 92.8117L211.404 91.5001L209.769 90.293C209.545 90.1275 209.284 90.02 209.008 89.9802C208.733 89.9404 208.452 89.9695 208.19 90.0649L199.034 93.363L199.462 94.2279L200.355 96.0527C200.566 96.4715 200.876 96.832 201.26 97.1022C201.643 97.3724 202.087 97.5441 202.552 97.602L207.953 98.2293C207.979 98.3355 208.01 98.4402 208.048 98.5429C208.246 99.0973 208.565 99.6003 208.983 100.015C209.401 100.429 209.907 100.745 210.463 100.938C211.96 101.383 213.559 101.35 215.037 100.843L213.182 92.8117Z" fill="#FFCFA4"/>
<path d="M181.852 94.209L181.462 98.9613C181.709 96.0148 181.871 94.209 181.871 94.209H181.852Z" fill="#B57B2D"/>
<path d="M207.963 98.2104L202.562 97.5831C202.096 97.5252 201.653 97.3535 201.269 97.0833C200.886 96.8131 200.576 96.4526 200.365 96.0339L199.471 94.209H197.237L196.828 98.7236L191.37 98.8187L191.846 94.209H181.861C181.861 94.209 181.709 96.0148 181.453 98.9613L208.077 98.486C208.034 98.3961 207.996 98.3041 207.963 98.2104Z" fill="#B57B2D"/>
<path d="M196.818 98.7236L197.237 94.209H191.836L191.36 98.8187L196.818 98.7236Z" fill="#FFF4E6"/>
<path d="M36.8931 6.7391C36.8931 6.7391 21.803 -5.0275 17.6858 15.7874C13.7112 35.88 23.3909 70.8281 21.5843 80.9219C21.5256 81.2435 21.4462 81.561 21.3466 81.8724C18.6271 90.4264 32.7569 50.7641 29.0961 29.9206C26.272 13.7629 36.8931 6.7391 36.8931 6.7391Z" fill="#EFC44F"/>
<path d="M66.1797 79.5621L66.8073 79.372C69.1464 78.6591 77.2667 76.1594 78.3602 75.4561C79.5868 74.6387 81.5075 76.6822 78.3602 78.1934L86.1572 80.6931C86.1572 80.6931 78.2746 85.74 76.1732 86.1202C71.2002 87.0231 67.6155 86.2628 68.1765 86.2152L66.1797 79.5621Z" fill="#FFDBBD"/>
<path d="M39.2612 230H22.6592L23.4389 227.149L30.247 217.93H37.6067L39.2612 230Z" fill="#454240"/>
<path d="M60.4365 217.93V230.01H82.4109C82.4109 230.01 83.4188 227.415 77.3903 225.619C71.3619 223.822 68.2811 217.93 68.2811 217.93H60.4365Z" fill="#454240"/>
<path d="M21.3467 107.116L21.3847 106.974L21.3467 107.116Z" fill="#FFCFA4"/>
<path d="M62.0435 154.077C62.5285 139.716 55.1498 104.987 55.1498 104.987V105.148V104.987L33.0328 104.036C32.7414 104.206 32.4174 104.313 32.082 104.35L27.4132 104.892C27.4132 104.892 26.8142 107.876 22.8301 107.439C21.4617 110.459 20.8077 113.753 20.9189 117.067C21.8697 133.424 28.0978 160.512 26.9663 169.769C25.3594 182.933 30.2753 217.929 30.2753 217.929H37.6445C37.6445 217.929 37.15 180.861 39.0232 168.752C40.8964 156.644 40.0882 121.429 40.0882 121.429L42.7221 121.6L51.9264 165.207C51.4034 177.164 55.1498 191.82 57.8502 203.472C59.1529 209.071 60.4651 217.919 60.4651 217.919H68.2717C68.2717 217.919 61.6347 166.044 62.0435 154.077Z" fill="#FFDBBD"/>
<path d="M27.2708 97.8107C27.1728 97.8003 27.074 97.8003 26.9761 97.8107C26.7908 97.7759 26.6004 97.7781 26.416 97.8172C26.2315 97.8564 26.0567 97.9317 25.9016 98.0388L22.9539 100.225L21.3755 107.002V107.144C21.8801 107.284 22.3953 107.383 22.9159 107.439C26.9 107.876 27.499 104.892 27.499 104.892L32.1677 104.35C32.5032 104.313 32.8272 104.206 33.1186 104.036C33.2828 103.939 33.4359 103.824 33.575 103.694C33.7982 103.503 33.9823 103.271 34.117 103.01L35.258 100.681L27.2708 97.8107Z" fill="#FFDBBD"/>
<path d="M68.1577 86.2154L66.1704 79.5622C66.1704 79.5622 60.4653 81.4631 57.1087 80.0089L58.0596 71.9966C59.2386 67.7956 60.3987 63.6136 60.3702 61.7982C60.3416 59.9829 55.5208 55.2021 55.4257 53.5578C55.1595 48.8056 54.703 47.9406 52.9535 46.3249L45.5938 43.2074L45.2515 45.8687C45.2515 45.8687 41.9805 49.3093 34.231 43.502L34.174 41.9053C33.09 42.0669 16.1077 44.9182 3.29008 64.3645C-10.022 84.457 21.3564 107.135 21.3564 107.135V106.992L22.9443 100.139C22.9443 100.139 6.93187 83.288 11.7337 74.3252C14.4916 69.0584 18.8632 64.8119 24.209 62.2069L28.5259 77.5187C30.1613 83.3359 29.9453 89.5177 27.9078 95.2066L26.957 97.7824C27.055 97.772 27.1538 97.772 27.2517 97.7824L35.1629 100.634L34.0219 102.962C33.8871 103.223 33.7031 103.456 33.4799 103.647C33.3407 103.777 33.1877 103.892 33.0235 103.989L55.1404 104.939C55.1404 104.939 55.1404 104.483 55.1404 103.656C55.1975 101.936 55.2926 98.5808 55.3782 94.3132L55.8251 90.5114C60.1052 89.6212 64.2511 88.177 68.1577 86.2154V86.2154Z" fill="white"/>
<path d="M50.2814 157.385H62.1006C62.1006 156.093 62.053 154.971 62.1006 154.078C62.5855 139.707 55.2259 104.996 55.2259 104.996V105.158V104.996L33.1089 104.046C32.8174 104.216 32.4935 104.323 32.158 104.36L27.4893 104.901C27.4893 104.901 26.8902 107.886 22.9061 107.449C21.5131 110.459 20.833 113.751 20.9188 117.067C21.6035 128.473 24.8364 145.21 26.3387 157.385H50.2814Z" fill="#454240"/>
<path d="M36.9598 51.0009C31.8632 49.3661 30.7602 45.3647 30.1421 43.5684C29.3339 45.4027 29.467 49.8223 36.9598 53.4911C43.7394 56.8082 51.3463 55.1259 50.481 49.6798C49.7678 54.0709 43.4351 53.0729 36.9598 51.0009Z" fill="#1F9359"/>
<path d="M36.96 51.0009C44.4147 53.4911 49.7681 54.0709 50.4812 49.6893C50.2974 48.3889 49.783 47.1574 48.9873 46.1124C48.1916 45.0674 47.1411 44.2439 45.9361 43.7204C37.3213 40.0327 34.1169 40.9736 34.1169 40.9736C34.1169 40.9736 31.0361 41.5059 30.1328 43.5304C30.7128 46.9045 31.8824 49.3091 36.96 51.0009Z" fill="#21BA72"/>
<path d="M33.9361 51.7334C32.3006 52.2847 30.1327 53.948 31.1406 59.0994C32.719 66.9406 33.9932 68.4424 32.6429 71.2177C33.6291 69.6032 34.3693 67.851 34.8394 66.0187C34.5066 64.3079 33.7745 61.9508 32.9377 57.9208C32.3291 54.6703 32.9662 52.8074 33.9361 51.7334Z" fill="#1F9359"/>
<path d="M35.4958 59.8219C35.0964 53.2447 38.9854 51.1157 35.4958 51.4674C34.9653 51.474 34.439 51.5638 33.9364 51.7335C32.9855 52.8075 32.3104 54.6609 32.9855 57.9305C33.7937 61.9604 34.5259 64.308 34.8872 66.0283C35.4225 64.0056 35.628 61.9099 35.4958 59.8219V59.8219Z" fill="#21BA72"/>
<path d="M37.711 60.5822C37.6915 57.3953 37.402 54.2157 36.8457 51.0776C36.6293 51.038 36.4096 51.0189 36.1896 51.0206C34.9154 51.0206 36.8267 54.3472 36.9122 63.3005C36.9978 72.2537 45.7933 74.3067 45.7933 74.3067C45.069 73.251 44.6032 72.0398 44.4335 70.771C42.436 69.92 40.7333 68.5 39.5379 66.6881C38.3424 64.8762 37.707 62.7526 37.711 60.5822V60.5822Z" fill="#1F9359"/>
<path d="M44.4148 70.7803C44.0764 68.834 44.0252 66.8486 44.2626 64.8875C44.9758 58.0727 39.9077 57.4454 37.6066 51.5051C37.6066 51.5051 37.502 51.2105 36.8364 51.0869C37.3928 54.225 37.6822 57.4045 37.7017 60.5914C37.6969 62.7608 38.3309 64.8837 39.5246 66.6954C40.7183 68.5072 42.419 69.9278 44.4148 70.7803V70.7803Z" fill="#21BA72"/>
<path d="M33.7933 47.1524C33.7933 47.0573 33.7933 46.9908 33.7933 46.9053C33.5345 47.4159 33.3916 47.9774 33.375 48.5496C32.9756 53.2448 37.6919 58.3582 39.5841 54.8891C40.0286 54.1302 40.3284 53.2956 40.4684 52.4274C40.3215 52.7918 40.1532 53.1473 39.9644 53.4919C38.1197 56.9611 33.394 51.8476 33.7933 47.1524Z" fill="#1F9359"/>
<path d="M39.9363 50.4782C37.426 48.4062 34.8777 45.2031 33.8603 46.9044C33.8603 46.99 33.8603 47.0565 33.8603 47.1516C33.4609 51.8468 38.1772 56.9602 40.0694 53.4911C40.2582 53.1465 40.4265 52.791 40.5734 52.4266C40.697 50.9534 39.9363 50.4782 39.9363 50.4782Z" fill="#21BA72"/>
<path d="M33.8507 40.7178C33.8507 40.7178 27.2613 41.8203 37.0837 49.8991L42.1042 46.8767L33.8507 40.7178Z" fill="white"/>
<path d="M45.7175 42.1904L48.6652 48.1022L42.1138 46.8762L45.7175 42.1904Z" fill="white"/>
<path d="M56.7376 24.2079C56.7376 24.2079 56.7376 18.0109 60.4364 15.7869C60.4364 15.7869 61.3873 13.6769 57.2606 10.0842L55.2257 8.28781C53.2844 6.59479 51.0149 5.3198 48.5588 4.54239C46.1027 3.76499 43.5126 3.50185 40.9502 3.7694C38.3878 4.03694 35.9081 4.82942 33.6657 6.09741C31.4233 7.3654 29.4664 9.08167 27.917 11.1392V11.1392C21.261 15.4922 22.1358 18.6668 23.8569 25.548C25.055 30.3003 28.9059 37.077 33.7934 36.5162H33.955L33.8409 33.1992C33.2939 32.5443 32.7889 31.8554 32.329 31.1367C31.4909 31.2012 30.6534 31.0035 29.9327 30.5709C29.212 30.1384 28.6438 29.4924 28.3069 28.7225C27.2324 26.0423 24.2848 21.4896 28.3069 21.4896C28.3639 21.4326 31.1024 25.9757 30.9693 18.6382C31.2641 18.3626 30.3608 17.5832 31.5018 16.8989C32.6428 16.2146 33.6317 11.7094 36.0659 10.9681C40.4113 9.64696 46.8201 15.1501 55.9199 16.0055C56.0435 17.127 56.1671 18.2676 56.2717 19.3986C56.8422 25.3865 57.0704 31.3268 55.6916 35.4327" fill="#EFC44F"/>
<path d="M45.7172 40.9167C42.7274 40.2432 39.9448 38.8574 37.6063 36.8773L36.9978 36.364C36.7125 36.1169 36.4336 35.8666 36.161 35.6132L36.1325 35.5561L35.4003 34.8528L35.1816 34.6152L34.6492 34.0639C34.3924 33.7883 34.1452 33.5032 33.917 33.2275L34.0311 36.5446L34.1262 39.1869L34.2213 41.9337L34.2308 43.5019C41.9993 49.3092 45.2703 45.8686 45.2703 45.8686L45.6126 43.2073L45.8978 40.9452L45.7172 40.9167Z" fill="#F4BEA4"/>
<path d="M56.2908 19.4365C56.1862 18.3055 56.0626 17.165 55.939 16.0434C46.8393 15.188 40.4305 9.6944 36.0851 11.006C33.6509 11.7474 32.7571 16.1955 31.5209 16.9368C30.2848 17.6782 31.2832 18.4005 30.9885 18.6762C31.1216 25.9756 28.3926 21.423 28.3261 21.5275C24.3039 21.5275 27.2516 26.0802 28.3261 28.7605C28.6678 29.52 29.2356 30.1556 29.952 30.5809C30.6683 31.0061 31.4984 31.2001 32.3292 31.1366C32.7989 31.8792 33.3167 32.5904 33.8791 33.2656C34.1073 33.5413 34.3545 33.8264 34.6112 34.102L35.1437 34.6533L35.3719 34.8909L36.1041 35.5942L36.1706 35.6513C36.4432 35.9047 36.7221 36.155 37.0074 36.4021L37.6159 36.9154C39.9544 38.8954 42.737 40.2813 45.7268 40.9548C47.8095 41.3919 49.9774 41.1555 51.9169 40.28C52.8472 39.7966 53.6662 39.1241 54.3212 38.3057C54.9762 37.4873 55.4527 36.5411 55.7203 35.5277C57.0515 31.3647 56.8613 25.4244 56.2908 19.4365Z" fill="#FFDBBD"/>
<path d="M48.0946 31.0895C47.9142 31.0852 47.7404 31.0207 47.601 30.9063C47.4615 30.7919 47.3644 30.6341 47.325 30.4581C47.2856 30.2821 47.3063 30.098 47.3837 29.9351C47.4612 29.7722 47.5909 29.6399 47.7523 29.5593C48.5344 29.2169 49.2566 28.7516 49.8917 28.1811C47.6952 26.993 46.7539 23.8756 46.7158 23.7425C46.6807 23.5468 46.719 23.345 46.8234 23.1758C46.9279 23.0066 47.091 22.8818 47.2817 22.8253C47.4725 22.7688 47.6773 22.7846 47.8571 22.8696C48.0369 22.9547 48.179 23.103 48.2562 23.2863C48.4844 24.0466 49.3497 26.1376 50.6429 26.7554C50.9166 26.8564 51.1536 27.0372 51.3231 27.2745C51.4927 27.5118 51.587 27.7945 51.5937 28.0861C51.5937 29.3597 49.5969 30.4717 48.4083 31.023C48.3094 31.0664 48.2026 31.089 48.0946 31.0895V31.0895Z" fill="#F4BEA4"/>
<path d="M30.2755 28.8273C30.1081 28.8267 29.9451 28.7735 29.8096 28.6752C27.4229 26.9644 27.9744 24.8734 27.9934 24.7879C28.067 24.6041 28.2055 24.4538 28.3827 24.3654C28.5598 24.277 28.7632 24.2566 28.9544 24.3082C29.1455 24.3598 29.3111 24.4797 29.4197 24.6452C29.5282 24.8107 29.5722 25.0103 29.5433 25.2061C29.5433 25.2726 29.3151 26.3466 30.7414 27.3636C30.8759 27.4643 30.9756 27.6045 31.0267 27.7645C31.0778 27.9246 31.0777 28.0965 31.0265 28.2565C30.9752 28.4165 30.8753 28.5566 30.7407 28.6572C30.6061 28.7577 30.4435 28.8139 30.2755 28.8178V28.8273Z" fill="#F4BEA4"/>
<path d="M42.3894 22.8774C42.4039 22.7653 42.3945 22.6515 42.3617 22.5433C42.3289 22.4352 42.2736 22.3353 42.1993 22.2501C42.113 22.1612 42.0067 22.0941 41.8893 22.0544C41.7719 22.0148 41.6467 22.0036 41.5241 22.022H41.4291C41.4291 22.022 41.353 22.022 41.315 22.022C40.8905 21.9113 40.4884 21.728 40.1264 21.4802C39.9444 21.386 39.7334 21.3643 39.5361 21.4197C39.3388 21.4751 39.1699 21.6033 39.0636 21.7784C38.9573 21.9535 38.9215 22.1625 38.9634 22.363C39.0054 22.5635 39.122 22.7406 39.2896 22.8584C39.6381 23.0722 40.0039 23.2566 40.3831 23.4097C40.3831 23.4097 40.3831 23.4667 40.3831 23.5047C40.3831 24.3411 40.8585 25.0159 41.4386 25.0159C42.0186 25.0159 42.494 24.3411 42.494 23.5047C42.4923 23.2914 42.457 23.0797 42.3894 22.8774V22.8774Z" fill="#454240"/>
<path d="M54.5889 22.4596C54.4493 22.2996 54.2524 22.2009 54.0407 22.1849C53.8289 22.1689 53.6194 22.2368 53.4574 22.374C53.2597 22.5471 53.05 22.7059 52.8298 22.8492C52.7553 22.7612 52.6639 22.6889 52.561 22.6367C52.4581 22.5844 52.3458 22.5533 52.2307 22.5451C51.6507 22.5451 51.1753 23.2199 51.1753 24.0563C51.1753 24.8927 51.6507 25.5675 52.2307 25.5675C52.8108 25.5675 53.1055 25.0923 53.2291 24.4555C53.6912 24.2303 54.1199 23.9424 54.5033 23.6001C54.5839 23.5309 54.6501 23.4465 54.6981 23.3517C54.746 23.2568 54.7748 23.1535 54.7828 23.0476C54.7907 22.9416 54.7777 22.8352 54.7444 22.7343C54.7111 22.6334 54.6583 22.54 54.5889 22.4596V22.4596Z" fill="#454240"/>
<path d="M42.5128 19.6748C42.3031 19.6753 42.1016 19.5934 41.9518 19.4467C40.1452 17.6884 37.4542 19.2281 37.3401 19.2946C37.1574 19.3832 36.948 19.3998 36.7536 19.3411C36.5593 19.2824 36.3941 19.1527 36.291 18.9778C36.188 18.8029 36.1545 18.5956 36.1974 18.3972C36.2403 18.1988 36.3563 18.0238 36.5224 17.907C36.684 17.8119 40.3829 15.6734 43.0738 18.2871C43.1859 18.3995 43.2624 18.5425 43.2937 18.698C43.3251 18.8536 43.3099 19.015 43.25 19.162C43.1902 19.309 43.0884 19.4351 42.9573 19.5246C42.8261 19.6141 42.6716 19.6631 42.5128 19.6653V19.6748Z" fill="#BC932F"/>
<path d="M54.9503 20.1587C54.771 20.158 54.5971 20.0978 54.4558 19.9876C54.3703 19.9211 52.3069 18.3718 51.1659 19.7595C51.1035 19.8537 51.0221 19.9337 50.9269 19.9945C50.8317 20.0553 50.7248 20.0954 50.6131 20.1124C50.5015 20.1293 50.3875 20.1227 50.2785 20.0929C50.1695 20.0631 50.068 20.0108 49.9805 19.9394C49.8931 19.8679 49.8215 19.779 49.7705 19.6782C49.7196 19.5774 49.6903 19.4671 49.6846 19.3543C49.6789 19.2415 49.697 19.1288 49.7375 19.0234C49.7781 18.9181 49.8404 18.8224 49.9202 18.7425C51.6318 16.661 54.2752 17.792 55.4352 18.7425C55.5639 18.8469 55.6575 18.9883 55.7031 19.1476C55.7487 19.3069 55.7442 19.4763 55.6903 19.633C55.6363 19.7896 55.5354 19.9259 55.4014 20.0234C55.2673 20.1208 55.1065 20.1747 54.9408 20.1777L54.9503 20.1587Z" fill="#BC932F"/>
<path d="M48.8266 35.0998C46.6016 35.0998 44.1389 33.1229 43.8536 32.8853C43.6708 32.734 43.5555 32.5164 43.5333 32.2802C43.511 32.044 43.5834 31.8087 43.7348 31.6259C43.8861 31.4432 44.1038 31.328 44.3401 31.3057C44.5764 31.2834 44.8118 31.3559 44.9946 31.5071C45.6127 32.0204 47.6856 33.408 49.0073 33.3035C49.158 33.2924 49.3046 33.2494 49.4374 33.1773C49.5702 33.1052 49.6861 33.0056 49.7775 32.8853C49.9237 32.6987 50.1381 32.5779 50.3735 32.5494C50.6089 32.5209 50.846 32.587 51.0326 32.7332C51.2192 32.8794 51.3401 33.0937 51.3686 33.329C51.3971 33.5643 51.331 33.8013 51.1847 33.9878C50.9459 34.2962 50.6463 34.5522 50.3045 34.7403C49.9626 34.9283 49.5859 35.0442 49.1974 35.0808L48.8266 35.0998Z" fill="#EDA983"/>
</g>
<defs>
<clipPath id="clip0">
<rect width="244" height="230" fill="white"/>
</clipPath>
</defs>
</svg>
