<svg width="168" height="168" viewBox="0 0 168 168" fill="none" xmlns="http://www.w3.org/2000/svg">
<path d="M95.8399 37.83L95.6299 37.97L96.1299 40.92C96.1299 40.92 98.1299 43.06 102.99 39.45L103.22 33.04C101.49 35.1 98.7199 37.29 95.8399 37.83Z" fill="#EDA983"/>
<path d="M106.65 25.7501L106.54 25.6401C105.81 24.9601 101.26 21.2601 89.4801 22.3601C88.7701 28.7301 88.2501 35.6901 91.9801 37.4201C93.1864 37.9649 94.5347 38.112 95.8301 37.8401C98.7201 37.3001 101.49 35.1001 103.19 33.0501C103.551 32.6423 103.885 32.2114 104.19 31.7601C104.711 31.8 105.231 31.6771 105.679 31.4083C106.127 31.1396 106.48 30.7384 106.69 30.2601C107.32 28.5801 109.15 25.7501 106.65 25.7501Z" fill="#FFCFA4"/>
<path d="M98.4998 27.9396C98.8644 27.9396 99.1599 27.5187 99.1599 26.9996C99.1599 26.4804 98.8644 26.0596 98.4998 26.0596C98.1353 26.0596 97.8398 26.4804 97.8398 26.9996C97.8398 27.5187 98.1353 27.9396 98.4998 27.9396Z" fill="#454240"/>
<path d="M91.7899 28.2804C92.1544 28.2804 92.4499 27.8595 92.4499 27.3404C92.4499 26.8212 92.1544 26.4004 91.7899 26.4004C91.4254 26.4004 91.1299 26.8212 91.1299 27.3404C91.1299 27.8595 91.4254 28.2804 91.7899 28.2804Z" fill="#454240"/>
<path d="M96.7798 25.1695C96.7798 25.1695 99.5598 24.4695 100.5 25.1695C101.44 25.8695 100.16 23.4995 98.6398 23.2495C97.1198 22.9995 96.7798 25.1695 96.7798 25.1695Z" fill="#454240"/>
<path d="M93.7002 24.7804C93.7002 24.7804 91.3402 24.6804 90.7702 25.5504C90.2002 26.4204 90.6102 23.8604 91.7702 23.3004C92.9302 22.7404 93.7002 24.7804 93.7002 24.7804Z" fill="#454240"/>
<path d="M94.3599 31.7197C94.2907 31.7349 94.2191 31.7349 94.1499 31.7197C93.4099 31.3797 92.1499 30.7197 92.1499 29.8897C92.1537 29.7068 92.2131 29.5294 92.3203 29.3811C92.4275 29.2328 92.5774 29.1207 92.7499 29.0597C93.478 28.5324 94.001 27.7691 94.2299 26.8997C94.2483 26.8341 94.2794 26.7727 94.3215 26.7191C94.3636 26.6654 94.4159 26.6206 94.4753 26.5872C94.5348 26.5538 94.6002 26.5324 94.6679 26.5242C94.7356 26.5161 94.8042 26.5214 94.8699 26.5397C94.9356 26.5581 94.997 26.5893 95.0506 26.6314C95.1042 26.6735 95.149 26.7258 95.1824 26.7852C95.2159 26.8446 95.2373 26.91 95.2454 26.9777C95.2536 27.0454 95.2483 27.1141 95.2299 27.1797C94.9071 28.3056 94.1993 29.2824 93.2299 29.9397C93.6278 30.2961 94.0802 30.5865 94.5699 30.7997C94.7025 30.8276 94.8186 30.907 94.8927 31.0204C94.9668 31.1339 94.9927 31.2721 94.9649 31.4047C94.937 31.5373 94.8577 31.6535 94.7442 31.7275C94.6307 31.8016 94.4925 31.8276 94.3599 31.7997V31.7197Z" fill="#EDA983"/>
<path d="M91.1302 74.0801C91.1302 74.0801 88.9902 99.4101 88.1302 107.25C87.2702 115.09 83.4902 151.42 83.4902 151.42H88.1302C88.1302 151.42 94.9202 126.25 94.4402 114.59L98.7802 85.7601H100.78C100.78 85.7601 101.27 108.93 102.44 116.93C103.61 124.93 102.44 151.43 102.44 151.43H107.88C107.88 151.43 111 126.25 110 117.58C109 108.91 109 74.0801 109 74.0801H91.1302Z" fill="#3A6988"/>
<path d="M73.1602 156.08H88.1602V151.41H83.5201L73.1602 153.75V156.08Z" fill="#454240"/>
<path d="M102.33 156.08H110.19L107.93 151.41H102.49L102.33 156.08Z" fill="#454240"/>
<path d="M95.9099 39.7402C95.6699 39.7402 90.6499 39.7402 84.1499 46.5702C90.4299 40.0002 95.3299 39.7502 95.9099 39.7402Z" fill="#62A5D2"/>
<path d="M114.24 43.3304C114.24 43.3304 115.66 41.0004 103 39.4404L95.9401 39.7404C87.7001 42.0004 89.0001 58.0804 89.0001 58.0804L91.1401 74.0804H109C109 74.0804 116.49 53.7504 114.24 43.3304Z" fill="#62A5D2"/>
<path d="M84.1602 62.0501V62.0901L88.9902 58.1201V58.0801L84.1602 62.0501Z" fill="#4488B7"/>
<path d="M96.0002 39.7402H95.9402C95.3502 39.7402 90.4502 40.0002 84.1802 46.6202V62.0502L89.0102 58.0502C89.0102 58.0502 87.7002 42.0002 96.0002 39.7402Z" fill="#4488B7"/>
<path d="M106.53 25.64L106.38 25.49C105.429 24.7314 104.362 24.1304 103.22 23.71C103.22 23.71 104.6 27.13 104.79 27.63C104.89 27.91 104.97 26.63 105.45 26.07C105.612 25.9254 105.807 25.8218 106.018 25.7678C106.228 25.7139 106.448 25.7112 106.66 25.76L106.53 25.64Z" fill="#454240"/>
<path d="M103.91 23.4296C100.099 20.8819 95.5814 19.6012 91.0002 19.7696C90.2002 19.7696 89.7302 19.8596 89.7302 19.8596C82.0302 20.4096 83.6202 23.2096 83.6202 23.2096C93.7402 21.2096 99.8302 22.3896 103.18 23.7096C104.322 24.13 105.389 24.731 106.34 25.4896C105.59 24.7354 104.777 24.0462 103.91 23.4296Z" fill="#62A5D3"/>
<path d="M104.31 14.9096C100.65 10.2496 90.4798 12.4996 89.9998 17.7496C89.9398 18.4296 89.8598 19.1396 89.7798 19.8596C89.7798 19.8596 90.2498 19.7996 91.0598 19.7696C95.6343 19.6048 100.144 20.8854 103.95 23.4296C104.889 24.0882 105.766 24.8313 106.57 25.6496L106.66 25.7296C106.67 25.6196 107.94 19.5296 104.31 14.9096Z" fill="#4488B7"/>
<path d="M106.55 25.6402L106.38 25.4902L106.53 25.6402L106.64 25.7502L106.55 25.6402Z" fill="#4488B7"/>
<path d="M103.91 23.4297C100.099 20.8814 95.5813 19.6006 91 19.7697C95.5812 19.6013 100.099 20.882 103.91 23.4297Z" fill="#4488B7"/>
<path d="M106.63 25.7196L106.54 25.6396L106.63 25.7196Z" fill="#4488B7"/>
<path d="M103.91 23.4299C104.791 24.0447 105.617 24.7339 106.38 25.4899L106.55 25.6399C105.746 24.8216 104.869 24.0785 103.93 23.4199L103.91 23.4299Z" fill="#4488B7"/>
<path d="M90.8501 18.5005C90.8501 18.5005 96.3501 18.0005 99.9101 19.4405L100.41 17.7505C97.4033 16.8568 94.2506 16.5612 91.1301 16.8805L90.8501 18.5005Z" fill="white"/>
<path d="M105.44 30.3103C105.333 30.3111 105.229 30.2778 105.143 30.2151C105.056 30.1525 104.992 30.0638 104.96 29.9621C104.927 29.8604 104.928 29.7511 104.962 29.65C104.997 29.5489 105.062 29.4614 105.15 29.4003C106.05 28.7603 105.9 28.0803 105.9 28.0603C105.872 27.9332 105.894 27.8004 105.961 27.6888C106.028 27.5773 106.135 27.4955 106.26 27.4603C106.384 27.4291 106.516 27.447 106.628 27.5103C106.74 27.5736 106.823 27.6774 106.86 27.8003C106.947 28.2711 106.885 28.7573 106.682 29.1911C106.48 29.6249 106.147 29.9847 105.73 30.2203C105.645 30.2796 105.544 30.3111 105.44 30.3103Z" fill="#EDA983"/>
<path d="M95.97 39.7404L94.73 43.3104L98.32 41.5304L103.22 43.3104L102.99 39.4404L95.97 39.7404Z" fill="#4488B7"/>
<path d="M102.37 52.5996C102.37 52.5996 99.4701 53.1996 97.8501 52.5996V54.4996H103.22L102.37 52.5996Z" fill="white"/>
<path d="M74.6375 39.7672C76.1308 37.7119 75.6751 34.8352 73.6198 33.3419C71.5645 31.8486 68.6878 32.3043 67.1945 34.3596C65.7013 36.4149 66.1569 39.2916 68.2122 40.7849C70.2675 42.2781 73.1442 41.8225 74.6375 39.7672Z" fill="#E5913E"/>
<path d="M57.9999 31.11C58.781 30.1698 59.9036 29.5784 61.1207 29.4659C62.3378 29.3534 63.5497 29.7289 64.4899 30.51C65.4301 31.2911 66.0215 32.4136 66.1341 33.6307C66.2466 34.8478 65.871 36.0598 65.0899 37C62.3499 34.72 59.4799 33.41 57.1899 33.34C57.2589 32.5383 57.5383 31.7691 57.9999 31.11Z" fill="#81C110"/>
<path d="M54.2 34.2299C55.0431 33.5454 56.1176 33.2123 57.2 33.2999C59.49 33.3699 62.36 34.6699 65.1 36.9599C66.1074 37.8014 67.047 38.7209 67.91 39.7099C71.03 43.2799 72.79 47.2499 72.91 50.2599C69 51.9999 56 47.9999 52.84 37.4899C52.8298 36.8821 52.9453 36.2788 53.1793 35.7178C53.4134 35.1568 53.7609 34.6502 54.2 34.2299Z" fill="#685031"/>
<path d="M52.8401 37.4902C56.0001 48.0002 69.0001 52.0002 72.8501 50.2602C72.9156 50.9447 72.8285 51.6351 72.595 52.2818C72.3616 52.9285 71.9876 53.5154 71.5001 54.0002C68.7101 56.4402 62.5801 54.0002 57.8001 48.5202C54.5001 44.7602 52.7101 40.5402 52.8401 37.4902Z" fill="#544023"/>
<path d="M64.94 40.3399C63.5239 39.3505 61.9159 38.6692 60.22 38.3399C58.6686 38.0126 57.0736 37.945 55.5 38.1399" fill="#82725E"/>
<path d="M67.5699 43.5597C66.1537 42.5702 64.5458 41.8889 62.8499 41.5597C61.2984 41.2323 59.7034 41.1647 58.1299 41.3597" fill="#82725E"/>
<path d="M70.0801 47.0001C68.664 46.0106 67.056 45.3293 65.3601 45.0001C63.8087 44.6728 62.2137 44.6052 60.6401 44.8001" fill="#82725E"/>
<path d="M56.2998 47.4004L77.8398 49.6704L75.5098 86.5004L56.7398 82.9304L56.2998 47.4004Z" fill="#DCB57E"/>
<path d="M87.4398 47.8799L83.8498 76.5199L83.6898 80.9499L75.5098 86.4999L77.8398 49.6699L87.4398 47.8799Z" fill="#B28D60"/>
<path d="M60.8198 47.8804C60.8198 47.8804 64.2798 26.6704 69.8698 16.8104C70.9598 14.8804 71.5798 14.9304 71.8698 16.2604C71.8698 16.2604 70.0598 39.3204 65.0798 48.3404L60.8198 47.8804Z" fill="#FDCF60"/>
<path d="M68.6201 48.7L65.0801 48.33C70.0801 39.33 71.8701 16.25 71.8701 16.25C73.0001 21.69 68.6201 48.7 68.6201 48.7Z" fill="#E3AA21"/>
<path d="M63.6201 34.54C63.8097 36.675 64.2528 38.7798 64.9401 40.81L62.8701 37.67L63.6201 34.54Z" fill="#E3AA21"/>
<path d="M62.0902 41.2305C62.0902 41.2305 63.0902 45.6805 64.2602 47.0205L61.4502 44.4305L62.0902 41.2305Z" fill="#E3AA21"/>
<path d="M80.6399 43.5113C82.1332 41.456 81.6776 38.5793 79.6223 37.0861C77.567 35.5928 74.6902 36.0484 73.197 38.1037C71.7037 40.159 72.1593 43.0357 74.2146 44.529C76.27 46.0223 79.1467 45.5667 80.6399 43.5113Z" fill="#E84242"/>
<path d="M67.34 32.4604C68.08 32.1704 69.9 35.0704 71.41 38.9404C71.54 39.2704 71.66 39.5904 71.77 39.9404C71.91 36.5804 72.48 34.0704 73.17 34.0704C73.86 34.0704 74.6 37.4404 74.6 41.5904C74.6 45.7404 73.96 49.1104 73.17 49.1104C72.7 49.1104 72.28 47.9204 72.02 46.1104C70.5995 44.2671 69.4914 42.2029 68.74 40.0004C67.23 36.1104 66.6 32.7404 67.34 32.4604Z" fill="#517F37"/>
<path d="M72.0001 48.6004C69.6801 48.1104 67.3501 46.0504 69.4401 45.8804C70.8101 45.7704 70.6001 45.7204 71.1201 44.4404C71.6401 43.1604 72.0401 43.3504 73.1701 43.5604C74.3001 43.7704 73.5701 42.8804 74.3301 42.1604C75.0901 41.4404 75.8501 42.4904 76.7101 41.3904C77.5701 40.2904 77.0401 38.9504 78.4001 39.6604C79.4901 40.2304 79.1501 39.8004 79.9901 40.0604C79.6701 38.6204 79.9201 37.4504 81.2401 38.5404C83.4201 40.3404 83.2401 41.9204 84.2401 39.7604C85.2401 37.6004 87.6901 35.7604 87.4301 37.8104C87.2601 39.1704 87.3501 38.9804 88.5001 39.7504C89.6501 40.5204 89.3801 40.8704 88.9401 41.9404C88.5001 43.0104 89.5201 42.4704 90.0801 43.3604C90.6401 44.2504 89.4401 44.7804 90.3501 45.8404C91.2601 46.9004 92.6701 46.6604 91.7001 47.8404C90.7301 49.0204 91.7001 48.3504 90.4701 50.1104C89.2401 51.8704 89.1001 52.5604 86.8501 51.3404C84.6001 50.1204 84.8501 49.0404 83.3601 50.1104C83.1073 50.3138 82.7875 50.4152 82.4637 50.3949C82.1399 50.3745 81.8354 50.2338 81.6101 50.0004C80.9742 50.3935 80.2186 50.546 79.4801 50.4304C77.3301 50.0604 76.6701 49.2104 75.4801 50.9604C74.2901 52.7104 70.1201 54.3104 71.4801 51.8104C72.8401 49.3104 74.3101 49.0904 72.0001 48.6004Z" fill="#81C110"/>
<path d="M86.2898 43.5303C88.7698 43.3503 88.5998 45.1303 87.4398 46.1903C86.2798 47.2503 87.1698 47.4303 86.2898 48.9403C85.4098 50.4503 83.8898 48.4403 83.0998 49.6703C82.3098 50.9003 82.8498 53.5604 81.1598 52.2304C79.4698 50.9004 80.9398 46.8503 77.8498 49.6703C74.7598 52.4903 76.1898 49.3804 75.5198 48.0504C74.8498 46.7204 71.5198 47.8704 72.5198 45.7404C73.5198 43.6104 76.4198 46.2703 77.3098 44.0503C78.1998 41.8303 78.6298 38.7304 79.7498 40.4104C80.8698 42.0904 79.3798 43.6004 81.1398 43.1604C82.8998 42.7204 83.2998 40.1604 83.6798 41.5604C84.0598 42.9604 86.2898 43.5303 86.2898 43.5303Z" fill="#9FD545"/>
<path d="M76.5699 65.0802L76.1899 65.0002C73.8183 64.3206 71.482 63.5229 69.1899 62.6102C68.4399 62.1102 67.2699 63.3602 69.1899 64.2802L64.4399 65.8102C64.4399 65.8102 69.2399 68.8902 70.5199 69.1202C73.5199 69.6702 75.7099 69.1202 75.3499 69.1202L76.5699 65.0802Z" fill="#FFCFA4"/>
<path d="M76.5698 65.0805L90.9998 65.7705C90.9998 65.7705 102.2 55.1605 103.23 50.5805C104.26 46.0005 109 40.5805 112.67 41.5805C115.67 42.3505 117.19 47.5805 114.67 54.2605C111.97 61.4305 103.41 70.2605 93.9198 71.7105C75.5898 74.5405 75.0898 69.7105 75.0898 69.7105L76.5698 65.0805Z" fill="#4488B7"/>
<path d="M94.4401 34.6497C94.2906 34.6526 94.1421 34.6258 94.003 34.5708C93.864 34.5159 93.7372 34.4339 93.6301 34.3297C93.6008 34.3048 93.577 34.2742 93.56 34.2398C93.5431 34.2053 93.5334 34.1677 93.5316 34.1294C93.5297 34.091 93.5358 34.0527 93.5495 34.0168C93.5631 33.9809 93.584 33.9482 93.6108 33.9207C93.6376 33.8932 93.6698 33.8715 93.7053 33.857C93.7408 33.8424 93.779 33.8354 93.8174 33.8362C93.8558 33.8371 93.8936 33.8458 93.9285 33.8619C93.9633 33.8779 93.9945 33.901 94.0201 33.9297C94.0832 33.9903 94.1591 34.0361 94.2421 34.0637C94.3251 34.0914 94.4132 34.1003 94.5001 34.0897C95.6601 34.0197 97.6501 31.9197 98.3201 31.0897C98.3679 31.0326 98.4363 30.9969 98.5104 30.9904C98.5844 30.9838 98.6581 31.0069 98.7151 31.0547C98.7721 31.1024 98.8079 31.1708 98.8144 31.2449C98.821 31.319 98.7979 31.3926 98.7501 31.4497C98.6501 31.5797 96.1701 34.5397 94.5301 34.6297L94.4401 34.6497Z" fill="#EDA983"/>
</svg>
