<svg width="20" height="20" viewBox="0 0 20 20" fill="none" xmlns="http://www.w3.org/2000/svg">
<g clip-path="url(#clip0)">
<path d="M0.00569258 10.0083C0.00569258 8.30059 -0.00600771 6.59192 0.0113087 4.88466C0.0183289 4.21589 0.0716822 3.5429 0.310368 2.90736C0.930483 1.25672 2.1328 0.327744 3.871 0.1017C4.4273 0.0354486 4.9872 0.00418714 5.54742 0.00809981C8.73691 0.000143811 11.9269 -0.00687619 15.1178 0.0123118C15.9972 0.0174598 16.8775 0.124164 17.6731 0.561744C18.9756 1.27498 19.7277 2.37571 19.8995 3.84804C19.9661 4.47508 19.9974 5.10539 19.9931 5.73595C20.0027 8.86312 20.0027 11.9905 19.9931 15.1179C19.9931 15.7947 19.9308 16.4751 19.6874 17.1168C19.0711 18.7482 17.8814 19.6735 16.1652 19.9014C15.5568 19.9819 14.9385 19.995 14.3245 19.995C11.1738 20.0039 8.02273 20.009 4.87067 19.995C3.94261 19.9837 3.02249 19.8611 2.19505 19.3753C0.987113 18.6644 0.290244 17.6068 0.100699 16.2252C0.037964 15.7388 0.00669822 15.2489 0.00709661 14.7585C-0.00366765 13.1743 0.00101246 11.5911 0.00101246 10.0083H0.00569258ZM7.56221 11.6122L7.59216 11.6716C7.51698 11.7433 7.4364 11.8092 7.35113 11.8686C7.07828 12.031 6.93601 12.258 6.88312 12.5786C6.76612 13.2843 6.62805 13.9863 6.46893 14.6846C6.4357 14.8311 6.29155 14.9574 6.18391 15.08C6.09359 15.183 5.89515 15.2672 5.89515 15.3608C5.89515 15.6234 5.69999 15.7072 5.56754 15.8588C5.5067 15.9285 5.46411 16.0862 5.50249 16.1518C5.54086 16.2173 5.70139 16.2669 5.78938 16.2454C6.29249 16.1213 6.70153 15.8181 7.09653 15.4989C7.15504 15.4521 7.18265 15.3524 7.20043 15.2719C7.35113 14.5891 7.49388 13.9044 7.64551 13.2216C7.66704 13.128 7.70167 13.0105 7.77047 12.9516C8.23848 12.5468 8.74206 12.156 9.38277 12.1265C10.009 12.097 10.6417 12.1447 11.2684 12.1939C11.8707 12.2407 12.4656 12.2786 13.0468 12.0745C13.5528 11.8976 13.8752 11.5597 13.952 11.0183C13.9782 10.8343 14.018 10.6378 13.981 10.4623C13.9122 10.1347 14.0657 9.90864 14.2473 9.68025C14.3006 9.61286 14.3554 9.54687 14.4069 9.47854C14.8323 8.90946 14.9558 8.27251 14.851 7.57706C14.786 7.14369 14.5398 6.80112 14.3156 6.44637C14.1321 6.15621 14.0151 5.84921 14.0395 5.49914C14.0582 5.23098 14.1799 5.12474 14.4509 5.09198C14.6427 5.066 14.831 5.01891 15.0125 4.95158C15.0775 4.92865 15.1608 4.83131 15.1571 4.77281C15.1533 4.71431 15.0635 4.64645 14.9956 4.60245C14.9395 4.56548 14.8622 4.56127 14.7986 4.53366C14.5669 4.43304 14.3418 4.31604 14.1055 4.22993C13.9651 4.17985 13.8022 4.13352 13.6646 4.1616C13.2434 4.24724 13.0094 4.60011 12.979 5.10462C12.9495 5.56232 13.1372 5.9517 13.3211 6.34996C13.4971 6.72194 13.6533 7.10296 13.7891 7.49142C13.8949 7.8031 13.8223 8.10964 13.6173 8.37313C13.4479 8.59122 13.3028 8.63146 13.0436 8.52991C12.8769 8.46486 12.7159 8.38483 12.5517 8.31369C11.355 7.79655 10.1405 7.75209 8.94424 8.2711C8.45657 8.4817 8.02226 8.81773 7.57016 9.10602C7.5086 9.1508 7.43807 9.18173 7.36342 9.19667C7.28878 9.21162 7.21178 9.21023 7.13772 9.1926C6.52696 9.06436 5.92697 9.11116 5.36442 9.40413C5.03793 9.57088 4.78314 9.85057 4.64746 10.1911C4.51178 10.5317 4.50445 10.91 4.62684 11.2555C4.66849 11.3711 4.79017 11.5186 4.89267 11.534C4.97972 11.5471 5.09812 11.3969 5.19079 11.3066C5.25444 11.2448 5.2975 11.1619 5.37472 11.0534C5.44024 11.4778 5.48657 11.5012 5.80997 11.33C5.88951 11.281 5.97258 11.2379 6.05848 11.2013C6.13667 11.1814 6.21662 11.1694 6.29717 11.1652C6.307 11.2471 6.33555 11.3323 6.32291 11.4109C6.24335 11.9154 6.28781 11.9575 6.79092 11.8228C6.88125 11.7984 6.96923 11.7675 7.05956 11.7432C7.22571 11.7001 7.39559 11.6561 7.56221 11.6122ZM12.1398 12.4957C11.8066 12.4574 11.4926 12.4162 11.1776 12.3914C11.143 12.3886 11.0756 12.4756 11.0671 12.528C11.0311 12.7583 11.0203 12.9923 10.9843 13.223C10.9286 13.5974 11.048 13.8492 11.3933 14.0472C12.1019 14.4534 12.7876 14.8999 13.4788 15.3356C13.5677 15.3917 13.6688 15.4685 13.7053 15.5597C13.82 15.8452 13.915 16.097 14.3161 16.0666C14.6259 16.0432 14.9427 16.1181 15.2572 16.1363C15.4309 16.1466 15.4655 16.0535 15.4126 15.8934C15.3448 15.688 15.1969 15.5911 15.0012 15.5625C14.7204 15.5214 14.4986 15.3786 14.2857 15.1984C13.7868 14.7772 13.2762 14.3687 12.7707 13.955C12.5901 13.8071 12.4085 13.6597 12.2283 13.5113C12.0776 13.3873 12.0125 13.2366 12.0575 13.0363C12.0958 12.8659 12.1117 12.6886 12.1398 12.4957Z" fill="#10BF41"/>
<path d="M7.56181 11.6119C7.39379 11.6559 7.22531 11.6985 7.05776 11.7439C6.96743 11.7682 6.87945 11.7991 6.78912 11.8235C6.28741 11.9587 6.24295 11.9171 6.32111 11.4116C6.33328 11.333 6.30473 11.2483 6.29537 11.1659C6.21482 11.1701 6.13487 11.1822 6.05668 11.202C5.97077 11.2386 5.88771 11.2817 5.80817 11.3307C5.48477 11.5019 5.43844 11.479 5.37292 11.0541C5.29569 11.1626 5.25264 11.2455 5.18899 11.3073C5.09538 11.3976 4.97791 11.5478 4.89086 11.5347C4.78884 11.5197 4.66669 11.3723 4.62503 11.2562C4.50327 10.9107 4.51108 10.5328 4.647 10.1926C4.78291 9.85245 5.0377 9.57317 5.36402 9.4067C5.92564 9.1142 6.52657 9.06693 7.13732 9.19517C7.21138 9.2128 7.28838 9.21419 7.36303 9.19924C7.43767 9.1843 7.5082 9.15337 7.56976 9.10859C8.02233 8.8203 8.45665 8.48427 8.94385 8.27367C10.1401 7.75887 11.3546 7.79865 12.5513 8.31626C12.7156 8.3874 12.8766 8.46742 13.0432 8.53248C13.3029 8.63357 13.4475 8.59332 13.617 8.3757C13.8219 8.11174 13.894 7.8052 13.7887 7.49398C13.6529 7.10552 13.4967 6.72451 13.3207 6.35253C13.1368 5.95426 12.9491 5.56489 12.9786 5.10718C13.0113 4.60034 13.2453 4.247 13.6666 4.16182C13.8042 4.13374 13.9689 4.18007 14.1074 4.23015C14.3442 4.31579 14.5694 4.43279 14.8006 4.53388C14.8642 4.56149 14.941 4.56524 14.9976 4.60268C15.0636 4.64667 15.1553 4.71219 15.159 4.77303C15.1628 4.83387 15.0795 4.92887 15.0144 4.95181C14.833 5.01913 14.6446 5.06622 14.4528 5.09221C14.1842 5.12356 14.0602 5.23261 14.0414 5.49937C14.0171 5.84943 14.135 6.15457 14.3176 6.4466C14.5417 6.80134 14.7856 7.14392 14.853 7.57729C14.9578 8.27274 14.8338 8.90968 14.4088 9.47877C14.3573 9.54757 14.3026 9.61356 14.2492 9.68048C14.0676 9.90887 13.9141 10.1349 13.9829 10.4625C14.0199 10.6385 13.9801 10.8369 13.9539 11.0185C13.8758 11.5595 13.5533 11.8965 13.0474 12.0743C12.4647 12.2779 11.8699 12.2409 11.2689 12.1936C10.6418 12.1445 10.0095 12.0968 9.38331 12.1263C8.74214 12.1567 8.24089 12.5475 7.77101 12.9513C7.70221 13.0108 7.66758 13.1259 7.64605 13.2214C7.49395 13.9042 7.35167 14.5889 7.20097 15.2717C7.18319 15.3522 7.15417 15.4514 7.09707 15.4987C6.70254 15.8178 6.2935 16.1211 5.78991 16.2451C5.7024 16.2667 5.5428 16.2184 5.50302 16.1515C5.46324 16.0846 5.50724 15.9288 5.56808 15.8586C5.70052 15.7069 5.89569 15.6246 5.89569 15.3606C5.89569 15.267 6.09412 15.1842 6.18445 15.0798C6.29209 14.9572 6.43671 14.8308 6.46947 14.6843C6.62734 13.9867 6.76541 13.2847 6.88366 12.5783C6.93654 12.2578 7.07929 12.0312 7.35167 11.8684C7.43694 11.809 7.51752 11.7431 7.5927 11.6714L7.56181 11.6119Z" fill="white"/>
<path d="M12.1398 12.4956C12.1112 12.687 12.0953 12.8644 12.057 13.0366C12.0101 13.2369 12.0775 13.3876 12.2278 13.5116C12.408 13.66 12.5896 13.8074 12.7702 13.9553C13.2761 14.369 13.7863 14.7771 14.2852 15.1988C14.4981 15.379 14.7185 15.5217 15.0008 15.5629C15.1964 15.5914 15.3443 15.6883 15.4121 15.8938C15.465 16.0538 15.4299 16.1465 15.2568 16.1366C14.9423 16.1184 14.6259 16.043 14.3156 16.0669C13.9145 16.0969 13.819 15.8456 13.7048 15.5601C13.6683 15.4693 13.5672 15.3921 13.4783 15.3359C12.7871 14.9002 12.1014 14.4537 11.3928 14.0475C11.0474 13.8495 10.9281 13.5963 10.9838 13.2234C11.018 12.9926 11.0306 12.7586 11.0666 12.5284C11.0746 12.476 11.1425 12.388 11.1771 12.3917C11.493 12.4175 11.807 12.4586 12.1398 12.4956Z" fill="white"/>
</g>
<defs>
<clipPath id="clip0">
<rect width="20" height="20" fill="white"/>
</clipPath>
</defs>
</svg>
