<svg width="100" height="32" viewBox="0 0 100 32" fill="none" xmlns="http://www.w3.org/2000/svg">
<path fill-rule="evenodd" clip-rule="evenodd" d="M3.391 18.8278C3.89469 18.5476 4.44126 18.2435 4.65663 18.4334C4.8581 18.611 4.76174 19.0642 4.67228 19.4849C4.59418 19.8522 4.52134 20.1947 4.65663 20.3074C4.89584 20.5066 5.86665 20.2133 6.56719 20.0016C6.71664 19.9564 6.85379 19.915 6.96891 19.8828C7.06837 19.8552 7.15977 19.829 7.24398 19.8048C7.80592 19.6438 8.04775 19.5744 8.22896 19.782C8.03121 20.0842 7.70324 20.3032 7.37666 20.5213C6.97586 20.7889 6.57714 21.0551 6.42378 21.472C6.3154 21.7665 6.12611 22.8273 5.90894 24.0443C5.56839 25.9526 5.15927 28.2453 4.88596 28.5711C4.75973 28.7221 4.54018 28.8496 4.31084 28.9828C3.79522 29.2824 3.2301 29.6107 3.56466 30.2991C2.18078 31.2901 2.17912 31.4161 2.65536 31.9598C2.7361 32.0768 3.41589 31.9135 3.75255 31.7858C4.48323 31.5094 6.63563 30.163 6.81239 29.8223C6.91481 29.6278 6.93665 29.2798 6.95653 28.9628C6.96801 28.7798 6.97884 28.6071 7.00417 28.4804C7.17334 27.6396 8.09649 23.8115 8.26735 23.4437C8.58924 22.7624 11.2049 21.2983 12.0406 21.0862C13.005 20.8424 14.8527 20.8101 17.2139 21.0862C17.2793 21.0938 17.3446 21.1015 17.41 21.1092C19.0486 21.3021 20.6629 21.4921 22.521 20.9008C23.9562 20.4441 25.0545 19.4038 25.0545 17.2426C25.0545 15.9136 24.9559 15.8145 24.9406 15.8093C24.9484 15.807 24.9804 15.7849 25.0545 15.6311C25.297 15.1244 25.6321 14.7153 25.9778 14.2933C26.0933 14.1523 26.21 14.0099 26.3248 13.8619C27.779 11.8384 27.7893 8.9383 26.6507 7.1941L26.6291 7.1611C25.5084 5.4444 25.2214 5.0047 25.169 3.7872C25.1247 2.8236 25.6403 2.2783 26.4575 2.3651C26.8063 2.4023 28.3453 2.0457 28.2451 1.59206C28.1725 1.26327 27.4787 1.10973 26.8739 0.975881C26.6442 0.925061 26.4274 0.877082 26.2623 0.823432C26.0322 0.748652 25.8571 0.597422 25.6803 0.444742C25.3961 0.199292 25.1076 -0.0499284 24.579 0.00865161C23.7216 0.103662 23.153 0.618882 22.9188 1.06058C22.397 2.055 22.4197 3.411 22.834 4.4376C23.0795 5.0466 23.3479 5.5673 23.6101 6.0759C24.0522 6.9336 24.4764 7.7567 24.7432 8.9101C24.9651 9.8693 24.6199 11.1534 23.5999 11.7228C23.1913 11.951 22.658 11.7059 21.8568 11.3378C20.6584 10.7871 18.8608 9.9611 15.9849 10.0318C12.2934 10.1225 10.1667 11.6371 8.63631 12.727C8.1774 13.0538 7.77211 13.3424 7.39434 13.543C5.66865 12.9688 3.44464 13.1873 1.94279 14.0453C0.440944 14.9033 0 16.2432 0 17.4729C0 18.7026 0.394274 19.7327 1.08786 19.4741C1.2962 19.4323 1.43359 19.1499 1.57432 18.8606C1.72408 18.5527 1.87762 18.2371 2.12448 18.1954C2.29543 18.1666 2.29224 18.3809 2.28869 18.6195C2.2849 18.8736 2.28071 19.1551 2.48633 19.1992C2.65745 19.2358 3.01209 19.0385 3.391 18.8278ZM65.2322 5.99C64.5432 5.99 63.9718 5.4171 63.9718 4.7095C63.9718 4.0019 64.5432 3.4459 65.2322 3.4459C65.938 3.4459 66.5093 4.0019 66.5093 4.7095C66.5093 5.4171 65.938 5.99 65.2322 5.99ZM42.295 15.0043H37.8585V3.7664H42.2782C45.7904 3.7664 48.2271 6.0073 48.2271 9.3769C48.2271 12.7803 45.7904 15.0043 42.295 15.0043ZM42.2747 12.8977C44.493 12.8977 45.7869 11.2971 45.7869 9.3764C45.7869 7.4052 44.577 5.8719 42.2915 5.8719H40.2414V12.8977H42.2747ZM49.3499 10.9265C49.3499 13.538 51.2152 15.206 53.6856 15.206C54.9459 15.206 56.2231 14.8184 57.0297 14.0771L56.0718 12.6619C55.5509 13.1673 54.6098 13.4537 53.9208 13.4537C52.5428 13.4537 51.7362 12.6282 51.585 11.6341H57.6179V11.1286C57.6179 8.4834 55.9878 6.6638 53.5511 6.6638C51.0976 6.6638 49.3499 8.5677 49.3499 10.9265ZM55.569 10.1517C55.5018 9.3767 54.964 8.4163 53.5524 8.4163C52.2249 8.4163 51.6535 9.343 51.5695 10.1517H55.569ZM59.1631 12.9656C59.1631 14.4315 59.953 15.2065 61.4486 15.2065C62.3224 15.2065 62.9106 14.9706 63.2299 14.6842L62.7762 13.0499C62.6585 13.1847 62.3561 13.3026 62.0368 13.3026C61.5662 13.3026 61.2974 12.9151 61.2974 12.3928V3.7664H59.1631V12.9656ZM64.171 15.0038H66.3053V6.866H64.171V15.0038ZM72.8233 15.0038H70.521L67.2609 6.866H69.5464L71.6638 12.5271L73.798 6.866H76.0834L72.8233 15.0038ZM76.5187 10.9265C76.5187 13.538 78.384 15.206 80.8543 15.206C82.1147 15.206 83.3919 14.8184 84.1985 14.0771L83.2406 12.6619C82.7197 13.1673 81.7786 13.4537 81.0896 13.4537C79.7116 13.4537 78.905 12.6282 78.7537 11.6341H84.7867V11.1286C84.7867 8.4834 83.1566 6.6638 80.7199 6.6638C78.2664 6.6638 76.5187 8.5677 76.5187 10.9265ZM82.737 10.1517C82.6698 9.3767 82.132 8.4163 80.7204 8.4163C79.3928 8.4163 78.8215 9.343 78.7374 10.1517H82.737ZM86.339 15.0038H88.4732V9.6291C88.8261 9.1068 89.7672 8.7025 90.473 8.7025C90.7251 8.7025 90.9099 8.7193 91.0612 8.753V6.6638C90.0529 6.6638 89.0614 7.2535 88.4732 7.9611V6.866H86.339V15.0038ZM95.6789 18.3061C94.3177 18.3061 93.2254 17.9186 92.2843 17.093L93.2422 15.5598C93.8304 16.2674 94.8218 16.5539 95.6789 16.5539C97.0569 16.5539 97.8635 15.6104 97.8635 14.4647V13.6222C97.309 14.2288 96.3343 14.8522 95.0067 14.8522C93.2254 14.8522 92.3852 13.875 92.3852 12.2912V6.866H94.5194V11.4488C94.5194 12.5776 95.1075 12.9483 96.015 12.9483C96.8384 12.9483 97.4938 12.4934 97.8635 12.0216V6.866H99.9977V14.4647C99.9977 16.9077 98.2668 18.3061 95.6789 18.3061ZM37.1281 24.7101C37.1281 28.164 39.7328 30.5228 43.1106 30.5228C45.5641 30.5228 46.9925 29.158 47.7823 27.7596L45.7321 26.7656C45.2616 27.6754 44.2533 28.3999 43.1106 28.3999C41.0604 28.3999 39.5816 26.833 39.5816 24.7101C39.5816 22.5872 41.0604 21.0202 43.1106 21.0202C44.2533 21.0202 45.2616 21.7447 45.7321 22.6545L47.7823 21.6436C46.9925 20.2284 45.5641 18.8974 43.1106 18.8974C39.7328 18.8974 37.1281 21.2393 37.1281 24.7101ZM51.6354 30.5226C50.1397 30.5226 49.3499 29.7476 49.3499 28.2818V19.0826H51.4841V27.709C51.4841 28.2313 51.753 28.6188 52.2235 28.6188C52.5428 28.6188 52.8453 28.5008 52.9629 28.3661L53.4167 30.0004C53.0974 30.2868 52.5092 30.5226 51.6354 30.5226ZM59.833 30.3205H61.9672V22.1827H59.833V27.6921C59.4633 28.1639 58.8079 28.6188 57.9845 28.6188C57.077 28.6188 56.4888 28.2481 56.4888 27.1193V22.1827H54.3546V27.9617C54.3546 29.5454 55.1949 30.5226 56.9762 30.5226C58.3038 30.5226 59.2784 29.8993 59.833 29.2927V30.3205ZM66.2218 27.7094C66.5915 28.2317 67.3645 28.6192 68.0704 28.6192C69.2971 28.6192 70.1205 27.6588 70.1205 26.2435C70.1205 24.8451 69.2971 23.8848 68.0704 23.8848C67.3645 23.8848 66.5915 24.2891 66.2218 24.8283V27.7094ZM64.089 30.3205H66.2232V29.2759C66.8618 30.0846 67.7525 30.5226 68.7271 30.5226C70.7773 30.5226 72.3234 28.9726 72.3234 26.2432C72.3234 23.598 70.7941 21.9805 68.7271 21.9805C67.7693 21.9805 66.8618 22.3849 66.2232 23.2273V19.0826H64.089V30.3205ZM17.1821 24.7573C17.1287 24.2609 17.4324 21.8179 17.4324 21.8179C17.4324 21.8179 18.0426 21.9193 18.6314 21.9838C19.2203 22.0483 20.1676 22.0994 20.1676 22.0994C20.1676 22.0994 19.6568 23.9324 19.9535 24.3508C20.3266 24.8771 21.6064 25.8241 22.8341 26.7326C23.8627 27.4937 24.8547 28.2278 25.2465 28.6648C25.6785 29.091 26.1171 29.5045 26.6537 29.8769C26.8408 30.0346 27.2334 30.1235 27.6219 30.2114C28.021 30.3018 28.4158 30.3911 28.5789 30.5532C28.7942 30.7842 29.0575 31.4574 28.9254 31.5792C28.8352 31.6623 26.9803 31.7026 26.6537 31.6445C26.2996 31.6445 25.8756 31.3059 25.8756 31.3059C25.8756 31.3059 25.6123 31.5792 25.2465 31.3858C24.8439 31.1869 24.7303 30.8558 24.6101 30.5053C24.5378 30.2947 24.4632 30.077 24.3219 29.8769C24.1067 29.664 20.9569 27.6093 18.9272 26.4735C17.2629 25.5422 17.26 25.5138 17.1921 24.8532C17.1889 24.8226 17.1857 24.7907 17.1821 24.7573Z" fill="#2E2F33"/>
</svg>
