<svg width="153" height="24" viewBox="0 0 153 24" fill="none" xmlns="http://www.w3.org/2000/svg">
<g clip-path="url(#clip0)">
<path fill-rule="evenodd" clip-rule="evenodd" d="M39.0801 16.7733C40.0116 16.7714 40.9281 16.5377 41.7468 16.0933L42.4401 15.7733L44.4534 17.2533C42.9948 18.7333 40.9836 19.5358 38.9068 19.4666C36.8628 19.5033 34.8859 18.7374 33.4001 17.3333C31.9878 15.9202 31.2044 13.9977 31.2268 11.9999C31.1777 9.99722 31.9652 8.06462 33.4001 6.66662C34.9113 5.29232 36.8911 4.54812 38.9334 4.58662C40.7814 4.52932 42.5856 5.15602 44.0001 6.34662L44.1201 6.46662L41.8934 8.11992C41.0654 7.52872 40.0709 7.21592 39.0534 7.22662C37.7639 7.17072 36.5091 7.65292 35.5888 8.55792C34.6686 9.46302 34.1656 10.7097 34.2001 11.9999C34.1651 13.2951 34.6717 14.5462 35.5979 15.4521C36.5241 16.3581 37.786 16.8369 39.0801 16.7733ZM82.0134 4.77332H76.0668V19.2266H79.1734V15.1333H82.0134C85.8001 15.1333 88.1601 13.1333 88.1601 9.94662C88.1601 6.75992 85.8001 4.77332 82.0134 4.77332ZM82.0134 12.7733H79.1734V7.18662H81.9468C83.9334 7.18662 85.0401 8.17332 85.0401 9.95992C85.0401 11.7466 84.0001 12.7199 81.9468 12.7199L82.0134 12.7733ZM50.2134 10.4133H54.0001H54.0134C57.4401 10.4133 59.3468 11.7866 59.3468 14.6799C59.3468 17.5733 57.2534 19.2266 53.6001 19.2266H47.0934V4.77332H59.5201L56.2668 7.18662H50.2134V10.4133ZM50.2134 16.8133H53.4534C55.3868 16.8133 56.3601 16.1466 56.3601 14.8133C56.3601 13.48 55.4401 12.8133 53.4534 12.8133H50.2134V16.8133ZM73.1601 4.77332L69.8934 7.18662H65.3601V10.7199H72.0134V13.1199H65.3601V16.8133H73.1601V19.2266H62.2401V4.77332H73.1601Z" fill="#219F38"/>
<path d="M21.4928 4.66602C22.0661 5.40142 22.5495 6.20262 22.9328 7.05262L11.9995 15.0526L7.43945 12.2393V8.79932L11.9995 11.666L21.4928 4.66602Z" fill="#21A038"/>
<path d="M2.77333 12.0004C2.77333 11.8404 2.77333 11.6937 2.77333 11.5337L0 11.4004C0 11.6004 0 11.8004 0 12.0004C0.00280083 15.1819 1.26892 18.2321 3.52 20.4804L5.48 18.5204C3.74416 16.7951 2.76969 14.4478 2.77333 12.0004Z" fill="url(#paint0_linear)"/>
<path d="M11.9995 2.77333H12.4662L12.5995 0H11.9995C8.818 0.0028 5.7678 1.26892 3.51953 3.52L5.47953 5.48C7.20813 3.74915 9.55332 2.77558 11.9995 2.77333Z" fill="url(#paint1_linear)"/>
<path d="M12.0004 21.2262H11.5337L11.4004 23.9995H12.0004C15.1819 23.9967 18.2321 22.7306 20.4804 20.4795L18.5204 18.5195C16.7918 20.2504 14.4466 21.2239 12.0004 21.2262Z" fill="url(#paint2_linear)"/>
<path d="M17.2 4.3867L19.5333 2.66667C17.4006 0.94319 14.742 0.00209 12 0V2.77333C13.8565 2.77332 15.6695 3.33581 17.2 4.3867Z" fill="url(#paint3_linear)"/>
<path d="M23.9998 12.0002C23.9978 11.2807 23.9354 10.5626 23.8131 9.85352L21.2265 11.7469V12.0002C21.2267 14.6077 20.122 17.0931 18.1865 18.8402L19.9998 20.8935C22.5318 18.6289 23.9854 15.3972 23.9998 12.0002Z" fill="#21A038"/>
<path d="M11.9998 21.2265C9.39232 21.2267 6.90689 20.1221 5.15978 18.1865L3.10645 19.9998C5.37109 22.5319 8.60279 23.9854 11.9998 23.9998V21.2265Z" fill="url(#paint4_linear)"/>
<path d="M5.81333 5.16072L4 3.10742C1.46799 5.37202 0.0144474 8.60372 0 12.0007H2.77333C2.77312 9.39332 3.87776 6.90782 5.81333 5.16072Z" fill="url(#paint5_linear)"/>
<path fill-rule="evenodd" clip-rule="evenodd" d="M96.4774 7.94246C96.4182 12.1155 95.8504 14.7016 95.067 16.5624L93.5762 16.5666V21.3666H95.8684V18.8197H105.449V21.3624H107.741V16.5624H106.155V5.10156H96.5165L96.4774 7.94246ZM103.706 16.5623H97.4564C98.2409 14.4076 98.6712 11.5858 98.7495 8.00056V7.35456H103.706V16.5623Z" fill="#0096FC"/>
<path d="M112.264 15.3476L119.748 5.10156H122.414V18.8197H119.965V8.41296L112.444 18.8197H109.818V5.10156H112.264V15.3476Z" fill="#0096FC"/>
<path d="M137.11 17.3065C136.424 18.1301 134.621 19.0309 132.247 19.0309C127.78 19.0108 124.802 16.3666 124.802 11.9388C124.802 7.80494 127.741 4.88574 132.286 4.88574C134.442 4.88574 136.027 5.55184 136.832 6.11964V9.52934C135.792 8.04464 134.098 7.15414 132.286 7.13884C129.288 7.13884 127.447 9.07894 127.447 11.9578C127.447 14.6232 129.073 16.7155 132.228 16.7779C134.617 16.7779 136.302 15.6804 137.106 14.2901L137.11 17.3065Z" fill="#0096FC"/>
<path d="M141.888 18.8197H139.436V5.10156H141.885V10.8616H143.942L148.35 5.10156H151.328L146.097 11.6302L152.171 18.8197H149.036L144.06 12.8831H141.885L141.888 18.8197Z" fill="#0096FC"/>
</g>
<defs>
<linearGradient id="paint0_linear" x1="6.71941" y1="17.6262" x2="0.916013" y2="11.5175" gradientUnits="userSpaceOnUse">
<stop offset="0.14" stop-color="#F2E913"/>
<stop offset="0.3" stop-color="#E7E518"/>
<stop offset="0.58" stop-color="#CADB26"/>
<stop offset="0.89" stop-color="#A3CD39"/>
</linearGradient>
<linearGradient id="paint1_linear" x1="6.7695" y1="6.3671" x2="11.9773" y2="0.91685" gradientUnits="userSpaceOnUse">
<stop offset="0.06" stop-color="#0FA8E0"/>
<stop offset="0.54" stop-color="#0099F9"/>
<stop offset="0.92" stop-color="#0291EB"/>
</linearGradient>
<linearGradient id="paint2_linear" x1="12.8707" y1="24.9964" x2="20.1316" y2="20.4795" gradientUnits="userSpaceOnUse">
<stop offset="0.12" stop-color="#A3CD39"/>
<stop offset="0.28" stop-color="#86C339"/>
<stop offset="0.87" stop-color="#21A038"/>
</linearGradient>
<linearGradient id="paint3_linear" x1="9.42124" y1="3.13055" x2="14.7176" y2="7.9325" gradientUnits="userSpaceOnUse">
<stop offset="0.06" stop-color="#0291EB"/>
<stop offset="0.79" stop-color="#0C8ACB"/>
</linearGradient>
<linearGradient id="paint4_linear" x1="1.45406" y1="22.3999" x2="7.61698" y2="27.794" gradientUnits="userSpaceOnUse">
<stop offset="0.13" stop-color="#F2E913"/>
<stop offset="0.3" stop-color="#EBE716"/>
<stop offset="0.53" stop-color="#D9E01F"/>
<stop offset="0.8" stop-color="#BBD62D"/>
<stop offset="0.98" stop-color="#A3CD39"/>
</linearGradient>
<linearGradient id="paint5_linear" x1="3.82875" y1="14.8634" x2="9.57762" y2="8.49452" gradientUnits="userSpaceOnUse">
<stop offset="0.07" stop-color="#A3CD39"/>
<stop offset="0.26" stop-color="#81C55F"/>
<stop offset="0.92" stop-color="#0FA8E0"/>
</linearGradient>
<clipPath id="clip0">
<rect width="153" height="24" fill="white"/>
</clipPath>
</defs>
</svg>
