<svg width="20" height="20" viewBox="0 0 20 20" fill="none" xmlns="http://www.w3.org/2000/svg">
<path d="M15.6337 19.7575H4.61468C2.29237 19.7575 0.410156 17.8756 0.410156 15.5535V4.53601C0.410156 2.214 2.29237 0.332031 4.61468 0.332031H15.6337C17.9555 0.332031 19.8382 2.214 19.8382 4.53601V15.5535C19.8382 17.8756 17.956 19.7575 15.6337 19.7575Z" fill="white"/>
<mask id="mask0" style="mask-type:alpha" maskUnits="userSpaceOnUse" x="0" y="0" width="20" height="20">
<path d="M15.6337 19.7575H4.61468C2.29237 19.7575 0.410156 17.8756 0.410156 15.5535V4.53601C0.410156 2.214 2.29237 0.332031 4.61468 0.332031H15.6337C17.9555 0.332031 19.8382 2.214 19.8382 4.53601V15.5535C19.8382 17.8756 17.956 19.7575 15.6337 19.7575Z" fill="white"/>
</mask>
<g mask="url(#mask0)">
<path d="M11.8325 8.16781H12.1301C13.1373 8.16781 13.9569 8.98726 13.9569 9.99436V12.2378C13.9569 13.2448 13.1373 14.0643 12.1301 14.0643H9.73195C9.1625 14.0643 8.89484 14.3533 8.89484 14.9046V17.2991C8.89484 18.3062 8.07523 19.1256 7.06804 19.1256H4.82433C3.81717 19.1256 2.99758 18.3062 2.99758 17.2991C2.99758 17.2991 2.99758 15.5015 2.99758 14.9046C2.99758 14.3078 2.7048 14.0643 2.15336 14.0643H-0.237669C-1.24487 14.0643 -2.06445 13.2448 -2.06445 12.2378V9.99436C-2.06445 8.98726 -1.24487 8.16781 -0.237669 8.16781H2.15478C2.68775 8.16781 2.99758 7.86794 2.99758 7.31709V4.93296C2.99758 3.92593 3.81717 3.10645 4.82433 3.10645H7.06757C8.07476 3.10645 8.89438 3.92593 8.89438 4.93296V7.31709C8.89438 7.90015 9.10804 8.16781 9.71919 8.16781H10.1432L8.90952 9.847C7.9691 9.77364 7.2154 8.97828 7.2154 8.01956V5.63262C7.2154 5.04905 6.99412 4.78475 6.3674 4.78475H5.51319C4.98212 4.78475 4.67561 5.06705 4.67561 5.63262V8.01956C4.67561 9.02662 3.85603 9.84607 2.84882 9.84607H0.463483C-0.151919 9.84607 -0.38548 10.2473 -0.38548 10.6978V11.5428C-0.38548 12.0478 -0.0784891 12.386 0.454483 12.386H2.84977C3.85697 12.386 4.67655 13.2055 4.67655 14.2125V16.6037C4.67655 17.1456 4.94612 17.4474 5.50655 17.4474H6.37021C6.90318 17.4474 7.21633 17.1276 7.21633 16.5947V14.2125C7.21633 13.2055 8.03591 12.386 9.04314 12.386H11.4408C12.0197 12.386 12.2784 12.0942 12.2784 11.5339V10.6888C12.2784 10.1099 11.9737 9.84653 11.4228 9.84653H10.6008L11.8325 8.16781Z" fill="url(#paint0_linear)"/>
<path d="M14.9819 5.12863L14.1895 4.63174V5.22952L14.9819 5.72646L16.8786 4.32859C16.8113 4.18078 16.7275 4.042 16.6289 3.91504L14.9819 5.12863Z" fill="#ACB2B6"/>
<path d="M17.0637 5.18785C17.0637 5.06041 17.0523 4.93585 17.0305 4.81505L16.5824 5.14517C16.5828 5.15939 16.5828 5.17364 16.5828 5.18785C16.5828 6.07032 15.8646 6.78841 14.9821 6.78841C14.0994 6.78841 13.3812 6.07032 13.3812 5.18785C13.3812 4.30534 14.0994 3.58724 14.9821 3.58724C15.3165 3.58724 15.6273 3.6905 15.8845 3.86671L16.2896 3.56828C15.9324 3.27934 15.4776 3.10645 14.9821 3.10645C13.8322 3.10645 12.9004 4.03819 12.9004 5.18785C12.9004 6.33747 13.8322 7.26922 14.9821 7.26922C16.1318 7.26922 17.0637 6.337 17.0637 5.18785Z" fill="#ACB2B6"/>
</g>
<defs>
<linearGradient id="paint0_linear" x1="2.43636" y1="17.1943" x2="9.67455" y2="4.65577" gradientUnits="userSpaceOnUse">
<stop stop-color="#8168F0"/>
<stop offset="0.137" stop-color="#7F6DF0"/>
<stop offset="0.2924" stop-color="#787AF0"/>
<stop offset="0.4568" stop-color="#6C91F1"/>
<stop offset="0.6273" stop-color="#5DB1F1"/>
<stop offset="0.8012" stop-color="#48D9F2"/>
<stop offset="0.8195" stop-color="#46DEF2"/>
<stop offset="1" stop-color="#50E3C2"/>
</linearGradient>
</defs>
</svg>
