<svg width="344" height="429" viewBox="0 0 344 429" fill="none" xmlns="http://www.w3.org/2000/svg">
<g clip-path="url(#clip0)">
<path d="M16.25 6.67004H212V369.17H0V22.92C0 18.6103 1.71205 14.477 4.75951 11.4296C7.80698 8.38209 11.9402 6.67004 16.25 6.67004Z" fill="#EFC44F"/>
<path d="M199 274.67H11.8301V24.17H199V274.67ZM17.8301 268.67H193V30.17H17.8301V268.67Z" fill="#FAFFFF"/>
<path d="M214.5 274.67H330.17V0L214.5 11.67V274.67Z" fill="#B2CFD3"/>
<path d="M343.5 3.33V270.67L330.17 274.67V0L343.5 3.33Z" fill="#FEC41D"/>
<path d="M193 30.17H17.8301V268.67H193V30.17Z" fill="#8DAAA5"/>
<path d="M198.16 92H14.8301V98.33H198.16V92Z" fill="#FAFFFF"/>
<path d="M198.16 148.9H14.8301V155.23H198.16V148.9Z" fill="#FAFFFF"/>
<path d="M198.16 217.5H14.8301V223.83H198.16V217.5Z" fill="#FAFFFF"/>
<path d="M316.83 147.17V172.83L293.5 176.17V149.17L316.83 147.17Z" fill="#8FA8A7"/>
<path d="M316.83 60V85.67L293.5 89V62L316.83 60Z" fill="#8FA8A7"/>
<path d="M214.5 33.42H212V274.67H214.5V33.42Z" fill="#D1A947"/>
<path d="M36.4902 78.7801V96.0001L70.4902 90.3001C71.5196 84.6463 71.5568 78.8566 70.6002 73.1901L70.4902 72.5601L36.4902 78.7801Z" fill="#F7BE26"/>
<path d="M46.8502 65.44L44.3202 68.7C44.5397 69.7669 44.3391 70.8773 43.7602 71.8C42.8902 73.3 41.4402 74.14 40.3102 73.86L36.4902 78.78L70.4902 72.57C62.6402 65.05 46.8502 65.44 46.8502 65.44Z" fill="#FEEB7D"/>
<path d="M49.5002 86.4C50.812 86.3696 52.0977 86.77 53.1602 87.54C53.1936 87.3683 53.1936 87.1917 53.1602 87.02C53.0002 85.76 51.1102 85 48.8802 85.24C46.6502 85.48 45.0002 86.75 45.1102 88C45.1046 88.0699 45.1046 88.1401 45.1102 88.21C45.6611 87.6007 46.3411 87.122 47.1006 86.8089C47.8601 86.4957 48.6799 86.3561 49.5002 86.4Z" fill="#DE9100"/>
<path d="M49.4299 89.8C51.3599 89.57 52.8699 88.61 53.1599 87.54C52.0974 86.77 50.8117 86.3696 49.4999 86.4C48.6854 86.3633 47.8729 86.5075 47.1208 86.8221C46.3687 87.1368 45.6956 87.6142 45.1499 88.22C45.4799 89.36 47.3199 90.06 49.4299 89.8Z" fill="#E79F03"/>
<path d="M54.6699 74.75C55.6266 74.7283 56.5642 75.0198 57.3399 75.58C57.3642 75.4545 57.3642 75.3255 57.3399 75.2C57.2299 74.28 55.8199 73.7 54.1899 73.9C52.5599 74.1 51.3299 75 51.4399 75.9C51.4362 75.95 51.4362 76.0001 51.4399 76.05C51.8455 75.6039 52.3467 75.2553 52.9061 75.0302C53.4654 74.805 54.0684 74.7093 54.6699 74.75Z" fill="#DE9100"/>
<path d="M54.62 76.6001C54.1108 76.7065 53.5838 76.6933 53.0805 76.5614C52.5773 76.4295 52.1116 76.1826 51.72 75.84C51.6415 75.9187 51.568 76.0022 51.5 76.09C51.74 76.92 53.08 77.4301 54.62 77.2401C56.16 77.0501 57.13 76.3701 57.34 75.6001L57.1 75.4301C56.4531 76.1225 55.5657 76.5411 54.62 76.6001Z" fill="#FEEB7D"/>
<path d="M54.6199 76.6C55.5636 76.5359 56.4471 76.1138 57.0899 75.42C56.3617 74.9761 55.5227 74.7473 54.6699 74.76C53.5668 74.7117 52.4891 75.0997 51.6699 75.84C52.067 76.1901 52.5412 76.4415 53.0538 76.5735C53.5665 76.7056 54.1031 76.7147 54.6199 76.6Z" fill="#E79F03"/>
<path d="M41.73 91.8001C42.1856 91.7914 42.6316 91.9318 43 92.2001C43.0144 92.1342 43.0144 92.066 43 92.0001C42.95 91.5601 42.28 91.2901 41.5 91.3801C40.72 91.4701 40.14 91.9001 40.19 92.3801C40.1882 92.4034 40.1882 92.4268 40.19 92.4501C40.3806 92.2321 40.6183 92.0603 40.8851 91.9476C41.1519 91.835 41.4408 91.7846 41.73 91.8001Z" fill="#DE9100"/>
<path d="M41.7102 93C41.9787 92.9957 42.2409 92.9179 42.4683 92.7751C42.6957 92.6323 42.8797 92.4299 43.0002 92.19C42.6318 91.9218 42.1858 91.7813 41.7302 91.79C41.4476 91.7766 41.1655 91.8262 40.9043 91.9351C40.6432 92.0441 40.4095 92.2097 40.2202 92.42C40.3402 92.82 41.0002 93.06 41.7102 93Z" fill="#E79F03"/>
<path d="M66.6902 77.7199C67.7707 77.8795 68.7483 78.4488 69.4202 79.3099C69.4832 79.1467 69.5203 78.9746 69.5302 78.7999C69.6102 77.5399 68.1902 76.4999 66.3702 76.4899C64.5502 76.4799 63.0102 77.4899 62.9302 78.7499C62.9256 78.8199 62.9256 78.89 62.9302 78.9599C63.4018 78.4534 63.9938 78.0741 64.6511 77.8574C65.3084 77.6406 66.0098 77.5933 66.6902 77.7199Z" fill="#DE9100"/>
<path d="M66.0999 81.06C66.7639 81.1164 67.4301 80.9804 68.0188 80.6683C68.6075 80.3562 69.094 79.8812 69.4199 79.3C68.7481 78.4389 67.7704 77.8695 66.6899 77.71C66.0068 77.5913 65.3047 77.6473 64.6491 77.8728C63.9934 78.0984 63.4054 78.4861 62.9399 79C62.9999 80.13 64.3799 81.05 66.0999 81.06Z" fill="#E79F03"/>
<path d="M61.4098 87.5C61.6984 87.5078 61.9819 87.578 62.2408 87.7057C62.4998 87.8334 62.728 88.0157 62.9098 88.24C62.9232 88.1304 62.9232 88.0196 62.9098 87.91C62.882 87.7109 62.8116 87.5201 62.7034 87.3505C62.5953 87.181 62.4519 87.0368 62.283 86.9277C62.1141 86.8186 61.9236 86.7471 61.7246 86.7182C61.5256 86.6892 61.3228 86.7035 61.1298 86.76C60.7004 86.8244 60.3081 87.0403 60.0239 87.3685C59.7396 87.6968 59.5821 88.1158 59.5798 88.55C59.5776 88.5933 59.5776 88.6367 59.5798 88.68C59.7382 88.3276 59.9954 88.0286 60.3201 87.8192C60.6449 87.6098 61.0234 87.4989 61.4098 87.5Z" fill="#DE9100"/>
<path d="M61.3801 89.69C61.7498 89.6263 62.0924 89.4547 62.3646 89.1966C62.6369 88.9386 62.8267 88.6057 62.9101 88.24C62.7283 88.0157 62.5001 87.8334 62.2412 87.7057C61.9823 87.5779 61.6987 87.5078 61.4101 87.5C61.0316 87.5056 60.6625 87.6186 60.3456 87.8257C60.0288 88.0328 59.7772 88.3256 59.6201 88.67C59.6652 88.8546 59.7472 89.0281 59.8611 89.1802C59.9749 89.3323 60.1184 89.4598 60.2828 89.555C60.4471 89.6503 60.6291 89.7114 60.8177 89.7346C61.0062 89.7578 61.1976 89.7426 61.3801 89.69Z" fill="#E79F03"/>
<path d="M67.93 84.7699C68.0979 84.7725 68.263 84.8124 68.4135 84.8868C68.564 84.9612 68.696 85.0681 68.8 85.1999C68.8078 85.1368 68.8078 85.073 68.8 85.0099C68.7838 84.8976 68.7443 84.7899 68.6838 84.6939C68.6234 84.5978 68.5434 84.5156 68.4491 84.4524C68.3548 84.3892 68.2483 84.3466 68.1365 84.3272C68.0247 84.3078 67.91 84.3122 67.8 84.3399C67.5574 84.3767 67.3351 84.4965 67.171 84.6789C67.0069 84.8612 66.9111 85.0949 66.9 85.3399C66.8986 85.3666 66.8986 85.3933 66.9 85.4199C66.9955 85.2275 67.1421 85.065 67.3238 84.9504C67.5054 84.8357 67.7152 84.7733 67.93 84.7699Z" fill="#DE9100"/>
<path d="M67.9102 86C68.125 85.9638 68.3243 85.8647 68.4828 85.7152C68.6412 85.5656 68.7517 85.3724 68.8002 85.16C68.6962 85.0282 68.5642 84.9212 68.4137 84.8468C68.2632 84.7724 68.098 84.7325 67.9302 84.73C67.7174 84.7415 67.5117 84.8109 67.3355 84.9308C67.1593 85.0506 67.0191 85.2163 66.9302 85.41C66.9845 85.6166 67.1173 85.7939 67.3003 85.9041C67.4833 86.0143 67.7022 86.0487 67.9102 86Z" fill="#E79F03"/>
<path d="M255.42 142.8C249.5 142.87 244.66 141.89 244.34 140.6C244.34 145.48 244.44 151.97 244.54 160.93C244.54 160.93 247.67 166.04 255.67 165.93C263.67 165.82 266.67 160.66 266.67 160.66C266.57 151.66 266.53 145.21 266.42 140.33C266.15 141.65 261.34 142.73 255.42 142.8Z" fill="#F0F2E6"/>
<path d="M255.37 137.9C261.27 137.83 266.1 138.8 266.45 140.08C266.22 129.97 265.74 126.85 264.03 123.08C261.44 117.34 262.32 110.2 262.32 110.2L255.07 110.28L247.82 110.36C247.82 110.36 248.82 117.47 246.39 123.27C244.75 127.17 244.39 130.27 244.39 140.35C244.66 139 249.46 138 255.37 137.9Z" fill="#E9E4D8"/>
<path d="M244.31 140.47C244.305 140.513 244.305 140.557 244.31 140.6C244.31 140.51 244.31 140.42 244.31 140.33C244.304 140.376 244.304 140.423 244.31 140.47Z" fill="#F0F2E6"/>
<path d="M266.48 140.23C266.486 140.183 266.486 140.136 266.48 140.09V140.36C266.485 140.317 266.485 140.273 266.48 140.23Z" fill="#F0F2E6"/>
<path d="M255.42 142.8C261.34 142.73 266.15 141.66 266.42 140.36V140.09C266.07 138.81 261.25 137.84 255.34 137.91C249.43 137.98 244.64 139.05 244.34 140.34C244.34 140.43 244.34 140.52 244.34 140.61C244.66 141.89 249.5 142.86 255.42 142.8Z" fill="#F0F2E6"/>
<path d="M255.42 143C249.94 143.06 245.27 142.22 244.32 141V140.56C245.19 141.67 250.12 142.67 255.41 142.61C260.7 142.55 265.56 141.43 266.41 140.31V140.78C265.5 142 260.86 142.93 255.42 143Z" fill="#AEAEA2"/>
<path d="M262.31 110.18C262.31 111.06 259.08 111.82 255.08 111.86C251.08 111.9 247.82 111.22 247.81 110.34V107.14L262.31 106.98V110.18Z" fill="#4488B7"/>
<path d="M255.039 108.669C259.043 108.625 262.281 107.873 262.271 106.99C262.261 106.106 259.008 105.425 255.004 105.469C251 105.514 247.762 106.265 247.772 107.149C247.782 108.033 251.035 108.713 255.039 108.669Z" fill="#62A5D2"/>
<path d="M250.32 122.15C248.813 126.569 247.991 131.192 247.88 135.86C247.878 136.084 247.958 136.301 248.106 136.471C248.253 136.64 248.457 136.75 248.679 136.779C248.901 136.809 249.127 136.756 249.313 136.631C249.499 136.506 249.633 136.317 249.69 136.1C250.06 134.44 250.37 131.1 250.61 129.71C251.19 126.46 251.43 125.71 252.11 122.39C252.32 121.38 250.63 121.17 250.32 122.15Z" fill="white"/>
<path d="M282 140.66C276.37 140.57 271.79 139.52 271.52 138.29C271.4 142.93 271.32 149.1 271.19 157.63C271.19 157.63 274.04 162.57 281.65 162.69C289.26 162.81 292.29 158 292.29 158C292.43 149.47 292.55 143.31 292.58 138.66C292.26 139.85 287.66 140.75 282 140.66Z" fill="#FF8B22"/>
<path d="M282.1 136C287.71 136.09 292.28 137.13 292.58 138.36C292.58 128.74 292.25 125.76 290.72 122.1C288.4 116.58 289.43 109.81 289.43 109.81L282.54 109.7L275.65 109.59C275.65 109.59 276.44 116.38 273.96 121.83C272.3 125.5 271.83 128.44 271.57 138.02C271.89 136.81 276.49 135.92 282.1 136Z" fill="#F4EBDF"/>
<path d="M271.52 138.17C271.516 138.21 271.516 138.25 271.52 138.29V138C271.512 138.056 271.512 138.114 271.52 138.17Z" fill="#F0F2E6"/>
<path d="M292.61 138.51C292.616 138.464 292.616 138.416 292.61 138.37V138.63C292.614 138.59 292.614 138.55 292.61 138.51Z" fill="#F0F2E6"/>
<path d="M282 140.66C287.63 140.75 292.24 139.85 292.55 138.66V138.4C292.25 137.17 287.69 136.13 282.07 136.04C276.45 135.95 271.86 136.85 271.52 138.04V138.3C271.82 139.52 276.39 140.57 282 140.66Z" fill="#FF8B22"/>
<path d="M282 140.84C276.78 140.76 272.37 139.84 271.49 138.66V138.24C272.29 139.32 276.95 140.4 281.98 140.48C287.01 140.56 291.66 139.62 292.53 138.58V139C291.63 140.16 287.19 140.93 282 140.84Z" fill="#D86D16"/>
<path d="M289.42 109.82C289.42 110.66 286.31 111.29 282.5 111.23C278.69 111.17 275.62 110.44 275.63 109.6V106.6L289.42 106.82V109.82Z" fill="#9B131B"/>
<path d="M289.462 106.78C289.476 105.941 286.398 105.21 282.588 105.149C278.777 105.088 275.678 105.719 275.664 106.558C275.651 107.398 278.728 108.128 282.539 108.189C286.349 108.25 289.449 107.619 289.462 106.78Z" fill="#C81F28"/>
<path d="M277.71 120.9C276.159 125.071 275.255 129.455 275.03 133.9C275.012 134.013 275.017 134.128 275.044 134.239C275.071 134.351 275.119 134.455 275.186 134.548C275.254 134.64 275.339 134.718 275.436 134.778C275.534 134.838 275.642 134.877 275.755 134.895C275.868 134.913 275.983 134.908 276.094 134.881C276.206 134.854 276.31 134.806 276.403 134.739C276.495 134.671 276.573 134.586 276.633 134.489C276.693 134.391 276.732 134.283 276.75 134.17C277.14 132.6 277.52 129.42 277.75 128.12C278.38 125.04 278.63 124.34 279.37 121.2C279.64 120.21 278 120 277.71 120.9Z" fill="white"/>
<path d="M188.64 139.78L185.08 137.92C184.751 137.92 184.436 137.789 184.203 137.557C183.97 137.324 183.84 137.009 183.84 136.68V136.22C183.84 135.891 183.97 135.576 184.203 135.343C184.436 135.111 184.751 134.98 185.08 134.98L188.64 133.74C188.969 133.74 189.284 133.871 189.517 134.103C189.749 134.336 189.88 134.651 189.88 134.98V138.54C189.88 138.703 189.848 138.864 189.785 139.015C189.723 139.165 189.632 139.302 189.517 139.417C189.402 139.532 189.265 139.623 189.114 139.686C188.964 139.748 188.803 139.78 188.64 139.78Z" fill="#811606"/>
<path d="M178 141.4H150.18C147.58 145.8 143.98 148.72 140.82 149.14H173.55C176.59 149.148 179.521 148.001 181.748 145.931C183.976 143.861 185.334 141.023 185.55 137.99C184.608 139.065 183.447 139.925 182.145 140.514C180.842 141.102 179.429 141.404 178 141.4Z" fill="#811606"/>
<path d="M140.82 149.14H139.34C139.831 149.207 140.329 149.207 140.82 149.14Z" fill="#FFA08E"/>
<path d="M185.55 134.88C185.55 131.697 184.286 128.645 182.035 126.395C179.785 124.144 176.732 122.88 173.55 122.88H148.09C148.782 122.887 149.464 123.044 150.09 123.34C154.09 125.23 154.59 132.46 151.25 139.47C150.93 140.14 150.58 140.79 150.25 141.41H178C179.42 141.407 180.824 141.101 182.117 140.513C183.411 139.925 184.564 139.069 185.5 138C185.5 137.72 185.5 137.44 185.5 137.15L185.55 134.88Z" fill="#95270B"/>
<path d="M150.05 123.34C149.425 123.044 148.742 122.887 148.05 122.88H148C144.27 122.88 139.71 126.64 136.9 132.42L136.8 132.61C133.46 139.61 133.98 146.84 137.96 148.74C138.396 148.947 138.862 149.085 139.34 149.15H140.82C143.98 148.73 147.58 145.81 150.18 141.41C150.54 140.79 150.89 140.15 151.18 139.47C154.55 132.45 154 125.23 150.05 123.34Z" fill="#FFA08E"/>
<path d="M147.31 125.32C147.218 125.252 147.112 125.205 147 125.18C146.563 125.179 146.132 125.291 145.75 125.505C145.369 125.718 145.048 126.027 144.82 126.4C144.02 127.46 143.82 128.69 144.47 129.14C144.537 129.188 144.612 129.225 144.69 129.25H144.94C145.299 129.224 145.648 129.121 145.963 128.948C146.279 128.776 146.554 128.538 146.77 128.25L147.01 127.96C147.75 127 147.91 125.77 147.31 125.32Z" fill="white"/>
<path d="M143.59 138C143.506 137.955 143.415 137.928 143.32 137.92C142.962 137.97 142.623 138.111 142.336 138.33C142.049 138.549 141.823 138.838 141.68 139.17C141.15 140.17 141.16 141.17 141.68 141.45C141.739 141.483 141.803 141.507 141.87 141.52H142.08C142.367 141.46 142.639 141.34 142.877 141.168C143.115 140.996 143.314 140.775 143.46 140.52L143.62 140.26C144.15 139.36 144.13 138.34 143.59 138Z" fill="white"/>
<path d="M140.58 131.76C140.473 131.709 140.358 131.682 140.24 131.68C139.81 131.762 139.409 131.953 139.074 132.235C138.74 132.517 138.483 132.88 138.33 133.29C137.75 134.48 137.82 135.72 138.5 136.05C138.576 136.086 138.657 136.109 138.74 136.12H139C139.346 136.028 139.668 135.864 139.946 135.638C140.224 135.413 140.45 135.13 140.61 134.81C140.67 134.7 140.73 134.6 140.79 134.48C141.34 133.32 141.26 132.09 140.58 131.76Z" fill="white"/>
<path d="M148.46 137.72C148.38 137.675 148.291 137.648 148.2 137.64C147.864 137.687 147.545 137.82 147.274 138.024C147.002 138.229 146.788 138.499 146.65 138.81C146.15 139.71 146.16 140.67 146.65 140.96C146.706 140.993 146.767 141.016 146.83 141.03H147.03C147.303 140.972 147.56 140.857 147.785 140.693C148.011 140.53 148.2 140.321 148.34 140.08L148.49 139.83C149 139 149 138 148.46 137.72Z" fill="white"/>
<path d="M139.31 143.22C139.26 143.21 139.209 143.21 139.16 143.22C138.967 143.246 138.783 143.322 138.628 143.439C138.472 143.556 138.349 143.711 138.27 143.89C137.98 144.41 137.99 144.96 138.27 145.12H138.37H138.48C138.636 145.088 138.783 145.023 138.913 144.93C139.042 144.837 139.15 144.718 139.23 144.58L139.32 144.44C139.6 143.93 139.6 143.38 139.31 143.22Z" fill="white"/>
<path d="M147.52 131.45C147.47 131.44 147.419 131.44 147.37 131.45C147.177 131.476 146.993 131.552 146.837 131.669C146.682 131.786 146.559 131.942 146.48 132.12C146.19 132.64 146.2 133.19 146.48 133.35H146.58H146.69C146.846 133.318 146.993 133.253 147.123 133.16C147.252 133.067 147.36 132.948 147.44 132.81L147.53 132.67C147.82 132.17 147.82 131.62 147.52 131.45Z" fill="white"/>
<path d="M75.6201 82.52V90.92C75.6201 93.24 81.7701 95.12 89.3601 95.12C91.8014 95.1327 94.2385 94.9185 96.6401 94.48V82.48L75.6201 82.52Z" fill="#4488B7"/>
<path d="M103.1 90.92V82.52H96.6299V94.52C100.51 93.74 103.1 92.42 103.1 90.92Z" fill="#2C6D91"/>
<path d="M89.3601 86.7199C96.9485 86.7199 103.1 84.8395 103.1 82.5199C103.1 80.2003 96.9485 78.3199 89.3601 78.3199C81.7717 78.3199 75.6201 80.2003 75.6201 82.5199C75.6201 84.8395 81.7717 86.7199 89.3601 86.7199Z" fill="#CDCDCF"/>
<path d="M89.36 91.1801C86.4178 91.2664 83.487 90.7808 80.73 89.7501C80.4842 89.6111 80.2994 89.3851 80.2119 89.1167C80.1244 88.8482 80.1405 88.5568 80.2572 88.2996C80.3738 88.0425 80.5825 87.8384 80.8421 87.7274C81.1017 87.6164 81.3935 87.6067 81.66 87.7001C84.1244 88.5987 86.7382 89.0162 89.36 88.9301C91.1626 88.9432 92.962 88.7723 94.73 88.4201C94.8765 88.3854 95.0284 88.3804 95.1769 88.4053C95.3253 88.4302 95.4673 88.4846 95.5945 88.5651C95.7217 88.6457 95.8315 88.7508 95.9175 88.8744C96.0034 88.9979 96.0639 89.1375 96.0952 89.2847C96.1265 89.4319 96.1281 89.584 96.0998 89.7318C96.0716 89.8797 96.014 90.0204 95.9307 90.1458C95.8473 90.2711 95.7397 90.3785 95.6142 90.4616C95.4887 90.5448 95.3479 90.6021 95.1999 90.6301C93.2771 91.0118 91.3203 91.1961 89.36 91.1801Z" fill="#AFD9EF"/>
<path d="M89.3599 93.19C86.9037 93.2173 84.4571 92.8803 82.0999 92.19C82.0434 92.1723 81.991 92.1436 81.9456 92.1056C81.9002 92.0676 81.8628 92.0211 81.8354 91.9686C81.808 91.9161 81.7912 91.8588 81.7859 91.7998C81.7807 91.7409 81.7871 91.6815 81.8049 91.625C81.8226 91.5685 81.8513 91.5161 81.8893 91.4707C81.9273 91.4254 81.9738 91.3879 82.0263 91.3605C82.0787 91.3331 82.1361 91.3163 82.195 91.3111C82.254 91.3059 82.3134 91.3123 82.3699 91.33C84.6464 91.9726 87.0047 92.2792 89.3699 92.24C90.6571 92.2442 91.9432 92.164 93.2199 92C93.2802 91.9878 93.3425 91.9881 93.4027 92.0009C93.4629 92.0137 93.5199 92.0387 93.5701 92.0744C93.6203 92.1101 93.6626 92.1558 93.6944 92.2085C93.7263 92.2612 93.7469 92.3199 93.7552 92.3809C93.7634 92.442 93.759 92.504 93.7423 92.5633C93.7255 92.6226 93.6968 92.6778 93.6579 92.7255C93.619 92.7732 93.5706 92.8125 93.5159 92.8408C93.4612 92.869 93.4013 92.8858 93.3399 92.89C92.0212 93.0772 90.6917 93.1774 89.3599 93.19Z" fill="#AFD9EF"/>
<path d="M89.0202 85.67C94.7087 85.67 99.3202 84.2597 99.3202 82.52C99.3202 80.7803 94.7087 79.37 89.0202 79.37C83.3317 79.37 78.7202 80.7803 78.7202 82.52C78.7202 84.2597 83.3317 85.67 89.0202 85.67Z" fill="#B6BFC1"/>
<path d="M89.0199 84.8601C93.2504 84.8601 96.6799 83.8124 96.6799 82.5201C96.6799 81.2277 93.2504 80.1801 89.0199 80.1801C84.7894 80.1801 81.3599 81.2277 81.3599 82.5201C81.3599 83.8124 84.7894 84.8601 89.0199 84.8601Z" fill="#ADB5B6"/>
<path d="M127.08 207.67V216.07C127.08 218.39 133.23 220.27 140.82 220.27C143.261 220.283 145.698 220.068 148.1 219.63V207.63L127.08 207.67Z" fill="#51C01C"/>
<path d="M154.56 216.07V207.67H148.1V219.67C152 218.88 154.56 217.57 154.56 216.07Z" fill="#2A9524"/>
<path d="M140.82 211.87C148.408 211.87 154.56 209.99 154.56 207.67C154.56 205.35 148.408 203.47 140.82 203.47C133.232 203.47 127.08 205.35 127.08 207.67C127.08 209.99 133.232 211.87 140.82 211.87Z" fill="#CDCDCF"/>
<path d="M140.82 216.33C137.878 216.416 134.947 215.931 132.19 214.9C132.042 214.848 131.906 214.766 131.792 214.659C131.677 214.552 131.586 214.422 131.525 214.278C131.463 214.134 131.432 213.978 131.434 213.821C131.435 213.664 131.47 213.51 131.535 213.367C131.599 213.224 131.693 213.096 131.81 212.992C131.927 212.887 132.064 212.808 132.213 212.759C132.363 212.711 132.52 212.694 132.676 212.709C132.832 212.725 132.983 212.773 133.12 212.85C135.584 213.749 138.198 214.166 140.82 214.08C142.623 214.093 144.422 213.922 146.19 213.57C146.48 213.515 146.78 213.576 147.026 213.74C147.272 213.903 147.444 214.156 147.505 214.445C147.567 214.734 147.513 215.035 147.355 215.285C147.197 215.534 146.947 215.712 146.66 215.78C144.737 216.162 142.78 216.346 140.82 216.33Z" fill="#C2E354"/>
<path d="M140.82 218.34C138.364 218.367 135.917 218.03 133.56 217.34C133.446 217.304 133.351 217.225 133.295 217.119C133.24 217.013 133.229 216.889 133.265 216.775C133.301 216.661 133.38 216.566 133.486 216.511C133.592 216.455 133.716 216.444 133.83 216.48C136.106 217.123 138.465 217.429 140.83 217.39C142.12 217.395 143.41 217.315 144.69 217.15C144.804 217.142 144.916 217.178 145.005 217.25C145.093 217.323 145.151 217.426 145.166 217.539C145.182 217.652 145.153 217.767 145.087 217.86C145.021 217.953 144.922 218.017 144.81 218.04C143.488 218.228 142.155 218.328 140.82 218.34Z" fill="#C2E354"/>
<path d="M140.48 210.82C146.169 210.82 150.78 209.41 150.78 207.67C150.78 205.93 146.169 204.52 140.48 204.52C134.792 204.52 130.18 205.93 130.18 207.67C130.18 209.41 134.792 210.82 140.48 210.82Z" fill="#B6BFC1"/>
<path d="M140.48 210.01C144.71 210.01 148.14 208.962 148.14 207.67C148.14 206.378 144.71 205.33 140.48 205.33C136.249 205.33 132.82 206.378 132.82 207.67C132.82 208.962 136.249 210.01 140.48 210.01Z" fill="#ADB5B6"/>
<path d="M160.54 206.79V215.19C160.54 217.51 166.69 219.39 174.28 219.39C176.721 219.403 179.158 219.188 181.56 218.75V206.75L160.54 206.79Z" fill="#C81F28"/>
<path d="M188 215.19V206.79H181.54V218.79C185.44 218 188 216.69 188 215.19Z" fill="#9B131B"/>
<path d="M174.28 210.99C181.868 210.99 188.02 209.11 188.02 206.79C188.02 204.47 181.868 202.59 174.28 202.59C166.692 202.59 160.54 204.47 160.54 206.79C160.54 209.11 166.692 210.99 174.28 210.99Z" fill="#CDCDCF"/>
<path d="M174.28 215.45C171.338 215.536 168.407 215.051 165.65 214.02C165.404 213.881 165.219 213.655 165.132 213.387C165.044 213.118 165.06 212.827 165.177 212.57C165.294 212.312 165.502 212.108 165.762 211.997C166.022 211.886 166.313 211.877 166.58 211.97C169.044 212.869 171.658 213.286 174.28 213.2C176.083 213.213 177.882 213.042 179.65 212.69C179.796 212.655 179.948 212.65 180.097 212.675C180.245 212.7 180.387 212.754 180.514 212.835C180.642 212.916 180.751 213.021 180.837 213.144C180.923 213.268 180.984 213.407 181.015 213.555C181.046 213.702 181.048 213.854 181.02 214.002C180.991 214.15 180.934 214.29 180.851 214.416C180.767 214.541 180.66 214.648 180.534 214.732C180.409 214.815 180.268 214.872 180.12 214.9C178.197 215.282 176.24 215.466 174.28 215.45Z" fill="#D17B6D"/>
<path d="M174.28 217.46C171.824 217.487 169.377 217.15 167.02 216.46C166.906 216.424 166.811 216.345 166.755 216.239C166.7 216.133 166.689 216.009 166.725 215.895C166.761 215.781 166.84 215.686 166.946 215.631C167.052 215.575 167.176 215.564 167.29 215.6C169.566 216.243 171.925 216.549 174.29 216.51C175.58 216.515 176.87 216.435 178.15 216.27C178.21 216.258 178.272 216.258 178.333 216.271C178.393 216.284 178.45 216.309 178.5 216.344C178.55 216.38 178.593 216.426 178.624 216.479C178.656 216.531 178.677 216.59 178.685 216.651C178.693 216.712 178.689 216.774 178.672 216.833C178.655 216.893 178.627 216.948 178.588 216.996C178.549 217.043 178.501 217.082 178.446 217.111C178.391 217.139 178.331 217.156 178.27 217.16C176.948 217.348 175.615 217.448 174.28 217.46Z" fill="#D17B6D"/>
<path d="M173.94 209.94C179.629 209.94 184.24 208.53 184.24 206.79C184.24 205.05 179.629 203.64 173.94 203.64C168.252 203.64 163.64 205.05 163.64 206.79C163.64 208.53 168.252 209.94 173.94 209.94Z" fill="#B6BFC1"/>
<path d="M173.94 209.13C178.17 209.13 181.6 208.082 181.6 206.79C181.6 205.498 178.17 204.45 173.94 204.45C169.709 204.45 166.28 205.498 166.28 206.79C166.28 208.082 169.709 209.13 173.94 209.13Z" fill="#ADB5B6"/>
<path d="M225.84 71.15C222.71 71.15 220.14 67.45 219.84 62.7C219.84 63.04 219.84 63.39 219.84 63.7C219.84 68.96 222.56 73.22 225.92 73.22C229.28 73.22 232 68.96 232 63.7C232 63.34 232 62.99 232 62.64C231.54 67.44 229 71.15 225.84 71.15Z" fill="#C0805B"/>
<path d="M229.15 55.76C228.731 55.2932 228.221 54.9162 227.652 54.6516C227.084 54.3869 226.467 54.2401 225.84 54.22C225.7 54.2125 225.56 54.2125 225.42 54.22C227.42 54.49 229.01 56.39 229.42 58.84C229.47 58.5089 229.496 58.1748 229.5 57.84C229.488 57.133 229.37 56.4319 229.15 55.76Z" fill="#D18C66"/>
<path d="M225.84 71.15C228.97 71.15 231.55 67.45 231.84 62.69C231.754 60.1378 230.79 57.6936 229.11 55.77C229.311 56.4381 229.413 57.1323 229.41 57.83C229.407 58.1648 229.38 58.4989 229.33 58.83C229.383 59.1842 229.41 59.5419 229.41 59.9C229.41 63.06 227.41 65.62 224.89 65.62C222.37 65.62 220.37 63.06 220.37 59.9C220.37 59.7 220.37 59.5034 220.37 59.31C220.015 60.3952 219.796 61.5206 219.72 62.66C220.14 67.45 222.71 71.15 225.84 71.15Z" fill="#D18C66"/>
<path d="M224.94 65.66C227.43 65.66 229.46 63.1 229.46 59.94C229.46 56.94 227.69 54.56 225.46 54.25C223.29 54.48 221.46 56.48 220.46 59.34C220.46 59.5333 220.46 59.73 220.46 59.93C220.42 63.1 222.44 65.66 224.94 65.66Z" fill="#DB9B76"/>
<path d="M223.67 55.83C222.614 57.8472 222 60.0667 221.87 62.34C221.87 62.87 222.96 62.98 223.13 62.46C223.4 61.67 223.64 60.07 223.82 59.46C224.25 57.91 224.42 57.56 224.92 55.98C225.07 55.47 223.9 55.37 223.67 55.83Z" fill="#EAB68D"/>
<path d="M235.54 70.09C232.41 70.09 229.84 66.39 229.54 61.64C229.54 61.98 229.54 62.33 229.54 62.64C229.54 67.9 232.26 72.16 235.62 72.16C238.98 72.16 241.7 67.9 241.7 62.64C241.7 62.28 241.7 61.93 241.7 61.58C241.24 66.38 238.67 70.09 235.54 70.09Z" fill="#C0805B"/>
<path d="M238.85 54.7C238.431 54.2333 237.921 53.8563 237.353 53.5916C236.784 53.327 236.167 53.1801 235.54 53.16C235.4 53.1525 235.26 53.1525 235.12 53.16C237.12 53.43 238.71 55.33 239.12 57.78C239.17 57.449 239.197 57.1148 239.2 56.78C239.188 56.0731 239.07 55.3719 238.85 54.7Z" fill="#D18C66"/>
<path d="M235.54 70.09C238.67 70.09 241.25 66.39 241.54 61.63C241.454 59.0778 240.489 56.6335 238.81 54.71C239.011 55.378 239.112 56.0722 239.11 56.77C239.106 57.1047 239.08 57.4389 239.03 57.77C239.083 58.1242 239.11 58.4818 239.11 58.84C239.11 62 237.11 64.56 234.59 64.56C232.07 64.56 230.07 62 230.07 58.84C230.07 58.64 230.07 58.4433 230.07 58.25C229.714 59.3351 229.496 60.4605 229.42 61.6C229.83 66.39 232.41 70.09 235.54 70.09Z" fill="#D18C66"/>
<path d="M234.63 64.5999C237.12 64.5999 239.15 62.0399 239.15 58.8799C239.15 55.8799 237.38 53.4999 235.15 53.1899C232.98 53.4199 231.15 55.4199 230.15 58.2799C230.15 58.4733 230.15 58.6699 230.15 58.8699C230.12 61.9999 232.14 64.5999 234.63 64.5999Z" fill="#DB9B76"/>
<path d="M233.37 54.7701C232.313 56.7873 231.7 59.0067 231.57 61.2801C231.57 61.8101 232.66 61.9201 232.83 61.4001C233.1 60.6101 233.34 59.0101 233.52 58.4001C233.95 56.8501 234.12 56.5001 234.62 54.9201C234.77 54.4201 233.59 54.3101 233.37 54.7701Z" fill="#EAB68D"/>
<path d="M246.37 69.8C243.24 69.8 240.67 66.1 240.37 61.35C240.37 61.69 240.37 62.04 240.37 62.35C240.37 67.61 243.09 71.87 246.45 71.87C249.81 71.87 252.53 67.61 252.53 62.35C252.53 61.99 252.53 61.64 252.53 61.29C252.07 66.1 249.5 69.8 246.37 69.8Z" fill="#C0805B"/>
<path d="M249.68 54.41C249.261 53.9433 248.751 53.5662 248.183 53.3016C247.614 53.0369 246.997 52.8901 246.37 52.87C246.23 52.8625 246.09 52.8625 245.95 52.87C247.95 53.14 249.54 55.04 249.95 57.49C250 57.1589 250.027 56.8248 250.03 56.49C250.018 55.783 249.9 55.0819 249.68 54.41Z" fill="#D18C66"/>
<path d="M246.37 69.8C249.5 69.8 252.08 66.1 252.37 61.34C252.284 58.7879 251.32 56.3436 249.64 54.42C249.841 55.0881 249.942 55.7823 249.94 56.48C249.937 56.8148 249.91 57.149 249.86 57.48C249.913 57.8342 249.94 58.1919 249.94 58.55C249.94 61.71 247.94 64.27 245.42 64.27C242.9 64.27 241 61.75 241 58.59C241 58.39 241 58.1934 241 58C240.644 59.0852 240.426 60.2106 240.35 61.35C240.67 66.1 243.24 69.8 246.37 69.8Z" fill="#D18C66"/>
<path d="M245.47 64.31C247.96 64.31 249.99 61.75 249.99 58.59C249.99 55.59 248.22 53.21 245.99 52.9C243.82 53.13 241.99 55.13 240.99 57.99C240.99 58.1834 240.99 58.38 240.99 58.58C241 61.75 243 64.31 245.47 64.31Z" fill="#DB9B76"/>
<path d="M244.2 54.48C243.142 56.5003 242.528 58.7233 242.4 61C242.4 61.53 243.49 61.64 243.66 61.12C243.93 60.33 244.17 58.73 244.35 58.12C244.78 56.57 244.95 56.22 245.45 54.64C245.61 54.13 244.43 54 244.2 54.48Z" fill="#EAB68D"/>
<path d="M256.07 69.41C252.94 69.41 250.37 65.71 250.07 60.96C250.07 61.3 250.07 61.65 250.07 61.96C250.07 67.22 252.79 71.48 256.15 71.48C259.51 71.48 262.23 67.22 262.23 61.96C262.23 61.6 262.23 61.25 262.23 60.9C261.77 65.7 259.2 69.41 256.07 69.41Z" fill="#C0805B"/>
<path d="M259.38 54C258.961 53.5332 258.451 53.1562 257.882 52.8915C257.314 52.6269 256.697 52.4801 256.07 52.46C255.93 52.4525 255.79 52.4525 255.65 52.46C257.65 52.73 259.24 54.63 259.65 57.08C259.7 56.7489 259.726 56.4147 259.73 56.08C259.718 55.373 259.6 54.6719 259.38 54Z" fill="#D18C66"/>
<path d="M256.07 69.41C259.2 69.41 261.78 65.71 262.07 60.95C262.002 58.3924 261.052 55.937 259.38 54C259.581 54.6681 259.682 55.3623 259.68 56.06C259.677 56.3948 259.65 56.7289 259.6 57.06C259.653 57.4142 259.68 57.7718 259.68 58.13C259.68 61.29 257.68 63.85 255.16 63.85C252.64 63.85 250.64 61.29 250.64 58.13C250.64 57.93 250.64 57.7333 250.64 57.54C250.279 58.661 250.063 59.8239 250 61C250.36 65.71 252.94 69.41 256.07 69.41Z" fill="#D18C66"/>
<path d="M255.16 63.92C257.65 63.92 259.68 61.36 259.68 58.2C259.68 55.2 257.91 52.82 255.68 52.51C253.51 52.74 251.68 54.74 250.68 57.6C250.68 57.7933 250.68 57.99 250.68 58.19C250.65 61.36 252.67 63.92 255.16 63.92Z" fill="#DB9B76"/>
<path d="M253.9 54.09C252.844 56.1072 252.23 58.3267 252.1 60.6C252.1 61.13 253.19 61.24 253.36 60.72C253.63 59.93 253.87 58.33 254.05 57.72C254.48 56.17 254.65 55.82 255.15 54.24C255.3 53.73 254.13 53.63 253.9 54.09Z" fill="#EAB68D"/>
<path d="M45.8 260.14C28.48 252.92 15.65 244.09 17.54 238.48C17.54 238.57 17.45 238.65 17.41 238.74C14.62 245.44 26.41 257.31 43.93 264.63C61.45 271.95 78.19 271.94 80.98 265.23C80.98 265.14 81.04 265.04 81.08 264.95C78.43 270.25 63.12 267.35 45.8 260.14Z" fill="#D1702F"/>
<path d="M81.1901 264.74C81.5332 263.821 81.5787 262.817 81.3201 261.87C81.4912 262.904 81.4088 263.965 81.0801 264.96C81.1201 264.88 81.1601 264.81 81.1901 264.74Z" fill="#EE8D45"/>
<path d="M81.3198 261.86C80.7898 258.18 77.7598 253.61 72.8898 249.19C72.0201 250.027 71.0493 250.753 69.9998 251.35C68.8534 252.021 67.6178 252.526 66.3298 252.85C64.6914 253.272 63.0177 253.543 61.3298 253.66C61.0572 251.757 61.4951 249.82 62.5598 248.22C63.4829 246.809 64.7269 245.637 66.1898 244.8C66.3898 244.69 66.5998 244.6 66.7998 244.5C63.8532 242.499 60.7498 240.74 57.5198 239.24C57.4398 239.69 57.3398 240.11 57.2398 240.52C56.9296 241.668 56.4367 242.759 55.7798 243.75C55.142 244.708 54.3555 245.559 53.4498 246.27C52.2261 247.223 50.9095 248.051 49.5198 248.74C49.2132 248.365 48.9514 247.956 48.7398 247.52C48.5369 247.126 48.3792 246.71 48.2698 246.28C48.054 245.479 47.9695 244.648 48.0198 243.82C48.1245 242.292 48.6316 240.819 49.4898 239.55C50.2085 238.519 51.1351 237.651 52.2098 237C48.0793 235.473 43.8039 234.37 39.4498 233.71C39.5479 234.74 39.5143 235.778 39.3498 236.8C39.1428 237.945 38.7688 239.053 38.2398 240.09C38.0998 240.38 37.9198 240.67 37.7498 240.97C37.5798 241.27 37.3898 241.58 37.1698 241.89C36.6847 242.636 36.1395 243.342 35.5398 244C34.0225 243.087 32.8727 241.672 32.2898 240C31.7578 238.548 31.6265 236.98 31.9098 235.46C32.05 234.649 32.3025 233.861 32.6598 233.12C26.9298 233.05 22.2598 234.12 19.5598 236.12C18.7136 236.731 18.0275 237.537 17.5598 238.47C15.6698 244.08 28.4998 252.91 45.8198 260.13C63.1398 267.35 78.4298 270.25 81.0798 265C81.4168 263.989 81.4992 262.91 81.3198 261.86Z" fill="#EE8D45"/>
<path d="M31.9099 235.47C31.6266 236.99 31.7579 238.558 32.2899 240.01C32.8728 241.682 34.0226 243.097 35.5399 244.01C36.1422 243.359 36.6907 242.66 37.1799 241.92C37.3899 241.6 37.5899 241.29 37.7599 241C37.9299 240.71 38.1099 240.41 38.2499 240.12C38.7789 239.084 39.1529 237.975 39.3599 236.83C39.5243 235.808 39.558 234.77 39.4599 233.74C37.2118 233.399 34.9434 233.208 32.6699 233.17C32.3126 233.898 32.0569 234.672 31.9099 235.47Z" fill="#FAA75A"/>
<path d="M48.1098 243.82C48.0595 244.648 48.144 245.479 48.3598 246.28C48.4692 246.71 48.6269 247.126 48.8298 247.52C49.0414 247.956 49.3032 248.365 49.6098 248.74C50.9995 248.051 52.3161 247.223 53.5398 246.27C54.4455 245.559 55.232 244.709 55.8698 243.75C56.5266 242.759 57.0196 241.668 57.3298 240.52C57.4398 240.11 57.5298 239.69 57.6098 239.24C56.7565 238.84 55.8865 238.457 54.9998 238.09C54.1131 237.723 53.1831 237.36 52.2098 237C51.1666 237.664 50.2713 238.535 49.5798 239.56C48.7233 240.826 48.2162 242.295 48.1098 243.82Z" fill="#FAA75A"/>
<path d="M62.6401 248.21C61.5754 249.811 61.1375 251.747 61.4101 253.65C63.098 253.533 64.7716 253.262 66.4101 252.84C67.6981 252.516 68.9337 252.011 70.0801 251.34C71.1185 250.744 72.0791 250.022 72.9401 249.19C71.0512 247.483 69.0464 245.91 66.9401 244.48C66.7401 244.58 66.5301 244.67 66.3301 244.78C64.8442 245.613 63.579 246.789 62.6401 248.21Z" fill="#FAA75A"/>
<path d="M35.4902 244.1C35.9902 243.28 36.4302 242.46 36.9002 241.64C37.3702 240.82 37.7802 240.02 38.1202 239.18C38.822 237.469 39.2603 235.662 39.4202 233.82C39.7056 234.752 39.8142 235.729 39.7402 236.7C39.6687 237.685 39.4355 238.651 39.0502 239.56C38.6587 240.455 38.1583 241.298 37.5602 242.07C36.9819 242.852 36.2832 243.537 35.4902 244.1Z" fill="#FFD18F"/>
<path d="M49.5601 248.86C50.4301 248.18 51.3001 247.56 52.1301 246.86C52.9637 246.23 53.74 245.527 54.4501 244.76C55.1447 243.992 55.7487 243.146 56.2501 242.24C56.5001 241.78 56.7401 241.31 56.9401 240.82C57.1401 240.33 57.3101 239.82 57.5501 239.31C57.5616 240.424 57.3613 241.531 56.9601 242.57C56.5472 243.622 55.9476 244.591 55.1901 245.43C54.4241 246.25 53.5372 246.948 52.5601 247.5C51.6218 248.079 50.6137 248.536 49.5601 248.86Z" fill="#FFD18F"/>
<path d="M61.3599 253.78C62.3599 253.48 63.3599 253.26 64.4099 253C65.4599 252.74 66.4099 252.47 67.4099 252.14C69.3451 251.428 71.1856 250.481 72.8899 249.32C71.5952 251.068 69.7988 252.379 67.7399 253.08C65.6873 253.765 63.5121 254.004 61.3599 253.78Z" fill="#FFD18F"/>
<path d="M39.0801 146.52C32.0301 146.52 26.1401 142.39 24.6701 136.87C24.4348 137.741 24.3138 138.638 24.3101 139.54C24.3101 146.35 30.9201 151.86 39.0701 151.86C47.2201 151.86 53.8301 146.34 53.8301 139.54C53.8263 138.638 53.7053 137.741 53.4701 136.87C52.0001 142.39 46.1401 146.52 39.0801 146.52Z" fill="#C60C1A"/>
<path d="M39.0799 146.52C46.1299 146.52 52.0199 142.39 53.4899 136.87C52.0299 131.35 46.1399 127.22 39.0799 127.22C32.0199 127.22 26.1399 131.35 24.6699 136.87C26.1399 142.39 31.9999 146.52 39.0799 146.52Z" fill="#E40B13"/>
<path d="M42.0898 130.49C42.9815 130.336 43.8955 130.37 44.7735 130.588C45.6515 130.807 46.4744 131.206 47.1898 131.76C47.9742 132.375 48.6226 133.145 49.0942 134.023C49.5658 134.901 49.8503 135.867 49.9298 136.86C50.0362 137.912 49.9584 138.975 49.6998 140C49.4093 141.061 48.7896 142.003 47.9298 142.69C47.1362 143.382 46.1444 143.806 45.0957 143.901C44.047 143.996 42.9951 143.758 42.0898 143.22V142.8C43.2474 141.98 44.2355 140.945 44.9998 139.75C45.2898 139.28 45.5698 138.88 45.8998 138.44C46.2647 137.985 46.5089 137.445 46.6098 136.87C46.7894 135.597 46.4784 134.303 45.7398 133.25C44.8875 132.025 43.5871 131.184 42.1198 130.91L42.0898 130.49Z" fill="#F07D58"/>
<path d="M24.6802 126C25.9207 125.549 27.2487 125.392 28.5602 125.54C29.8459 125.64 31.1227 125.834 32.3802 126.12C34.864 126.704 37.2854 127.528 39.6102 128.58L37.7202 129.83C37.7202 128.95 37.8102 128.07 37.8602 127.18C37.9102 126.29 38.0202 125.42 38.1002 124.53C38.1802 123.64 38.3202 122.77 38.4902 121.88C38.6386 120.987 38.8322 120.103 39.0702 119.23C39.3082 120.103 39.5018 120.987 39.6502 121.88C39.8202 122.76 39.9202 123.64 40.0402 124.53C40.1602 125.42 40.2502 126.29 40.2802 127.18C40.3102 128.07 40.4102 128.94 40.4202 129.83V131.83L38.5002 131.11C36.2102 130.25 33.9002 129.33 31.6202 128.41L28.1902 127.05C27.0604 126.577 25.8839 126.225 24.6802 126Z" fill="#25632A"/>
<path d="M31.8799 119.28C32.1526 119.727 32.4895 120.131 32.8799 120.48L33.9799 121.59C34.7099 122.33 35.4299 123.08 36.1299 123.83C37.5199 125.36 38.8899 126.92 40.1299 128.54L38.3699 128.22C39.2762 127.777 40.2492 127.487 41.2499 127.36C42.1722 127.213 43.1079 127.17 44.0399 127.23C44.9512 127.278 45.8555 127.415 46.7399 127.64C47.6172 127.859 48.4687 128.171 49.2799 128.57C48.3799 128.7 47.5099 128.77 46.6599 128.89C45.8099 129.01 44.9699 129.13 44.1599 129.27C43.3499 129.41 42.5599 129.61 41.7899 129.82C41.1016 130.025 40.4324 130.289 39.7899 130.61L38.7899 131.17L37.9999 130.3C36.6329 128.701 35.3861 127.003 34.2699 125.22C33.7123 124.315 33.2049 123.381 32.7499 122.42C32.2247 121.453 31.9272 120.379 31.8799 119.28Z" fill="#25632A"/>
<path d="M34.8801 136C34.4044 135.325 34.1335 134.528 34.0998 133.703C34.0661 132.878 34.271 132.061 34.6901 131.35C35.1292 130.599 35.739 129.962 36.4701 129.49C37.1585 129.039 37.9147 128.701 38.7101 128.49L38.0001 129C38.7593 128.13 39.5851 127.321 40.4701 126.58C40.9201 126.2 41.3901 125.86 41.8801 125.52C42.3813 125.172 42.9097 124.864 43.4601 124.6C43.3003 125.192 43.093 125.771 42.8401 126.33C42.5901 126.87 42.3401 127.41 42.0501 127.91C41.4824 128.915 40.8371 129.875 40.1201 130.78L39.9101 131.05L39.4301 131.23C39.1501 131.33 38.8801 131.44 38.6001 131.52C38.3201 131.6 38.0701 131.74 37.8401 131.87C37.0249 132.255 36.3215 132.843 35.7966 133.576C35.2716 134.309 34.9424 135.164 34.8401 136.06L34.8801 136Z" fill="#25632A"/>
<path d="M43.21 134.83C41.98 133.63 41.31 132.83 40.65 132.15C40.3395 131.795 40.0054 131.461 39.65 131.15C39.24 130.76 38.7 130.44 38 129.86C38.3116 129.57 38.6815 129.349 39.0849 129.213C39.4884 129.077 39.9162 129.028 40.34 129.07C41.2375 129.138 42.0766 129.541 42.69 130.2C43.2863 130.817 43.6685 131.609 43.78 132.46C43.8934 133.294 43.69 134.139 43.21 134.83Z" fill="#25632A"/>
<path d="M62.8502 148.6C57.3902 148.6 52.8502 145.4 51.6902 141.13C51.5073 141.805 51.4132 142.501 51.4102 143.2C51.4102 148.47 56.5302 152.74 62.8402 152.74C69.1502 152.74 74.2702 148.47 74.2702 143.2C74.2671 142.501 74.173 141.805 73.9902 141.13C72.8702 145.4 68.3102 148.6 62.8502 148.6Z" fill="#C60C1A"/>
<path d="M62.8499 148.6C68.3099 148.6 72.8499 145.4 74.0099 141.13C72.8799 136.86 68.3199 133.66 62.8499 133.66C57.3799 133.66 52.8499 136.86 51.6899 141.13C52.8199 145.4 57.3899 148.6 62.8499 148.6Z" fill="#E40B13"/>
<path d="M65.1802 136.19C65.8719 136.07 66.5811 136.097 67.2617 136.269C67.9422 136.442 68.5789 136.755 69.1302 137.19C69.7374 137.666 70.2394 138.263 70.6043 138.943C70.9692 139.623 71.1891 140.371 71.2502 141.14C71.3339 141.958 71.2729 142.784 71.0702 143.58C70.8465 144.401 70.3666 145.13 69.7002 145.66C69.0852 146.194 68.3176 146.521 67.5064 146.595C66.6951 146.668 65.8813 146.485 65.1802 146.07V145.75C66.0705 145.108 66.8278 144.3 67.4102 143.37C67.6302 143.01 67.8502 142.69 68.1102 142.37C68.3918 142.019 68.5809 141.603 68.6602 141.16C68.7991 140.176 68.5596 139.175 67.9902 138.36C67.3304 137.413 66.3248 136.763 65.1902 136.55L65.1802 136.19Z" fill="#F07D58"/>
<path d="M51.6899 132.73C52.6496 132.384 53.6763 132.264 54.6899 132.38C55.6997 132.456 56.7024 132.606 57.6899 132.83C59.614 133.284 61.4894 133.924 63.2899 134.74L61.8299 135.74C61.8299 135.06 61.8999 134.37 61.9399 133.74C61.9799 133.11 62.0699 132.37 62.1299 131.74C62.1899 131.11 62.2999 130.37 62.4299 129.74C62.5469 129.066 62.6971 128.399 62.8799 127.74C63.0628 128.399 63.213 129.066 63.3299 129.74C63.4599 130.42 63.5399 131.11 63.6299 131.74C63.7199 132.37 63.7899 133.11 63.8199 133.74C63.8499 134.37 63.9199 135.11 63.9299 135.74V137.27L62.4399 136.71C60.6699 136.04 58.8799 135.33 57.1099 134.62L54.4499 133.57C53.5627 133.192 52.6374 132.91 51.6899 132.73Z" fill="#25632A"/>
<path d="M57.27 127.51C57.4797 127.856 57.7392 128.169 58.04 128.44L58.89 129.3C59.46 129.87 60.01 130.45 60.56 131.04C61.64 132.22 62.7 133.43 63.68 134.69L62.32 134.44C63.0215 134.096 63.775 133.869 64.55 133.77C65.2641 133.657 65.9885 133.623 66.71 133.67C67.4155 133.708 68.1156 133.815 68.8 133.99C69.4907 134.157 70.1613 134.399 70.8 134.71C70.1 134.81 69.43 134.87 68.8 134.96C68.17 135.05 67.49 135.15 66.86 135.25C66.23 135.35 65.62 135.51 65.03 135.68C64.4864 135.836 63.9577 136.04 63.45 136.29L62.67 136.72L62 136C60.9406 134.76 59.9747 133.443 59.11 132.06C58.7023 131.37 58.3318 130.659 58 129.93C57.5754 129.19 57.3257 128.362 57.27 127.51Z" fill="#25632A"/>
<path d="M59.5902 140.47C59.2213 139.948 59.0109 139.331 58.9843 138.692C58.9577 138.054 59.116 137.421 59.4402 136.87C59.7807 136.288 60.2534 135.795 60.8202 135.43C61.3531 135.087 61.937 134.83 62.5502 134.67L62.0002 135C62.587 134.325 63.2256 133.696 63.9102 133.12C64.2502 132.83 64.6302 132.56 65.0002 132.3C65.3905 132.031 65.8018 131.793 66.2302 131.59C66.1065 132.049 65.9459 132.497 65.7502 132.93C65.5602 133.35 65.3602 133.76 65.1402 134.15C64.6987 134.928 64.1971 135.67 63.6402 136.37L63.4802 136.58L63.1102 136.72L62.4702 136.95C62.2802 137.05 62.0602 137.12 61.8802 137.22C61.2523 137.52 60.711 137.975 60.3069 138.542C59.9029 139.108 59.6494 139.769 59.5702 140.46L59.5902 140.47Z" fill="#25632A"/>
<path d="M66.0002 139.55C65.0002 138.62 64.5302 137.98 64.0002 137.47C63.7481 137.195 63.4775 136.938 63.1902 136.7C62.8702 136.4 62.4602 136.15 61.9102 135.7C62.1523 135.477 62.4386 135.308 62.7504 135.203C63.0622 135.098 63.3926 135.059 63.7202 135.09C64.4144 135.142 65.0638 135.452 65.5402 135.96C65.9997 136.439 66.294 137.052 66.3802 137.71C66.4873 138.349 66.3517 139.005 66.0002 139.55Z" fill="#25632A"/>
<path d="M89 214.36C82.27 214.36 76.7 209.12 75.67 202.27C75.5559 203.031 75.4991 203.8 75.5 204.57C75.5 212.52 81.5 218.96 89.01 218.96C96.52 218.96 102.52 212.52 102.52 204.57C102.52 203.804 102.464 203.038 102.35 202.28C101.27 209.12 95.7 214.36 89 214.36Z" fill="#94C020"/>
<path d="M88.9999 214.36C95.7199 214.36 101.3 209.13 102.33 202.27C101.923 199.485 100.725 196.875 98.8799 194.75C96.4099 191.93 92.8799 193.42 88.9999 193.42C85.2699 193.42 81.8899 191.79 79.4499 194.42C77.4196 196.602 76.1013 199.351 75.6699 202.3C76.6699 209.12 82.2499 214.36 88.9999 214.36Z" fill="#ADCA35"/>
<path d="M96.9098 201.46C96.6626 199.807 95.9478 198.26 94.8498 197C93.3798 195.32 91.2898 196.21 88.9698 196.21C86.6498 196.21 84.7398 195.21 83.2898 196.79C82.072 198.076 81.2734 199.701 80.9998 201.45C80.9322 201.904 80.8988 202.362 80.8998 202.82C80.8327 203.917 80.9908 205.015 81.3643 206.048C81.7378 207.081 82.3188 208.027 83.0715 208.827C83.8242 209.627 84.7326 210.265 85.741 210.701C86.7494 211.136 87.8362 211.361 88.9348 211.361C90.0333 211.361 91.1202 211.136 92.1285 210.701C93.1369 210.265 94.0454 209.627 94.7981 208.827C95.5508 208.027 96.1317 207.081 96.5052 206.048C96.8787 205.015 97.0368 203.917 96.9698 202.82C96.9835 202.366 96.9635 201.911 96.9098 201.46Z" fill="#C1D565"/>
<path d="M97.52 206.86C97.22 208.86 95.76 210.21 94.25 209.98C92.74 209.75 92.25 207.73 92.58 205.77C92.91 203.81 93.82 202.67 95.33 202.9C96.84 203.13 97.82 204.9 97.52 206.86Z" fill="#E5E8BA"/>
<path d="M95.9999 198.19C96.2131 198.501 96.2988 198.882 96.2393 199.254C96.1797 199.626 95.9795 199.961 95.6799 200.19C95.0799 200.52 94.3499 199.92 93.9199 199.19C93.4899 198.46 93.5099 197.74 94.1199 197.41C94.4733 197.272 94.8663 197.277 95.2167 197.422C95.5671 197.567 95.8477 197.843 95.9999 198.19Z" fill="#E5E8BA"/>
<path d="M88.9001 193.43C88.693 192.695 88.6386 191.926 88.7401 191.17C88.8533 190.352 89.2006 189.585 89.7401 188.96C90.2406 188.263 90.9754 187.769 91.8101 187.57C92.2144 187.508 92.6258 187.508 93.0301 187.57C93.4336 187.647 93.822 187.789 94.1801 187.99V188.15C93.8688 188.371 93.5333 188.555 93.1801 188.7C92.8801 188.89 92.5601 188.99 92.2901 189.14C92.1551 189.211 92.0146 189.271 91.8701 189.32C91.7301 189.32 91.6001 189.44 91.4601 189.48L91.2401 189.55L91.0401 189.65C90.9028 189.712 90.7749 189.793 90.6601 189.89C90.1643 190.29 89.7788 190.809 89.5401 191.4C89.273 192.035 89.1174 192.712 89.0801 193.4L88.9001 193.43Z" fill="#4D2F11"/>
<path d="M176.22 82.46C171.58 85.22 163.03 87.46 147.5 88.52C128.13 89.86 126.42 78.58 130.9 70.52C122 77 118 95.8 142.64 94.09C167.81 92.36 174.66 87.57 176.22 82.46Z" fill="#1D1C45"/>
<path d="M147.5 88.52C163.03 87.45 171.58 85.21 176.22 82.46C176.62 81.0025 176.739 79.482 176.57 77.98C175.57 64.98 152.86 74.98 140.09 69.04C137.03 67.62 133.72 68.46 130.9 70.51C126.42 78.58 128.13 89.86 147.5 88.52Z" fill="#212451"/>
<path d="M139.78 71.27C142.6 72.27 144.26 74.86 143.48 77.04C142.7 79.22 139.56 79.32 136.74 78.31C133.92 77.3 132.49 75.56 133.27 73.39C134.05 71.22 137 70.26 139.78 71.27Z" fill="#5D557F"/>
<path d="M154.9 76.45C156.19 76.1 157.22 75.59 158.51 75.28C159.8 74.97 161.25 74.67 162.51 74.45C163.826 74.1852 165.174 74.1144 166.51 74.24C167.926 74.3513 169.296 74.7931 170.51 75.53V75.87C169.26 76.87 167.91 76.96 166.43 77.19C165.215 77.4307 163.978 77.5346 162.74 77.5C161.407 77.4334 160.09 77.34 158.79 77.22C157.47 77.07 156.16 76.97 154.79 76.77L154.9 76.45Z" fill="#5D557F"/>
<path d="M182.2 75.76C183.291 77.3139 184.075 79.0619 184.51 80.91C184.9 79.5 183.35 75.37 182.07 73.81C180.44 71.81 176.07 76.81 176.07 76.81C176.07 76.81 175.36 78.75 176.2 78.81C176.2 78.81 180.57 73.78 182.2 75.76Z" fill="#246C2D"/>
<path d="M183.71 81.3501C183.791 81.3891 183.881 81.408 183.971 81.4051C184.061 81.4022 184.149 81.3776 184.227 81.3335C184.306 81.2893 184.373 81.2268 184.422 81.1514C184.471 81.0759 184.501 80.9897 184.51 80.9001C184.075 79.052 183.291 77.304 182.2 75.7501C180.57 73.7501 176.2 78.7501 176.2 78.7501C176.521 78.7191 176.826 78.5977 177.08 78.4001C179.2 77.1001 181.65 80.7201 183.71 81.3501Z" fill="#225B28"/>
<path d="M176.54 75.11L169.54 64.54C169.54 64.54 167.72 70.24 172.16 74.11L166.6 74.25C166.6 74.25 170.32 77.8 174.43 78.87C174.43 78.87 170.32 81.48 170.67 84.87L176.59 80.76C176.59 80.76 172.04 85.76 174.29 88.03C174.26 88 181.14 82 176.54 75.11Z" fill="#246C2D"/>
<path d="M206.83 65L293.5 62V89L206.83 92V65Z" fill="#E8E8E8"/>
<path d="M206.83 152.17L293.5 149.17V176.17L206.83 179.17V152.17Z" fill="#E8E8E8"/>
</g>
<defs>
<clipPath id="clip0">
<rect width="343.5" height="428.67" fill="white"/>
</clipPath>
</defs>
</svg>
