<svg width="82" height="40" viewBox="0 0 82 40" fill="none" xmlns="http://www.w3.org/2000/svg">
<g clip-path="url(#clip0)">
<path d="M51.5816 35.2162C54.4115 35.2162 56.7012 32.0269 56.7012 28.1252C56.7012 24.2235 54.4115 21.0342 51.5816 21.0342H46.9166C46.6228 23.3867 46.4709 25.7546 46.4619 28.1252C46.5237 30.5097 46.8067 32.8834 47.3072 35.2162H51.5816Z" fill="#393939"/>
<path d="M47.6978 35.2162C50.5278 35.2162 52.8174 32.0269 52.8174 28.1252C52.8174 24.2235 50.5278 21.0342 47.6978 21.0342C44.8678 21.0342 42.5781 24.2235 42.5781 28.1252C42.5781 32.0269 44.8678 35.2162 47.6978 35.2162Z" fill="#221C16"/>
<path d="M47.7837 33.813C50.0734 33.813 51.9351 31.2243 51.9351 28.0349C51.9351 24.8455 50.0787 22.2568 47.7837 22.2568C45.4887 22.2568 43.6377 24.8455 43.6377 28.0349C43.6377 31.2243 45.4726 33.813 47.7837 33.813Z" fill="#D8D8D8"/>
<path d="M15.7446 34.1635C18.5746 34.1635 20.8643 30.9741 20.8643 27.0725C20.8643 23.1708 18.5746 19.9814 15.7446 19.9814H11.0797C10.7858 22.334 10.634 24.7019 10.625 27.0725C10.6868 29.4569 10.9698 31.8307 11.4703 34.1635H15.7446Z" fill="#393939"/>
<path d="M11.5073 34.1635C14.3373 34.1635 16.627 30.9741 16.627 27.0725C16.627 23.1708 14.3373 19.9814 11.5073 19.9814C8.67736 19.9814 6.3877 23.1708 6.3877 27.0725C6.3877 30.9741 8.67736 34.1635 11.5073 34.1635Z" fill="#221C16"/>
<path d="M11.4165 32.9565C13.7062 32.9565 15.5625 30.3678 15.5625 27.1785C15.5625 23.9891 13.7062 21.4004 11.4165 21.4004C9.12685 21.4004 7.27051 23.9891 7.27051 27.1785C7.27051 30.3678 9.12685 32.9565 11.4165 32.9565Z" fill="#D8D8D8"/>
<path d="M33.5746 32.2384C36.4046 32.2384 38.6943 29.049 38.6943 25.1473C38.6943 21.2457 36.3779 18.0723 33.5746 18.0723H28.8883C28.5944 20.4248 28.4426 22.7927 28.4336 25.1633C28.4954 27.5478 28.7784 29.9215 29.2788 32.2543L33.5746 32.2384Z" fill="#393939"/>
<path d="M29.5142 32.2384C32.3442 32.2384 34.6338 29.049 34.6338 25.1473C34.6338 21.2457 32.3388 18.0723 29.5142 18.0723C26.6895 18.0723 24.3945 21.2616 24.3945 25.1633C24.3945 29.065 26.6842 32.2384 29.5142 32.2384Z" fill="#221C16"/>
<path d="M29.4234 31.0112C31.713 31.0112 33.5694 28.4225 33.5694 25.2332C33.5694 22.0438 31.7184 19.4551 29.4234 19.4551C27.1283 19.4551 25.2773 22.0438 25.2773 25.2332C25.2773 28.4225 27.1337 31.0112 29.4234 31.0112Z" fill="#D8D8D8"/>
<path d="M70.648 33.1166C73.4779 33.1166 75.7676 29.9273 75.7676 26.0256C75.7676 22.1239 73.4726 18.9346 70.648 18.9346H65.983C65.6885 21.2942 65.5367 23.6692 65.5283 26.0469C65.5899 28.4313 65.8728 30.8051 66.3736 33.1379L70.648 33.1166Z" fill="#393939"/>
<path d="M66.5874 33.1166C69.4121 33.1166 71.7071 29.9273 71.7071 26.0256C71.7071 22.1239 69.4121 18.9346 66.5874 18.9346C63.7628 18.9346 61.4678 22.1239 61.4678 26.0256C61.4678 29.9273 63.7574 33.1166 66.5874 33.1166Z" fill="#221C16"/>
<path d="M66.4961 31.8931C68.7858 31.8931 70.6421 29.3044 70.6421 26.115C70.6421 22.9256 68.7858 20.3369 66.4961 20.3369C64.2064 20.3369 62.3447 22.9256 62.3447 26.115C62.3447 29.3044 64.1957 31.8931 66.4961 31.8931Z" fill="#D8D8D8"/>
<path d="M76.7252 18.6573L77.1799 28.1722C77.2032 28.6832 77.0212 29.1825 76.6742 29.5603C76.3271 29.938 75.8432 30.1634 75.3289 30.1868L53.2294 31.0108V27.8958C53.2293 26.6538 53.0103 25.4215 52.5821 24.2546C52.3793 23.7035 52.0564 23.2038 51.6365 22.7912C51.2166 22.3786 50.7102 22.0633 50.1533 21.8679L49.5435 21.6553C48.8659 21.415 48.1388 21.3465 47.4279 21.456C46.717 21.5655 46.0448 21.8496 45.4724 22.2825L44.9374 22.6971C44.0866 23.3365 43.4476 24.2139 43.1024 25.2167C42.7532 26.2291 42.6184 27.3023 42.7066 28.3689L42.8885 30.5749L16.8034 29.6765L16.6643 25.6048C16.6151 24.1204 15.9992 22.7102 14.9417 21.6606L14.7759 21.4958C14.3178 21.0392 13.7601 20.6933 13.146 20.485C12.5319 20.2767 11.8779 20.2115 11.2344 20.2945C10.5815 20.3807 9.9541 20.6022 9.39286 20.9447C8.83163 21.2871 8.34906 21.7429 7.9764 22.2825L7.72497 22.6493C6.79497 23.9946 6.35348 25.6143 6.47314 27.242L6.58014 28.6878C6.32257 28.6886 6.06803 28.6326 5.83482 28.524C5.6016 28.4154 5.3955 28.2568 5.23131 28.0596C5.06712 27.8624 4.94894 27.6315 4.88523 27.3835C4.82153 27.1356 4.8139 26.8766 4.86289 26.6254C5.27322 24.7342 5.55737 22.8182 5.71349 20.8898C5.76698 19.5007 5.76698 17.7288 5.71349 15.5742L18.3708 17.0094L43.3325 17.8865L54.9253 19.3908L76.7252 18.6573Z" fill="url(#paint0_linear)"/>
<path d="M59.7512 24.7225C63.143 24.7225 63.7635 23.9411 63.7635 22.777C63.7635 21.6129 63.1376 20.2627 59.35 20.2627C55.5624 20.2627 54.9365 21.6182 54.9365 22.777C54.9365 23.9358 56.3595 24.7225 59.7512 24.7225Z" fill="#F8F8F8"/>
<path d="M76.8748 19.9541C73.665 20.1083 73.2959 21.3415 73.2959 22.4312C73.2959 23.5209 74.4086 24.1906 77.0086 24.3448" fill="#F8F8F8"/>
<path d="M56.9102 15.1066C57.1448 15.6108 57.4901 16.0565 57.9207 16.4108C58.3513 16.7651 58.8562 17.0191 59.3985 17.1542C59.9408 17.2893 60.5067 17.3021 61.0546 17.1915C61.6025 17.0809 62.1185 16.8498 62.5648 16.5152C63.39 15.9384 64.1584 15.2852 64.8598 14.5644C65.0596 14.3366 65.2102 14.0704 65.3023 13.7824C65.3943 13.4944 65.4258 13.1906 65.3948 12.89C65.3669 12.6278 65.242 12.3852 65.0443 12.2094C64.8466 12.0336 64.5902 11.937 64.3248 11.9385L62.415 11.9704C61.5597 11.9849 60.7166 12.1741 59.938 12.5262C59.1594 12.8782 58.462 13.3857 57.8892 14.0169L56.9102 15.1066Z" fill="#8F3ABF"/>
<path d="M12.475 12.7949C9.21167 13.7624 7.2412 14.3861 6.56357 14.666C5.88595 14.946 5.62024 15.2436 5.76647 15.559C14.8645 17.175 22.9425 18.2984 30.0006 18.9291C40.5876 19.8753 54.5449 19.9551 54.9354 19.9551C55.1958 19.9551 62.4589 19.5227 76.7247 18.658L62.0559 15.1285L12.475 12.7949Z" fill="url(#paint1_linear)"/>
<path d="M13.1868 12.5819C14.8673 11.1327 16.6438 9.79726 18.5044 8.58455C20.3961 7.2735 22.5279 6.34346 24.7796 5.84701C27.2969 5.31644 29.8536 4.99111 32.4243 4.87425C36.4704 4.68414 40.5254 4.83172 44.5467 5.31544C45.8918 5.46896 47.2148 5.77574 48.4894 6.22973L50.1638 6.82508C52.0378 7.49089 53.7851 8.46677 55.3316 9.71146L62.0562 15.1281L42.7545 16.4782C27.0906 15.2344 18.0871 14.4636 15.7439 14.1659C12.2238 13.7194 12.3683 13.4005 13.1868 12.5819Z" fill="url(#paint2_linear)"/>
<path d="M35.6289 6.08606C41.6527 7.62759 41.3531 9.27543 43.1185 11.9332C44.0052 13.2531 44.3427 14.863 44.06 16.4249L42.7547 16.4781C27.0908 15.2342 18.0873 14.4635 15.7441 14.1658C15.0251 14.0864 14.3108 13.9692 13.6043 13.815L13.2244 13.7087C12.9034 13.597 12.743 13.4854 12.6895 13.3525L13.0586 12.6934L13.1656 12.5871C14.812 11.1649 16.5528 9.85429 18.3762 8.66413L18.4832 8.58971C20.3808 7.27426 22.5203 6.3423 24.7797 5.84686C25.9638 5.58816 27.2121 5.37554 28.5245 5.20898C30.9158 5.2697 33.2954 5.56347 35.6289 6.08606Z" fill="url(#paint3_linear)"/>
<path d="M15.7441 21.3791L16.8141 23.819L20.8638 22.4954L18.2799 18.0303L15.7441 21.3791Z" fill="#C369EA"/>
<path d="M17.5684 25.2327L21.4308 24.7012L19.4996 28.7995L17.5684 25.2327Z" fill="#C369EA"/>
<path d="M14.8832 21.0287L11.3311 16.8984L12.401 15.0273L16.8145 15.5589L15.3005 17.5788L14.8832 21.0287Z" fill="#C369EA"/>
<path d="M63.4364 27.051L73.895 26.764C73.9962 26.7611 74.0969 26.7782 74.1915 26.814C74.286 26.8499 74.3726 26.9039 74.4461 26.973C74.5196 27.0422 74.5787 27.125 74.62 27.2168C74.6613 27.3086 74.684 27.4076 74.6868 27.5082V27.5507C74.6868 27.7557 74.6064 27.9527 74.4625 28.0996C74.3186 28.2465 74.1227 28.3319 73.9164 28.3374L63.4578 28.6244C63.3566 28.6273 63.2559 28.6103 63.1613 28.5744C63.0667 28.5385 62.9802 28.4845 62.9067 28.4154C62.8332 28.3463 62.7741 28.2634 62.7328 28.1716C62.6915 28.0798 62.6688 27.9808 62.666 27.8803V27.8377C62.6659 27.6327 62.7464 27.4358 62.8903 27.2888C63.0342 27.1419 63.2301 27.0566 63.4364 27.051Z" fill="#C88D3E"/>
<path d="M41.1333 16.3192C40.9528 16.8446 40.6564 17.3233 40.2656 17.7201C39.8748 18.1169 39.3997 18.4218 38.8749 18.6124C38.3501 18.803 37.7891 18.8746 37.2329 18.8218C36.6767 18.769 36.1395 18.5932 35.6605 18.3073C34.7773 17.8178 33.9426 17.2465 33.1676 16.6009C32.547 16.0021 32.547 15.2526 33.1676 14.3524C33.2567 14.2267 33.3722 14.1217 33.5061 14.0446C33.64 13.9675 33.7892 13.9202 33.9433 13.9059L35.7408 13.7465C36.4519 13.6827 37.1687 13.7654 37.8462 13.9895C38.5237 14.2136 39.1473 14.5742 39.6781 15.0488L41.1333 16.3192Z" fill="#C369EA"/>
<path d="M35.7995 4.78405C38.7211 4.79585 41.6396 4.97333 44.5409 5.31561C45.886 5.46913 47.209 5.77591 48.4836 6.2299L50.158 6.82525C52.032 7.49106 53.7793 8.46694 55.3258 9.71163L59.2739 12.901C60.2226 12.3201 61.3107 12.0025 62.4249 11.9814L64.3347 11.9495C64.6 11.948 64.8564 12.0446 65.0541 12.2204C65.2519 12.3963 65.3768 12.6388 65.4046 12.901C65.4356 13.2016 65.4042 13.5054 65.3121 13.7934C65.2201 14.0814 65.0695 14.3476 64.8697 14.5754C64.541 14.932 64.1831 15.261 63.7997 15.5588L76.7246 18.6738L76.7888 19.9761H76.8744L77.0348 24.3455L77.2167 28.1834C77.24 28.6944 77.058 29.1936 76.7109 29.5714C76.3639 29.9492 75.88 30.1746 75.3657 30.198H74.8308C73.8999 31.9522 72.402 33.095 70.7115 33.095H66.4318C64.9767 33.01 63.6767 32.085 62.7833 30.6605L56.3637 30.8997C55.5826 33.4352 53.7691 35.2159 51.6506 35.2159H47.3708V35.1894C45.338 34.9714 43.6261 33.111 42.9627 30.5595L37.078 30.3575C36.6857 30.9109 36.1704 31.3671 35.572 31.6907C34.9736 32.0143 34.3082 32.1965 33.6275 32.2233H29.3477C28.6271 32.1475 27.9342 31.9058 27.324 31.5173C26.7139 31.1288 26.2034 30.6043 25.833 29.9854L20.5208 29.8046C19.7504 32.3668 17.9262 34.1635 15.797 34.1635H11.5172C9.10987 34.1635 7.09839 31.8086 6.57412 28.6831C6.32027 28.6782 6.07055 28.6184 5.84239 28.5077C5.61423 28.3971 5.41314 28.2382 5.25317 28.0423C5.0932 27.8464 4.9782 27.6182 4.91622 27.3735C4.85424 27.1289 4.84677 26.8737 4.89432 26.6259C5.30464 24.7348 5.58879 22.8187 5.74492 20.8904C5.79842 19.5012 5.79842 17.7293 5.74492 15.5747H5.95356H5.81447C5.66468 15.2594 5.93038 14.9617 6.61157 14.6817C7.29276 14.4018 9.26323 13.7781 12.523 12.8106H13.0098L13.1275 12.6884L13.2345 12.5821C13.4092 12.4084 13.65 12.1958 13.9567 11.9442L14.4435 11.5349L14.5238 11.4764L15.0587 11.0724L15.1925 10.9714L15.7702 10.5462L15.9307 10.4292L16.5834 9.96146L16.7867 9.81794L17.4928 9.31827L17.7496 9.13754L18.429 8.66445L18.536 8.59003C20.4176 7.28088 22.5383 6.34918 24.7791 5.84718L24.9289 5.81528C25.4639 5.69834 25.9988 5.59203 26.5766 5.49103L27.2828 5.40598C27.684 5.34219 28.0799 5.27841 28.4971 5.22525H28.5399C29.7918 5.06578 31.0953 4.94884 32.4506 4.87442C33.5383 4.81417 34.6546 4.78405 35.7995 4.78405ZM35.7995 0C34.5744 0 33.3493 0.0318937 32.167 0.0956811C30.7494 0.1701 29.3531 0.292359 28.0157 0.462458H27.8873L27.8177 0.489037C27.4486 0.536877 27.0902 0.595349 26.7478 0.648505L26.5392 0.680399L26.3252 0.712292L25.7902 0.797342C25.2178 0.898339 24.624 1.00997 23.9874 1.14817L23.768 1.1907C20.8949 1.8135 18.1735 2.99303 15.7595 4.66179L15.6525 4.73621L15.048 5.15615L14.9571 5.21993L14.8554 5.28904L14.6949 5.40066L13.962 5.93223L13.8871 5.98538L13.7534 6.08106L13.0686 6.57541L13.0151 6.61794L12.9028 6.69767L12.2876 7.15482L12.2501 7.1814L12.1378 7.26113L11.5493 7.71296L11.4584 7.78206L10.8913 8.23389L10.8218 8.29236C6.52063 9.56811 5.34905 9.99867 4.71778 10.2432C3.9424 10.5199 3.23413 10.9552 2.63882 11.5211C2.0435 12.087 1.5744 12.7708 1.26188 13.5282C1.11048 13.9149 1.00631 14.3182 0.951603 14.7296C0.897281 15.0401 0.873985 15.3553 0.882057 15.6704C0.930204 17.7276 0.930204 19.4179 0.882057 20.7043C0.738588 22.3901 0.483028 24.0647 0.117052 25.7169C-0.108353 26.8781 -0.00966203 28.0784 0.40243 29.1878C0.814523 30.2972 1.5243 31.2734 2.45486 32.0106C3.97418 36.0718 7.26958 38.788 11.1749 38.9209H11.4691H15.7488C18.8196 38.9209 21.58 37.3262 23.4203 34.6684H23.5808C24.9403 35.8886 26.639 36.6723 28.4543 36.9169C28.7351 36.9667 29.0197 36.9916 29.3049 36.9914H33.5847C35.4993 36.978 37.3578 36.3475 38.8809 35.1947L39.7368 35.2266C40.4081 36.3802 41.3112 37.3843 42.3899 38.1762C43.4685 38.9682 44.6996 39.5311 46.0067 39.8299C46.4215 39.9429 46.8497 40.0001 47.2799 40H51.5596C54.6892 40 57.5085 38.3415 59.3434 35.5721L60.5685 35.5296C61.9347 36.7794 63.6549 37.5811 65.4956 37.8259C65.7781 37.876 66.0645 37.9009 66.3515 37.9003H70.6313C71.9641 37.8815 73.2765 37.5718 74.4756 36.9931C75.6746 36.4144 76.7309 35.5808 77.5698 34.5515C78.9133 34.0553 80.0635 33.1482 80.8548 31.9607C81.6461 30.7733 82.0375 29.3669 81.9726 27.9442L81.8228 24.4518C81.8228 24.3668 81.8228 24.2817 81.8228 24.1967L81.6891 19.806C81.6799 19.4782 81.6369 19.1522 81.5607 18.8332V18.4292C81.5118 17.3834 81.1191 16.3824 80.4427 15.5797C79.7662 14.777 78.8435 14.2169 77.8159 13.9854L70.2193 12.1568C70.0239 10.7643 69.3269 9.48952 68.2576 8.56876C67.1883 7.64799 65.8192 7.14374 64.4042 7.1495H64.3079L62.3928 7.1814C61.6584 7.19372 60.9272 7.2792 60.2101 7.43654L58.4072 5.98538C56.426 4.39421 54.1863 3.15025 51.7843 2.30698L50.1099 1.71694C48.4884 1.13218 46.8047 0.734446 45.0919 0.531561C42.007 0.179643 38.9046 0.00216945 35.7995 0V0Z" fill="white"/>
</g>
<defs>
<linearGradient id="paint0_linear" x1="77.945" y1="28.1138" x2="9.30559" y2="19.6141" gradientUnits="userSpaceOnUse">
<stop stop-color="#DCA635"/>
<stop offset="1" stop-color="#F6D058"/>
</linearGradient>
<linearGradient id="paint1_linear" x1="5.76647" y1="14.7032" x2="68.478" y2="18.4342" gradientUnits="userSpaceOnUse">
<stop stop-color="#FDF700"/>
<stop offset="1" stop-color="#FFF986"/>
</linearGradient>
<linearGradient id="paint2_linear" x1="55.4065" y1="8.9779" x2="25.0097" y2="12.6114" gradientUnits="userSpaceOnUse">
<stop stop-color="#4F479D"/>
<stop offset="1" stop-color="#272264"/>
</linearGradient>
<linearGradient id="paint3_linear" x1="44.9213" y1="10.094" x2="20.3417" y2="12.1505" gradientUnits="userSpaceOnUse">
<stop stop-color="white" stop-opacity="0.01"/>
<stop offset="1" stop-color="white" stop-opacity="0.29"/>
</linearGradient>
<clipPath id="clip0">
<rect width="82" height="40" fill="white"/>
</clipPath>
</defs>
</svg>
