<svg width="210" height="24" viewBox="0 0 210 24" fill="none" xmlns="http://www.w3.org/2000/svg">
<path fill-rule="evenodd" clip-rule="evenodd" d="M161.447 4.53516C166.056 4.55596 169.129 7.34666 169.129 12.0197C169.129 16.382 166.117 19.4636 161.447 19.4636C156.837 19.4636 153.764 16.6719 153.764 11.9782C153.765 7.61296 156.776 4.53516 161.447 4.53516ZM161.467 17.0856C164.519 17.0856 166.426 15.0381 166.426 11.9989C166.426 9.16566 164.705 6.93306 161.428 6.91226C158.354 6.93306 156.468 8.98056 156.468 11.9989C156.469 14.8294 158.19 17.062 161.467 17.0827V17.0856ZM94.476 5.83475C95.2958 5.23508 96.9548 4.55319 99.2288 4.55319C102.445 4.57399 104.575 5.64873 104.575 8.19206C104.575 9.88726 103.695 11.0036 102.035 11.6033C104.248 11.9338 105.311 13.0918 105.311 14.9947C105.311 17.4965 103.324 19.4194 99.4717 19.4401C96.8692 19.4609 94.887 18.5089 94.125 17.641V14.4564C95.0055 15.925 96.8693 17.0828 99.513 17.0621C101.254 17.0413 102.647 16.2971 102.647 14.8285C102.647 13.5469 101.704 12.9472 99.4717 12.9472H97.2998V10.8175H99.4523C101.296 10.8175 101.931 9.92886 101.931 8.85306C101.931 7.50916 100.743 6.97186 99.2265 6.93026C97.056 6.88976 95.3145 8.15046 94.4737 9.43206L94.476 5.83475ZM108.161 16.8551C108.98 14.8908 109.574 12.1614 109.636 7.75746L109.677 4.75992H119.756V16.8551H121.415V21.921H119.019V19.2332H109V21.921H106.604V16.8551H108.161ZM110.661 16.8551H117.195V7.13706H112.013V7.81986C111.931 11.6032 111.477 14.581 110.661 16.8551ZM143.293 19.2332V14.7255H145.504C149.707 14.7255 151.96 13.0303 151.96 9.65956C151.96 6.39286 150.031 4.75992 145.504 4.75992H140.731V19.2332H143.293ZM143.293 12.3474V7.13706H145.73C148.23 7.13706 149.294 7.81986 149.294 9.59816C149.294 11.5617 148.066 12.3474 145.689 12.3474H143.293ZM209.018 12.9679H202.421V16.8551H210V19.2332H199.859V4.75992H209.778V7.13706H202.424V10.5898H209.021L209.018 12.9679ZM188.776 9.26676H190.723C195.27 9.26676 197.18 10.9006 197.18 14.1673C197.18 17.537 194.926 19.2332 190.747 19.2332H186.216V4.75992H188.776V9.26676ZM188.776 11.6448V16.8551H190.907C193.304 16.8551 194.533 16.0694 194.533 14.105C194.533 12.3267 193.448 11.6448 190.948 11.6448H188.776ZM171.814 4.75992V19.2332H177.692C181.176 19.2332 183.307 18.013 183.307 15.0145C183.307 13.1332 182.507 11.9961 180.745 11.6863C182.221 11.1074 182.876 10.0109 182.876 8.35716C182.876 5.95839 181.238 4.75992 178.041 4.75992H171.814ZM180.315 8.91536C180.315 10.1564 179.291 10.8798 177.673 10.8798H174.375V7.13706H177.734C179.557 7.13706 180.315 7.75746 180.315 8.91536ZM177.859 16.8551C179.825 16.8551 180.728 16.2139 180.728 14.8284C180.728 13.443 179.704 12.9056 177.901 12.9056H174.377V16.8551H177.859ZM138.052 12.0197C138.052 7.34666 134.978 4.55596 130.369 4.53516C125.7 4.53516 122.687 7.61296 122.687 11.9782C122.687 16.6719 125.759 19.4636 130.369 19.4636C135.039 19.4636 138.052 16.382 138.052 12.0197ZM135.349 11.9989C135.349 15.0381 133.441 17.0856 130.39 17.0856V17.0827C127.111 17.062 125.39 14.8294 125.39 11.9989C125.39 8.98056 127.277 6.93306 130.35 6.91226C133.628 6.93306 135.349 9.16566 135.349 11.9989Z" fill="#FF0D65"/>
<path fill-rule="evenodd" clip-rule="evenodd" d="M41.5562 15.9734C40.7377 16.4189 39.8203 16.6498 38.8892 16.6445C36.1047 16.6445 34.0833 14.65 34.0833 11.902C34.0833 9.15396 36.1047 7.15946 38.8892 7.15946C39.8956 7.14496 40.8803 7.45396 41.699 8.04146L43.9148 6.40316L43.7681 6.27846C42.4744 5.13783 40.7462 4.53516 38.7697 4.53516C36.6259 4.53516 34.6811 5.26061 33.2921 6.57746C31.9031 7.89426 31.125 9.76406 31.125 11.8261C31.125 13.888 31.8919 15.786 33.2837 17.1515C34.6755 18.5171 36.6212 19.2754 38.7501 19.2754C40.9769 19.2754 42.9209 18.4965 44.2398 17.0794L42.2408 15.6013L41.5562 15.9734ZM49.9472 10.3189H53.706C57.1192 10.3189 58.9995 11.8297 58.9958 14.572C58.9958 17.4391 56.9212 19.084 53.3034 19.084H46.8581V4.7206H59.1808L55.9468 7.11146H49.9472V10.3189ZM49.9472 16.6921H53.1679C55.0707 16.6921 56.0412 16.0549 56.0412 14.7014C56.0412 13.3771 55.1296 12.7107 53.1679 12.7107H49.9472V16.6921ZM69.4652 7.11146L72.6991 4.7206H61.8756V19.084H72.6991V16.6921H64.9647V13.0153H71.5622V10.6234H64.9647V7.11146H69.4652ZM75.5753 4.7206H81.4688C85.2285 4.7206 87.5625 6.68976 87.5625 9.86046C87.5625 13.0312 85.2263 15.0154 81.4665 15.0154H78.6645V19.084H75.5753V4.7206ZM78.6645 12.6235H81.402C83.3813 12.6235 84.4703 11.645 84.4703 9.86796C84.4703 8.09096 83.3813 7.11146 81.402 7.11146H78.6645V12.6235Z" fill="#21A038"/>
<path d="M21.353 4.66211C21.9155 5.39429 22.3967 6.19431 22.7813 7.04711L11.9207 15.1058L7.38281 12.2421V8.79701L11.9207 11.6607L21.353 4.66211Z" fill="#21A038"/>
<path d="M2.75378 11.9998C2.75378 11.8453 2.75753 11.6917 2.76502 11.539L0.0149768 11.4004C0.0056165 11.5993 0 11.7991 0 11.9998C0 15.313 1.33384 18.3133 3.49137 20.4854L5.44111 18.5225C3.78247 16.8508 2.75378 14.5441 2.75378 11.9998Z" fill="url(#paint0_linear)"/>
<path d="M11.9191 2.77137C12.0726 2.77137 12.2252 2.77703 12.3768 2.78456L12.5145 0.01508C12.317 0.00564998 12.1185 0 11.9191 0C8.62811 0 5.64777 1.34281 3.49023 3.51486L5.43997 5.47772C7.10048 3.80604 9.39183 2.77137 11.9191 2.77137Z" fill="url(#paint1_linear)"/>
<path d="M11.9196 21.2269C11.766 21.2269 11.6135 21.2232 11.4618 21.2156L11.3242 23.9841C11.5217 23.9936 11.7201 23.9992 11.9196 23.9992C15.2106 23.9992 18.1909 22.6564 20.3484 20.4844L18.3987 18.5215C16.7382 20.1913 14.4468 21.2269 11.9196 21.2269Z" fill="url(#paint2_linear)"/>
<path d="M17.0877 4.3818L19.4063 2.66206C17.3601 0.99697 14.7561 0 11.9199 0V2.77232C13.836 2.77137 15.6154 3.36692 17.0877 4.3818Z" fill="url(#paint3_linear)"/>
<path d="M23.8389 12C23.8389 11.2659 23.7734 10.5479 23.648 9.84961L21.0823 11.7531C21.0842 11.8351 21.0861 11.9171 21.0861 11.999C21.0861 14.7083 19.9197 17.1488 18.0664 18.8384L19.917 20.8974C22.3254 18.7028 23.8389 15.529 23.8389 12Z" fill="#21A038"/>
<path d="M11.9209 21.2274C9.22987 21.2274 6.80553 20.0533 5.12724 18.1875L3.08203 20.0505C5.26296 22.476 8.41552 23.9997 11.9209 23.9997V21.2274Z" fill="url(#paint4_linear)"/>
<path d="M5.7734 5.16054L3.92288 3.10156C1.51355 5.29717 0 8.47089 0 12H2.75378C2.75472 9.28979 3.92007 6.85009 5.7734 5.16054Z" fill="url(#paint5_linear)"/>
<defs>
<linearGradient id="paint0_linear" x1="6.66719" y1="17.5958" x2="0.820101" y2="11.5739" gradientUnits="userSpaceOnUse">
<stop offset="0.1444" stop-color="#F2E913"/>
<stop offset="0.3037" stop-color="#E7E518"/>
<stop offset="0.5823" stop-color="#CADB26"/>
<stop offset="0.891" stop-color="#A3CD39"/>
</linearGradient>
<linearGradient id="paint1_linear" x1="6.69757" y1="6.3608" x2="11.9425" y2="0.972281" gradientUnits="userSpaceOnUse">
<stop offset="0.0592" stop-color="#0FA8E0"/>
<stop offset="0.5385" stop-color="#0099F9"/>
<stop offset="0.9234" stop-color="#0291EB"/>
</linearGradient>
<linearGradient id="paint2_linear" x1="12.764" y1="24.9873" x2="20.0333" y2="20.5581" gradientUnits="userSpaceOnUse">
<stop offset="0.1226" stop-color="#A3CD39"/>
<stop offset="0.2846" stop-color="#86C339"/>
<stop offset="0.8693" stop-color="#21A038"/>
</linearGradient>
<linearGradient id="paint3_linear" x1="9.38005" y1="3.12369" x2="14.6887" y2="7.8729" gradientUnits="userSpaceOnUse">
<stop offset="0.0566" stop-color="#0291EB"/>
<stop offset="0.79" stop-color="#0C8ACB"/>
</linearGradient>
<linearGradient id="paint4_linear" x1="1.46754" y1="22.3984" x2="7.66935" y2="27.7215" gradientUnits="userSpaceOnUse">
<stop offset="0.1324" stop-color="#F2E913"/>
<stop offset="0.2977" stop-color="#EBE716"/>
<stop offset="0.5306" stop-color="#D9E01F"/>
<stop offset="0.8023" stop-color="#BBD62D"/>
<stop offset="0.9829" stop-color="#A3CD39"/>
</linearGradient>
<linearGradient id="paint5_linear" x1="3.80265" y1="14.8881" x2="9.58367" y2="8.59969" gradientUnits="userSpaceOnUse">
<stop offset="0.0698" stop-color="#A3CD39"/>
<stop offset="0.2599" stop-color="#81C55F"/>
<stop offset="0.9216" stop-color="#0FA8E0"/>
</linearGradient>
</defs>
</svg>
