<svg width="58" height="58" viewBox="0 0 58 58" fill="none" xmlns="http://www.w3.org/2000/svg">
<g filter="url(#filter0_d)">
<path d="M30.4326 10.688C29.9919 10.2475 29.3943 10 28.7711 10C28.148 10 27.5504 10.2475 27.1097 10.688L10.6597 27.138C10.2316 27.5813 9.99473 28.1749 10.0001 28.791C10.0054 29.4072 10.2526 29.9966 10.6883 30.4323C11.124 30.868 11.7134 31.1152 12.3296 31.1205C12.9457 31.1259 13.5394 30.889 13.9826 30.4609L14.6711 29.7724V45.2495C14.6711 45.8728 14.9187 46.4705 15.3594 46.9112C15.8001 47.3519 16.3979 47.5995 17.0211 47.5995H21.7211C22.3444 47.5995 22.9421 47.3519 23.3828 46.9112C23.8235 46.4705 24.0711 45.8728 24.0711 45.2495V40.5495C24.0711 39.9262 24.3187 39.3285 24.7594 38.8878C25.2001 38.4471 25.7979 38.1995 26.4211 38.1995H31.1211C31.7444 38.1995 32.3421 38.4471 32.7828 38.8878C33.2235 39.3285 33.4711 39.9262 33.4711 40.5495V45.2495C33.4711 45.8728 33.7187 46.4705 34.1594 46.9112C34.6001 47.3519 35.1979 47.5995 35.8211 47.5995H40.5211C41.1444 47.5995 41.7421 47.3519 42.1828 46.9112C42.6235 46.4705 42.8711 45.8728 42.8711 45.2495V29.7724L43.5597 30.4609C44.0029 30.889 44.5965 31.1259 45.2127 31.1205C45.8288 31.1152 46.4182 30.868 46.854 30.4323C47.2897 29.9966 47.5368 29.4072 47.5422 28.791C47.5475 28.1749 47.3106 27.5813 46.8826 27.138L30.4326 10.688Z" fill="url(#paint0_linear)"/>
<path d="M31.8468 9.27383L31.8466 9.27362C31.0308 8.45812 29.9246 8 28.7711 8C27.6177 8 26.5114 8.45812 25.6957 9.27362L25.6955 9.27383L9.24546 25.7238L9.23317 25.7361L9.2211 25.7486C8.42871 26.569 7.99025 27.6679 8.00016 28.8084C8.01008 29.949 8.46756 31.04 9.27408 31.8465C10.0806 32.6531 11.1716 33.1105 12.3122 33.1205C12.4324 33.1215 12.5521 33.1176 12.6711 33.1088V45.2495C12.6711 46.4032 13.1294 47.5096 13.9452 48.3254C14.761 49.1412 15.8674 49.5995 17.0211 49.5995H21.7211C22.8748 49.5995 23.9813 49.1412 24.797 48.3254C25.6128 47.5096 26.0711 46.4032 26.0711 45.2495V40.5495C26.0711 40.4567 26.108 40.3676 26.1736 40.302C26.2393 40.2364 26.3283 40.1995 26.4211 40.1995H31.1211C31.2139 40.1995 31.303 40.2364 31.3686 40.302C31.4342 40.3676 31.4711 40.4567 31.4711 40.5495V45.2495C31.4711 46.4032 31.9294 47.5096 32.7452 48.3254C33.561 49.1412 34.6674 49.5995 35.8211 49.5995H40.5211C41.6748 49.5995 42.7812 49.1412 43.597 48.3254C44.4128 47.5096 44.8711 46.4032 44.8711 45.2495V33.1088C44.9901 33.1176 45.1098 33.1215 45.23 33.1205C46.3706 33.1105 47.4616 32.6531 48.2682 31.8465L46.854 30.4323L48.2682 31.8465C49.0747 31.04 49.5322 29.949 49.5421 28.8084C49.552 27.6679 49.1135 26.569 48.3211 25.7486L48.3091 25.7361L48.2968 25.7238L31.8468 9.27383Z" stroke="white" stroke-width="4"/>
</g>
<defs>
<filter id="filter0_d" x="0" y="0" width="57.5423" height="57.5995" filterUnits="userSpaceOnUse" color-interpolation-filters="sRGB">
<feFlood flood-opacity="0" result="BackgroundImageFix"/>
<feColorMatrix in="SourceAlpha" type="matrix" values="0 0 0 0 0 0 0 0 0 0 0 0 0 0 0 0 0 0 127 0" result="hardAlpha"/>
<feOffset/>
<feGaussianBlur stdDeviation="3"/>
<feComposite in2="hardAlpha" operator="out"/>
<feColorMatrix type="matrix" values="0 0 0 0 0 0 0 0 0 0 0 0 0 0 0 0 0 0 0.25 0"/>
<feBlend mode="normal" in2="BackgroundImageFix" result="effect1_dropShadow"/>
<feBlend mode="normal" in="SourceGraphic" in2="effect1_dropShadow" result="shape"/>
</filter>
<linearGradient id="paint0_linear" x1="5.2711" y1="52.7995" x2="47.2711" y2="18.2995" gradientUnits="userSpaceOnUse">
<stop stop-color="#21A038"/>
<stop offset="0.429605" stop-color="#00D900"/>
<stop offset="1" stop-color="#FAED00"/>
</linearGradient>
</defs>
</svg>
