<svg width="288" height="365" viewBox="0 0 288 365" fill="none" xmlns="http://www.w3.org/2000/svg">
<path d="M110.359 102.543C110.149 102.543 109.944 102.478 109.774 102.356C106.79 100.221 107.475 97.6239 107.564 97.5138C107.649 97.2763 107.822 97.0798 108.046 96.9634C108.271 96.8471 108.532 96.8195 108.776 96.8863C109.02 96.953 109.23 97.1091 109.364 97.3234C109.498 97.5377 109.545 97.7943 109.497 98.042C109.497 98.1301 109.221 99.4617 111 100.727C111.173 100.851 111.303 101.026 111.37 101.227C111.436 101.429 111.437 101.646 111.372 101.848C111.307 102.05 111.179 102.226 111.007 102.351C110.835 102.476 110.627 102.543 110.414 102.543H110.359Z" fill="#EDA983"/>
<path d="M186 212H29V321H186V212Z" fill="#EEF3FF"/>
<path d="M71.8105 332H143.19C145.791 332 148.287 333.054 150.127 334.929C151.966 336.804 153 339.348 153 342H62C62 339.348 63.0336 336.804 64.8734 334.929C66.7133 333.054 69.2086 332 71.8105 332Z" fill="#EEF3FF"/>
<path d="M113 317H102V333H113V317Z" fill="#EEF3FF"/>
<path d="M160.856 243.291C167.642 243.295 174.404 244.11 181 245.719V218H77.1633C66.3499 232.623 51.2469 243.434 34 248.897V314H76.5075C80.1935 294.134 90.6414 276.193 106.044 263.281C121.447 250.369 140.835 243.298 160.856 243.291Z" fill="#4488B7"/>
<path d="M181 245.432C169.734 242.66 158.031 242.253 146.605 244.235C135.179 246.217 124.269 250.548 114.539 256.963C104.809 263.378 96.4634 271.743 90.0097 281.549C83.5559 291.355 79.1295 302.396 77 314H181V245.432Z" fill="#EFC44F"/>
<path d="M77 218H34V249C51.1816 243.519 66.2275 232.672 77 218Z" fill="#DE5673"/>
<path d="M198.954 100.248L191.873 132.805C191.816 133.069 191.829 133.344 191.912 133.602C191.994 133.86 192.143 134.092 192.343 134.275C192.542 134.458 192.787 134.586 193.052 134.646C193.317 134.707 193.593 134.697 193.853 134.618L210.47 129.47C211.015 129.312 211.51 129.016 211.906 128.612C212.302 128.207 212.587 127.707 212.732 127.161L221.058 95.1217C221.121 94.8491 221.112 94.5647 221.032 94.2966C220.951 94.0284 220.802 93.7857 220.599 93.5924C220.396 93.3992 220.146 93.2619 219.873 93.1943C219.6 93.1266 219.315 93.1309 219.044 93.2066L201.217 97.8705C200.657 98.0214 200.149 98.323 199.75 98.7424C199.351 99.1617 199.076 99.6825 198.954 100.248Z" fill="#DE5673"/>
<path d="M201.918 134.167C201.918 134.167 200.255 129.548 201.918 126.709C202.599 125.458 203.115 124.126 203.457 122.744C204.123 120.299 205.544 118.124 207.518 116.525L210.674 113.946C210.739 113.895 210.817 113.863 210.9 113.855C210.982 113.846 211.065 113.861 211.14 113.898C211.214 113.934 211.277 113.991 211.32 114.061C211.364 114.131 211.387 114.212 211.386 114.295C211.25 117.889 210.572 130.562 207.733 135.812L201.918 134.167Z" fill="#FFDBBD"/>
<path d="M171.704 334.288L171.896 344.427L179.249 343.492L179.679 342.557L187.032 343.03L201.126 340.36L200.753 337.127C200.753 337.127 188.31 338.862 179.916 332.621L171.704 334.288Z" fill="#4488B7"/>
<path d="M201.919 134.168C201.919 134.168 184.804 152.193 178.865 154.131C175.902 155.111 169.069 140.274 164.307 132.309C161.524 127.645 161.762 124.142 158.085 124.074C157.858 124.072 157.632 124.111 157.418 124.187L159.352 124.852C161.864 130.124 159.465 144.679 156.4 158.085C159.095 162.95 163.314 166.803 168.413 169.057C194.148 181.168 211.398 135.824 211.398 135.824L201.919 134.168Z" fill="#EFC44F"/>
<path d="M159.363 124.84L157.429 124.176L131.853 115.366H117.147L100.033 130.09C100.38 129.997 100.737 129.948 101.096 129.944C102.691 129.944 103.302 131.532 103.766 133.064C105.773 139.479 106.541 146.214 106.028 152.914L117.509 184.457H149.375C149.375 184.457 153.255 171.874 156.411 158.074C159.476 144.668 161.863 130.113 159.363 124.84Z" fill="#EEF3FF"/>
<path d="M131.864 112.2C125.925 111.073 120.224 106.567 116.717 102.388L117.181 115.388V115.523C127.124 122.925 131.309 118.542 131.309 118.542L131.626 116.83L132.463 112.324L131.864 112.2Z" fill="#F4BEA4"/>
<path d="M144.556 70.7769C144.12 69.5613 143.439 68.447 142.556 67.5018C141.673 66.5567 140.607 65.8005 139.421 65.2793C136.14 63.8937 132.95 61.6969 121.593 62.0349C101.933 62.6319 104.535 74.5057 104.535 74.5057L108.132 87.6863C108.609 87.508 109.116 87.4238 109.625 87.4385C109.704 87.3596 117.317 99.301 117.136 89.9958C117.51 89.6465 112.238 82.5042 113.743 81.6255C115.247 80.7468 116.458 83.2027 119.58 82.2564C125.134 80.5778 133.346 79.3949 144.975 80.4764C145.133 81.9071 145.291 83.3604 145.427 84.8024C146.49 77.2432 146.479 75.4971 144.556 70.7769Z" fill="#BD9F4B"/>
<path d="M145.393 84.8255C145.393 84.3298 145.291 83.8454 145.235 83.3497C145.133 82.3921 145.042 81.4458 144.941 80.4995C133.301 79.373 125.1 80.6009 119.545 82.2795C116.423 83.2258 115.292 80.7023 113.709 81.6486C112.125 82.5949 117.509 89.6696 117.102 90.0188C117.272 99.3241 109.659 87.3827 109.591 87.4616C109.082 87.4469 108.575 87.5311 108.098 87.7094C105.327 88.836 108.381 93.6801 109.591 96.7218C110.022 97.7031 110.749 98.5264 111.672 99.0775C112.594 99.6285 113.666 99.8801 114.738 99.7973C115.332 100.724 115.986 101.612 116.695 102.456C120.202 106.669 125.903 111.164 131.841 112.268C134.505 112.826 137.278 112.526 139.76 111.412C142.497 110.15 144.104 107.514 144.997 104.067C146.366 98.8397 146.072 91.8551 145.393 84.8255Z" fill="#FFDBBD"/>
<path d="M126.378 91.9231C127.121 91.9231 127.724 91.0606 127.724 89.9967C127.724 88.9328 127.121 88.0703 126.378 88.0703C125.634 88.0703 125.032 88.9328 125.032 89.9967C125.032 91.0606 125.634 91.9231 126.378 91.9231Z" fill="#454240"/>
<path d="M140.189 92.6321C140.933 92.6321 141.536 91.7696 141.536 90.7057C141.536 89.6418 140.933 88.7793 140.189 88.7793C139.446 88.7793 138.843 89.6418 138.843 90.7057C138.843 91.7696 139.446 92.6321 140.189 92.6321Z" fill="#454240"/>
<path d="M129.952 86.2553C129.952 86.2553 124.24 84.8246 122.283 86.2553C120.326 87.686 122.984 82.8757 126.118 82.3124C129.251 81.7491 129.952 86.2553 129.952 86.2553Z" fill="#454240"/>
<path d="M136.264 85.4559C136.264 85.4559 141.128 85.2531 142.293 87.0443C143.458 88.8355 142.621 83.5858 140.291 82.4367C137.961 81.2876 136.264 85.4559 136.264 85.4559Z" fill="#454240"/>
<path d="M137.509 101.656L125.066 100.372L130.247 104.777C131.774 106.084 135.62 107.188 136.898 105.633L137.509 101.656Z" fill="white"/>
<path d="M134.907 99.673C134.671 99.6748 134.441 99.5956 134.257 99.4488C134.072 99.302 133.944 99.0964 133.894 98.8666C133.843 98.6368 133.874 98.3967 133.98 98.1866C134.086 97.9765 134.262 97.8092 134.477 97.7128C135.478 97.2762 136.402 96.6829 137.215 95.9554C134.409 94.4345 133.199 90.4691 133.143 90.3226C133.084 90.069 133.125 89.8028 133.257 89.578C133.388 89.3533 133.601 89.1868 133.851 89.1123C134.102 89.0378 134.371 89.0608 134.605 89.1768C134.839 89.2928 135.02 89.493 135.111 89.7368C135.405 90.7057 136.513 93.3756 138.165 94.1642C138.518 94.289 138.824 94.5173 139.044 94.8189C139.264 95.1205 139.388 95.4813 139.398 95.854C139.398 97.4875 136.841 98.8957 135.326 99.6054C135.192 99.6569 135.05 99.6799 134.907 99.673Z" fill="#F4BEA4"/>
<path d="M43.8314 125.421L37.4702 130.805C37.0846 131.131 37.0376 131.707 37.3653 132.091L55.5909 153.448C55.9186 153.832 56.4969 153.879 56.8825 153.553L63.2437 148.169C63.6293 147.842 63.6762 147.266 63.3485 146.882L45.1229 125.525C44.7952 125.141 44.2169 125.094 43.8314 125.421Z" fill="#3A6988"/>
<path d="M198.389 133.019C198.389 133.492 196.738 177.866 167.734 181.742C167.612 181.617 167.466 181.519 167.304 181.451C167.143 181.383 166.97 181.348 166.795 181.347H163.402C163.197 181.349 162.995 181.4 162.814 181.494C161.544 181 160.389 180.252 159.42 179.297C145.54 166.004 146.762 108.55 146.92 103.007C149.332 101.237 151.033 98.6689 151.717 95.7637C153.21 90.0521 151.072 84.5658 146.943 83.4956C146.378 83.3507 145.795 83.2937 145.212 83.3266C145.212 83.8223 145.314 84.3067 145.371 84.8024C146.049 91.8433 146.344 98.8279 145.009 103.954C145.275 103.856 145.536 103.743 145.789 103.616C145.62 108.775 144.126 166.173 158.639 180.074C159.323 180.732 160.082 181.307 160.902 181.787C130.36 177.889 112.838 108.775 111.718 104.201C112.535 104.32 113.368 104.262 114.161 104.033C118.245 102.827 120.191 97.2732 118.505 91.6405C117.227 87.3596 114.241 84.2616 111.085 83.5294C111.085 83.5294 114.75 62.6206 133.075 62.891L129.681 62.2939C129.681 62.2939 109.467 64.8512 108.743 83.428C108.498 83.4647 108.257 83.5174 108.019 83.5857C103.935 84.7911 101.99 90.345 103.675 95.9777C104.806 99.9319 107.499 102.883 110.383 103.864C112.216 111.333 130.145 180.998 162.124 183.015C162.209 183.277 162.375 183.507 162.598 183.671C162.821 183.834 163.091 183.924 163.368 183.927H166.761C167.078 183.925 167.383 183.81 167.621 183.604C167.86 183.397 168.016 183.112 168.062 182.801C197.824 178.655 199.475 133.492 199.498 133.019H198.389Z" fill="#DE5673"/>
<path d="M46.1855 128.443L39.9639 133.607L40.6881 134.473L46.9097 129.309L46.1855 128.443Z" fill="#62A5D2"/>
<path d="M47.9545 130.457L41.7329 135.621L42.4571 136.486L48.6788 131.322L47.9545 130.457Z" fill="#62A5D2"/>
<path d="M49.7173 132.46L43.4956 137.624L44.2198 138.489L50.4415 133.325L49.7173 132.46Z" fill="#62A5D2"/>
<path d="M53.2421 136.478L47.0205 141.643L47.7447 142.508L53.9664 137.344L53.2421 136.478Z" fill="#62A5D2"/>
<path d="M54.4433 147.39C56.1613 147.39 57.554 146.003 57.554 144.292C57.554 142.581 56.1613 141.194 54.4433 141.194C52.7253 141.194 51.3325 142.581 51.3325 144.292C51.3325 146.003 52.7253 147.39 54.4433 147.39Z" fill="#62A5D2"/>
<path d="M49.2278 138.269C49.4884 138.009 49.4884 137.588 49.2278 137.329C48.9671 137.069 48.5446 137.069 48.2839 137.329C48.0233 137.588 48.0233 138.009 48.2839 138.269C48.5446 138.528 48.9671 138.528 49.2278 138.269Z" fill="#62A5D2"/>
<path d="M45.0041 127.985C45.2647 127.725 45.2647 127.304 45.0041 127.045C44.7435 126.785 44.3209 126.785 44.0603 127.045C43.7997 127.304 43.7997 127.725 44.0603 127.985C44.3209 128.244 44.7435 128.244 45.0041 127.985Z" fill="#62A5D2"/>
<path d="M116.458 343.819C116.458 343.819 121.457 347.48 129.805 343.819C129.805 343.819 132.724 344.101 128.674 335.798H120.564C120.564 335.798 116.831 340.293 116.458 343.819Z" fill="#4488B7"/>
<path d="M134.047 211.022H136.592C136.592 211.022 152.361 260.353 152.666 272.508C153.096 289.733 154.454 279.178 171.704 334.232L179.905 332.497C179.905 332.497 165.109 270.165 162.372 251.104C159.634 232.043 149.273 189.234 149.273 189.234L149.363 184.446H117.509L114.455 206.605L118.731 263.868C118.731 263.868 114.58 276.26 117.509 301.416C120.439 326.571 120.62 335.775 120.62 335.775H128.731C128.731 335.775 128.923 280.574 129.862 262.741C130.801 244.908 134.047 211.022 134.047 211.022Z" fill="#6A5E5C"/>
<path d="M103.754 133.064C103.29 131.543 102.691 129.921 101.084 129.944C100.725 129.948 100.368 129.997 100.021 130.09C97.4308 130.788 97.3403 134.022 94.863 138.179C90.1007 146.143 83.2571 160.991 80.3047 160.011C74.366 158.04 60.1018 151.81 60.1018 151.81L50.6338 153.466C50.6338 153.466 65.0337 187.048 90.7681 174.938C101.333 169.97 105.168 161.352 106.028 152.914C106.537 146.214 105.765 139.478 103.754 133.064Z" fill="#EFC44F"/>
<path d="M60.1582 151.877C60.1582 151.877 57.3868 144.172 54.5023 142.561C53.3711 141.896 49.2649 139.249 46.7537 138.854L42.738 138.269C42.6549 138.256 42.5699 138.268 42.4931 138.302C42.4163 138.336 42.3509 138.391 42.3046 138.461C42.2582 138.531 42.2329 138.612 42.2315 138.696C42.2301 138.78 42.2528 138.862 42.2968 138.933C44.2425 141.964 48.4731 149.951 53.6087 153.049L60.1582 151.877Z" fill="#FFDBBD"/>
</svg>
