<svg width="151" height="24" viewBox="0 0 151 24" fill="none" xmlns="http://www.w3.org/2000/svg">
<g clip-path="url(#clip0)">
<path d="M36.4432 10.893C34.8241 10.5132 33.4318 10.2 33.4318 9.0834C33.4318 7.6086 35.2802 7.452 36.1017 7.452C36.9911 7.4076 37.8583 7.5864 38.657 7.9662L40.893 6.357C39.4552 5.508 37.8126 5.0388 36.1245 5.0166C31.9261 5.0166 30.4432 7.206 30.4432 9.2388C30.4432 12.1884 33.0441 12.7908 35.3714 13.3278C36.9911 13.7076 38.3834 14.0424 38.3834 15.1596C38.3834 15.7404 38.0407 16.7016 35.6906 16.7016C34.0937 16.6788 32.5424 16.1874 31.2192 15.2934L30.1924 17.5728C31.4244 18.5112 33.5692 19.1142 35.6678 19.1142C39.1359 19.1142 41.3947 17.4606 41.3947 14.9142C41.3719 12.0318 38.7482 11.4282 36.4438 10.8924L36.4432 10.893ZM54.2415 11.7642L54.1034 11.7192L54.2415 11.652C55.365 11.0688 56.0763 9.903 56.0306 8.67C56.0306 6.45 54.1034 5.1498 50.8923 5.1498H44.2644V18.849H51.2831C54.7696 18.849 56.6963 17.526 56.6963 15.1494C56.7191 13.4904 55.8014 12.2796 54.2421 11.7642H54.2415ZM47.2911 7.4142H50.5022C52.5441 7.4142 52.957 8.3334 52.957 9.096C52.957 10.194 52.1083 10.7772 50.5028 10.7772H47.2917V7.4142H47.2911ZM47.2911 10.755H50.5022H47.2911ZM51.0532 16.539H47.2905V13.0416H51.0526C52.7721 13.0416 53.6442 13.6248 53.6442 14.7906C53.6442 15.9564 52.7955 16.5396 51.0526 16.5396L51.0532 16.539ZM66.8059 7.437L69.9479 5.1498H59.4285V18.849H69.9479V16.5618H62.4337V13.0644H68.8552V10.7772H62.4337V7.437H66.8059ZM84.7028 18.849L81.6458 14.3946C83.4479 13.6332 84.4969 12.0888 84.4969 10.0518C84.4969 7.0302 82.2159 5.1498 78.566 5.1498H72.8169V18.8262H75.8283V14.9538H78.8169L81.4856 18.8262L84.7028 18.849ZM75.8277 7.455H78.497C80.4366 7.455 81.4862 8.3958 81.4862 10.0746C81.4862 11.7534 80.4366 12.693 78.497 12.693H75.8283V7.455H75.8277ZM116.366 18.8262H119.552L113.638 5.172H110.544L104.514 18.8262H107.586L108.801 16.0782H115.22L116.367 18.8262H116.366ZM109.717 13.776L112.056 8.301L114.256 13.776H109.717ZM140.69 13.3068H142.57L147.201 18.804H151.098L144.909 11.742L150.319 5.1498H146.857L142.364 11.0046H140.69V5.1498H137.664V18.804H140.69V13.3068ZM100.822 11.7426L100.96 11.6754C102.083 11.094 102.794 9.9546 102.748 8.703C102.748 6.4908 100.822 5.1948 97.6124 5.1948H90.9868V18.849H98.0025C101.487 18.849 103.413 17.5302 103.413 15.1614C103.413 13.5522 102.519 12.3234 100.96 11.8092L100.822 11.7426ZM97.2228 7.4514C99.2401 7.4514 99.6758 8.3682 99.6758 9.1278C99.6758 10.2228 98.8278 10.8036 97.2228 10.8036H94.013V7.4736H97.2228V7.4514ZM94.013 16.5474V13.0614H97.7726C99.4921 13.0614 100.364 13.6416 100.364 14.8038C100.364 15.966 99.5156 16.5468 97.7732 16.5468H94.0136L94.013 16.5474ZM131.313 5.172V14.1336L124.345 5.172H121.479V18.8262H124.391V9.8874L131.337 18.8262H134.202V5.172H131.314H131.313Z" fill="#21A038"/>
</g>
<path d="M20.9725 5.0332C21.5319 5.73183 22.0036 6.49294 22.3777 7.3004L11.709 14.9L7.25928 12.2275V8.95968L11.709 11.6828L20.9725 5.0332Z" fill="#21A038"/>
<path d="M2.70621 11.9997C2.70621 11.8477 2.70621 11.7084 2.70621 11.5564L0 11.4297C0 11.6197 0 11.8097 0 11.9997C0.00273321 15.0219 1.23821 17.9195 3.43481 20.0552L5.34738 18.1933C3.65355 16.5545 2.70266 14.3246 2.70621 11.9997Z" fill="url(#paint0_linear)"/>
<path d="M11.7088 3.23414H12.1642L12.2943 0.599609H11.7088C8.60433 0.602269 5.62795 1.80502 3.43408 3.94343L5.34665 5.80534C7.03341 4.16111 9.32186 3.23627 11.7088 3.23414Z" fill="url(#paint1_linear)"/>
<path d="M11.71 20.7636H11.2546L11.1245 23.3981H11.71C14.8145 23.3955 17.7909 22.1927 19.9848 20.0543L18.0722 18.1924C16.3854 19.8367 14.097 20.7614 11.71 20.7636Z" fill="url(#paint2_linear)"/>
<path d="M16.7836 4.76673L19.0605 3.13281C16.9794 1.49559 14.3851 0.601595 11.7095 0.599609V3.23414C13.521 3.23413 15.2902 3.76846 16.7836 4.76673Z" fill="url(#paint3_linear)"/>
<path d="M23.4202 11.9991C23.4183 11.3156 23.3573 10.6335 23.2381 9.95996L20.714 11.7585V11.9991C20.7142 14.4761 19.6363 16.8371 17.7476 18.4968L19.517 20.4474C21.9877 18.2961 23.4061 15.2261 23.4202 11.9991Z" fill="#21A038"/>
<path d="M11.7104 20.7638C9.16598 20.7641 6.74069 19.7147 5.03586 17.876L3.03223 19.5986C5.24207 22.0039 8.39556 23.3846 11.7104 23.3984V20.7638Z" fill="url(#paint4_linear)"/>
<path d="M5.67264 5.50232L3.9032 3.55176C1.43246 5.70306 0.0140974 8.77298 0 12H2.70621C2.70601 9.52306 3.78391 7.16196 5.67264 5.50232Z" fill="url(#paint5_linear)"/>
<defs>
<linearGradient id="paint0_linear" x1="6.55679" y1="17.344" x2="1.05341" y2="11.3934" gradientUnits="userSpaceOnUse">
<stop offset="0.14" stop-color="#F2E913"/>
<stop offset="0.3" stop-color="#E7E518"/>
<stop offset="0.58" stop-color="#CADB26"/>
<stop offset="0.89" stop-color="#A3CD39"/>
</linearGradient>
<linearGradient id="paint1_linear" x1="6.60541" y1="6.64804" x2="11.5447" y2="1.33809" gradientUnits="userSpaceOnUse">
<stop offset="0.06" stop-color="#0FA8E0"/>
<stop offset="0.54" stop-color="#0099F9"/>
<stop offset="0.92" stop-color="#0291EB"/>
</linearGradient>
<linearGradient id="paint2_linear" x1="12.5592" y1="24.3451" x2="19.537" y2="19.8862" gradientUnits="userSpaceOnUse">
<stop offset="0.12" stop-color="#A3CD39"/>
<stop offset="0.28" stop-color="#86C339"/>
<stop offset="0.87" stop-color="#21A038"/>
</linearGradient>
<linearGradient id="paint3_linear" x1="9.19312" y1="3.57348" x2="14.2358" y2="8.26984" gradientUnits="userSpaceOnUse">
<stop offset="0.06" stop-color="#0291EB"/>
<stop offset="0.79" stop-color="#0C8ACB"/>
</linearGradient>
<linearGradient id="paint4_linear" x1="1.41984" y1="21.8785" x2="7.29308" y2="27.1589" gradientUnits="userSpaceOnUse">
<stop offset="0.13" stop-color="#F2E913"/>
<stop offset="0.3" stop-color="#EBE716"/>
<stop offset="0.53" stop-color="#D9E01F"/>
<stop offset="0.8" stop-color="#BBD62D"/>
<stop offset="0.98" stop-color="#A3CD39"/>
</linearGradient>
<linearGradient id="paint5_linear" x1="3.73609" y1="14.7194" x2="9.18034" y2="8.52383" gradientUnits="userSpaceOnUse">
<stop offset="0.07" stop-color="#A3CD39"/>
<stop offset="0.26" stop-color="#81C55F"/>
<stop offset="0.92" stop-color="#0FA8E0"/>
</linearGradient>
<clipPath id="clip0">
<rect width="151" height="24" fill="white"/>
</clipPath>
</defs>
</svg>
