<svg width="168" height="168" viewBox="0 0 168 168" fill="none" xmlns="http://www.w3.org/2000/svg">
<path d="M59.0002 123.62H53.6102L52.4902 139.48C52.4902 139.48 57.1202 139.34 58.3702 136.56C59.1201 134.76 59.3522 132.785 59.0402 130.86L59.0002 123.62Z" fill="#454240"/>
<path d="M83.1899 149.77V157.28H96.8599C97.0218 156.244 96.7918 155.186 96.2148 154.311C95.6378 153.436 94.7554 152.808 93.7399 152.55C89.9899 151.44 90.1999 149.77 90.1999 149.77H83.1899Z" fill="#454240"/>
<path d="M107.93 59.7398C107.93 59.7398 101.43 67.4098 98.7601 66.4098C97.0201 65.7598 95.8201 58.4898 95.1901 53.5298C95.4501 49.3098 94.9301 45.7698 92.9601 44.0698C90.5796 41.8664 87.795 40.1447 84.7601 38.9998L84.6101 39.8298C84.6101 39.8298 82.6101 41.9698 77.7501 38.3598V38.2998C72.0001 38.6898 61.5101 41.9998 58.1501 59.9998C58.0678 60.4288 58.0176 60.8633 58.0001 61.2998L57.3501 82.5698H63.0001C63.0001 82.5698 65.8301 61.4998 70.3301 56.2198L69.5001 79.6498L88.3301 80.5298C88.3301 80.5298 90.1901 75.7998 92.0001 69.7098C93.5166 71.4445 95.2588 72.9681 97.1801 74.2398C103.55 78.5698 112.18 62.4098 112.18 62.4098L107.93 59.7398Z" fill="#EFC44F"/>
<path d="M84.8998 36.74C81.9998 36.2 79.2398 34 77.5298 32L77.7498 38.35V38.41C82.5798 42.02 84.6098 39.88 84.6098 39.88L84.7598 39.05L85.1698 36.85L84.8998 36.74Z" fill="#EDA983"/>
<path d="M92.4199 14.7199C89.4199 15.2199 92.4199 13.3599 82.8899 13.6599C73.3599 13.9599 71.6099 18.3499 71.6099 18.3499L73.3599 24.7799C73.5899 24.694 73.8344 24.6533 74.0799 24.6599C74.0799 24.6599 77.8199 30.4499 77.7299 25.9099C77.9099 25.7399 75.3499 22.2499 76.0599 21.8299C76.7699 21.4099 77.3799 22.5999 78.8999 22.1399C82.9215 21.0535 87.1157 20.7581 91.2499 21.2699C91.3299 21.9699 91.3999 22.6799 91.4699 23.3799C94.1699 22.9299 95.4199 14.2199 92.4199 14.7199Z" fill="#D39954"/>
<path d="M91.4701 23.3803C91.4001 22.6703 91.3301 21.9703 91.2501 21.2703C87.1159 20.7584 82.9217 21.0539 78.9001 22.1403C77.3801 22.6003 76.8301 21.3703 76.0601 21.8303C75.2901 22.2903 77.9101 25.7403 77.7301 25.9103C77.8101 30.4503 74.1101 24.6203 74.0801 24.6603C73.8346 24.6536 73.5902 24.6944 73.3601 24.7803C72.0101 25.3303 73.5001 27.7003 74.0801 29.1603C74.29 29.6386 74.6433 30.0398 75.0912 30.3085C75.539 30.5772 76.0593 30.7002 76.5801 30.6603C76.8851 31.1115 77.2191 31.5425 77.5801 31.9503C79.2401 34.0003 82.0001 36.2003 84.9001 36.7403C86.1955 37.0122 87.5438 36.8651 88.7501 36.3203C92.0701 34.7803 92.0001 29.1103 91.4701 23.3803Z" fill="#FFCFA4"/>
<path d="M82.2298 26.8497C82.5943 26.8497 82.8898 26.4289 82.8898 25.9097C82.8898 25.3906 82.5943 24.9697 82.2298 24.9697C81.8653 24.9697 81.5698 25.3906 81.5698 25.9097C81.5698 26.4289 81.8653 26.8497 82.2298 26.8497Z" fill="#454240"/>
<path d="M88.9398 27.1896C89.3043 27.1896 89.5998 26.7687 89.5998 26.2496C89.5998 25.7304 89.3043 25.3096 88.9398 25.3096C88.5753 25.3096 88.2798 25.7304 88.2798 26.2496C88.2798 26.7687 88.5753 27.1896 88.9398 27.1896Z" fill="#454240"/>
<path d="M83.9498 24.0797C83.9498 24.0797 81.1698 23.3797 80.2298 24.0797C79.2898 24.7797 80.5698 22.4097 82.0898 22.1597C83.6098 21.9097 83.9498 24.0797 83.9498 24.0797Z" fill="#B57B2D"/>
<path d="M87 23.6896C87 23.6896 89.36 23.5896 89.93 24.4596C90.5 25.3296 90.09 22.7696 88.93 22.2096C87.77 21.6496 87 23.6896 87 23.6896Z" fill="#B57B2D"/>
<path d="M87.6398 31.6L81.5698 31L84.0898 33.15C84.8298 33.79 86.6998 34.33 87.3198 33.57L87.6398 31.6Z" fill="white"/>
<path d="M86.3802 30.6298C86.2476 30.6577 86.1093 30.6317 85.9959 30.5576C85.8824 30.4835 85.803 30.3674 85.7752 30.2348C85.7473 30.1022 85.7733 29.964 85.8474 29.8505C85.9215 29.737 86.0376 29.6577 86.1702 29.6298C86.6564 29.4156 87.1054 29.1253 87.5002 28.7698C86.5379 28.1052 85.8321 27.1312 85.5002 26.0098C85.4631 25.8772 85.4801 25.7353 85.5476 25.6153C85.6152 25.4952 85.7276 25.4069 85.8602 25.3698C85.9928 25.3327 86.1347 25.3498 86.2547 25.4173C86.3748 25.4848 86.4631 25.5972 86.5002 25.7298C86.7274 26.6161 87.2582 27.3946 88.0002 27.9298C88.1727 27.9908 88.3226 28.1029 88.4298 28.2511C88.537 28.3994 88.5964 28.5769 88.6002 28.7598C88.6002 29.5498 87.3602 30.2498 86.6002 30.5898C86.5309 30.6199 86.4556 30.6336 86.3802 30.6298Z" fill="#EDA983"/>
<path d="M75.2898 29.2199C75.1861 29.2207 75.0848 29.1892 74.9998 29.1299C74.583 28.8943 74.2501 28.5345 74.0475 28.1007C73.845 27.6669 73.7828 27.1807 73.8698 26.7099C73.9043 26.5773 73.99 26.4638 74.1082 26.3944C74.2263 26.325 74.3672 26.3054 74.4998 26.3399C74.6324 26.3743 74.7459 26.4601 74.8153 26.5782C74.8847 26.6964 74.9043 26.8373 74.8698 26.9699C74.8698 26.9699 74.7298 27.6799 75.6198 28.3099C75.7073 28.3709 75.773 28.4584 75.8072 28.5595C75.8414 28.6606 75.8424 28.77 75.81 28.8717C75.7776 28.9734 75.7135 29.062 75.6271 29.1247C75.5407 29.1873 75.4365 29.2207 75.3298 29.2199H75.2898Z" fill="#EDA983"/>
<path d="M120.25 49.4902L117 49.5902C116.717 49.5976 116.438 49.6636 116.182 49.7841C115.925 49.9046 115.696 50.0769 115.51 50.2902L109.19 57.5502C109.119 57.6247 109.068 57.7159 109.042 57.8153C109.015 57.9148 109.015 58.0193 109.04 58.119C109.065 58.2188 109.114 58.3107 109.184 58.3861C109.254 58.4615 109.342 58.5179 109.44 58.5502C110.811 57.5317 112.356 56.7725 114 56.3102C115.75 55.9802 117.21 54.1502 118 52.9302C118.086 52.791 118.218 52.6853 118.372 52.6308C118.527 52.5762 118.695 52.576 118.85 52.6302L120.69 50.4702C120.761 50.3839 120.806 50.2796 120.821 50.169C120.835 50.0584 120.819 49.9458 120.773 49.844C120.728 49.7422 120.654 49.6551 120.562 49.5926C120.469 49.5302 120.361 49.4947 120.25 49.4902Z" fill="#454240"/>
<path d="M118.89 52.6304C118.736 52.5762 118.567 52.5763 118.412 52.6309C118.258 52.6854 118.127 52.7911 118.04 52.9304C117.24 54.1504 115.78 55.9804 114.04 56.3104C112.391 56.7613 110.839 57.5103 109.46 58.5204C108.46 59.2204 107.7 59.8104 107.7 59.8104L111.87 62.4804L116.7 57.3104C117.827 56.2408 118.737 54.9642 119.38 53.5504C119.414 53.458 119.428 53.3596 119.421 53.2614C119.414 53.1633 119.387 53.0678 119.341 52.981C119.294 52.8942 119.23 52.8181 119.153 52.7577C119.075 52.6973 118.986 52.6539 118.89 52.6304Z" fill="#FFCFA4"/>
<path d="M91 94.1301C88.32 81.1301 88.33 80.5402 88.33 80.5402L69.5 79.6602C69.5 79.6602 70.03 86.6602 70.57 94.6602H71.57L73.57 120.66H68.92C66.41 122.66 62.57 123.12 59.02 123.66V130.89C59.02 130.89 75.69 131.82 77.85 119.76C80.01 107.7 80 91.0002 80 91.0002H82.43C82.43 91.0002 86.5 116.41 85.67 124.75L83.17 149.75H90.17C90.17 149.75 95.33 115 91 94.1301Z" fill="#6B767C"/>
<path d="M71.6099 94.6104H69.1099C69.1084 93.3693 68.8208 92.1454 68.2692 91.0336C67.7177 89.9219 66.9172 88.9523 65.9299 88.2003C65.8257 88.342 65.6813 88.4492 65.5156 88.508C65.3498 88.5668 65.1702 88.5746 64.9999 88.5303L64.5299 88.4104C65.6216 89.0265 66.5301 89.9214 67.1626 91.0037C67.7951 92.086 68.1289 93.3168 68.1299 94.5704H53.9399C53.9405 93.5071 54.1809 92.4578 54.6432 91.5003C55.1055 90.5429 55.7777 89.702 56.6099 89.0404C56.369 88.7866 56.221 88.4589 56.1899 88.1104C55.1831 88.8601 54.365 89.8345 53.8009 90.9559C53.2367 92.0774 52.9419 93.315 52.9399 94.5704H50.4399L48.4399 120.57H73.6099L71.6099 94.6104Z" fill="#DCB57E"/>
<path d="M57.6099 89.5503L61.8399 89.9103C62.3803 89.9559 62.9221 89.8406 63.3972 89.579C63.8723 89.3175 64.2594 88.9213 64.5099 88.4403L64.9799 88.5603C65.1566 88.611 65.3447 88.6064 65.5187 88.5471C65.6927 88.4877 65.8444 88.3765 65.9533 88.2284C66.0622 88.0803 66.1231 87.9023 66.1279 87.7185C66.1327 87.5347 66.081 87.3539 65.9799 87.2003L62.9999 82.5703H57.3599L56.2199 87.6503C56.1738 87.8676 56.1741 88.0922 56.2207 88.3094C56.2673 88.5267 56.3592 88.7316 56.4904 88.9109C56.6215 89.0902 56.789 89.2398 56.9819 89.35C57.1749 89.4602 57.3888 89.5284 57.6099 89.5503Z" fill="#FFCFA4"/>
<path d="M69.7398 82.7704L88.8898 83.4904L88.3598 80.5304L69.5298 79.6504L69.7398 82.7704Z" fill="#B57B2D"/>
<path d="M79.03 83.1201L78.75 80.0801L82.13 80.2401L82.44 83.2501L79.03 83.1201Z" fill="#FFF4E6"/>
</svg>
