<svg width="240" height="24" viewBox="0 0 240 24" fill="none" xmlns="http://www.w3.org/2000/svg">
<path d="M21.5496 4.66211C22.121 5.39835 22.6049 6.19846 22.9915 7.04646L12.0311 15.1058L7.45215 12.2421V8.79666L12.0311 11.6603L21.5496 4.66211Z" fill="#21A038"/>
<path d="M2.77952 11.9996C2.77952 11.8448 2.78327 11.6913 2.79076 11.5378L0.0157 11.4004C-0.0702869 13.076 0.197639 14.751 0.802028 16.3162C1.40642 17.8813 2.33372 19.3016 3.52353 20.4846L5.49092 18.5222C4.63127 17.6674 3.94916 16.6511 3.48383 15.5317C3.0185 14.4123 2.77914 13.2119 2.77952 11.9996Z" fill="url(#paint0_linear)"/>
<path d="M12.0296 2.77227C12.1844 2.77227 12.338 2.77726 12.4915 2.78475L12.6301 0.0159315C10.9518 -0.0706085 9.27404 0.196121 7.70535 0.798861C6.13665 1.40161 4.71196 2.32696 3.52344 3.51503L5.49082 5.47867C6.3492 4.61971 7.3686 3.93852 8.49063 3.47411C9.61266 3.00971 10.8153 2.77121 12.0296 2.77227Z" fill="url(#paint1_linear)"/>
<path d="M12.0321 21.2277C11.8773 21.2277 11.7238 21.2239 11.5702 21.2152L11.4316 23.984C13.1099 24.0705 14.7877 23.8038 16.3564 23.2011C17.9251 22.5983 19.3498 21.673 20.5383 20.4849L18.5709 18.5225C17.7122 19.381 16.6927 20.0617 15.5707 20.5259C14.4488 20.9901 13.2463 21.2285 12.0321 21.2277Z" fill="url(#paint2_linear)"/>
<path d="M17.2449 4.38267L19.5842 2.66246C17.4454 0.935666 14.7782 -0.00392421 12.0293 0.000995787V2.77231C13.8906 2.76991 15.7089 3.33135 17.2449 4.38267Z" fill="url(#paint3_linear)"/>
<path d="M24.0589 11.9993C24.0589 11.2652 23.9927 10.5474 23.8654 9.84961L21.2776 11.7521L21.2813 11.998C21.2813 14.7069 20.1041 17.1474 18.2354 18.8377L20.1016 20.8974C21.3487 19.775 22.3456 18.4026 23.0274 16.8696C23.7092 15.3365 24.0606 13.6771 24.0589 11.9993Z" fill="#21A038"/>
<path d="M12.0317 21.2272C10.7399 21.2279 9.46236 20.9578 8.28146 20.4342C7.10055 19.9107 6.04257 19.1453 5.17581 18.1875L3.1123 20.05C4.24006 21.2956 5.61661 22.2907 7.15299 22.9711C8.68937 23.6514 10.3514 24.0019 12.0317 23.9997V21.2284V21.2272Z" fill="url(#paint4_linear)"/>
<path d="M5.82601 5.16132L3.95849 3.10156C2.7112 4.2239 1.71412 5.59624 1.03212 7.12925C0.350115 8.66235 -0.00154729 10.3219 5.11746e-06 11.9998H2.77881C2.77881 9.29085 3.95599 6.85035 5.82601 5.16132Z" fill="url(#paint5_linear)"/>
<path d="M69.116 7.04327L72.3304 4.68015H61.5785V18.8638H72.3304V16.5045H64.6457V12.8718H71.2007V10.5087H64.6457V7.04327H69.116ZM53.4593 10.2116H49.7255V7.04197H55.6876L58.9021 4.6789H46.6546V18.8626H53.0623C56.6563 18.8626 58.7161 17.2397 58.7161 14.406C58.7161 11.7008 56.8485 10.2091 53.4593 10.2091V10.2116ZM52.925 16.5045H49.7268V12.5734H52.9263C54.8737 12.5734 55.78 13.2313 55.78 14.5408C55.78 15.8753 54.8187 16.5045 52.9263 16.5045H52.925ZM81.0414 4.68015H75.1879V18.8638H78.2551V14.8454H81.0414C84.7789 14.8454 87.0983 12.8855 87.0983 9.75587C87.0983 6.62627 84.7764 4.68015 81.0414 4.68015ZM80.9752 12.486H78.2551V7.04327H80.9752C82.9401 7.04327 84.0249 8.00947 84.0249 9.76587C84.0249 11.5198 82.9401 12.4873 80.9752 12.4873V12.486ZM41.3879 15.7929C40.6014 16.2273 39.6864 16.4545 38.7389 16.4545C35.9738 16.4545 33.9627 14.4834 33.9627 11.7707C33.9627 9.05807 35.9701 7.08697 38.7389 7.08697C39.785 7.08697 40.725 7.38157 41.5289 7.95957L43.7297 6.34167L43.5849 6.21687C42.3004 5.08835 40.5852 4.49414 38.6203 4.49414C36.4894 4.49414 34.5557 5.21069 33.1775 6.51017C31.7919 7.81847 31.0254 9.65977 31.0254 11.6946C31.0254 13.7381 31.7869 15.6044 33.17 16.9551C34.5557 18.3071 36.4856 19.0523 38.5991 19.0523C40.8086 19.0523 42.7436 18.2821 44.0518 16.8814C43.0407 16.1399 42.067 15.4221 42.067 15.4221L41.3891 15.7929H41.3879Z" fill="#21A038"/>
<path d="M106.159 8.43491L101.59 15.9674H100.312L95.6453 8.53981V19.087H93.1074V4.91585H96.3157L101.024 12.6281L105.692 4.91585H108.695V19.087H106.159V8.43491ZM121.255 12.9489H114.721V16.7539H122.231V19.082H112.183V4.91211H122.006V7.23901H114.721V10.6208H121.255V12.9489ZM134.687 7.24031H127.584V19.082H125.049V4.91211H134.688V7.23901L134.687 7.24031ZM147.736 19.082H145.037L143.679 15.7215H137.165L135.826 19.082H133.249L139.011 4.91211H141.893L147.735 19.0808L147.736 19.082ZM142.743 13.3933L140.408 7.58231L138.074 13.3933H142.743ZM166.98 8.43371L162.411 15.9662H161.134L156.467 8.53851V19.0845H153.93V4.91585H157.139L161.847 12.6268L166.514 4.91585H169.518V19.0845H166.98V8.43371ZM185.793 19.082H183.096L181.733 15.7215H175.221L173.88 19.082H171.305L177.067 4.91211H179.948L185.794 19.0808L185.793 19.082ZM180.803 13.3933L178.47 7.58231L176.136 13.3933H180.805H180.803ZM190.138 14.6704V19.087H187.6V4.91585H192.328C194.574 4.91585 196.202 5.31782 197.209 6.11921C198.216 6.92071 198.722 8.12161 198.722 9.71071C198.722 11.371 198.181 12.6131 197.097 13.4358C196.016 14.2584 194.426 14.6716 192.328 14.6716H190.138V14.6704ZM190.138 7.23901V12.3397H192.514C193.704 12.3397 194.599 12.1337 195.192 11.7243C195.788 11.3111 196.083 10.6208 196.083 9.64831C196.083 8.77321 195.806 8.15031 195.252 7.78581C194.696 7.42131 193.798 7.23901 192.553 7.23901H190.138ZM203.853 19.082H201.316V4.91211H203.853V10.8629H205.982L210.549 4.91211H213.633L208.214 11.6531L214.507 19.0808H211.26L206.106 12.9489H203.853V19.082ZM225.386 12.9489H218.853V16.7539H226.363V19.082H216.315V4.91211H226.138V7.23901H218.853V10.6208H225.386V12.9489ZM239.731 7.24031H234.941V19.082H232.403V7.23901H227.695V4.91211H239.727V7.23901H239.731V7.24031Z" fill="#632895"/>
<defs>
<linearGradient id="paint0_linear" x1="3.22643" y1="20.1376" x2="0.413919" y2="11.9847" gradientUnits="userSpaceOnUse">
<stop offset="0.144" stop-color="#F2E913"/>
<stop offset="0.304" stop-color="#E7E518"/>
<stop offset="0.582" stop-color="#CADB26"/>
<stop offset="0.891" stop-color="#A3CD39"/>
</linearGradient>
<linearGradient id="paint1_linear" x1="4.31738" y1="3.20544" x2="11.5141" y2="0.456601" gradientUnits="userSpaceOnUse">
<stop offset="0.059" stop-color="#0FA8E0"/>
<stop offset="0.538" stop-color="#0099F9"/>
<stop offset="0.923" stop-color="#0291EB"/>
</linearGradient>
<linearGradient id="paint2_linear" x1="11.2481" y1="21.6533" x2="19.8217" y2="19.7109" gradientUnits="userSpaceOnUse">
<stop offset="0.123" stop-color="#A3CD39"/>
<stop offset="0.285" stop-color="#86C339"/>
<stop offset="0.869" stop-color="#21A038"/>
</linearGradient>
<linearGradient id="paint3_linear" x1="11.4488" y1="1.75866" x2="18.5793" y2="3.96447" gradientUnits="userSpaceOnUse">
<stop offset="0.057" stop-color="#0291EB"/>
<stop offset="0.79" stop-color="#0C8ACB"/>
</linearGradient>
<linearGradient id="paint4_linear" x1="3.80888" y1="20.4969" x2="11.4687" y2="23.3656" gradientUnits="userSpaceOnUse">
<stop offset="0.132" stop-color="#F2E913"/>
<stop offset="0.298" stop-color="#EBE716"/>
<stop offset="0.531" stop-color="#D9E01F"/>
<stop offset="0.802" stop-color="#BBD62D"/>
<stop offset="0.983" stop-color="#A3CD39"/>
</linearGradient>
<linearGradient id="paint5_linear" x1="2.12218" y1="12.3356" x2="5.16439" y2="4.40482" gradientUnits="userSpaceOnUse">
<stop offset="0.07" stop-color="#A3CD39"/>
<stop offset="0.26" stop-color="#81C55F"/>
<stop offset="0.922" stop-color="#0FA8E0"/>
</linearGradient>
</defs>
</svg>
