<svg width="239" height="239" viewBox="0 0 239 239" fill="none" xmlns="http://www.w3.org/2000/svg">
<path d="M128.932 223.252H143.614L142.931 220.72L136.913 212.554H129.174L128.932 223.252Z" fill="#454240"/>
<path d="M108.887 212.554V223.238H89.4399C89.214 221.765 89.545 220.261 90.3684 219.02C91.1917 217.778 92.4483 216.888 93.8927 216.523C96.8689 215.704 99.6769 214.365 102.187 212.568L108.887 212.554Z" fill="#454240"/>
<path d="M83.6644 47.032C84.2761 49.0237 85.5565 52.0965 87.8042 53.2346C89.8757 54.501 91.6982 56.1354 93.1817 58.0573C93.3209 58.0469 93.4556 58.003 93.5742 57.9294C93.6929 57.8558 93.792 57.7547 93.8632 57.6346C93.9344 57.5145 93.9756 57.379 93.9833 57.2396C93.9909 57.1002 93.9649 56.961 93.9073 56.8339L88.2026 44.4002C88.0336 44.035 87.791 43.7087 87.4898 43.4418C87.1887 43.175 86.8356 42.9733 86.4527 42.8495L82.0569 41.4269C81.8993 41.3761 81.7305 41.3722 81.5708 41.4157C81.4111 41.4592 81.2675 41.5481 81.1574 41.6718C81.0474 41.7954 80.9757 41.9483 80.951 42.1119C80.9263 42.2756 80.9497 42.4429 81.0183 42.5935L82.6828 46.2638C82.9081 46.266 83.1264 46.3425 83.3039 46.4814C83.4814 46.6203 83.6081 46.8138 83.6644 47.032Z" fill="#454240"/>
<path d="M93.1961 58.0574C91.7125 56.1355 89.89 54.501 87.8185 53.2347C85.5566 52.0966 84.2904 48.9668 83.6787 47.0321C83.6142 46.807 83.4745 46.6109 83.283 46.4763C83.0915 46.3417 82.8596 46.2767 82.626 46.2923C82.4866 46.288 82.3479 46.3129 82.2188 46.3656C82.0897 46.4182 81.9731 46.4974 81.8766 46.598C81.78 46.6986 81.7057 46.8183 81.6583 46.9495C81.611 47.0806 81.5917 47.2202 81.6017 47.3593C81.9231 49.5427 82.6621 51.6438 83.7783 53.5477L88.3449 62.5102L95.0881 60.5043C95.0881 60.5043 94.3341 59.4231 93.1961 58.0574Z" fill="#FFCFA4"/>
<path d="M130.454 30.8998C132.617 31.5542 133.399 29.8043 134.494 30.4587C135.59 31.1132 131.863 36.0212 132.119 36.263C132.005 42.7217 137.269 34.4279 137.311 34.4848C137.66 34.4753 138.008 34.5333 138.336 34.6555L140.839 25.508C140.839 25.508 138.392 19.2627 124.792 18.8359C111.192 18.4092 115.488 21.0552 111.235 20.3439C106.981 19.6326 108.745 32.0236 112.657 32.6638C112.757 31.6537 112.856 30.6579 112.97 29.6621C118.824 28.9454 124.76 29.3657 130.454 30.8998Z" fill="#D39954"/>
<path d="M138.35 34.6693C138.022 34.547 137.675 34.4891 137.325 34.4985C137.325 34.4985 132.005 42.6786 132.119 36.2768C131.863 36.035 135.505 31.07 134.494 30.4725C133.484 29.875 132.617 31.5679 130.454 30.9135C124.733 29.3684 118.766 28.9481 112.885 29.6759C112.771 30.6717 112.671 31.6818 112.572 32.6776C111.789 40.815 111.718 48.8954 116.441 51.1005C118.158 51.8755 120.076 52.0848 121.918 51.698C126.03 50.9298 129.971 47.8 132.389 44.8837C132.902 44.3034 133.378 43.6904 133.812 43.0485C134.552 43.1052 135.293 42.9303 135.93 42.5481C136.567 42.1658 137.07 41.595 137.368 40.9146C138.151 38.8091 140.27 35.4517 138.35 34.6693Z" fill="#FFCFA4"/>
<path d="M125.731 37.614C126.249 37.614 126.67 37.0153 126.67 36.2767C126.67 35.5382 126.249 34.9395 125.731 34.9395C125.212 34.9395 124.792 35.5382 124.792 36.2767C124.792 37.0153 125.212 37.614 125.731 37.614Z" fill="#454240"/>
<path d="M116.171 38.0984C116.689 38.0984 117.11 37.4996 117.11 36.7611C117.11 36.0225 116.689 35.4238 116.171 35.4238C115.652 35.4238 115.232 36.0225 115.232 36.7611C115.232 37.4996 115.652 38.0984 116.171 38.0984Z" fill="#454240"/>
<path d="M123.284 33.673C123.284 33.673 127.239 32.6772 128.576 33.673C129.914 34.6689 128.036 31.2973 125.93 30.9416C123.825 30.586 123.284 33.673 123.284 33.673Z" fill="#B57B2D"/>
<path d="M118.888 33.1189C118.888 33.1189 115.531 32.9766 114.72 34.2143C113.909 35.452 114.493 31.8101 116.143 31.0134C117.793 30.2168 118.888 33.1189 118.888 33.1189Z" fill="#B57B2D"/>
<path d="M118.077 44.3566L126.613 43.4746L123.028 46.5332C121.975 47.4437 119.315 48.2119 118.433 47.1307L118.077 44.3566Z" fill="white"/>
<path d="M119.827 42.9776C119.729 42.9992 119.627 42.9992 119.528 42.9776C118.476 42.4939 116.683 41.555 116.683 40.3742C116.688 40.1139 116.773 39.8615 116.926 39.6505C117.078 39.4396 117.291 39.2801 117.537 39.1934C118.573 38.4432 119.317 37.3574 119.642 36.1206C119.695 35.9319 119.821 35.772 119.991 35.6759C120.162 35.5799 120.364 35.5556 120.553 35.6084C120.741 35.6612 120.901 35.7868 120.997 35.9576C121.093 36.1283 121.118 36.3302 121.065 36.5189C120.606 38.1205 119.599 39.5101 118.22 40.4453C118.786 40.9523 119.429 41.3654 120.126 41.6688C120.315 41.7084 120.48 41.8213 120.585 41.9827C120.69 42.1441 120.727 42.3408 120.688 42.5294C120.648 42.7181 120.535 42.8833 120.374 42.9887C120.212 43.0941 120.016 43.131 119.827 43.0914V42.9776Z" fill="#EDA983"/>
<path d="M135.59 40.9859C135.435 40.9936 135.283 40.9508 135.155 40.864C135.027 40.7772 134.931 40.6511 134.881 40.5049C134.831 40.3586 134.831 40.2001 134.879 40.0534C134.927 39.9066 135.022 39.7795 135.149 39.6914C136.429 38.7809 136.216 37.8135 136.216 37.785C136.176 37.6043 136.207 37.4152 136.302 37.2566C136.397 37.0979 136.55 36.9816 136.728 36.9315C136.905 36.8871 137.092 36.9126 137.251 37.0026C137.41 37.0927 137.528 37.2404 137.581 37.4152C137.705 38.0849 137.617 38.7766 137.329 39.3938C137.04 40.0109 136.567 40.5228 135.974 40.8579C135.861 40.9369 135.727 40.9814 135.59 40.9859Z" fill="#EDA983"/>
<path d="M145.349 57.3879C144.211 56.3068 140.967 54.7846 132.119 53.5469V53.9594C125.19 59.1093 122.345 56.0649 122.345 56.0649L121.933 53.6038L119.841 53.6891C119.841 53.6891 108.574 57.3737 96.8377 73.2644L95.0878 60.4608L88.3446 62.5094C88.3446 62.5094 81.0181 97.2497 96.1406 89.781C107.891 83.934 109.755 81.0888 110.011 80.1783L113.013 102.542H128.662L128.278 101.774L136.415 98.8431C136.651 98.756 136.905 98.7299 137.154 98.7672C137.402 98.8046 137.638 98.904 137.838 99.0565L139.26 100.138C141.71 92.9199 143.664 85.543 145.107 78.0586C147.952 80.7047 150.214 83.1231 150.883 85.001C154.112 93.8924 140.839 101.29 140.839 101.29L142.504 108.403C142.504 108.403 160.884 106.511 167.286 90.8195C173.688 75.128 145.349 57.3879 145.349 57.3879Z" fill="#EFC44F"/>
<path d="M132.104 53.9745V53.5619L132.417 44.8555C129.984 47.7718 126.058 50.9016 121.947 51.6698L121.648 51.869L121.947 53.5903L122.345 56.0657C122.345 56.0657 125.19 59.1101 132.104 53.9745Z" fill="#EDA983"/>
<path d="M136.273 106.369L112.643 106.796C111.803 116.655 109.712 140.939 108.773 149.731C107.593 160.87 102.172 212.568 102.172 212.568H108.773C108.773 212.568 118.433 176.76 117.75 160.173L123.924 119.158H126.769C126.769 119.158 127.467 152.121 129.131 163.502C130.795 174.882 129.131 212.582 129.131 212.582H136.87C136.87 212.582 141.223 176.775 139.801 164.455C138.677 154.767 138.378 122.061 138.378 108.532C137.888 108.351 137.445 108.063 137.08 107.689C136.716 107.315 136.44 106.864 136.273 106.369Z" fill="#6B767C"/>
<path d="M140.839 101.291L139.26 100.124L137.837 99.0431C137.637 98.8906 137.402 98.7911 137.153 98.7538C136.905 98.7165 136.651 98.7426 136.415 98.8297L128.277 101.76L128.661 102.528L129.458 104.164C129.636 104.547 129.908 104.879 130.249 105.128C130.59 105.377 130.988 105.535 131.407 105.587L136.201 106.142C136.225 106.234 136.253 106.324 136.287 106.412C136.464 106.903 136.749 107.349 137.121 107.716C137.492 108.082 137.941 108.361 138.435 108.532C139.767 108.929 141.189 108.899 142.504 108.447L140.839 101.291Z" fill="#FFCFA4"/>
<path d="M112.999 102.542L112.643 106.81L112.999 102.542Z" fill="#B57B2D"/>
<path d="M136.202 106.099L131.407 105.544C130.989 105.492 130.59 105.334 130.249 105.085C129.908 104.836 129.636 104.505 129.458 104.122L128.662 102.5H126.613L126.243 106.512L121.449 106.697L121.876 102.6H113.013L112.657 106.867L136.287 106.441C136.251 106.329 136.222 106.215 136.202 106.099Z" fill="#B57B2D"/>
<path d="M126.3 106.554L126.656 102.542H121.876L121.449 106.639L126.3 106.554Z" fill="#FFF4E6"/>
</svg>
