<svg width="35" height="32" viewBox="0 0 35 32" fill="none" xmlns="http://www.w3.org/2000/svg">
<path d="M6.81852 15.1942L6.53796 14.8266C5.35941 13.2965 4.29615 11.6847 3.3566 10.0038C2.75278 8.93659 2.2497 7.81775 1.85359 6.66116C1.62227 5.97981 1.45458 5.27933 1.35259 4.56835C1.23833 3.83148 1.25019 3.08116 1.38766 2.3481C1.46552 1.93905 1.61465 1.54614 1.82854 1.18651C2.00142 0.884082 2.24237 0.624099 2.53315 0.426246C2.82393 0.228394 3.15692 0.0978604 3.5069 0.044529C3.93507 -0.024265 4.37305 -0.0075931 4.79447 0.093541C5.43015 0.248511 6.03589 0.503423 6.58806 0.848327C7.35224 1.31786 8.0598 1.87029 8.69728 2.49513C9.61545 3.39231 10.4535 4.36465 11.2023 5.40155C11.8335 6.25926 12.4047 7.15128 12.9758 8.0482L13.3115 8.56773C13.4117 8.56773 13.4468 8.50892 13.4969 8.46971C14.4087 7.69042 15.3456 6.93563 16.3075 6.22005C18.1483 4.82836 20.1077 3.59364 22.1642 2.52944C23.5391 1.81919 24.976 1.23035 26.4578 0.769908C27.3924 0.481837 28.349 0.267137 29.3185 0.12785C30.2122 -0.00135298 31.1167 -0.0440366 32.0189 0.000418063C32.3728 0.021105 32.7237 0.0769391 33.066 0.167059C33.213 0.200017 33.3547 0.252801 33.4869 0.323898C33.546 0.345437 33.5984 0.381579 33.6391 0.428811C33.6797 0.476043 33.7072 0.532757 33.7188 0.59344C33.7304 0.654123 33.7257 0.71671 33.7053 0.775115C33.6848 0.833521 33.6493 0.885757 33.6021 0.926747C33.4954 1.05462 33.3706 1.16685 33.2313 1.26003C32.9157 1.47479 32.5803 1.66021 32.2293 1.81387C31.185 2.30415 30.1802 2.87104 29.2233 3.50968C28.0245 4.3099 26.8829 5.18926 25.8065 6.14163C24.1424 7.6182 22.5824 9.20328 21.1372 10.886C20.04 12.1848 18.9528 13.5278 17.9207 14.9001L17.8706 14.9638C17.7203 15.1599 17.7504 15.1354 17.8706 15.2971C18.4384 16.0911 19.0196 16.8753 19.6141 17.6497C20.8666 19.2818 22.1742 20.8747 23.572 22.3891C25.1616 24.1448 26.8995 25.7663 28.7674 27.2364C30.1114 28.2941 31.5617 29.2153 33.0961 29.986C33.3716 30.1233 33.6522 30.2507 33.9227 30.3928C34.1828 30.5221 34.428 30.6782 34.6542 30.8584C34.7445 30.9281 34.8253 31.0088 34.8947 31.0986C34.9368 31.141 34.9676 31.1929 34.9842 31.2498C35.0008 31.3067 35.0028 31.3667 34.9899 31.4245C34.977 31.4823 34.9496 31.536 34.9103 31.5809C34.8709 31.6258 34.8208 31.6605 34.7644 31.6818C34.5696 31.7848 34.3575 31.8528 34.1382 31.8828C33.7726 31.9485 33.4025 31.9862 33.0309 31.9955C32.3622 32.0196 31.6926 31.9983 31.0269 31.9318C30.1055 31.8267 29.1941 31.6497 28.3015 31.4025C26.553 30.9062 24.8634 30.2293 23.2614 29.3832C21.1789 28.2918 19.196 27.0276 17.3346 25.6043C15.8917 24.513 14.5089 23.3547 13.1863 22.1294C13.1333 22.0646 13.0643 22.014 12.9859 21.9823C12.9408 22.051 12.8857 22.1147 12.8406 22.1882C12.2895 23.0361 11.7384 23.8791 11.1973 24.7319C10.487 25.8486 9.70382 26.9193 8.85259 27.9373C8.12736 28.8323 7.3116 29.6533 6.41772 30.3879C5.78023 30.9061 5.06989 31.332 4.3085 31.6524C3.74256 31.9019 3.12514 32.0193 2.50489 31.9955C2.16769 31.9826 1.83744 31.8978 1.53718 31.7471C1.23692 31.5964 0.973879 31.3835 0.766415 31.1231C0.447203 30.7171 0.229325 30.2439 0.130142 29.741C-0.00728561 29.0865 -0.0377239 28.4149 0.0399617 27.7511C0.196828 26.3948 0.572217 25.0715 1.15219 23.8301C1.75792 22.4938 2.46637 21.2043 3.27142 19.9728C4.30798 18.3733 5.44231 16.8364 6.66822 15.3706L6.81852 15.1942Z" fill="#FF0066"/>
</svg>
