<svg width="194" height="24" viewBox="0 0 194 24" fill="none" xmlns="http://www.w3.org/2000/svg">
<path fill-rule="evenodd" clip-rule="evenodd" d="M39.1288 16.7733C40.0615 16.7714 40.979 16.5377 41.7987 16.0933L42.4929 15.7733L44.5087 17.2533C43.0483 18.7333 41.0346 19.5358 38.9552 19.4666C36.9088 19.5033 34.9294 18.7374 33.4418 17.3333C32.0277 15.9202 31.2433 13.9977 31.2658 12C31.2166 9.99724 32.0051 8.06463 33.4418 6.66662C34.9549 5.29227 36.9371 4.54808 38.9819 4.58662C40.8322 4.52931 42.6386 5.15601 44.0548 6.34662L44.175 6.46662L41.9456 8.11995C41.1165 7.5287 40.1208 7.21587 39.1021 7.22662C37.811 7.17068 36.5546 7.65287 35.6332 8.55795C34.7118 9.46302 34.2082 10.7097 34.2428 12C34.2077 13.2951 34.7149 14.5462 35.6423 15.4521C36.5696 16.3581 37.8331 16.8369 39.1288 16.7733ZM82.1157 4.77349H76.1617V19.2268H79.2722V15.1335H82.1157C85.9071 15.1335 88.27 13.1335 88.27 9.94683C88.27 6.76016 85.9071 4.77349 82.1157 4.77349ZM82.1154 12.7736H79.2719V7.18693H82.0486C84.0378 7.18693 85.1458 8.17359 85.1458 9.96026C85.1458 11.7469 84.1045 12.7203 82.0486 12.7203L82.1154 12.7736ZM50.2762 10.4135H54.0675H54.0809C57.5117 10.4135 59.4208 11.7868 59.4208 14.6802C59.4208 17.5735 57.3248 19.2268 53.667 19.2268H47.1523V4.77349H59.5943L56.337 7.18683H50.2762V10.4135ZM50.2761 16.8136H53.5201C55.4558 16.8136 56.4304 16.147 56.4304 14.8136C56.4304 13.4803 55.5092 12.8136 53.5201 12.8136H50.2761V16.8136ZM73.2512 4.77349L69.9805 7.18683H65.4416V10.7202H72.1031V13.1202H65.4416V16.8135H73.2512V19.2268H62.3178V4.77349H73.2512Z" fill="#219F38"/>
<path fill-rule="evenodd" clip-rule="evenodd" d="M172.358 1.06641C172.131 3.09308 170.583 4.07974 168.22 4.07974C165.857 4.07974 164.201 3.50641 163.881 1.06641H166.324C166.444 1.81308 167.005 2.26641 168.18 2.26641C169.354 2.26641 169.862 1.78641 169.955 1.06641H172.358ZM164.201 15.5731L172.091 4.77307H174.881V19.2264H172.304V8.2664L164.375 19.2264H161.531V4.77307H164.201V15.5731ZM182.744 7.14646H188.231V19.2265H190.874V4.70646H180.421L180.274 7.70646C179.86 16.0132 178.685 16.6398 177.684 16.6398C177.475 16.6422 177.267 16.606 177.07 16.5332V19.1998C177.438 19.3495 177.835 19.4178 178.232 19.3998C180.327 19.3998 182.17 18.3332 182.744 7.82646V7.14646ZM159.475 19.2264L153.521 4.77305H150.584L144.71 19.2264H147.38L148.715 15.7998H155.39L156.725 19.2264H159.475ZM154.389 13.4265H149.65L152.013 7.50646L154.389 13.4265ZM132.282 4.77307H142.548V7.1464H134.832V9.73307H137.662C141.667 9.73307 143.643 11.2131 143.643 14.3864C143.643 17.5598 141.293 19.2264 137.595 19.2264H132.255L132.282 4.77307ZM134.832 12.1066V16.8533H137.502C139.571 16.8533 140.893 16.2533 140.893 14.3333C140.893 12.4133 139.732 12.1066 137.502 12.1066H134.832ZM129.585 12.0264C129.585 7.3597 126.475 4.54636 121.829 4.54636V4.57303C117.117 4.57303 114.086 7.65303 114.086 11.9997C114.086 16.6664 117.117 19.4531 121.829 19.4531C126.541 19.4531 129.585 16.3731 129.585 12.0264ZM125.488 15.6876C124.531 16.6666 123.197 17.184 121.829 17.1063L121.855 17.0797C120.486 17.1636 119.147 16.6539 118.18 15.6811C117.214 14.7083 116.714 13.3667 116.809 11.9997C116.672 10.1262 117.595 8.33332 119.201 7.3548C120.806 6.37628 122.825 6.37628 124.43 7.3548C126.035 8.33332 126.959 10.1262 126.821 11.9997C126.932 13.3636 126.446 14.7085 125.488 15.6876ZM104.128 16.0398L108.773 8.37307V19.2264H111.363V4.77307H108.306L103.553 12.6398L98.7609 4.77307H95.4902V19.2264H98.0801V8.4664L102.833 16.0398H104.128Z" fill="#FF8000"/>
<path d="M21.5199 4.66699C22.0938 5.40243 22.5778 6.20365 22.9616 7.05365L12.0148 15.0536L7.44922 12.2403V8.80032L12.0148 11.6669L21.5199 4.66699Z" fill="#21A038"/>
<path d="M2.77675 11.9994C2.77675 11.8394 2.77675 11.6927 2.77675 11.5327L0 11.3994C0 11.5994 0 11.7994 0 11.9994C0.00280429 15.1809 1.27048 18.2311 3.52434 20.4794L5.48675 18.5194C3.74877 16.7941 2.7731 14.4468 2.77675 11.9994Z" fill="url(#paint0_linear)"/>
<path d="M12.0139 2.77333H12.4811L12.6146 0H12.0139C8.82845 0.00280083 5.77449 1.26892 3.52344 3.52L5.48586 5.48C7.21659 3.74915 9.56468 2.77558 12.0139 2.77333Z" fill="url(#paint1_linear)"/>
<path d="M12.0148 21.2262H11.5476L11.4141 23.9995H12.0148C15.2002 23.9967 18.2542 22.7306 20.5053 20.4795L18.5428 18.5195C16.8121 20.2504 14.464 21.2239 12.0148 21.2262Z" fill="url(#paint2_linear)"/>
<path d="M17.2202 4.38667L19.5564 2.66667C17.421 0.943192 14.7592 0.00208927 12.0137 0V2.77333C13.8726 2.77332 15.6878 3.33581 17.2202 4.38667Z" fill="url(#paint3_linear)"/>
<path d="M24.0295 12.0001C24.0275 11.2806 23.965 10.5625 23.8426 9.85352L21.2527 11.7468V12.0001C21.2529 14.6076 20.1469 17.093 18.209 18.8401L20.0246 20.8935C22.5597 18.6288 24.015 15.3971 24.0295 12.0001Z" fill="#21A038"/>
<path d="M12.0156 21.2265C9.40496 21.2267 6.91645 20.1221 5.16719 18.1865L3.11133 19.9999C5.37877 22.5319 8.61445 23.9854 12.0156 23.9999V21.2265Z" fill="url(#paint4_linear)"/>
<path d="M5.8205 5.15978L4.00493 3.10645C1.4698 5.3711 0.0144652 8.6028 0 11.9998H2.77675C2.77654 9.39233 3.88254 6.90689 5.8205 5.15978Z" fill="url(#paint5_linear)"/>
<defs>
<linearGradient id="paint0_linear" x1="6.7277" y1="17.6252" x2="0.924667" y2="11.5094" gradientUnits="userSpaceOnUse">
<stop offset="0.14" stop-color="#F2E913"/>
<stop offset="0.3" stop-color="#E7E518"/>
<stop offset="0.58" stop-color="#CADB26"/>
<stop offset="0.89" stop-color="#A3CD39"/>
</linearGradient>
<linearGradient id="paint1_linear" x1="6.77743" y1="6.36708" x2="11.9849" y2="0.910443" gradientUnits="userSpaceOnUse">
<stop offset="0.06" stop-color="#0FA8E0"/>
<stop offset="0.54" stop-color="#0099F9"/>
<stop offset="0.92" stop-color="#0291EB"/>
</linearGradient>
<linearGradient id="paint2_linear" x1="12.8861" y1="24.9964" x2="20.1511" y2="20.4715" gradientUnits="userSpaceOnUse">
<stop offset="0.12" stop-color="#A3CD39"/>
<stop offset="0.28" stop-color="#86C339"/>
<stop offset="0.87" stop-color="#21A038"/>
</linearGradient>
<linearGradient id="paint3_linear" x1="9.43178" y1="3.13055" x2="14.7288" y2="7.93901" gradientUnits="userSpaceOnUse">
<stop offset="0.06" stop-color="#0291EB"/>
<stop offset="0.79" stop-color="#0C8ACB"/>
</linearGradient>
<linearGradient id="paint4_linear" x1="1.45691" y1="22.3999" x2="7.62083" y2="27.8015" gradientUnits="userSpaceOnUse">
<stop offset="0.13" stop-color="#F2E913"/>
<stop offset="0.3" stop-color="#EBE716"/>
<stop offset="0.53" stop-color="#D9E01F"/>
<stop offset="0.8" stop-color="#BBD62D"/>
<stop offset="0.98" stop-color="#A3CD39"/>
</linearGradient>
<linearGradient id="paint5_linear" x1="3.83346" y1="14.8625" x2="9.58161" y2="8.48649" gradientUnits="userSpaceOnUse">
<stop offset="0.07" stop-color="#A3CD39"/>
<stop offset="0.26" stop-color="#81C55F"/>
<stop offset="0.92" stop-color="#0FA8E0"/>
</linearGradient>
</defs>
</svg>
