<svg width="20" height="20" viewBox="0 0 20 20" fill="none" xmlns="http://www.w3.org/2000/svg">
<path d="M15.691 0H4.30901C1.92921 0 0 1.92921 0 4.30901V15.691C0 18.0708 1.92921 20 4.30901 20H15.691C18.0708 20 20 18.0708 20 15.691V4.30901C20 1.92921 18.0708 0 15.691 0Z" fill="url(#paint0_linear)"/>
<path d="M9.99752 5.85361C13.1269 5.83536 15.736 8.42292 15.7758 11.5345C15.8156 14.7075 13.2748 17.3895 10.0134 17.4031C6.85175 17.4162 4.24173 14.8394 4.22488 11.6857C4.21747 10.9227 4.36128 10.1659 4.64802 9.45884C4.93476 8.7518 5.35874 8.10857 5.89548 7.56631C6.43221 7.02404 7.07107 6.5935 7.77514 6.29953C8.47921 6.00557 9.23455 5.85401 9.99752 5.85361ZM9.99752 8.47392C9.16276 8.47417 8.36213 8.80531 7.77107 9.39479C7.18002 9.98427 6.84674 10.784 6.84426 11.6188C6.84426 13.3538 8.248 14.7758 9.96898 14.7805C11.7166 14.7856 13.1508 13.3828 13.155 11.666C13.1592 9.89404 11.7602 8.48001 9.99846 8.47626L9.99752 8.47392Z" fill="white"/>
<path d="M10.0097 2.12796C10.2694 2.12957 10.5228 2.20835 10.7377 2.35428C10.9525 2.50021 11.1192 2.70672 11.2164 2.94756C11.3137 3.1884 11.3371 3.45271 11.2838 3.70692C11.2306 3.96113 11.1029 4.19375 10.9171 4.37526C10.7313 4.55676 10.4958 4.67895 10.2404 4.72629C9.98501 4.77364 9.72132 4.74401 9.48281 4.64117C9.24431 4.53833 9.04175 4.36692 8.90087 4.14871C8.75999 3.93051 8.68715 3.67535 8.6916 3.41565C8.69751 3.0707 8.83924 2.74201 9.08602 2.50092C9.3328 2.25983 9.66472 2.12581 10.0097 2.12796Z" fill="white"/>
<path d="M6.70603 2.12891C6.96527 2.12956 7.2185 2.20711 7.43365 2.35173C7.6488 2.49636 7.81621 2.70156 7.91469 2.94137C8.01317 3.18118 8.03829 3.44482 7.98687 3.69891C7.93546 3.95301 7.80981 4.18614 7.62585 4.36879C7.44188 4.55145 7.20786 4.67542 6.9534 4.72502C6.69895 4.77462 6.4355 4.74761 6.1964 4.64742C5.95729 4.54723 5.75329 4.37836 5.61021 4.16218C5.46712 3.946 5.39139 3.69223 5.39259 3.43299C5.3942 3.086 5.5334 2.75382 5.77963 2.50934C6.02587 2.26485 6.35904 2.12804 6.70603 2.12891Z" fill="white"/>
<path d="M13.3004 2.12793C13.5597 2.12793 13.8132 2.20488 14.0287 2.34903C14.2443 2.49317 14.4122 2.69804 14.5112 2.93769C14.6103 3.17733 14.6359 3.44098 14.5851 3.69524C14.5342 3.94949 14.409 4.18293 14.2253 4.36599C14.0417 4.54905 13.8078 4.6735 13.5534 4.72358C13.299 4.77365 13.0354 4.7471 12.7961 4.6473C12.5568 4.54749 12.3524 4.37891 12.209 4.1629C12.0655 3.94689 11.9894 3.69317 11.9902 3.43387C11.9914 3.08713 12.1299 2.75497 12.3755 2.51017C12.621 2.26538 12.9536 2.12793 13.3004 2.12793Z" fill="white"/>
<defs>
<linearGradient id="paint0_linear" x1="1.3504" y1="18.1616" x2="18.7582" y2="1.73596" gradientUnits="userSpaceOnUse">
<stop stop-color="#3C082F"/>
<stop offset="0.09" stop-color="#420A38"/>
<stop offset="0.25" stop-color="#521052"/>
<stop offset="0.28" stop-color="#551157"/>
<stop offset="0.43" stop-color="#62166D"/>
<stop offset="0.75" stop-color="#8522A6"/>
<stop offset="0.99" stop-color="#A22CD6"/>
</linearGradient>
</defs>
</svg>
