<svg width="69" height="24" viewBox="0 0 69 24" fill="none" xmlns="http://www.w3.org/2000/svg">
<path fill-rule="evenodd" clip-rule="evenodd" d="M35.8947 23.8261L28.6015 15.5707L35.3348 5.55023H30.4736L25.6685 12.3198L25.026 13.2641V11.6075V0H20.7774V6.89775V13.2517V19.5098V23.8261H25.026V20.8271L26.1371 19.1932L30.4736 23.8261H35.8947ZM52.4903 24L44.8865 15.5707L52.1318 5.55023H46.7586L41.9534 12.3198L41.3107 13.2641V11.6075V0H37.0624V6.89775V13.2517V19.5098V24H39.1525H39.5108H41.3107V20.8271L42.4222 19.1932L46.7586 24H52.4903ZM59.5982 24C64.7319 24 68.8935 19.8487 68.8935 14.7273C68.8935 9.60585 64.7319 5.45452 59.5982 5.45452C54.4647 5.45452 50.3032 9.60585 50.3032 14.7273C50.3032 19.8487 54.4647 24 59.5982 24ZM64.7623 14.5637C64.7623 17.4086 62.4506 19.7151 59.5983 19.7151C56.7464 19.7151 54.4343 17.4086 54.4343 14.5637C54.4343 11.7185 56.7464 9.41205 59.5983 9.41205C62.4506 9.41205 64.7623 11.7185 64.7623 14.5637ZM18.5903 14.7273C18.5903 9.60585 14.4287 5.45452 9.29513 5.45452C4.16165 5.45452 0 9.60585 0 14.7273C0 19.8487 4.16165 24 9.29513 24C14.4287 24 18.5903 19.8487 18.5903 14.7273ZM4.13118 14.7275C4.13118 17.5723 6.44319 19.8787 9.29513 19.8787C12.1471 19.8787 14.4591 17.5723 14.4591 14.7275C14.4591 11.8822 12.1471 9.57578 9.29513 9.57578C6.44319 9.57578 4.13118 11.8822 4.13118 14.7275ZM3.75789 4.36365C2.58851 4.36365 1.64032 3.387 1.64032 2.18182C1.64032 0.97695 2.58851 0 3.75789 0C4.92727 0 5.87546 0.97695 5.87546 2.18182C5.87546 3.387 4.92727 4.36365 3.75789 4.36365ZM9.29513 4.36365C10.4652 4.36365 11.4139 3.387 11.4139 2.18182C11.4139 0.97695 10.4652 0 9.29513 0C8.12486 0 7.17645 0.97695 7.17645 2.18182C7.17645 3.387 8.12486 4.36365 9.29513 4.36365ZM14.8314 4.36365C16.0014 4.36365 16.95 3.387 16.95 2.18182C16.95 0.97695 16.0014 0 14.8314 0C13.6612 0 12.7126 0.97695 12.7126 2.18182C12.7126 3.387 13.6612 4.36365 14.8314 4.36365Z" fill="#200C23"/>
</svg>
