<svg width="168" height="168" viewBox="0 0 168 168" fill="none" xmlns="http://www.w3.org/2000/svg">
<path d="M144.56 25.3701H23.7998C21.8889 25.3701 20.3398 26.9192 20.3398 28.8301V102.48C20.3398 104.391 21.8889 105.94 23.7998 105.94H144.56C146.471 105.94 148.02 104.391 148.02 102.48V28.8301C148.02 26.9192 146.471 25.3701 144.56 25.3701Z" fill="#454240"/>
<path d="M56.0903 114.56H112.27C113.734 114.56 115.138 115.141 116.174 116.176C117.209 117.212 117.79 118.616 117.79 120.08V121.81H50.5703V120.08C50.5703 118.616 51.1519 117.212 52.1871 116.176C53.2223 115.141 54.6263 114.56 56.0903 114.56Z" fill="#454240"/>
<path d="M123.74 48.4003C128.793 48.3988 133.828 48.9963 138.74 50.1803V29.7803H61.5099C53.4686 40.544 42.2404 48.5007 29.4199 52.5203V100.52H60.9999C63.7309 85.8761 71.4986 72.6486 82.9572 63.1296C94.4158 53.6106 108.843 48.3999 123.74 48.4003Z" fill="#565189"/>
<path d="M138.71 50.1905C130.293 48.1533 121.55 47.8513 113.012 49.3028C104.475 50.7543 96.3223 53.929 89.0516 58.6333C81.7808 63.3376 75.5441 69.4731 70.7214 76.6658C65.8987 83.8586 62.5911 91.958 61 100.47H138.69L138.71 50.1905Z" fill="#DE5673"/>
<path d="M61.5099 29.7803H29.4199V52.5203C42.2404 48.5007 53.4686 40.544 61.5099 29.7803Z" fill="#DE5673"/>
<path d="M87.7801 102.91H80.5801V114.56H87.7801V102.91Z" fill="#454240"/>
<path d="M73.5101 82.3902C73.1289 81.9156 72.9309 81.3199 72.952 80.7116C72.973 80.1033 73.2119 79.5228 73.625 79.0757C74.0381 78.6287 74.598 78.3449 75.2028 78.276C75.8076 78.207 76.417 78.3576 76.9201 78.7002C77.053 77.9032 77.4345 77.1687 78.0101 76.6016C78.5856 76.0346 79.3258 75.6641 80.1247 75.5432C80.9235 75.4222 81.7402 75.557 82.4578 75.9283C83.1754 76.2995 83.7573 76.8882 84.1201 77.6102C84.1444 76.9203 84.3552 76.2498 84.7301 75.6702C84.311 75.3673 83.9575 74.9827 83.691 74.5395C83.4245 74.0964 83.2505 73.6038 83.1795 73.0916C83.1085 72.5794 83.142 72.0581 83.2779 71.5591C83.4138 71.0602 83.6494 70.594 83.9704 70.1885C84.2913 69.7831 84.6911 69.4468 85.1455 69.2C85.6 68.9533 86.0997 68.8011 86.6145 68.7526C87.1294 68.7042 87.6487 68.7605 88.1412 68.9182C88.6337 69.0759 89.0891 69.3317 89.4801 69.6702L89.6501 69.6202C89.413 69.2434 89.2786 68.8112 89.2604 68.3664C89.2422 67.9216 89.3407 67.4798 89.5461 67.0849C89.7516 66.69 90.0569 66.3558 90.4316 66.1154C90.8063 65.8751 91.2374 65.7371 91.682 65.715C92.1267 65.693 92.5693 65.7877 92.9659 65.9899C93.3626 66.192 93.6994 66.4944 93.9429 66.867C94.1864 67.2397 94.3281 67.6696 94.3539 68.114C94.3798 68.5584 94.2888 69.0018 94.0901 69.4002H94.3601C95.2697 69.3997 96.1499 69.7221 96.8439 70.3099C97.538 70.8978 98.0009 71.7129 98.1501 72.6102C98.6552 71.823 99.431 71.2479 100.331 70.9933C101.231 70.7387 102.193 70.8222 103.036 71.2282C103.878 71.6341 104.543 72.3344 104.905 73.1969C105.267 74.0594 105.301 75.0245 105 75.9102C105.617 76.1632 106.11 76.6498 106.37 77.2641C106.631 77.8784 106.638 78.5706 106.39 79.1902C106.975 78.8447 107.641 78.6617 108.32 78.6602C109.341 78.6602 110.32 79.0658 111.042 79.7878C111.764 80.5098 112.17 81.4891 112.17 82.5102C112.17 83.5313 111.764 84.5105 111.042 85.2325C110.32 85.9546 109.341 86.3602 108.32 86.3602C108.21 86.3602 108.11 86.3602 108 86.3602L106.57 88.5802L84.1001 93.3102L75.2901 87.1502C74.9739 87.2886 74.6329 87.3611 74.2878 87.3633C73.9426 87.3656 73.6007 87.2974 73.2828 87.1631C72.9649 87.0287 72.6777 86.831 72.4387 86.582C72.1998 86.333 72.0141 86.0379 71.893 85.7147C71.7719 85.3915 71.7179 85.047 71.7343 84.7023C71.7508 84.3576 71.8373 84.0198 71.9887 83.7096C72.14 83.3995 72.3529 83.1234 72.6145 82.8982C72.8761 82.6731 73.1808 82.5036 73.5101 82.4002V82.3902Z" fill="#F5F4BB"/>
<path d="M98.2904 83.0495C100.025 83.0495 101.43 81.6437 101.43 79.9095C101.43 78.1754 100.025 76.7695 98.2904 76.7695C96.5562 76.7695 95.1504 78.1754 95.1504 79.9095C95.1504 81.6437 96.5562 83.0495 98.2904 83.0495Z" fill="#EFC44F"/>
<path d="M95.8802 84.4997C97.6144 84.4997 99.0202 83.0939 99.0202 81.3597C99.0202 79.6256 97.6144 78.2197 95.8802 78.2197C94.1461 78.2197 92.7402 79.6256 92.7402 81.3597C92.7402 83.0939 94.1461 84.4997 95.8802 84.4997Z" fill="#EFC44F"/>
<path d="M98.5804 81.4997C100.315 81.4997 101.72 80.0939 101.72 78.3597C101.72 76.6256 100.315 75.2197 98.5804 75.2197C96.8463 75.2197 95.4404 76.6256 95.4404 78.3597C95.4404 80.0939 96.8463 81.4997 98.5804 81.4997Z" fill="#F5F4BB"/>
<path d="M91.1205 84.3396C92.8546 84.3396 94.2605 82.9337 94.2605 81.1996C94.2605 79.4654 92.8546 78.0596 91.1205 78.0596C89.3863 78.0596 87.9805 79.4654 87.9805 81.1996C87.9805 82.9337 89.3863 84.3396 91.1205 84.3396Z" fill="#EFC44F"/>
<path d="M91.4095 82.78C93.1437 82.78 94.5495 81.3742 94.5495 79.64C94.5495 77.9058 93.1437 76.5 91.4095 76.5C89.6754 76.5 88.2695 77.9058 88.2695 79.64C88.2695 81.3742 89.6754 82.78 91.4095 82.78Z" fill="#F5F4BB"/>
<path d="M96.1595 82.9499C97.8937 82.9499 99.2995 81.5441 99.2995 79.8099C99.2995 78.0757 97.8937 76.6699 96.1595 76.6699C94.4254 76.6699 93.0195 78.0757 93.0195 79.8099C93.0195 81.5441 94.4254 82.9499 96.1595 82.9499Z" fill="#F5F4BB"/>
<path d="M77.3401 83.5914C78.9447 82.9337 79.7122 81.0997 79.0545 79.4951C78.3967 77.8905 76.5627 77.1229 74.9581 77.7807C73.3535 78.4385 72.586 80.2725 73.2437 81.877C73.9015 83.4816 75.7355 84.2492 77.3401 83.5914Z" fill="#EFC44F"/>
<path d="M75.6535 85.8541C77.2581 85.1964 78.0257 83.3624 77.3679 81.7578C76.7102 80.1532 74.8762 79.3856 73.2716 80.0434C71.667 80.7012 70.8994 82.5352 71.5572 84.1397C72.215 85.7443 74.049 86.5119 75.6535 85.8541Z" fill="#EFC44F"/>
<path d="M77.0168 82.0524C78.6214 81.3946 79.389 79.5606 78.7312 77.956C78.0734 76.3514 76.2394 75.5839 74.6349 76.2416C73.0303 76.8994 72.2627 78.7334 72.9205 80.338C73.5782 81.9426 75.4122 82.7101 77.0168 82.0524Z" fill="#F5F4BB"/>
<path d="M71.1926 87.5123C72.7972 86.8546 73.5648 85.0206 72.907 83.416C72.2492 81.8114 70.4152 81.0438 68.8106 81.7016C67.206 82.3594 66.4385 84.1934 67.0963 85.7979C67.754 87.4025 69.588 88.1701 71.1926 87.5123Z" fill="#EFC44F"/>
<path d="M70.8782 85.9596C72.4827 85.3018 73.2503 83.4678 72.5925 81.8632C71.9348 80.2586 70.1008 79.4911 68.4962 80.1489C66.8916 80.8066 66.124 82.6406 66.7818 84.2452C67.4396 85.8498 69.2736 86.6174 70.8782 85.9596Z" fill="#F5F4BB"/>
<path d="M75.3391 84.3112C76.9437 83.6534 77.7112 81.8194 77.0535 80.2148C76.3957 78.6102 74.5617 77.8427 72.9571 78.5004C71.3525 79.1582 70.585 80.9922 71.2427 82.5968C71.9005 84.2014 73.7345 84.9689 75.3391 84.3112Z" fill="#F5F4BB"/>
<path d="M90.7504 74.4196C92.4845 74.4196 93.8904 73.0138 93.8904 71.2796C93.8904 69.5455 92.4845 68.1396 90.7504 68.1396C89.0162 68.1396 87.6104 69.5455 87.6104 71.2796C87.6104 73.0138 89.0162 74.4196 90.7504 74.4196Z" fill="#EFC44F"/>
<path d="M86.8099 77.3298C88.5441 77.3298 89.9499 75.924 89.9499 74.1898C89.9499 72.4556 88.5441 71.0498 86.8099 71.0498C85.0757 71.0498 83.6699 72.4556 83.6699 74.1898C83.6699 75.924 85.0757 77.3298 86.8099 77.3298Z" fill="#EFC44F"/>
<path d="M91.0404 72.8601C92.7746 72.8601 94.1804 71.4543 94.1804 69.7201C94.1804 67.9859 92.7746 66.5801 91.0404 66.5801C89.3062 66.5801 87.9004 67.9859 87.9004 69.7201C87.9004 71.4543 89.3062 72.8601 91.0404 72.8601Z" fill="#F5F4BB"/>
<path d="M87.1 75.7702C88.8341 75.7702 90.24 74.3644 90.24 72.6302C90.24 70.8961 88.8341 69.4902 87.1 69.4902C85.3658 69.4902 83.96 70.8961 83.96 72.6302C83.96 74.3644 85.3658 75.7702 87.1 75.7702Z" fill="#F5F4BB"/>
<path d="M80.3196 87.0104C82.214 87.0104 83.7496 85.4747 83.7496 83.5804C83.7496 81.6861 82.214 80.1504 80.3196 80.1504C78.4253 80.1504 76.8896 81.6861 76.8896 83.5804C76.8896 85.4747 78.4253 87.0104 80.3196 87.0104Z" fill="#EFC44F"/>
<path d="M82.9495 88.5905C84.8439 88.5905 86.3795 87.0548 86.3795 85.1605C86.3795 83.2661 84.8439 81.7305 82.9495 81.7305C81.0552 81.7305 79.5195 83.2661 79.5195 85.1605C79.5195 87.0548 81.0552 88.5905 82.9495 88.5905Z" fill="#EFC44F"/>
<path d="M80.0101 85.3102C81.9044 85.3102 83.4401 83.7745 83.4401 81.8802C83.4401 79.9859 81.9044 78.4502 80.0101 78.4502C78.1157 78.4502 76.5801 79.9859 76.5801 81.8802C76.5801 83.7745 78.1157 85.3102 80.0101 85.3102Z" fill="#F5F4BB"/>
<path d="M82.64 86.8903C84.5343 86.8903 86.07 85.3546 86.07 83.4603C86.07 81.5659 84.5343 80.0303 82.64 80.0303C80.7456 80.0303 79.21 81.5659 79.21 83.4603C79.21 85.3546 80.7456 86.8903 82.64 86.8903Z" fill="#F5F4BB"/>
<path d="M106.265 80.8003C107.284 80.07 107.518 78.6519 106.788 77.6329C106.058 76.6139 104.639 76.3799 103.62 77.1102C102.601 77.8406 102.367 79.2587 103.098 80.2777C103.828 81.2967 105.246 81.5307 106.265 80.8003Z" fill="#EFC44F"/>
<path d="M106.428 82.8374C107.447 82.1071 107.681 80.689 106.951 79.67C106.221 78.651 104.803 78.417 103.784 79.1473C102.765 79.8777 102.531 81.2958 103.261 82.3148C103.991 83.3338 105.409 83.5678 106.428 82.8374Z" fill="#EFC44F"/>
<path d="M107.049 79.9839C108.068 79.2536 108.302 77.8355 107.572 76.8165C106.842 75.7975 105.424 75.5635 104.405 76.2938C103.386 77.0242 103.152 78.4423 103.882 79.4613C104.612 80.4802 106.03 80.7143 107.049 79.9839Z" fill="#F5F4BB"/>
<path d="M107.224 81.9966C108.243 81.2663 108.477 79.8482 107.747 78.8292C107.017 77.8102 105.598 77.5762 104.579 78.3065C103.56 79.0369 103.326 80.455 104.057 81.474C104.787 82.4929 106.205 82.7269 107.224 81.9966Z" fill="#F5F4BB"/>
<path d="M113.02 84.7998L89.6904 90.8398V133.52L104.77 125.28L113.02 84.7998Z" fill="#62A5D2"/>
<path d="M66.3701 84.7998L89.6901 90.8398V133.52L74.6101 125.28L66.3701 84.7998Z" fill="#4488B7"/>
<path d="M98.8541 132.918C100.524 132.448 101.496 130.715 101.027 129.045C100.558 127.376 98.8242 126.403 97.1547 126.872C95.4852 127.341 94.5123 129.075 94.9815 130.745C95.4508 132.414 97.1846 133.387 98.8541 132.918Z" fill="#EFC44F"/>
<path d="M98.7125 131.344C100.382 130.875 101.355 129.141 100.886 127.472C100.416 125.802 98.6826 124.829 97.0131 125.299C95.3436 125.768 94.3707 127.502 94.8399 129.171C95.3092 130.841 97.043 131.814 98.7125 131.344Z" fill="#F5F4BB"/>
<path d="M95.3799 135.145C97.0447 134.677 98.0147 132.947 97.5465 131.283C97.0783 129.618 95.3491 128.648 93.6843 129.116C92.0195 129.584 91.0495 131.313 91.5177 132.978C91.9859 134.643 93.7151 135.613 95.3799 135.145Z" fill="#F5F4BB"/>
<path d="M81.3195 129.049C81.7817 127.378 80.8015 125.648 79.1301 125.186C77.4587 124.723 75.729 125.704 75.2667 127.375C74.8044 129.046 75.7846 130.776 77.4561 131.238C79.1275 131.701 80.8572 130.72 81.3195 129.049Z" fill="#EFC44F"/>
<path d="M82.0148 127.625C82.4771 125.954 81.4968 124.224 79.8254 123.762C78.154 123.3 76.4243 124.28 75.962 125.951C75.4997 127.623 76.48 129.352 78.1514 129.815C79.8228 130.277 81.5525 129.297 82.0148 127.625Z" fill="#F5F4BB"/>
<path d="M73.8476 88.3881L29.2146 101.957C28.6862 102.118 28.388 102.676 28.5487 103.205L36.7308 130.119C36.8915 130.647 37.4501 130.945 37.9785 130.784L82.6115 117.215C83.1399 117.055 83.438 116.496 83.2773 115.968L75.0952 89.054C74.9346 88.5256 74.376 88.2275 73.8476 88.3881Z" fill="#2F3432"/>
<path d="M35.9902 111.87L74.6502 100.12" stroke="white" stroke-miterlimit="10" stroke-linecap="round"/>
<path d="M38.8096 121.14L77.4696 109.39" stroke="white" stroke-miterlimit="10" stroke-linecap="round"/>
<path d="M39.9805 124.99L78.6405 113.23" stroke="white" stroke-miterlimit="10" stroke-linecap="round"/>
<path d="M51.36 117.33L48.54 108.06" stroke="white" stroke-miterlimit="10" stroke-linecap="round"/>
<path d="M64.9203 113.21L62.1104 103.94" stroke="white" stroke-miterlimit="10" stroke-linecap="round"/>
<path d="M34.1096 100.47L31.3096 105.7L33.3196 105.09L36.1596 99.7695L34.1096 100.47Z" fill="white"/>
<path d="M40.2002 98.6202L37.4102 103.85L39.4102 103.24L42.2502 97.9102L40.2002 98.6202Z" fill="white"/>
<path d="M46.2902 96.7696L43.4902 102L45.5002 101.39L48.3402 96.0596L46.2902 96.7696Z" fill="white"/>
<path d="M52.3798 94.92L49.5898 100.15L51.5898 99.54L54.4298 94.21L52.3798 94.92Z" fill="white"/>
<path d="M58.4699 93.0603L55.6699 98.3004L57.6799 97.6904L60.5199 92.3604L58.4699 93.0603Z" fill="white"/>
<path d="M64.5595 91.2098L61.7695 96.4398L63.7695 95.8298L66.6095 90.5098L64.5595 91.2098Z" fill="white"/>
<path d="M70.6504 89.3602L67.8604 94.5901L69.8604 93.9802L72.7003 88.6602L70.6504 89.3602Z" fill="white"/>
<path d="M29.8457 101.88L68.8227 76.2477C69.2841 75.9442 69.4122 75.3242 69.1087 74.8627L67.0483 71.7295C66.7448 71.2681 66.1247 71.14 65.6633 71.4435L26.6863 97.0758C26.2248 97.3792 26.0968 97.9993 26.4002 98.4608L28.4607 101.594C28.7642 102.055 29.3842 102.183 29.8457 101.88Z" fill="#2F3432"/>
<path d="M61.3798 74.25L68.0498 76.75L66.2998 77.91L59.5098 75.36L61.3798 74.25Z" fill="white"/>
<path d="M56.0604 77.75L62.7304 80.25L60.9804 81.4L54.1904 78.85L56.0604 77.75Z" fill="white"/>
<path d="M50.7399 81.2402L57.4099 83.7502L55.6599 84.9002L48.8799 82.3502L50.7399 81.2402Z" fill="white"/>
<path d="M45.4296 84.7402L52.0896 87.2502L50.3396 88.4002L43.5596 85.8502L45.4296 84.7402Z" fill="white"/>
<path d="M40.1102 88.2402L46.7702 90.7402L45.0202 91.8902L38.2402 89.3502L40.1102 88.2402Z" fill="white"/>
<path d="M34.7899 91.7305L41.4599 94.2405L39.6999 95.3905L32.9199 92.8405L34.7899 91.7305Z" fill="white"/>
<path d="M29.4696 95.2305L36.1396 97.7405L34.3796 98.8905L27.5996 96.3405L29.4696 95.2305Z" fill="white"/>
<path d="M143.56 95.5399C144.283 95.5399 144.87 94.9534 144.87 94.2299C144.87 93.5064 144.283 92.9199 143.56 92.9199C142.837 92.9199 142.25 93.5064 142.25 94.2299C142.25 94.9534 142.837 95.5399 143.56 95.5399Z" fill="white"/>
<path d="M143.56 101.11C144.283 101.11 144.87 100.524 144.87 99.8002C144.87 99.0767 144.283 98.4902 143.56 98.4902C142.837 98.4902 142.25 99.0767 142.25 99.8002C142.25 100.524 142.837 101.11 143.56 101.11Z" fill="white"/>
<path d="M73.4701 129.78C75.2043 129.78 76.6101 128.374 76.6101 126.64C76.6101 124.906 75.2043 123.5 73.4701 123.5C71.7359 123.5 70.3301 124.906 70.3301 126.64C70.3301 128.374 71.7359 129.78 73.4701 129.78Z" fill="#EFC44F"/>
<path d="M69.5296 132.69C71.2638 132.69 72.6696 131.284 72.6696 129.55C72.6696 127.816 71.2638 126.41 69.5296 126.41C67.7955 126.41 66.3896 127.816 66.3896 129.55C66.3896 131.284 67.7955 132.69 69.5296 132.69Z" fill="#EFC44F"/>
<path d="M73.7601 128.22C75.4943 128.22 76.9001 126.815 76.9001 125.08C76.9001 123.346 75.4943 121.94 73.7601 121.94C72.0259 121.94 70.6201 123.346 70.6201 125.08C70.6201 126.815 72.0259 128.22 73.7601 128.22Z" fill="#F5F4BB"/>
<path d="M69.8197 131.13C71.5539 131.13 72.9597 129.724 72.9597 127.99C72.9597 126.255 71.5539 124.85 69.8197 124.85C68.0855 124.85 66.6797 126.255 66.6797 127.99C66.6797 129.724 68.0855 131.13 69.8197 131.13Z" fill="#F5F4BB"/>
<path d="M74.18 129.78C75.9142 129.78 77.32 128.374 77.32 126.64C77.32 124.906 75.9142 123.5 74.18 123.5C72.4459 123.5 71.04 124.906 71.04 126.64C71.04 128.374 72.4459 129.78 74.18 129.78Z" fill="#EFC44F"/>
<path d="M70.2299 132.69C71.964 132.69 73.3699 131.284 73.3699 129.55C73.3699 127.816 71.964 126.41 70.2299 126.41C68.4957 126.41 67.0898 127.816 67.0898 129.55C67.0898 131.284 68.4957 132.69 70.2299 132.69Z" fill="#EFC44F"/>
<path d="M74.4701 128.22C76.2043 128.22 77.6101 126.815 77.6101 125.08C77.6101 123.346 76.2043 121.94 74.4701 121.94C72.7359 121.94 71.3301 123.346 71.3301 125.08C71.3301 126.815 72.7359 128.22 74.4701 128.22Z" fill="#F5F4BB"/>
<path d="M70.5199 131.13C72.2541 131.13 73.6599 129.724 73.6599 127.99C73.6599 126.255 72.2541 124.85 70.5199 124.85C68.7857 124.85 67.3799 126.255 67.3799 127.99C67.3799 129.724 68.7857 131.13 70.5199 131.13Z" fill="#F5F4BB"/>
<path d="M70.4763 131.231C71.5499 129.869 71.3163 127.894 69.9544 126.821C68.5925 125.747 66.6182 125.981 65.5445 127.343C64.4709 128.705 64.7046 130.679 66.0665 131.753C67.4284 132.826 69.4027 132.592 70.4763 131.231Z" fill="#EFC44F"/>
<path d="M65.575 131.076C66.6486 129.714 66.4149 127.74 65.053 126.666C63.6912 125.593 61.7168 125.827 60.6432 127.188C59.5696 128.55 59.8032 130.525 61.1651 131.598C62.527 132.672 64.5014 132.438 65.575 131.076Z" fill="#EFC44F"/>
<path d="M71.6658 130.193C72.7394 128.831 72.5057 126.856 71.1438 125.783C69.782 124.709 67.8076 124.943 66.734 126.305C65.6604 127.666 65.8941 129.641 67.2559 130.714C68.6178 131.788 70.5922 131.554 71.6658 130.193Z" fill="#F5F4BB"/>
<path d="M66.7673 130.031C67.841 128.67 67.6073 126.695 66.2454 125.622C64.8835 124.548 62.9092 124.782 61.8356 126.143C60.7619 127.505 60.9956 129.48 62.3575 130.553C63.7194 131.627 65.6937 131.393 66.7673 130.031Z" fill="#F5F4BB"/>
<path d="M131.43 117.43C133.164 117.43 134.57 116.025 134.57 114.29C134.57 112.556 133.164 111.15 131.43 111.15C129.696 111.15 128.29 112.556 128.29 114.29C128.29 116.025 129.696 117.43 131.43 117.43Z" fill="#EFC44F"/>
<path d="M127.48 120.34C129.214 120.34 130.62 118.934 130.62 117.2C130.62 115.465 129.214 114.06 127.48 114.06C125.746 114.06 124.34 115.465 124.34 117.2C124.34 118.934 125.746 120.34 127.48 120.34Z" fill="#EFC44F"/>
<path d="M131.72 115.87C133.454 115.87 134.86 114.464 134.86 112.73C134.86 110.996 133.454 109.59 131.72 109.59C129.986 109.59 128.58 110.996 128.58 112.73C128.58 114.464 129.986 115.87 131.72 115.87Z" fill="#F5F4BB"/>
<path d="M127.77 118.78C129.504 118.78 130.91 117.374 130.91 115.64C130.91 113.906 129.504 112.5 127.77 112.5C126.036 112.5 124.63 113.906 124.63 115.64C124.63 117.374 126.036 118.78 127.77 118.78Z" fill="#F5F4BB"/>
<path d="M127.728 118.892C128.802 117.53 128.568 115.556 127.206 114.482C125.844 113.408 123.87 113.642 122.796 115.004C121.723 116.366 121.957 118.34 123.318 119.414C124.68 120.487 126.655 120.254 127.728 118.892Z" fill="#EFC44F"/>
<path d="M122.829 118.731C123.902 117.369 123.669 115.394 122.307 114.321C120.945 113.247 118.971 113.481 117.897 114.843C116.823 116.205 117.057 118.179 118.419 119.253C119.781 120.326 121.755 120.092 122.829 118.731Z" fill="#EFC44F"/>
<path d="M128.921 117.848C129.994 116.486 129.761 114.512 128.399 113.438C127.037 112.364 125.062 112.598 123.989 113.96C122.915 115.322 123.149 117.296 124.511 118.37C125.873 119.443 127.847 119.21 128.921 117.848Z" fill="#F5F4BB"/>
<path d="M124.011 117.687C125.085 116.325 124.851 114.35 123.49 113.277C122.128 112.203 120.153 112.437 119.08 113.799C118.006 115.161 118.24 117.135 119.602 118.209C120.964 119.282 122.938 119.049 124.011 117.687Z" fill="#F5F4BB"/>
<path d="M115.91 95.1397L104.58 92.4697L106.58 128.03C108.42 131.09 115.1 130.74 115.1 130.74C115.1 130.74 121.76 131.39 123.73 128.42L127.35 92.9997L115.91 95.1397Z" fill="#EFC44F"/>
<path d="M127.875 92.3831C127.933 89.766 122.65 87.5252 116.074 87.3783C109.498 87.2313 104.119 89.2339 104.061 91.851C104.002 94.4682 109.286 96.709 115.862 96.8559C122.438 97.0028 127.817 95.0003 127.875 92.3831Z" fill="#E8E8E8"/>
<path d="M116.76 91.6001L121.94 76.2001L131.38 73.3301" stroke="white" stroke-width="2" stroke-linecap="round" stroke-linejoin="round"/>
<path d="M114.18 122.31C113.858 123.426 113.319 124.468 112.594 125.376C111.869 126.284 110.972 127.04 109.955 127.601C108.938 128.162 107.82 128.518 106.665 128.647C105.51 128.776 104.342 128.677 103.225 128.355C102.109 128.032 101.067 127.493 100.16 126.768C99.2516 126.043 98.4954 125.146 97.9341 124.129C97.3728 123.112 97.0173 121.994 96.888 120.839C96.7587 119.685 96.858 118.516 97.1804 117.4C98.5804 112.72 115.53 117.63 114.18 122.31Z" fill="#DB215B" stroke="#2F3432" stroke-width="2" stroke-miterlimit="10"/>
<path d="M134.65 128.24C134.328 129.357 133.789 130.398 133.064 131.306C132.339 132.214 131.442 132.97 130.425 133.532C129.407 134.093 128.289 134.449 127.135 134.578C125.98 134.707 124.811 134.608 123.695 134.285C122.579 133.963 121.537 133.424 120.629 132.699C119.721 131.974 118.965 131.077 118.404 130.06C117.842 129.043 117.487 127.925 117.358 126.77C117.228 125.615 117.328 124.447 117.65 123.33C119.05 118.65 136 123.56 134.65 128.24Z" fill="#2386D8" stroke="#2F3432" stroke-width="2" stroke-miterlimit="10"/>
<path d="M97.2197 117.4L125.64 127.88C127.371 128.521 128.946 129.523 130.26 130.82C131.574 132.116 132.596 133.678 133.26 135.4L133.96 137.22" stroke="#2F3432" stroke-width="2" stroke-linecap="round" stroke-linejoin="round"/>
<path d="M134.65 128.24L105 121.91C103.194 121.527 101.327 121.533 99.5233 121.928C97.7197 122.323 96.0209 123.097 94.54 124.2L93 125.37" stroke="#2F3432" stroke-width="2" stroke-linecap="round" stroke-linejoin="round"/>
</svg>
