<svg width="122" height="24" viewBox="0 0 122 24" fill="none" xmlns="http://www.w3.org/2000/svg">
<path d="M69.2969 23.833V4.62989L120.668 0L116.243 9.84427L120.668 19.2064L69.2969 23.833Z" fill="#47DB07"/>
<path d="M69.2969 23.833V4.62989L120.668 0L116.243 9.84427L120.668 19.2064L69.2969 23.833Z" fill="url(#paint0_radial)"/>
<path d="M69.2969 23.833V4.62989L120.668 0L116.243 9.84427L120.668 19.2064L69.2969 23.833Z" fill="url(#paint1_radial)"/>
<path d="M69.2969 23.833V4.62989L120.668 0L116.243 9.84427L120.668 19.2064L69.2969 23.833Z" fill="url(#paint2_radial)"/>
<path d="M69.2969 23.833V4.62989L120.668 0L116.243 9.84427L120.668 19.2064L69.2969 23.833Z" fill="url(#paint3_radial)"/>
<path fill-rule="evenodd" clip-rule="evenodd" d="M100.247 7.81756C100.08 7.65602 99.9998 7.42616 100.028 7.19629H98.7238C98.7238 8.56016 99.7018 9.06869 100.897 9.06869C101.934 9.06869 102.948 8.56016 102.948 7.19629H101.643C101.643 7.80062 101.356 8.01856 100.874 8.01856C100.645 8.05342 100.413 7.97902 100.247 7.81756ZM82.1131 16.2381V7.78736H74.5938V16.2381H76.1031V9.17769H80.6037V16.2381H82.1131ZM90.1344 13.0876C90.1344 10.9742 89.0611 10.0825 87.5291 10.0825C86.2478 10.0825 85.6104 10.7958 85.3924 11.4563V10.2014H84.0718L84.0651 18.5662H85.4751V15.32C85.8718 16.0039 86.6171 16.409 87.4071 16.3702C89.0611 16.3702 90.1344 15.4654 90.1344 13.0876ZM96.3791 12.2554C96.3791 10.6868 95.5011 10.0825 93.7378 10.0825C92.7004 10.0825 91.9771 10.3236 91.5777 10.6241L91.6044 12.3876C92.0138 11.7469 92.6544 11.3143 93.7638 11.3143C94.5731 11.3143 94.9824 11.5785 94.9824 12.4338V12.7013H93.6184L93.4604 12.7028C92.0564 12.7301 91.1351 13.1367 91.1351 14.4614C91.1351 15.647 91.8584 16.3338 93.0771 16.3338C93.9171 16.3811 94.7011 15.9132 95.0584 15.1516V16.2381H96.3791V12.2554ZM99.4011 10.2014V14.293L102.297 10.2014H103.446V10.3005H103.638V16.2447H102.238V12.097L99.3417 16.2381H98.1824V16.1522H98.0011L98.0104 10.2014H99.4011ZM106.831 10.2014L108.796 13.0282L110.705 10.2014H112.128V16.2381H110.715L110.708 12.1828L108.978 14.7388H108.532L106.782 12.1696V16.2381H105.368V10.2014H106.831ZM85.4718 12.9622C85.5078 11.9484 86.0131 11.3342 87.1231 11.3342C88.0904 11.3342 88.7278 11.8229 88.7278 13.1438C88.7278 14.5704 88.2358 15.1252 87.0998 15.1252C86.1091 15.1252 85.4818 14.511 85.4818 13.4246L85.4718 12.9622ZM94.9557 14.1114V13.6194H93.7638C92.9318 13.6194 92.5324 13.7746 92.5324 14.3194C92.5324 14.7752 92.8624 15.0658 93.4964 15.0658C94.4478 15.0658 94.8964 14.5308 94.9557 14.1114Z" fill="white"/>
<path fill-rule="evenodd" clip-rule="evenodd" d="M31.4233 7.9399C30.4998 7.16677 29.2852 6.75977 27.9031 6.75977C26.3547 6.75977 24.9502 7.28203 23.9455 8.22943C22.9408 9.17683 22.3828 10.524 22.3828 12.006C22.3828 13.488 22.9363 14.856 23.9416 15.8386C24.9469 16.8212 26.3508 17.3668 27.8888 17.3668C29.4965 17.3668 30.9009 16.8062 31.8523 15.7865L30.4087 14.7232L29.9145 14.9934L29.8095 15.0483C29.2455 15.3324 28.6217 15.479 27.9891 15.4753C25.9783 15.4753 24.5185 14.0428 24.5185 12.0633C24.5185 10.0838 25.9783 8.6507 27.9891 8.6507C28.7158 8.64043 29.4267 8.8629 30.018 9.28557L31.6179 8.10897L31.5117 8.01583L31.4233 7.9399ZM40.3066 8.6169L42.6423 6.8959H33.7431V17.2314H38.4007L38.5075 17.2308C41.0539 17.1988 42.5114 16.0194 42.5114 13.9842C42.5114 12.0112 41.1537 10.9238 38.6905 10.9245H35.9739V8.6169H40.3066ZM52.4028 6.8959L50.0679 8.6169H46.818V11.1433H51.5817V12.8642H46.818V15.5104H52.4028V17.2308H44.5872V6.8959H52.4028ZM63.1375 10.5892C63.1375 8.30497 61.451 6.8959 58.7351 6.8959H54.4799V17.2308H56.7101V14.3006H58.7351L58.8377 14.3C61.4928 14.2644 63.1375 12.8444 63.1375 10.5892ZM38.2998 12.6454H35.9739V15.5104H38.2998C39.6763 15.5104 40.375 15.0546 40.375 14.0779C40.375 13.1445 39.7426 12.6656 38.3873 12.646L38.2998 12.6454ZM56.7101 8.61683H58.6876C60.1162 8.61683 60.9015 9.3207 60.9015 10.5996C60.9015 11.8784 60.1142 12.5822 58.6876 12.5822H56.7101V8.61683Z" fill="#219F38"/>
<path d="M15.4554 6.86133C15.8676 7.39019 16.2152 7.96639 16.4909 8.57759L8.62871 14.3304L5.34961 12.3073V9.83366L8.62871 11.8951L15.4554 6.86133Z" fill="#21A038"/>
<path d="M1.99431 12.1346C1.99431 12.0195 1.99431 11.9141 1.99431 11.799L0 11.7031C0 11.8469 0 11.9907 0 12.1346C0.00201408 14.4224 0.91248 16.6158 2.53123 18.2325L3.94067 16.8231C2.69243 15.5825 1.99169 13.8945 1.99431 12.1346Z" fill="url(#paint4_linear)"/>
<path d="M8.6292 5.50017H8.9648L9.06066 3.50586H8.6292C6.34138 3.50787 4.14798 4.41834 2.53125 6.0371L3.94068 7.44653C5.18372 6.20188 6.87013 5.50179 8.6292 5.50017Z" fill="url(#paint5_linear)"/>
<path d="M8.62873 18.7696H8.2932L8.19727 20.7639H8.62873C10.9166 20.7619 13.11 19.8514 14.7267 18.2327L13.3173 16.8232C12.0743 18.0679 10.3878 18.768 8.62873 18.7696Z" fill="url(#paint6_linear)"/>
<path d="M12.3682 6.66032L14.0462 5.42347C12.5126 4.18411 10.6007 3.50736 8.62891 3.50586V5.50017C9.96397 5.50016 11.2677 5.90465 12.3682 6.66032Z" fill="url(#paint7_linear)"/>
<path d="M17.2585 12.1345C17.2571 11.6171 17.2122 11.1007 17.1243 10.5908L15.2642 11.9524V12.1345C15.2643 14.0096 14.47 15.7968 13.0781 17.0532L14.3821 18.5297C16.2029 16.9012 17.2481 14.5773 17.2585 12.1345Z" fill="#21A038"/>
<path d="M8.62957 18.7701C6.75457 18.7702 4.96728 17.9759 3.71093 16.584L2.23438 17.8879C3.86289 19.7087 6.18681 20.754 8.62957 20.7643V18.7701Z" fill="url(#paint8_linear)"/>
<path d="M4.18037 7.2158L2.87641 5.73926C1.05563 7.36774 0.0103891 9.69167 0 12.1345H1.99431C1.99415 10.2595 2.78851 8.47214 4.18037 7.2158Z" fill="url(#paint9_linear)"/>
<defs>
<radialGradient id="paint0_radial" cx="0" cy="0" r="1" gradientUnits="userSpaceOnUse" gradientTransform="translate(125.26 6.87826) rotate(172.446) scale(38.3237 275.099)">
<stop stop-color="#00A9FD"/>
<stop offset="0.317254" stop-color="#00A9FD" stop-opacity="0.92824"/>
<stop offset="1" stop-color="#00A9FD" stop-opacity="0.01"/>
</radialGradient>
<radialGradient id="paint1_radial" cx="0" cy="0" r="1" gradientUnits="userSpaceOnUse" gradientTransform="translate(88.0209) rotate(100.661) scale(12.1258 26.4956)">
<stop stop-color="#4DE11F"/>
<stop offset="1" stop-color="#4DE11F" stop-opacity="0"/>
</radialGradient>
<radialGradient id="paint2_radial" cx="0" cy="0" r="1" gradientUnits="userSpaceOnUse" gradientTransform="translate(67.1669 5.82912) rotate(30.4484) scale(21.9207 29.7118)">
<stop offset="0.150888" stop-color="#04F1DF"/>
<stop offset="0.882326" stop-color="#00D7D5" stop-opacity="0.01"/>
</radialGradient>
<radialGradient id="paint3_radial" cx="0" cy="0" r="1" gradientUnits="userSpaceOnUse" gradientTransform="translate(74.9355 31.7153) rotate(-50.9836) scale(17.6337 31.9737)">
<stop offset="0.279208" stop-color="#F2FE06"/>
<stop offset="1" stop-color="#FFFF00" stop-opacity="0.01"/>
</radialGradient>
<linearGradient id="paint4_linear" x1="4.83194" y1="16.1801" x2="0.658707" y2="11.7873" gradientUnits="userSpaceOnUse">
<stop offset="0.14" stop-color="#F2E913"/>
<stop offset="0.3" stop-color="#E7E518"/>
<stop offset="0.58" stop-color="#CADB26"/>
<stop offset="0.89" stop-color="#A3CD39"/>
</linearGradient>
<linearGradient id="paint5_linear" x1="4.86831" y1="8.08446" x2="8.61326" y2="4.16517" gradientUnits="userSpaceOnUse">
<stop offset="0.06" stop-color="#0FA8E0"/>
<stop offset="0.54" stop-color="#0099F9"/>
<stop offset="0.92" stop-color="#0291EB"/>
</linearGradient>
<linearGradient id="paint6_linear" x1="9.25453" y1="21.4808" x2="14.4759" y2="18.2327" gradientUnits="userSpaceOnUse">
<stop offset="0.12" stop-color="#A3CD39"/>
<stop offset="0.28" stop-color="#86C339"/>
<stop offset="0.87" stop-color="#21A038"/>
</linearGradient>
<linearGradient id="paint7_linear" x1="6.77457" y1="5.75704" x2="10.5832" y2="9.21013" gradientUnits="userSpaceOnUse">
<stop offset="0.06" stop-color="#0291EB"/>
<stop offset="0.79" stop-color="#0C8ACB"/>
</linearGradient>
<linearGradient id="paint8_linear" x1="1.04614" y1="19.6139" x2="5.47791" y2="23.4927" gradientUnits="userSpaceOnUse">
<stop offset="0.13" stop-color="#F2E913"/>
<stop offset="0.3" stop-color="#EBE716"/>
<stop offset="0.53" stop-color="#D9E01F"/>
<stop offset="0.8" stop-color="#BBD62D"/>
<stop offset="0.98" stop-color="#A3CD39"/>
</linearGradient>
<linearGradient id="paint9_linear" x1="2.75325" y1="14.193" x2="6.88727" y2="9.61314" gradientUnits="userSpaceOnUse">
<stop offset="0.07" stop-color="#A3CD39"/>
<stop offset="0.26" stop-color="#81C55F"/>
<stop offset="0.92" stop-color="#0FA8E0"/>
</linearGradient>
</defs>
</svg>
