<svg width="240" height="325" viewBox="0 0 240 325" fill="none" xmlns="http://www.w3.org/2000/svg">
<g clip-path="url(#clip0)">
<path d="M2.4498 300.502L0 324.247L5.46 322.644C79.3382 306.611 156.467 329.393 240 324.247L232.955 247.129C228.087 193.74 225.504 140.223 225.205 86.5772L224.933 35.9297H10.936C14.317 124.211 11.4812 212.62 2.4498 300.502Z" fill="#EFD59C"/>
<path d="M10.3599 21.8525C10.568 26.5501 10.7602 31.2317 10.9363 35.9293H224.933V21.8525H10.3599Z" fill="#FFEAC0"/>
<path d="M119.992 38.3182C114.686 38.3144 109.564 36.3754 105.582 32.8639C101.601 29.3524 99.0334 24.5089 98.36 19.2393C97.9301 22.3336 98.1678 25.4842 99.0571 28.4787C99.9464 31.4733 101.467 34.242 103.515 36.5984C105.564 38.9548 108.093 40.8439 110.933 42.1385C113.772 43.433 116.856 44.1029 119.976 44.1029C123.096 44.1029 126.18 43.433 129.019 42.1385C131.859 40.8439 134.388 38.9548 136.437 36.5984C138.485 34.242 140.005 31.4733 140.895 28.4787C141.784 25.4842 142.022 22.3336 141.592 19.2393C140.919 24.5034 138.356 29.3426 134.381 32.8534C130.407 36.3642 125.292 38.3066 119.992 38.3182Z" fill="#778C8A"/>
<path d="M119.992 38.3182C125.3 38.3183 130.427 36.3811 134.412 32.8692C138.396 29.3573 140.966 24.5116 141.64 19.2392C140.94 13.9954 138.363 9.18429 134.387 5.69992C130.411 2.21556 125.308 0.294922 120.024 0.294922C114.741 0.294922 109.637 2.21556 105.661 5.69992C101.685 9.18429 99.108 13.9954 98.4082 19.2392C99.0806 24.5007 101.641 29.3376 105.612 32.848C109.584 36.3585 114.695 38.3027 119.992 38.3182Z" fill="#8DAAA5"/>
<path d="M95.1258 58.1672C95.0987 59.4823 94.7641 60.7727 94.149 61.9349C92.2732 65.3102 89.2595 67.9073 85.6468 69.2619C82.1173 70.828 78.2992 71.6363 74.4386 71.6347C72.2989 71.6319 70.161 71.5142 68.0339 71.282C63.3371 80.1214 60.9887 85.9626 60.9887 88.8058C60.971 88.9924 60.971 89.1803 60.9887 89.3669C61.0019 89.527 61.0019 89.6879 60.9887 89.8479C60.9887 90.4999 60.7325 90.8259 60.2202 90.8259C59.4729 90.8259 59.0993 90.1953 59.0993 88.9341C59.0993 85.7275 61.1915 79.7045 65.3759 70.8651C61.5225 70.1169 59.5957 69.0481 59.5957 67.6586C59.633 67.1461 59.8176 66.6554 60.1273 66.2458C60.437 65.8361 60.8586 65.5249 61.341 65.3499C62.2613 64.8524 63.2893 64.5882 64.3352 64.5803C64.8476 64.5803 65.1037 64.7406 65.1037 65.0613C65.1037 65.3819 64.5273 65.6705 63.3905 65.927C62.2537 66.1836 61.6772 66.5844 61.6772 67.1455C61.6772 67.7067 63.1183 68.7488 66.0004 69.5184C67.9005 65.8095 69.7365 62.4105 71.5084 59.3216C72.0208 58.4344 72.8107 57.1571 73.8782 55.4897C74.3047 54.9721 74.8524 54.568 75.4726 54.3135C76.0927 54.059 76.7661 53.9618 77.4328 54.0307C78.0893 54.0307 78.4095 54.1911 78.4095 54.5117C78.3984 54.6809 78.3491 54.8453 78.2654 54.9927C74.7827 59.753 71.6367 64.7514 68.8505 69.9513C69.8693 70.0906 70.8965 70.1602 71.9247 70.1597C75.8961 70.1234 79.8146 69.2436 83.4212 67.5784C87.8297 65.5262 90.5944 62.945 91.7153 59.8346C91.9371 59.1506 92.0559 58.4373 92.0675 57.7183C92.0675 54.6507 90.0233 52.7214 85.935 51.9305C82.7669 51.3439 79.5496 51.0647 76.328 51.0967C68.5766 51.1017 60.8864 52.4692 53.6073 55.137C53.3587 55.2193 53.1002 55.2678 52.8387 55.2813C52.5185 55.2813 52.3584 55.137 52.3584 54.8644C52.4057 54.4747 52.5342 54.0992 52.7355 53.7622C52.9369 53.4253 53.2066 53.1344 53.5273 52.9084C54.0876 52.3641 54.7521 51.9388 55.4807 51.6579C61.2556 49.8778 67.2764 49.0281 73.3178 49.1408C78.0054 49.1225 82.6813 49.6117 87.264 50.5997C92.5052 51.7755 95.1258 54.298 95.1258 58.1672Z" fill="#212451"/>
<path d="M105.517 77.9188C105.499 78.0662 105.45 78.2081 105.373 78.3356C104.001 80.3579 102.223 82.0723 100.153 83.3699C98.1867 84.8246 95.838 85.6717 93.3965 85.8069C90.4717 85.8069 89.0093 83.9685 89.0093 80.2916C89.201 77.3471 90.3224 74.5398 92.2116 72.2752C94.4426 69.2076 96.743 67.6738 99.1127 67.6738C99.3491 67.6816 99.5808 67.7417 99.7912 67.8498C100.002 67.9579 100.185 68.1114 100.33 68.2991C100.66 68.6648 100.847 69.1371 100.858 69.6298C100.858 71.0728 99.7905 72.815 97.6556 74.8565C96.0756 76.4429 94.1983 77.7015 92.1316 78.5601C91.8422 79.5124 91.6807 80.4991 91.6512 81.4941C91.6512 83.4073 92.5105 84.3586 94.2291 84.3479C96.2217 84.2227 98.1352 83.5209 99.7371 82.3278C101.432 81.2295 102.959 79.89 104.268 78.3516C104.589 77.892 104.914 77.6569 105.245 77.6462C105.282 77.6408 105.32 77.6442 105.355 77.656C105.391 77.6678 105.423 77.6877 105.45 77.7141C105.476 77.7406 105.496 77.7729 105.508 77.8084C105.519 77.8439 105.523 77.8817 105.517 77.9188ZM98.6804 70.5437C98.6964 70.4305 98.6859 70.3151 98.6497 70.2066C98.6136 70.0981 98.5527 69.9996 98.4719 69.9187C98.3912 69.8378 98.2927 69.7769 98.1844 69.7407C98.0761 69.7044 97.9608 69.6939 97.8478 69.71C97.1539 69.71 96.1292 70.7788 94.7735 72.9165C93.8585 74.2306 93.131 75.666 92.6119 77.1813C94.0279 76.5206 95.305 75.5956 96.3747 74.4557C97.6194 73.4992 98.4458 72.0971 98.6804 70.5437Z" fill="#212451"/>
<path d="M106.078 93.4071C106.151 93.1868 106.29 92.9945 106.476 92.8567C106.663 92.7189 106.887 92.6423 107.119 92.6375C107.119 92.5413 107.535 92.7764 108.368 93.3429C108.943 93.8692 109.703 94.1459 110.481 94.1125C111.438 94.0096 112.341 93.6213 113.075 92.9982C113.809 92.375 114.339 91.5456 114.596 90.6174C115.448 88.6875 115.832 86.5835 115.717 84.4768C115.253 84.8511 114.694 85.0884 114.103 85.162C113.512 85.2357 112.912 85.1427 112.371 84.8937C111.913 84.5972 111.547 84.1795 111.312 83.687C111.077 83.1945 110.984 82.6465 111.042 82.104C111.049 81.3744 111.14 80.6481 111.314 79.9395C111.468 79.2316 111.727 78.5507 112.082 77.9194L110.161 80.645C109.67 81.3397 109.312 81.8261 109.088 82.104C107.551 83.921 106.179 84.8295 104.973 84.8295C103.436 84.8295 102.667 83.5255 102.667 80.9175C102.766 79.0438 103.263 77.2126 104.125 75.5466C105.192 73.131 106.356 71.9232 107.615 71.9232C108.309 71.9232 108.656 72.1102 108.656 72.4843L106.847 75.6909C105.876 77.1246 105.276 78.7774 105.101 80.5007C105.101 81.9864 105.544 82.7292 106.43 82.7292C107.775 82.7292 110.054 80.009 113.267 74.5686C113.726 73.7349 114.159 73.0134 114.564 72.4041C115.059 71.5887 115.467 70.7236 115.781 69.8229C116.044 69.5097 116.416 69.309 116.822 69.2617C117.04 69.2667 117.255 69.3161 117.453 69.4071C117.651 69.4981 117.829 69.6286 117.975 69.7908C118.145 69.9443 118.28 70.1325 118.371 70.3427C118.462 70.5529 118.507 70.7802 118.503 71.0093L115.989 75.6909C114.673 77.8828 113.843 80.3323 113.555 82.8735C113.532 83.2694 113.603 83.6652 113.764 84.0279C113.829 84.1506 113.936 84.2457 114.065 84.2958C114.195 84.3459 114.338 84.3475 114.468 84.3004C114.969 84.1276 115.423 83.8424 115.797 83.4667C116.557 82.7746 117.279 82.0413 117.959 81.2703C118.194 80.9924 118.354 81.0405 118.439 81.4145C118.524 81.7886 118.247 82.3231 117.606 83.0178L117.078 83.5469C116.942 83.6896 116.791 83.8185 116.63 83.9317C116.968 84.9872 117.055 86.107 116.886 87.2024C116.809 88.2239 116.648 89.2374 116.406 90.2326C116.194 91.0816 115.915 91.9125 115.573 92.7176C115.239 93.6898 114.635 94.5467 113.833 95.1883C113.03 95.8299 112.062 96.2297 111.042 96.341C109.93 96.2754 108.842 95.9922 107.839 95.5073C106.334 94.7164 105.747 94.0163 106.078 93.4071Z" fill="#212451"/>
<path d="M136.468 77.9188C136.449 78.0662 136.4 78.2081 136.324 78.3356C134.951 80.3579 133.174 82.0723 131.104 83.3699C129.137 84.8246 126.789 85.6717 124.347 85.8069C121.422 85.8069 119.96 83.9685 119.96 80.2916C120.152 77.3471 121.273 74.5398 123.162 72.2752C125.393 69.2076 127.694 67.6738 130.063 67.6738C130.3 67.6816 130.531 67.7417 130.742 67.8498C130.952 67.9579 131.136 68.1114 131.28 68.2991C131.61 68.6648 131.798 69.1371 131.809 69.6298C131.809 71.0728 130.741 72.815 128.606 74.8565C127.026 76.4429 125.149 77.7015 123.082 78.5601C122.793 79.5124 122.631 80.4991 122.602 81.4941C122.602 83.4073 123.461 84.3586 125.18 84.3479C127.172 84.2227 129.086 83.5209 130.688 82.3278C132.383 81.2295 133.909 79.89 135.219 78.3516C135.539 77.892 135.865 77.6569 136.196 77.6462C136.233 77.6408 136.271 77.6442 136.306 77.656C136.342 77.6678 136.374 77.6877 136.4 77.7141C136.427 77.7406 136.447 77.7729 136.458 77.8084C136.47 77.8439 136.473 77.8817 136.468 77.9188ZM129.695 70.5437C129.711 70.4305 129.701 70.3151 129.664 70.2066C129.628 70.0981 129.567 69.9996 129.487 69.9187C129.406 69.8378 129.307 69.7769 129.199 69.7407C129.091 69.7044 128.976 69.6939 128.862 69.71C128.169 69.71 127.144 70.7788 125.788 72.9165C124.873 74.2306 124.146 75.666 123.627 77.1813C125.043 76.5206 126.32 75.5956 127.389 74.4557C128.634 73.4992 129.461 72.0971 129.695 70.5437Z" fill="#212451"/>
<path d="M156.195 77.1499C156.162 77.575 156.018 77.9841 155.778 78.3363C152.576 83.595 149.299 86.2244 145.947 86.2244C143.3 86.2244 141.976 84.5517 141.976 81.2062C141.92 78.442 142.617 75.7147 143.994 73.318C140.173 76.9282 136.821 81.0059 134.018 85.4548C133.741 85.8717 133.533 86.0801 133.394 86.0801C132.978 86.0801 132.77 85.6633 132.77 84.8296C132.761 84.6323 132.811 84.437 132.914 84.2684C134.176 80.9734 135.204 77.5926 135.988 74.1517C136.127 73.4035 136.361 72.3347 136.692 70.9452C136.916 70.531 137.255 70.1911 137.669 69.9672C138.079 69.6794 138.562 69.5127 139.062 69.4862C139.382 69.4862 139.542 69.6305 139.542 69.9031C139.542 70.1756 138.454 73.9112 136.34 80.5167C136.895 79.7685 138.635 77.7912 141.56 74.5846C142.531 73.5158 143.972 71.9125 145.883 69.7748C146.184 69.481 146.584 69.3096 147.004 69.2938C147.221 69.2648 147.442 69.2862 147.649 69.3565C147.857 69.4268 148.045 69.5441 148.2 69.6992C148.355 69.8543 148.472 70.043 148.542 70.2508C148.613 70.4585 148.634 70.6797 148.605 70.8971C148.586 71.1935 148.492 71.4803 148.333 71.7308C145.728 76.0062 144.426 79.4051 144.426 81.9276C144.426 83.6912 145.264 84.573 146.94 84.573C148.536 84.4464 150.027 83.7257 151.119 82.5529C152.325 81.4216 153.399 80.1577 154.321 78.7852C154.751 78.035 155.29 77.354 155.922 76.7651C156.115 76.733 156.195 76.8613 156.195 77.1499Z" fill="#212451"/>
<path d="M182.742 77.7751C182.751 77.9277 182.699 78.0776 182.598 78.1919C181.436 79.8199 180.128 81.3386 178.691 82.7292C176.695 84.589 175.024 85.5189 173.679 85.5189C171.545 85.5189 170.477 83.098 170.477 78.2561C170.477 77.5079 170.477 76.6688 170.477 75.7389C168.176 78.0905 166.268 80.7972 164.825 83.7553C164.131 85.0593 163.363 85.7113 162.519 85.7113C162.401 85.7196 162.282 85.6991 162.174 85.6517C162.065 85.6042 161.969 85.5312 161.895 85.4388C161.741 84.7986 161.671 84.1411 161.687 83.4828C161.819 81.0008 162.124 78.5311 162.599 76.0917C162.836 74.9384 162.996 73.7708 163.08 72.5965C163.08 72.2278 163.08 72.0354 162.872 72.0354C161.474 73.4404 160.194 74.9579 159.045 76.5726C157.134 79.0844 155.09 82.0398 152.912 85.4388C152.635 85.8556 152.4 86.064 152.208 86.064C151.834 86.064 151.647 85.6472 151.647 84.8135C151.618 84.6276 151.618 84.4382 151.647 84.2523C152.984 80.8017 154.055 77.2534 154.85 73.6386C154.946 72.9866 155.133 72.0567 155.41 70.8489C155.597 70.4194 155.932 70.0721 156.355 69.8709C156.758 69.593 157.228 69.4271 157.716 69.39C158.036 69.39 158.196 69.5343 158.196 69.8068C158.196 70.0794 157.107 73.815 154.994 80.4205L160.15 73.5104L162.663 70.1595C162.921 69.7966 163.259 69.4979 163.65 69.2866C164.042 69.0753 164.477 68.9571 164.921 68.941C165.668 68.941 166.042 69.3579 166.042 70.1916C165.968 71.3987 165.807 72.5988 165.562 73.7829C165.231 75.5786 164.857 78.1973 164.441 81.639C165.743 79.7792 167.766 77.059 170.509 73.4783C170.76 73.1068 171.09 72.7951 171.474 72.5652C171.859 72.3352 172.289 72.1927 172.735 72.1476C173.429 72.1476 173.776 72.5912 173.776 73.4783C173.738 74.5916 173.62 75.7007 173.423 76.7971C173.226 77.8934 173.108 79.0025 173.071 80.1159C173.071 82.5315 173.701 83.7393 174.96 83.7393C176.722 83.7393 178.974 81.7833 181.717 77.8713C181.99 77.4063 182.23 77.1659 182.422 77.1659C182.614 77.1659 182.742 77.3582 182.742 77.7751ZM175.697 64.7886C169.837 63.3884 165.54 63.4578 162.808 64.997C162.271 65.31 161.837 65.7723 161.559 66.3277C161.402 66.7533 161.332 67.2055 161.35 67.6584C161.374 68.0855 161.303 68.5126 161.142 68.909L160.87 69.1174C160.4 69.4381 160.203 69.1014 160.278 68.1073C160.315 67.2208 160.538 66.3521 160.934 65.5581C161.405 64.4811 162.254 63.6142 163.32 63.1212C165.782 61.8448 168.577 61.3578 171.326 61.7263C172.158 61.7263 174.971 62.1218 179.764 62.9127C182.689 63.4258 184.615 63.4258 185.544 62.9127C186.061 62.6316 186.476 62.1938 186.729 61.6622C186.981 61.1672 187.044 60.5969 186.905 60.0589C186.817 59.8483 186.771 59.6221 186.771 59.3935C186.771 59.165 186.817 58.9388 186.905 58.7282H187.049C187.423 58.493 187.599 58.958 187.578 60.123C187.607 61.0052 187.455 61.8839 187.129 62.7043C186.635 63.8077 185.869 64.7675 184.904 65.494C183.153 66.2018 181.222 66.3255 179.396 65.8467C178.881 65.6546 178.342 65.5359 177.794 65.494C177.07 65.3603 176.369 65.1227 175.713 64.7886H175.697Z" fill="#212451"/>
<path d="M140.423 182.773C140.336 183.164 140.154 183.527 139.895 183.832C136.511 189.176 133.73 191.848 131.552 191.848C129.983 191.848 128.115 189.518 125.948 184.858C125.489 185.21 123.936 186.691 121.289 189.299C119.977 190.699 118.57 192.006 117.078 193.211C117.037 193.216 116.995 193.212 116.956 193.198C116.916 193.185 116.881 193.163 116.851 193.133C116.822 193.104 116.8 193.068 116.786 193.029C116.773 192.989 116.768 192.947 116.774 192.906C116.774 192.5 118.065 190.982 120.648 188.353C123.477 185.467 125.046 183.794 125.356 183.335C125.049 182.117 124.535 180.962 123.835 179.92C123.397 181.014 122.821 182.049 122.122 182.998C121.14 184.494 120.494 185.242 120.184 185.242C119.88 185.242 119.736 185.066 119.736 184.713C119.736 184.713 120.125 184.04 120.905 182.693C121.579 181.715 121.983 180.576 122.074 179.391C122.074 179.391 122.074 178.942 121.849 178.172C121.821 178.1 121.821 178.02 121.849 177.948C121.849 177.082 122.661 176.649 124.283 176.649C125.041 176.649 125.852 177.306 126.717 178.621C127.351 179.569 127.812 180.622 128.078 181.731C128.174 181.731 129.818 180.518 133.01 178.092C134.369 176.923 135.903 175.976 137.557 175.286C137.765 175.286 137.861 175.286 137.861 175.511C136.659 176.856 135.28 178.031 133.762 179.006C131.978 180.251 130.326 181.674 128.83 183.254C129.332 184.419 129.866 185.611 130.432 186.83C131.19 188.401 132.022 189.187 132.929 189.187C134.093 189.187 135.534 188.086 137.253 185.884C138.971 183.682 139.98 182.581 140.279 182.581C140.32 182.594 140.356 182.62 140.381 182.654C140.407 182.689 140.422 182.73 140.423 182.773Z" fill="#212451"/>
<path d="M175.008 168.585C174.936 170.646 174.129 172.614 172.734 174.132C171.328 175.661 169.808 177.082 168.187 178.381C167.888 178.637 165.358 180.358 160.598 183.543C156.499 186.333 154.401 187.936 154.305 188.353H156.434C157.395 188.353 158.126 188.353 158.628 188.353C161.969 188.353 164.243 188.834 165.449 189.796C165.555 189.861 165.645 189.95 165.712 190.056C165.778 190.161 165.82 190.281 165.833 190.405C165.836 190.435 165.832 190.465 165.821 190.494C165.811 190.522 165.794 190.548 165.773 190.569C165.752 190.591 165.726 190.607 165.698 190.617C165.669 190.628 165.639 190.632 165.609 190.63C165.426 190.61 165.248 190.561 165.081 190.485C163.605 189.676 161.959 189.231 160.277 189.187C156.901 189.335 153.57 190.028 150.414 191.239C147.842 192.094 146.603 192.527 146.699 192.537C146.198 192.537 145.947 192.083 145.947 191.175C145.947 190.619 147.11 189.935 149.437 189.122C151.485 188.307 153.452 187.304 155.314 186.124C159.09 183.783 162.643 181.1 165.929 178.108C170.936 173.704 173.439 170.337 173.439 168.007C173.502 167.601 173.47 167.185 173.345 166.792C173.219 166.4 173.004 166.043 172.717 165.749C172.429 165.454 172.077 165.231 171.688 165.097C171.299 164.964 170.884 164.922 170.477 164.977C167.093 164.977 162.695 168.269 157.283 174.853C157.226 174.943 157.148 175.018 157.056 175.071C156.964 175.124 156.861 175.154 156.755 175.158C156.499 175.158 156.37 175.014 156.37 174.709V174.565C157.142 172.158 158.62 170.04 160.614 168.488C162.364 166.701 164.524 165.369 166.906 164.608C168 164.367 169.116 164.238 170.237 164.224C173.418 164.245 175.008 165.699 175.008 168.585Z" fill="#212451"/>
<path d="M143.881 134.563C143.794 134.954 143.613 135.317 143.353 135.621C139.969 140.966 137.189 143.638 135.011 143.638C133.442 143.638 131.574 141.308 129.407 136.648C128.948 137 127.395 138.481 124.747 141.089C123.436 142.488 122.029 143.796 120.536 145.001C120.495 145.006 120.453 145.002 120.414 144.988C120.375 144.975 120.339 144.952 120.31 144.923C120.28 144.894 120.258 144.858 120.245 144.818C120.231 144.779 120.227 144.737 120.232 144.696C120.232 144.29 121.524 142.772 124.107 140.143C126.936 137.257 128.505 135.584 128.814 135.124C128.508 133.907 127.993 132.751 127.293 131.709C126.842 132.766 126.261 133.762 125.564 134.676C124.582 136.172 123.936 136.92 123.627 136.92C123.322 136.92 123.178 136.744 123.178 136.391C123.178 136.391 123.568 135.718 124.347 134.371C125.022 133.393 125.425 132.253 125.516 131.068C125.516 131.068 125.516 130.619 125.292 129.85C125.263 129.778 125.263 129.697 125.292 129.625C125.292 128.759 126.103 128.327 127.726 128.327C128.484 128.327 129.295 128.984 130.159 130.299C130.794 131.246 131.255 132.3 131.52 133.409C131.616 133.409 133.26 132.196 136.452 129.77C137.787 128.638 139.289 127.718 140.903 127.044C141.111 127.044 141.208 127.044 141.208 127.268C140.005 128.613 138.626 129.789 137.109 130.764C135.325 132.008 133.672 133.432 132.177 135.012C132.679 136.177 133.212 137.369 133.778 138.588C134.536 140.159 135.369 140.944 136.276 140.944C137.439 140.944 138.88 139.843 140.599 137.642C142.318 135.44 143.326 134.339 143.625 134.339C143.658 134.331 143.692 134.331 143.724 134.339C143.756 134.347 143.786 134.363 143.812 134.385C143.837 134.407 143.856 134.434 143.868 134.465C143.88 134.496 143.885 134.53 143.881 134.563Z" fill="#212451"/>
<path d="M168.123 117.039V117.183C166.166 119.991 164.369 122.908 162.744 125.921C159.861 131.03 157.31 136.016 155.09 140.88C154.631 142.045 153.9 143.765 152.896 146.042C152.79 146.192 152.56 146.267 152.208 146.267C151.856 146.267 151.679 146.117 151.679 145.818C151.66 145.69 151.66 145.56 151.679 145.433L157.284 133.44C159.418 128.727 161.11 124.676 162.359 121.287C161.99 121.332 161.644 121.489 161.367 121.736C161.11 121.969 160.794 122.124 160.454 122.185C160.246 122.185 160.15 122.057 160.15 121.801C160.206 121.441 160.394 121.115 160.678 120.887C161.895 119.722 163.715 118.028 166.138 115.804C166.264 115.775 166.396 115.775 166.522 115.804C166.899 115.833 167.257 115.978 167.547 116.221C167.699 116.304 167.83 116.421 167.93 116.563C168.03 116.705 168.096 116.868 168.123 117.039Z" fill="#212451"/>
<path d="M140.423 231.32C140.336 231.711 140.154 232.074 139.895 232.378C136.511 237.723 133.73 240.395 131.552 240.395C129.983 240.395 128.115 238.065 125.948 233.405C125.489 233.757 123.936 235.238 121.289 237.846C119.977 239.245 118.57 240.553 117.078 241.758C117.037 241.763 116.995 241.759 116.956 241.745C116.916 241.732 116.881 241.709 116.851 241.68C116.822 241.651 116.8 241.615 116.786 241.575C116.773 241.536 116.768 241.494 116.774 241.453C116.774 241.047 118.065 239.529 120.648 236.9C123.477 234.014 125.046 232.341 125.356 231.881C125.049 230.664 124.535 229.508 123.835 228.466C123.397 229.561 122.821 230.596 122.122 231.545C121.14 233.041 120.494 233.789 120.184 233.789C119.88 233.789 119.736 233.613 119.736 233.26C119.736 233.26 120.125 232.587 120.905 231.24C121.579 230.262 121.983 229.122 122.074 227.937C122.074 227.937 122.074 227.488 121.849 226.719C121.821 226.647 121.821 226.567 121.849 226.494C121.849 225.629 122.661 225.196 124.283 225.196C125.041 225.196 125.852 225.853 126.717 227.168C127.351 228.116 127.812 229.169 128.078 230.278C128.174 230.278 129.818 229.065 133.01 226.639C134.369 225.47 135.903 224.523 137.557 223.833C137.765 223.833 137.861 223.833 137.861 224.057C136.659 225.402 135.28 226.578 133.762 227.553C131.978 228.798 130.326 230.221 128.83 231.801C129.332 232.966 129.866 234.158 130.432 235.377C131.19 236.948 132.022 237.733 132.929 237.733C134.093 237.733 135.534 236.632 137.253 234.431C138.971 232.229 139.98 231.128 140.279 231.128C140.32 231.141 140.356 231.167 140.381 231.201C140.407 231.236 140.422 231.277 140.423 231.32Z" fill="#212451"/>
<path d="M164.617 213.781V213.925C162.659 216.733 160.863 219.65 159.237 222.663C156.355 227.772 153.803 232.758 151.583 237.622C151.124 238.787 150.393 240.508 149.389 242.784C149.283 242.934 149.053 243.009 148.701 243.009C148.349 243.009 148.173 242.859 148.173 242.56C148.153 242.432 148.153 242.302 148.173 242.175L153.777 230.183C155.912 225.469 157.603 221.418 158.852 218.03C158.484 218.075 158.137 218.231 157.86 218.479C157.604 218.711 157.287 218.867 156.947 218.928C156.739 218.928 156.643 218.799 156.643 218.543C156.699 218.183 156.887 217.857 157.171 217.629C158.388 216.464 160.208 214.77 162.631 212.546C162.758 212.517 162.889 212.517 163.015 212.546C163.392 212.575 163.75 212.721 164.04 212.963C164.192 213.047 164.323 213.164 164.423 213.305C164.523 213.447 164.589 213.61 164.617 213.781Z" fill="#212451"/>
<path d="M140.423 278.537C140.336 278.927 140.154 279.291 139.895 279.595C136.511 284.939 133.73 287.611 131.552 287.611C129.983 287.611 128.115 285.281 125.948 280.621C125.489 280.974 123.936 282.454 121.289 285.062C119.977 286.462 118.57 287.769 117.078 288.974C117.037 288.979 116.995 288.975 116.956 288.961C116.916 288.948 116.881 288.926 116.851 288.896C116.822 288.867 116.8 288.831 116.786 288.792C116.773 288.752 116.768 288.711 116.774 288.669C116.774 288.263 118.065 286.745 120.648 284.116C123.477 281.23 125.046 279.557 125.356 279.098C125.049 277.88 124.535 276.725 123.835 275.683C123.397 276.778 122.821 277.812 122.122 278.761C121.14 280.257 120.494 281.006 120.184 281.006C119.88 281.006 119.736 280.829 119.736 280.477C119.736 280.477 120.125 279.803 120.905 278.456C121.579 277.478 121.983 276.339 122.074 275.154C122.074 275.154 122.074 274.705 121.849 273.935C121.821 273.863 121.821 273.783 121.849 273.711C121.849 272.845 122.661 272.412 124.283 272.412C125.041 272.412 125.852 273.069 126.717 274.384C127.351 275.332 127.812 276.385 128.078 277.494C128.174 277.494 129.818 276.281 133.01 273.855C134.333 272.661 135.835 271.681 137.461 270.953C137.669 270.953 137.765 270.953 137.765 271.178C136.563 272.523 135.184 273.698 133.666 274.673C131.886 275.934 130.239 277.373 128.75 278.97C129.252 280.135 129.786 281.326 130.352 282.545C131.109 284.116 131.942 284.902 132.849 284.902C134.013 284.902 135.454 283.801 137.173 281.599C138.891 279.397 139.9 278.296 140.199 278.296C140.23 278.293 140.262 278.298 140.292 278.309C140.321 278.32 140.348 278.338 140.37 278.361C140.391 278.385 140.407 278.413 140.417 278.443C140.426 278.473 140.428 278.505 140.423 278.537Z" fill="#212451"/>
<path d="M164.617 260.997V261.141C162.659 263.949 160.863 266.866 159.237 269.879C156.355 274.988 153.803 279.974 151.583 284.838C151.124 286.003 150.393 287.723 149.389 290C149.283 290.15 149.053 290.225 148.701 290.225C148.349 290.225 148.173 290.075 148.173 289.776C148.153 289.648 148.153 289.518 148.173 289.391L153.713 277.366C155.848 272.653 157.539 268.602 158.788 265.213C158.42 265.258 158.073 265.415 157.796 265.662C157.552 265.901 157.247 266.068 156.915 266.143C156.707 266.143 156.611 266.015 156.611 265.759C156.667 265.399 156.855 265.073 157.139 264.845C158.356 263.68 160.176 261.986 162.599 259.762C162.726 259.733 162.857 259.733 162.983 259.762C163.36 259.791 163.718 259.936 164.008 260.179C164.166 260.259 164.303 260.374 164.409 260.516C164.515 260.658 164.586 260.823 164.617 260.997Z" fill="#212451"/>
<path d="M51.9419 101.006C57.5841 100.18 63.2652 99.6445 68.9624 99.4031C74.6305 99.1145 80.3147 98.9221 85.9829 99.0504C91.651 99.1786 97.3512 99.6917 103.019 99.7237C108.688 99.7558 114.372 99.4031 120.088 98.9862C125.804 98.5694 131.424 98.2006 137.108 98.0243C142.793 97.8479 148.477 97.6074 154.177 97.7036C159.903 97.8149 165.618 98.2593 171.293 99.0343C176.962 99.8039 182.502 100.91 188.106 102.241V102.594C182.406 102.465 176.721 102.129 171.085 101.888C165.449 101.648 159.877 101.551 154.177 101.567L137.188 101.455C131.504 101.455 125.836 101.263 120.152 100.99C114.468 100.718 108.8 100.638 103.115 100.83C97.4313 101.022 91.7791 101.68 86.0949 101.984C80.4108 102.289 74.7426 102.241 69.0585 102.129C63.3743 102.016 57.7542 101.888 52.022 101.359L51.9419 101.006Z" fill="#212451"/>
</g>
<defs>
<clipPath id="clip0">
<rect width="240" height="325" fill="white"/>
</clipPath>
</defs>
</svg>
