<svg width="377" height="343" viewBox="0 0 377 343" fill="none" xmlns="http://www.w3.org/2000/svg">
<g clip-path="url(#clip0)">
<path d="M200.982 113.661L215.468 121.651L209.386 184.742L175.539 184.077L178.859 115.476L187.099 114.875L200.982 113.661Z" fill="#4488B7"/>
<path d="M187.274 108.861C191.04 108.495 194.66 107.242 197.826 105.21C199.657 104.096 201.371 102.809 202.943 101.365L201.782 108.496L201.245 111.782L200.938 113.694C190.539 119.514 187.055 114.907 187.055 114.907V108.893L187.274 108.861Z" fill="#EDA983"/>
<path d="M177.566 81.4878C177.873 80.1454 178.19 78.7923 178.508 77.4607C189.783 77.7829 198.473 72.0912 203.59 74.3464C206.461 75.5921 206.877 81.0797 208.29 82.1429C209.704 83.206 208.367 83.9363 208.685 84.2907C207.414 93.0752 211.457 88.0601 211.512 88.0601C216.443 88.6507 212.137 93.6873 210.416 96.7479C209.887 97.622 209.093 98.3128 208.144 98.7246C207.196 99.1364 206.14 99.2488 205.124 99.046C204.444 99.85 203.712 100.61 202.932 101.323C201.367 102.792 199.656 104.105 197.826 105.242C194.66 107.275 191.04 108.528 187.274 108.894C184.655 109.11 182.035 108.504 179.79 107.165C173.621 103.363 175.089 92.4094 177.566 81.4878Z" fill="#FFCFA4"/>
<path d="M183.121 98.2617L195.174 98.498L189.696 102.053C188.074 103.126 184.217 103.706 183.231 102.053L183.121 98.2617Z" fill="white"/>
<path d="M185.839 96.6505C186.062 96.6741 186.287 96.6231 186.477 96.5059C186.667 96.3886 186.811 96.2119 186.886 96.0044C186.961 95.7969 186.962 95.5707 186.889 95.3625C186.816 95.1543 186.674 94.9762 186.485 94.8571C185.578 94.3429 184.761 93.6904 184.064 92.9241C186.934 91.8502 188.556 88.2204 188.633 88.0593C188.706 87.8292 188.689 87.5808 188.587 87.3618C188.484 87.1428 188.303 86.9686 188.077 86.8727C187.852 86.7768 187.598 86.766 187.365 86.8423C187.132 86.9186 186.935 87.0766 186.814 87.2861C186.419 88.1667 185.039 90.5078 183.362 91.0984C183.01 91.1763 182.69 91.3562 182.444 91.6148C182.198 91.8734 182.037 92.1986 181.982 92.5482C181.795 94.0839 184.064 95.7162 185.433 96.5538C185.56 96.6143 185.698 96.6473 185.839 96.6505Z" fill="#EDA983"/>
<path d="M208.017 96.651C208.224 96.6788 208.435 96.6412 208.619 96.5436C211.808 94.8361 211.446 92.248 211.424 92.1406C211.363 91.908 211.215 91.7059 211.011 91.573C210.806 91.4401 210.559 91.3857 210.316 91.4203C210.074 91.4549 209.852 91.5759 209.695 91.7603C209.537 91.9447 209.455 92.1795 209.463 92.4198C209.463 92.5057 209.562 93.8159 207.666 94.8361C207.486 94.9371 207.343 95.0906 207.256 95.2751C207.169 95.4597 207.143 95.6662 207.182 95.8659C207.22 96.0656 207.322 96.2485 207.471 96.3892C207.621 96.5299 207.812 96.6214 208.017 96.651Z" fill="#EDA983"/>
<path d="M194.078 87.6834C194.078 87.5474 194.107 87.4129 194.164 87.2889C194.22 87.1648 194.303 87.054 194.407 86.9639C194.524 86.8688 194.663 86.8026 194.812 86.7709C194.961 86.7391 195.115 86.7427 195.262 86.7813C195.262 86.7813 195.339 86.7813 195.382 86.7813C195.426 86.7813 195.47 86.7813 195.514 86.835C196.049 86.7652 196.568 86.6054 197.048 86.3625C197.281 86.2896 197.534 86.3035 197.758 86.4015C197.981 86.4995 198.16 86.6747 198.26 86.8937C198.361 87.1128 198.375 87.3603 198.301 87.5891C198.227 87.818 198.07 88.0121 197.859 88.1344C197.402 88.3371 196.93 88.5023 196.445 88.6284C196.445 88.6284 196.445 88.7036 196.445 88.7358C196.325 89.7345 195.634 90.4755 194.922 90.3896C194.21 90.3037 193.728 89.4231 193.826 88.4244C193.87 88.1658 193.955 87.9157 194.078 87.6834Z" fill="#454240"/>
<path d="M179.187 85.3749C179.383 85.2022 179.64 85.1121 179.902 85.1241C180.165 85.1362 180.412 85.2495 180.59 85.4393C180.807 85.6773 181.042 85.8998 181.291 86.1051C181.505 85.9197 181.784 85.8234 182.069 85.8366C182.781 85.9225 183.264 86.8031 183.165 87.8019C183.066 88.8006 182.354 89.5416 181.642 89.4557C180.93 89.3698 180.645 88.7576 180.546 87.9737C180.013 87.6358 179.53 87.2275 179.111 86.7602C179.022 86.6645 178.954 86.5527 178.91 86.4311C178.867 86.3095 178.848 86.1807 178.855 86.0519C178.862 85.9231 178.895 85.797 178.952 85.6808C179.009 85.5646 179.089 85.4606 179.187 85.3749Z" fill="#454240"/>
<path d="M194.408 83.7642C194.665 83.7955 194.925 83.7261 195.131 83.5709C197.607 81.7345 200.675 83.9789 200.807 84.0756C201.017 84.2201 201.276 84.2795 201.53 84.2417C201.783 84.2038 202.012 84.0714 202.169 83.8722C202.326 83.6729 202.398 83.4221 202.371 83.172C202.344 82.9218 202.219 82.6916 202.023 82.5292C201.848 82.4003 197.64 79.3075 193.936 82.0137C193.781 82.1321 193.665 82.2928 193.603 82.4755C193.541 82.6582 193.535 82.8549 193.587 83.0408C193.638 83.2267 193.745 83.3935 193.893 83.5203C194.041 83.6471 194.224 83.7282 194.418 83.7534L194.408 83.7642Z" fill="#C17530"/>
<path d="M179.1 82.5506C179.317 82.5758 179.536 82.5306 179.725 82.4217C179.834 82.3573 182.606 80.8001 183.79 82.6365C183.935 82.8544 184.163 83.0067 184.423 83.0601C184.683 83.1135 184.954 83.0635 185.176 82.9211C185.398 82.7786 185.554 82.5555 185.608 82.3008C185.663 82.046 185.612 81.7805 185.466 81.5626C183.691 78.8134 180.272 79.8014 178.705 80.7142C178.529 80.819 178.39 80.9748 178.308 81.1602C178.226 81.3455 178.204 81.5513 178.246 81.7492C178.288 81.9471 178.392 82.1273 178.543 82.2651C178.694 82.4028 178.885 82.4913 179.089 82.5183L179.1 82.5506Z" fill="#C17530"/>
<path d="M177.796 64.5415C179.231 64.9603 194.44 62.9199 205.507 64.1442C205.507 60.7292 206.493 56.6269 211.446 56.2833C220.124 55.6174 236.517 69.911 227.652 73.8307C224.595 75.1838 221.615 77.0524 218.886 78.2337C218.656 91.7648 206.953 107.229 202.538 104.383L203.031 101.344C203.81 100.632 204.542 99.8713 205.222 99.0673C206.239 99.27 207.294 99.1577 208.243 98.7459C209.191 98.3341 209.985 97.6432 210.515 96.7691C212.235 93.7085 216.53 88.672 211.61 88.0813C211.545 87.9954 207.512 93.0642 208.783 84.312C208.466 83.9361 209.693 83.1307 208.389 82.1642C207.085 81.1977 206.57 75.6134 203.688 74.3677C198.571 72.1447 189.882 77.8041 178.607 77.482C178.289 78.8136 177.971 80.1667 177.664 81.5091C172.361 79.9734 172.01 62.8662 177.796 64.5415Z" fill="#E5913E"/>
<path d="M146.841 319.699H176.064V323.458H146.841V319.699Z" fill="#6B767C"/>
<path d="M175.539 307.35L176.064 319.699H146.808C146.808 319.699 146.173 313.707 153.196 312.536C160.22 311.366 161.327 311.817 166.805 307.35H175.539Z" fill="#EFC44F"/>
<path d="M163.003 310.109C163.003 310.109 172.142 313.696 167.759 314.061C166.422 314.131 165.087 313.91 163.848 313.414C162.609 312.918 161.497 312.16 160.592 311.194L163.003 310.109Z" fill="#6B767C"/>
<path d="M204.728 314.293L222.239 292.16L225.2 294.411L207.689 316.544L204.728 314.293Z" fill="#6B767C"/>
<path d="M212.181 285.151L222.229 292.164L204.697 314.297C204.697 314.297 199.579 311.183 202.878 305.169C206.176 299.155 207.184 298.586 206.943 291.756L212.181 285.151Z" fill="#EFC44F"/>
<path d="M206.833 296.31C206.833 296.31 215.139 291.542 212.794 295.075C212.047 296.132 211.07 297.014 209.933 297.656C208.796 298.299 207.528 298.686 206.22 298.791L206.833 296.31Z" fill="#6B767C"/>
<path d="M178.442 237.246C178.103 240.242 177.982 244.376 179.713 245.644L181.357 237.772C186.073 238.474 190.865 238.549 195.602 237.997C193.049 246.041 190.572 253.784 189.597 256.683C189.377 257.36 189.216 258.053 189.115 258.756L212.125 285.141L206.954 291.735L187.23 274.467C187 275.444 186.759 276.454 186.452 277.538C184.535 284.454 178.782 293.647 175.495 307.339H166.794L176.064 262.901L175.495 262.794C175.495 262.794 162.072 251.185 163.989 237.557C164.274 235.56 164.515 233.927 164.734 232.563C166.685 233.401 168.876 234.282 171.364 235.205C173.668 236.056 176.034 236.738 178.442 237.246Z" fill="#FFCFA4"/>
<path d="M150.764 220.364L175.538 184.077L209.386 184.754L221.253 229.32C213.445 233.987 204.704 236.953 195.623 238.019C190.886 238.571 186.095 238.495 181.379 237.793C180.414 237.65 179.443 237.475 178.464 237.267C176.071 236.762 173.72 236.083 171.429 235.238C168.942 234.314 166.74 233.433 164.8 232.596C146.293 224.606 150.764 220.364 150.764 220.364Z" fill="#4488B7"/>
<path d="M199.645 191.583L202.932 114.768L209.266 118.247L208.915 124.851C203.206 136.041 202.954 167.968 202.954 167.968L206.472 170.975L205.442 190.467H230.534L222.174 156.338C222.564 153.762 222.806 151.166 222.897 148.563C223.016 145.613 222.862 142.658 222.437 139.736L236.144 190.467H236.528C237.812 190.467 239.044 190.967 239.953 191.857C240.861 192.747 241.371 193.954 241.371 195.213V217.411C241.371 218.67 240.861 219.877 239.953 220.767C239.044 221.657 237.812 222.157 236.528 222.157H202.691C201.407 222.157 200.175 221.657 199.267 220.767C198.358 219.877 197.848 218.67 197.848 217.411V195.213C197.855 194.516 198.02 193.828 198.33 193.2C198.641 192.573 199.09 192.02 199.645 191.583Z" fill="#EFC44F"/>
<path d="M208.948 124.851C210.614 121.629 212.739 120.072 215.468 121.629C215.468 121.629 220.749 128.309 222.426 139.714C222.852 142.637 223.006 145.591 222.886 148.541C222.795 151.144 222.554 153.74 222.163 156.316C221.017 163.804 218.159 170.94 213.802 177.193L206.494 170.943L202.976 167.936C202.976 167.936 203.239 136.041 208.948 124.851Z" fill="#62A5D2"/>
<path d="M199.623 193.871C199.509 194.946 199.625 196.033 199.965 197.061C200.305 198.089 200.86 199.036 201.595 199.842C203.053 201.487 204.835 202.827 206.833 203.783C208.791 204.763 210.873 205.485 213.024 205.931C215.165 206.349 217.339 206.575 219.522 206.607C223.915 206.651 228.258 205.696 232.21 203.815C234.209 202.86 235.99 201.519 237.448 199.874C238.183 199.069 238.739 198.121 239.078 197.093C239.418 196.065 239.535 194.978 239.42 193.903C239.011 195.841 237.902 197.568 236.298 198.768C234.752 199.951 233.02 200.879 231.17 201.517C227.424 202.788 223.485 203.42 219.522 203.386C215.554 203.43 211.609 202.798 207.863 201.517C206.013 200.879 204.281 199.951 202.735 198.768C201.127 197.559 200.021 195.819 199.623 193.871Z" fill="#CCA119"/>
<path d="M218.481 211.858C216.539 211.858 214.964 210.315 214.964 208.411C214.964 206.507 216.539 204.964 218.481 204.964C220.424 204.964 221.999 206.507 221.999 208.411C221.999 210.315 220.424 211.858 218.481 211.858Z" fill="white"/>
<path d="M163.181 118.859C160.014 116.604 159.311 112.259 161.613 109.154C163.914 106.05 168.348 105.362 171.515 107.617C174.683 109.873 175.385 114.218 173.084 117.322C170.782 120.427 166.349 121.115 163.181 118.859Z" fill="#E5913E"/>
<path d="M147.466 104.168C148.034 103.397 148.758 102.748 149.593 102.262C150.427 101.776 151.355 101.464 152.318 101.344C153.281 101.224 154.259 101.299 155.191 101.564C156.123 101.83 156.99 102.28 157.737 102.887C158.485 103.494 159.097 104.245 159.536 105.094C159.975 105.943 160.231 106.87 160.29 107.82C160.348 108.77 160.206 109.721 159.874 110.615C159.541 111.509 159.025 112.326 158.357 113.017C154.128 109.559 149.69 107.583 146.151 107.486C146.286 106.287 146.739 105.143 147.466 104.168Z" fill="#81C110"/>
<path d="M141.548 108.926C142.848 107.9 144.497 107.397 146.162 107.519C149.701 107.616 154.128 109.602 158.368 113.049C159.939 114.319 161.404 115.709 162.751 117.205C167.572 122.575 170.29 128.621 170.421 133.164C164.471 135.773 144.474 129.706 139.521 113.833C139.499 112.923 139.668 112.018 140.017 111.174C140.365 110.33 140.887 109.565 141.548 108.926Z" fill="#685031"/>
<path d="M139.445 113.833C144.398 129.694 164.395 135.751 170.345 133.163C170.45 134.205 170.317 135.256 169.955 136.241C169.593 137.225 169.011 138.118 168.252 138.855C163.946 142.538 154.479 138.855 147.104 130.564C142.02 124.862 139.259 118.483 139.445 113.833Z" fill="#544023"/>
<path d="M158.127 118.129C155.944 116.62 153.461 115.577 150.84 115.068C148.444 114.577 145.982 114.479 143.553 114.779" fill="#82725E"/>
<path d="M162.148 123.036C159.965 121.527 157.483 120.484 154.862 119.976C152.466 119.485 150.004 119.387 147.575 119.686" fill="#82725E"/>
<path d="M166.061 128.278C163.877 126.768 161.395 125.725 158.774 125.217C156.378 124.726 153.916 124.628 151.487 124.927" fill="#82725E"/>
<path d="M144.792 128.857L178.048 132.283L174.454 188.008L145.471 182.595L144.792 128.857Z" fill="#DCB57E"/>
<path d="M192.862 129.576L187.318 172.908L187.077 179.609L174.454 188.007L178.048 132.282L192.862 129.576Z" fill="#B28D60"/>
<path d="M178.859 169.439C178.311 169.095 173.139 162.598 170.531 162.061C167.923 161.524 161.765 162.867 161.765 162.867C161.717 164.205 162.051 165.53 162.728 166.692C163.406 167.855 164.4 168.81 165.6 169.45C169.841 171.866 166.893 171.34 171.353 174.819C175.813 178.299 196.665 191.862 213.802 177.193L202.976 167.936C202.976 167.936 193.487 178.707 178.859 169.439Z" fill="#FFCFA4"/>
<path d="M151.772 129.577C151.772 129.577 157.119 97.4888 165.754 82.5723C167.441 79.6513 168.395 79.7265 168.833 81.7347C168.833 81.7347 166.05 116.626 158.358 130.264L151.772 129.577Z" fill="#FDCF60"/>
<path d="M163.814 130.811L158.335 130.253C166.005 116.625 168.81 81.7236 168.81 81.7236C170.64 89.9604 163.814 130.811 163.814 130.811Z" fill="#E3AA21"/>
<path d="M159.957 96.21C159.957 96.21 158.862 103.48 160.341 109.387L158.149 101.869L159.957 96.21Z" fill="#E3AA21"/>
<path d="M156.089 109.388C156.089 109.388 156.724 115.831 158.127 118.87L154.927 114.124L156.089 109.388Z" fill="#E3AA21"/>
<path d="M153.722 119.515C153.722 119.515 155.246 126.248 157.064 128.278L152.681 124.358L153.722 119.515Z" fill="#E3AA21"/>
<path d="M172.459 124.515C169.291 122.259 168.589 117.914 170.89 114.81C173.192 111.705 177.625 111.017 180.793 113.272C183.96 115.528 184.663 119.873 182.361 122.978C180.06 126.082 175.626 126.77 172.459 124.515Z" fill="#E84242"/>
<path d="M161.831 106.24C162.927 105.8 165.787 110.192 168.121 116.045C168.318 116.539 168.504 117.033 168.68 117.516C168.899 112.437 169.775 108.635 170.871 108.635C172.098 108.635 173.062 113.725 173.062 120.018C173.062 126.312 172.076 131.402 170.871 131.402C170.148 131.402 169.501 129.598 169.096 126.827C167.715 125.442 165.743 121.941 164.023 117.634C161.667 111.782 160.692 106.681 161.831 106.24Z" fill="#517F37"/>
<path d="M169.019 130.672C165.447 129.931 161.842 126.806 165.074 126.559C167.189 126.398 166.871 126.312 167.671 124.411C168.471 122.51 169.085 122.757 170.838 123.09C172.591 123.423 171.463 122.016 172.624 120.942C173.786 119.868 174.969 121.447 176.295 119.782C177.621 118.118 176.81 116.088 178.903 117.162C180.579 118.021 180.064 117.377 181.357 117.763C180.864 115.616 181.259 113.822 183.286 115.465C186.65 118.193 186.42 120.588 187.899 117.302C189.378 114.016 193.224 111.202 192.819 114.359C192.545 116.421 192.698 116.131 194.473 117.291C196.248 118.451 195.832 118.988 195.153 120.599C194.473 122.209 196.051 121.404 196.906 122.746C197.761 124.089 195.92 124.894 197.322 126.505C198.725 128.116 200.916 127.751 199.404 129.544C197.892 131.337 199.404 130.317 197.509 132.97C195.613 135.622 195.394 136.675 191.92 134.828C188.447 132.981 188.885 131.348 186.529 132.97C186.139 133.256 185.656 133.394 185.169 133.356C184.683 133.318 184.228 133.109 183.888 132.766C182.907 133.359 181.74 133.588 180.601 133.41C177.314 132.852 176.218 131.574 174.399 134.205C172.58 136.836 166.126 139.263 168.153 135.483C170.181 131.703 172.591 131.413 169.019 130.672Z" fill="#81C110"/>
<path d="M191.087 122.994C194.922 122.725 194.648 125.41 192.862 127.021C191.076 128.632 192.446 128.9 191.076 131.187C189.707 133.475 187.373 130.436 186.145 132.261C184.918 134.087 185.762 138.146 183.143 136.127C180.524 134.108 182.803 127.987 178.037 132.261C173.27 136.535 175.473 131.832 174.443 129.813C173.413 127.794 168.197 129.544 169.841 126.323C171.484 123.101 175.867 127.128 177.237 123.777C178.607 120.427 179.275 115.723 180.995 118.279C182.716 120.835 180.415 123.112 183.187 122.446C185.959 121.78 186.474 117.882 187.11 120.03C187.745 122.177 191.087 122.994 191.087 122.994Z" fill="#9FD545"/>
<path opacity="0.74" d="M313.783 317.63H333.833L332.883 314.179L324.672 303.024H314.107L313.783 317.63Z" fill="#7E6863"/>
<path opacity="0.74" d="M286.419 302.971V317.576H259.875C259.563 315.561 260.012 313.502 261.135 311.802C262.257 310.101 263.973 308.881 265.947 308.38C270.01 307.26 273.843 305.429 277.268 302.971H286.419Z" fill="#7E6863"/>
<path d="M252 76.7517C252.832 79.4672 254.571 83.6757 257.661 85.2228C260.275 86.5427 263.062 89.4745 265.007 91.8222C265.198 91.8103 265.384 91.7517 265.548 91.6515C265.712 91.5513 265.849 91.4124 265.947 91.2471C266.045 91.0817 266.101 90.8949 266.11 90.7029C266.12 90.5108 266.082 90.3194 266.001 90.1453L258.114 73.1599C257.888 72.6528 257.559 72.1985 257.148 71.8259C256.737 71.4533 256.253 71.1707 255.727 70.9962L249.72 69.0596C249.504 68.9877 249.272 68.9807 249.051 69.0395C248.831 69.0984 248.633 69.2204 248.482 69.3907C248.33 69.561 248.231 69.772 248.198 69.9977C248.165 70.2234 248.198 70.4539 248.294 70.6608L250.563 75.778C250.877 75.7557 251.189 75.8396 251.449 76.0161C251.71 76.1927 251.904 76.4517 252 76.7517Z" fill="#4488B7"/>
<path d="M265.039 91.8218C263.084 89.4741 260.307 86.5423 257.693 85.2224C254.614 83.6645 252.875 79.4668 252.032 76.7513C251.935 76.4455 251.736 76.1822 251.469 76.005C251.202 75.8279 250.882 75.7477 250.563 75.7776C250.373 75.7709 250.183 75.8046 250.006 75.8765C249.83 75.9484 249.671 76.0569 249.539 76.1948C249.407 76.3328 249.307 76.4971 249.243 76.6769C249.179 76.8567 249.154 77.048 249.169 77.2381C249.267 78.915 250.034 81.5656 252.14 85.6984L258.374 97.956L267.578 95.2189C267.578 95.2189 266.552 93.6935 265.039 91.8218Z" fill="#FFCFA4"/>
<path d="M326.617 59.8528C326.168 59.6869 325.691 59.6098 325.213 59.6256C325.137 59.5498 317.953 70.8878 318.115 62.0598C317.758 61.7244 322.739 54.9519 321.356 54.1189C319.973 53.2858 318.785 55.6227 315.846 54.7247C310.617 53.1235 302.85 51.9768 291.885 53.0586C291.734 54.4218 291.593 55.7958 291.463 57.1697C290.383 68.3022 290.308 79.3481 296.746 82.3448C299.089 83.4021 301.707 83.6863 304.222 83.1562C309.829 82.0744 315.209 77.8334 318.515 73.8413C319.183 73.0415 319.801 72.1995 320.362 71.3206C321.373 71.3985 322.384 71.1591 323.253 70.6357C324.122 70.1122 324.807 69.3306 325.213 68.3995C326.368 65.5218 329.253 60.9238 326.617 59.8528Z" fill="#FFCFA4"/>
<path d="M309.408 63.8774C310.112 63.8774 310.682 63.0588 310.682 62.0491C310.682 61.0393 310.112 60.2207 309.408 60.2207C308.704 60.2207 308.133 61.0393 308.133 62.0491C308.133 63.0588 308.704 63.8774 309.408 63.8774Z" fill="#454240"/>
<path d="M296.368 64.5483C297.072 64.5483 297.643 63.7297 297.643 62.72C297.643 61.7102 297.072 60.8916 296.368 60.8916C295.664 60.8916 295.093 61.7102 295.093 62.72C295.093 63.7297 295.664 64.5483 296.368 64.5483Z" fill="#454240"/>
<path opacity="0.74" d="M313.999 60.7942C313.999 60.7942 309.894 57.0401 307.625 57.3647C305.356 57.6892 309.786 54.8115 312.584 55.7851C315.382 56.7588 313.999 60.7942 313.999 60.7942Z" fill="#3D2520"/>
<path opacity="0.74" d="M292.263 59.9177C292.263 59.9177 296.195 57.5376 297.978 58.4896C299.76 59.4417 296.671 55.4604 294.218 55.5686C291.766 55.6768 292.263 59.9177 292.263 59.9177Z" fill="#3D2520"/>
<path d="M301.359 71.2226C301.218 71.2243 301.078 71.1948 300.949 71.136C299.512 70.4761 297.114 69.1237 297.103 67.5767C297.111 67.2212 297.227 66.8766 297.436 66.5886C297.644 66.3007 297.935 66.0831 298.27 65.9647C299.836 65.2182 300.884 62.7191 301.154 61.767C301.182 61.6353 301.236 61.5108 301.314 61.4013C301.392 61.2917 301.492 61.1996 301.608 61.1307C301.723 61.0617 301.851 61.0175 301.985 61.0007C302.118 60.984 302.253 60.9951 302.382 61.0333C302.511 61.0716 302.63 61.1362 302.733 61.223C302.836 61.3098 302.919 61.417 302.979 61.5378C303.038 61.6585 303.071 61.7903 303.077 61.9247C303.083 62.0591 303.061 62.1933 303.012 62.3188C303.012 62.481 301.792 66.3866 299.166 67.7281C299.935 68.4233 300.81 68.9895 301.759 69.405C301.956 69.5006 302.115 69.6599 302.211 69.8573C302.306 70.0547 302.332 70.2786 302.285 70.4926C302.237 70.7067 302.119 70.8984 301.949 71.0368C301.779 71.1752 301.568 71.2521 301.349 71.255L301.359 71.2226Z" fill="#EDA983"/>
<path d="M322.879 68.4966C322.674 68.4951 322.475 68.4288 322.309 68.3071C322.144 68.1853 322.022 68.0145 321.96 67.8188C321.897 67.6232 321.898 67.4129 321.963 67.2179C322.027 67.0229 322.151 66.8532 322.317 66.7331C324.056 65.4782 323.776 64.1799 323.765 64.1258C323.705 63.8764 323.746 63.6136 323.877 63.3934C324.008 63.1732 324.22 63.0129 324.467 62.9466C324.712 62.8801 324.973 62.9134 325.194 63.039C325.414 63.1647 325.576 63.3725 325.645 63.6173C325.645 63.7255 326.347 66.2463 323.484 68.3127C323.308 68.4397 323.095 68.5045 322.879 68.4966Z" fill="#EDA983"/>
<path d="M336.199 90.9238C334.644 89.4417 330.214 87.3645 318.147 85.6768V86.2501C308.759 93.2715 304.816 89.1171 304.816 89.1171L304.244 85.7525L301.381 85.8715C301.381 85.8715 285.997 90.9238 269.987 112.561L267.589 95.1323L258.384 97.8694C258.384 97.8694 248.391 145.353 269.015 135.151C285.068 127.21 287.618 123.348 287.952 122.028L292.047 152.59H313.394L312.875 151.509L323.981 147.506C324.298 147.391 324.639 147.356 324.972 147.405C325.306 147.455 325.622 147.586 325.893 147.787L327.881 149.258C331.236 139.399 333.914 129.321 335.897 119.096C339.754 122.709 342.865 126.02 343.783 128.584C348.104 140.733 330.031 150.87 330.031 150.87L332.299 160.607C332.299 160.607 357.384 158.011 366.124 136.579C374.864 115.147 336.199 90.9238 336.199 90.9238Z" fill="#DE5673"/>
<path d="M318.126 86.2503V85.677L318.547 73.7764C315.231 77.7685 309.905 82.0419 304.255 83.0913L303.844 83.3509L304.244 85.7094L304.817 89.074C304.817 89.074 308.738 93.2717 318.126 86.2503Z" fill="#EDA983"/>
<path d="M323.808 157.87L291.55 158.454C290.405 171.934 287.542 205.115 286.267 217.135C284.647 232.368 277.268 303.025 277.268 303.025H286.267C286.267 303.025 299.458 254.081 298.529 231.394L306.955 175.31H310.887C310.887 175.31 311.849 220.359 314.128 235.895C316.408 251.43 314.128 302.971 314.128 302.971H324.694C324.694 302.971 330.636 254.027 328.691 237.182C327.168 223.929 326.833 179.237 326.768 160.737C326.092 160.511 325.476 160.136 324.963 159.64C324.451 159.143 324.056 158.539 323.808 157.87Z" fill="#EEF3FF"/>
<path d="M330.031 150.936L327.87 149.335L325.883 147.863C325.612 147.662 325.295 147.531 324.962 147.482C324.628 147.433 324.288 147.467 323.97 147.582L312.865 151.585L313.383 152.667L314.464 154.83C314.715 155.343 315.091 155.784 315.558 156.113C316.024 156.442 316.565 156.648 317.132 156.713L323.679 157.47C323.708 157.598 323.744 157.725 323.787 157.849C324.028 158.52 324.416 159.129 324.922 159.631C325.429 160.133 326.041 160.514 326.714 160.748C328.532 161.289 330.474 161.248 332.267 160.629L330.031 150.936Z" fill="#FFCFA4"/>
<path d="M292.047 152.591L291.572 158.368C291.874 154.787 292.058 152.591 292.058 152.591H292.047Z" fill="#B57B2D"/>
<path d="M323.7 157.503L317.154 156.745C316.587 156.681 316.046 156.474 315.579 156.145C315.113 155.817 314.737 155.376 314.485 154.863L313.405 152.699H310.693L310.196 158.184L303.585 158.303L304.168 152.699H292.047C292.047 152.699 291.864 154.863 291.561 158.476L323.819 157.892C323.772 157.765 323.733 157.635 323.7 157.503Z" fill="#6A5E5C"/>
<path d="M310.185 158.119L310.682 152.645H304.146L303.563 158.238L310.185 158.119Z" fill="#FFF4E6"/>
<path d="M303.304 77.7145C303.015 77.7219 302.727 77.6711 302.458 77.5652C302.189 77.4593 301.944 77.3003 301.737 77.0978C301.68 77.0505 301.633 76.9918 301.599 76.9254C301.566 76.8591 301.546 76.7864 301.542 76.7122C301.538 76.6379 301.549 76.5635 301.574 76.4936C301.6 76.4238 301.64 76.36 301.691 76.3063C301.743 76.2526 301.805 76.2101 301.873 76.1814C301.942 76.1527 302.015 76.1385 302.09 76.1397C302.164 76.1409 302.237 76.1574 302.305 76.1883C302.373 76.2191 302.433 76.2635 302.483 76.3189C302.604 76.4374 302.751 76.5272 302.912 76.5815C303.073 76.6358 303.243 76.6532 303.412 76.6326C305.659 76.5028 309.494 72.435 310.78 70.8771C310.871 70.7666 311.003 70.6971 311.146 70.6839C311.289 70.6707 311.431 70.7149 311.541 70.8067C311.652 70.8986 311.721 71.0305 311.734 71.1735C311.747 71.3166 311.703 71.459 311.611 71.5695C311.406 71.8183 306.642 77.5306 303.466 77.7145H303.304Z" fill="#EDA983"/>
<path d="M327.697 42.9972L328.724 40.563C327.513 40.96 326.473 41.7573 325.775 42.8241C322.534 40.6603 317.132 38.4966 308.133 38.2261C289.573 37.6527 295.439 41.2662 289.616 40.2925C283.794 39.3188 286.224 56.3042 291.464 57.1372C291.593 55.7633 291.734 54.3893 291.885 53.0261C302.872 51.9443 310.618 53.1235 315.857 54.7138C318.807 55.6118 319.876 53.2209 321.367 54.108C322.858 54.9951 317.78 61.6811 318.126 62.0489C317.964 70.877 325.148 59.539 325.224 59.6147C325.702 59.5989 326.179 59.6761 326.628 59.8419L328.302 53.6861L328.454 53.7618C328.454 53.7618 330.992 42.2723 332.883 40.7793C332.883 40.8334 328.778 40.563 327.697 42.9972Z" fill="#7E6863"/>
<path d="M327.082 59.1924C326.777 59.014 326.434 58.9129 326.082 58.8978C325.73 58.8827 325.38 58.9541 325.061 59.1058L312.573 62.0593C312.37 60.7778 311.72 59.6098 310.739 58.7627C309.758 57.9157 308.508 57.4444 307.213 57.4328C305.917 57.4211 304.659 57.8697 303.663 58.6989C302.666 59.5282 301.996 60.6843 301.77 61.962C300.988 61.7496 300.164 61.7496 299.382 61.962C299.244 60.5523 298.569 59.2501 297.498 58.3249C296.427 57.3997 295.042 56.9225 293.629 56.992C292.216 57.0615 290.884 57.6725 289.909 58.6984C288.934 59.7242 288.39 61.0864 288.39 62.5029C288.39 63.9194 288.934 65.2816 289.909 66.3074C290.884 67.3333 292.216 67.9443 293.629 68.0138C295.042 68.0833 296.427 67.6061 297.498 66.6809C298.569 65.7557 299.244 64.4535 299.382 63.0438C300.131 62.7808 300.946 62.7808 301.694 63.0438C301.773 64.437 302.379 65.7477 303.389 66.7091C304.399 67.6704 305.737 68.2102 307.13 68.2185C308.524 68.2268 309.868 67.7029 310.889 66.7536C311.91 65.8043 312.532 64.5009 312.627 63.1087L325.375 60.1011H325.483C325.483 60.1011 326.12 59.8199 326.477 60.1011C326.833 60.3824 326.93 61.0316 326.833 62.0161L327.913 62.1242C328.032 60.6313 327.762 59.6792 327.082 59.1924ZM293.894 67.1225C293.018 67.1225 292.162 66.8623 291.434 66.3749C290.705 65.8875 290.137 65.1948 289.802 64.3843C289.467 63.5738 289.379 62.6819 289.55 61.8215C289.721 60.961 290.143 60.1707 290.762 59.5503C291.382 58.93 292.171 58.5075 293.03 58.3364C293.889 58.1652 294.78 58.2531 295.589 58.5888C296.399 58.9245 297.09 59.493 297.577 60.2225C298.064 60.9519 298.324 61.8095 298.324 62.6868C298.324 63.8632 297.857 64.9915 297.026 65.8233C296.196 66.6552 295.069 67.1225 293.894 67.1225ZM307.171 67.1225C306.295 67.1225 305.439 66.8623 304.711 66.3749C303.982 65.8875 303.414 65.1948 303.079 64.3843C302.744 63.5738 302.656 62.6819 302.827 61.8215C302.998 60.961 303.42 60.1707 304.039 59.5503C304.659 58.93 305.448 58.5075 306.307 58.3364C307.166 58.1652 308.057 58.2531 308.866 58.5888C309.676 58.9245 310.368 59.493 310.854 60.2225C311.341 60.9519 311.601 61.8095 311.601 62.6868C311.601 63.8632 311.134 64.9915 310.303 65.8233C309.473 66.6552 308.346 67.1225 307.171 67.1225Z" fill="#454240"/>
</g>
<defs>
<clipPath id="clip0">
<rect width="377" height="404" fill="white" transform="matrix(-1 0 0 1 377 0)"/>
</clipPath>
</defs>
</svg>
