<svg width="168" height="168" viewBox="0 0 168 168" fill="none" xmlns="http://www.w3.org/2000/svg">
<path d="M84.2997 103.38H64.8896C61.5759 103.38 58.8896 106.066 58.8896 109.38V112C58.8896 115.314 61.5759 118 64.8896 118H84.2997C87.6134 118 90.2997 115.314 90.2997 112V109.38C90.2997 106.066 87.6134 103.38 84.2997 103.38Z" fill="#454240"/>
<path d="M118.72 44.8398H27.1699C23.8562 44.8398 21.1699 47.5261 21.1699 50.8398V102.18C21.1699 105.494 23.8562 108.18 27.1699 108.18H118.72C122.034 108.18 124.72 105.494 124.72 102.18V50.8398C124.72 47.5261 122.034 44.8398 118.72 44.8398Z" fill="#454240"/>
<path d="M115.81 49.5898H30.0801C27.8709 49.5898 26.0801 51.3807 26.0801 53.5898V99.3898C26.0801 101.599 27.8709 103.39 30.0801 103.39H115.81C118.019 103.39 119.81 101.599 119.81 99.3898V53.5898C119.81 51.3807 118.019 49.5898 115.81 49.5898Z" fill="#337259"/>
<path d="M106.63 58.7402H81.6602C78.3464 58.7402 75.6602 61.4265 75.6602 64.7402V89.7102C75.6602 93.0239 78.3464 95.7102 81.6602 95.7102H106.63C109.944 95.7102 112.63 93.0239 112.63 89.7102V64.7402C112.63 61.4265 109.944 58.7402 106.63 58.7402Z" fill="#5CC78C"/>
<path d="M72.9502 48.4005C75.5515 48.4005 77.6602 46.2917 77.6602 43.6905C77.6602 41.0892 75.5515 38.9805 72.9502 38.9805C70.349 38.9805 68.2402 41.0892 68.2402 43.6905C68.2402 46.2917 70.349 48.4005 72.9502 48.4005Z" fill="#454240"/>
<path d="M72.9504 46.4897C74.4968 46.4897 75.7504 45.236 75.7504 43.6896C75.7504 42.1433 74.4968 40.8896 72.9504 40.8896C71.404 40.8896 70.1504 42.1433 70.1504 43.6896C70.1504 45.236 71.404 46.4897 72.9504 46.4897Z" fill="#6B767C"/>
<path d="M82.05 76.5102C83.5964 76.5102 84.85 75.2565 84.85 73.7102C84.85 72.1638 83.5964 70.9102 82.05 70.9102C80.5036 70.9102 79.25 72.1638 79.25 73.7102C79.25 75.2565 80.5036 76.5102 82.05 76.5102Z" fill="#EFC44F"/>
<path d="M36.9602 79.31C38.5066 79.31 39.7602 78.0564 39.7602 76.51C39.7602 74.9636 38.5066 73.71 36.9602 73.71C35.4138 73.71 34.1602 74.9636 34.1602 76.51C34.1602 78.0564 35.4138 79.31 36.9602 79.31Z" fill="#EFC44F"/>
<path d="M50.6701 79.31C52.2165 79.31 53.4701 78.0564 53.4701 76.51C53.4701 74.9636 52.2165 73.71 50.6701 73.71C49.1237 73.71 47.8701 74.9636 47.8701 76.51C47.8701 78.0564 49.1237 79.31 50.6701 79.31Z" fill="#EFC44F"/>
<path d="M64.3801 79.31C65.9265 79.31 67.1801 78.0564 67.1801 76.51C67.1801 74.9636 65.9265 73.71 64.3801 73.71C62.8337 73.71 61.5801 74.9636 61.5801 76.51C61.5801 78.0564 62.8337 79.31 64.3801 79.31Z" fill="#EFC44F"/>
<path d="M67.1802 85.71H34.1602V95.71H67.1802V85.71Z" fill="white"/>
<path d="M100.88 63.3398H79.7197V68.9298H100.88V63.3398Z" fill="white"/>
<path d="M108.66 72.1299H87.5V75.2899H108.66V72.1299Z" fill="white"/>
<path d="M55.3202 63.0498H34.1602V66.2098H55.3202V63.0498Z" fill="white"/>
<path d="M61.5802 57.5898H34.1602V60.7498H61.5802V57.5898Z" fill="white"/>
<path d="M82.05 84.0902C83.5964 84.0902 84.85 82.8366 84.85 81.2902C84.85 79.7438 83.5964 78.4902 82.05 78.4902C80.5036 78.4902 79.25 79.7438 79.25 81.2902C79.25 82.8366 80.5036 84.0902 82.05 84.0902Z" fill="#565189"/>
<path d="M108.66 79.71H87.5V82.87H108.66V79.71Z" fill="white"/>
<path d="M82.05 91.6703C83.5964 91.6703 84.85 90.4167 84.85 88.8703C84.85 87.3239 83.5964 86.0703 82.05 86.0703C80.5036 86.0703 79.25 87.3239 79.25 88.8703C79.25 90.4167 80.5036 91.6703 82.05 91.6703Z" fill="#DE5673"/>
<path d="M108.66 87.29H87.5V90.45H108.66V87.29Z" fill="white"/>
<path d="M122.04 57.21H103.21V127.21H122.04V57.21Z" fill="#6B767C"/>
<path d="M143.51 127.58H132.38C130.788 127.58 129.262 126.948 128.137 125.822C127.012 124.697 126.38 123.171 126.38 121.58L126.09 118.15C125.615 112.45 125.615 106.72 126.09 101.02L126.38 97.5898C126.38 95.9985 127.012 94.4724 128.137 93.3472C129.262 92.222 130.788 91.5898 132.38 91.5898H143.51C145.101 91.5898 146.627 92.222 147.752 93.3472C148.878 94.4724 149.51 95.9985 149.51 97.5898L149.82 101.32C150.278 106.82 150.278 112.349 149.82 117.85L149.51 121.58C149.51 123.171 148.878 124.697 147.752 125.822C146.627 126.948 145.101 127.58 143.51 127.58Z" fill="#6B767C"/>
<path d="M139.77 62.46H136.14V92.84H139.77V62.46Z" fill="#6B767C"/>
<path d="M140.64 59.3301H135.26V63.4601H140.64V59.3301Z" fill="#6B767C"/>
<path d="M140.95 46.71H134.95V52.09H140.95V46.71Z" fill="#AEB4B7"/>
<path d="M142.14 50.8301H133.76V60.7101H142.14V50.8301Z" fill="#6B767C"/>
<path d="M106.79 66.5198C107.828 66.5198 108.67 65.6781 108.67 64.6398C108.67 63.6015 107.828 62.7598 106.79 62.7598C105.752 62.7598 104.91 63.6015 104.91 64.6398C104.91 65.6781 105.752 66.5198 106.79 66.5198Z" fill="white"/>
<path d="M112.61 65.3097C112.98 65.3097 113.28 65.0098 113.28 64.6397C113.28 64.2697 112.98 63.9697 112.61 63.9697C112.24 63.9697 111.94 64.2697 111.94 64.6397C111.94 65.0098 112.24 65.3097 112.61 65.3097Z" fill="white"/>
<path d="M112.61 63.05C112.997 63.05 113.31 62.5261 113.31 61.88C113.31 61.2338 112.997 60.71 112.61 60.71C112.224 60.71 111.91 61.2338 111.91 61.88C111.91 62.5261 112.224 63.05 112.61 63.05Z" fill="#454240"/>
<path d="M118.41 66.5198C119.449 66.5198 120.29 65.6781 120.29 64.6398C120.29 63.6015 119.449 62.7598 118.41 62.7598C117.372 62.7598 116.53 63.6015 116.53 64.6398C116.53 65.6781 117.372 66.5198 118.41 66.5198Z" fill="white"/>
<path d="M106.79 89.4602C107.828 89.4602 108.67 88.6185 108.67 87.5802C108.67 86.5419 107.828 85.7002 106.79 85.7002C105.752 85.7002 104.91 86.5419 104.91 87.5802C104.91 88.6185 105.752 89.4602 106.79 89.4602Z" fill="white"/>
<path d="M112.63 89.4602C113.668 89.4602 114.51 88.6185 114.51 87.5802C114.51 86.5419 113.668 85.7002 112.63 85.7002C111.592 85.7002 110.75 86.5419 110.75 87.5802C110.75 88.6185 111.592 89.4602 112.63 89.4602Z" fill="white"/>
<path d="M112.63 78.9304C114.375 78.9304 115.79 77.5156 115.79 75.7703C115.79 74.0251 114.375 72.6104 112.63 72.6104C110.885 72.6104 109.47 74.0251 109.47 75.7703C109.47 77.5156 110.885 78.9304 112.63 78.9304Z" stroke="#454240" stroke-miterlimit="10"/>
<path d="M118.41 89.4602C119.449 89.4602 120.29 88.6185 120.29 87.5802C120.29 86.5419 119.449 85.7002 118.41 85.7002C117.372 85.7002 116.53 86.5419 116.53 87.5802C116.53 88.6185 117.372 89.4602 118.41 89.4602Z" fill="white"/>
<path d="M112.63 91.96H112.62C111.725 91.96 111 92.6853 111 93.58V100.47C111 101.365 111.725 102.09 112.62 102.09H112.63C113.525 102.09 114.25 101.365 114.25 100.47V93.58C114.25 92.6853 113.525 91.96 112.63 91.96Z" fill="white"/>
<path d="M112.63 82.8002C116.512 82.8002 119.66 79.6528 119.66 75.7702C119.66 71.8877 116.512 68.7402 112.63 68.7402C108.747 68.7402 105.6 71.8877 105.6 75.7702C105.6 79.6528 108.747 82.8002 112.63 82.8002Z" stroke="#454240" stroke-miterlimit="10"/>
</svg>
