<svg width="20" height="20" viewBox="0 0 20 20" fill="none" xmlns="http://www.w3.org/2000/svg">
<path fill-rule="evenodd" clip-rule="evenodd" d="M3.98176 0.167969H15.7513C17.918 0.167969 19.6745 1.9242 19.6745 4.09063V15.8586C19.6745 18.025 17.918 19.7813 15.7513 19.7813H3.98176C1.81506 19.7813 0.0585938 18.025 0.0585938 15.8586V4.09063C0.0585938 1.92421 1.81506 0.167969 3.98176 0.167969Z" fill="white"/>
<path d="M15.2649 5.80566C15.5901 6.23177 15.8655 6.69466 16.0853 7.18514L9.84866 11.8438L7.24219 10.1881V8.1963L9.84866 9.85193L15.2649 5.80566Z" fill="#21A038"/>
<path d="M4.58156 10.047C4.58156 9.95767 4.58371 9.86888 4.58802 9.78062L3.0086 9.70215C3.00323 9.81657 3 9.9321 3 10.0487C2.99933 10.9595 3.17611 11.8615 3.52021 12.7029C3.86431 13.5444 4.36894 14.3086 5.00518 14.9519L6.12551 13.8171C5.63572 13.3228 5.24723 12.7352 4.98226 12.0882C4.7173 11.4413 4.58113 10.7475 4.58156 10.047Z" fill="url(#paint0_linear)"/>
<path d="M9.84736 4.7121C9.93552 4.7121 10.0232 4.71537 10.1103 4.71973L10.1893 3.11853C10.076 3.11308 9.96205 3.11036 9.84736 3.11036C8.94805 3.10925 8.05747 3.28815 7.22663 3.63679C6.39579 3.98543 5.6411 4.49695 5.00586 5.14196L6.12631 6.27734C6.61415 5.78086 7.19405 5.38697 7.83263 5.11834C8.47126 4.84972 9.15589 4.71166 9.84736 4.7121Z" fill="url(#paint1_linear)"/>
<path d="M9.84833 15.3821C9.76017 15.3821 9.67249 15.3821 9.58491 15.375L9.50586 16.9756C9.61949 16.9814 9.73365 16.9843 9.84833 16.9843C10.7472 16.9853 11.6374 16.8063 12.4678 16.4575C13.2982 16.1088 14.0524 15.5972 14.6872 14.9522L13.5689 13.8174C13.0809 14.3136 12.5011 14.7073 11.8626 14.9758C11.2241 15.2443 10.5396 15.3824 9.84833 15.3821Z" fill="url(#paint2_linear)"/>
<path d="M12.8153 5.64278L14.1463 4.64848C12.9298 3.6501 11.4111 3.10661 9.8457 3.10939V4.71168C10.9058 4.71035 11.9412 5.03501 12.8153 5.64278Z" fill="url(#paint3_linear)"/>
<path d="M16.6942 10.047C16.695 9.63013 16.6591 9.21403 16.5866 8.80371L15.1132 9.90424C15.1132 9.95166 15.1132 9.99903 15.1132 10.047C15.1135 10.7924 14.9593 11.5297 14.6606 12.2108C14.3619 12.892 13.9252 13.502 13.3789 14.0012L14.4417 15.1916C15.1519 14.5419 15.7194 13.7481 16.1074 12.8619C16.4955 11.9756 16.6954 11.0166 16.6942 10.047Z" fill="#21A038"/>
<path d="M9.84848 15.3826C9.11274 15.3828 8.38522 15.2265 7.7129 14.9238C7.04058 14.621 6.43853 14.1785 5.94569 13.625L4.77148 14.7016C5.41258 15.4214 6.19585 15.9966 7.07048 16.39C7.94511 16.7833 8.89153 16.986 9.84848 16.9848V15.3826Z" fill="url(#paint4_linear)"/>
<path d="M6.31578 6.09278L5.25354 4.90234C4.54317 5.55199 3.97546 6.34567 3.58723 7.23193C3.19901 8.1182 2.99895 9.07725 3 10.0469H4.58157C4.58124 9.30156 4.73545 8.5643 5.0342 7.88314C5.33294 7.20199 5.76957 6.59199 6.31578 6.09278Z" fill="url(#paint5_linear)"/>
<defs>
<linearGradient id="paint0_linear" x1="4.88356" y1="14.7345" x2="3.23911" y2="10.0438" gradientUnits="userSpaceOnUse">
<stop offset="0.14" stop-color="#F1E813"/>
<stop offset="0.3" stop-color="#E6E418"/>
<stop offset="0.58" stop-color="#C9DA26"/>
<stop offset="0.89" stop-color="#A2CC39"/>
</linearGradient>
<linearGradient id="paint1_linear" x1="5.47468" y1="5.0128" x2="9.59389" y2="3.46349" gradientUnits="userSpaceOnUse">
<stop offset="0.06" stop-color="#0FA7DF"/>
<stop offset="0.54" stop-color="#0098F8"/>
<stop offset="0.92" stop-color="#0290EA"/>
</linearGradient>
<linearGradient id="paint2_linear" x1="9.39581" y1="15.6053" x2="14.2862" y2="14.5152" gradientUnits="userSpaceOnUse">
<stop offset="0.12" stop-color="#A2CC39"/>
<stop offset="0.28" stop-color="#86C239"/>
<stop offset="0.87" stop-color="#219F38"/>
</linearGradient>
<linearGradient id="paint3_linear" x1="9.50418" y1="4.16374" x2="13.5779" y2="5.40415" gradientUnits="userSpaceOnUse">
<stop offset="0.06" stop-color="#0290EA"/>
<stop offset="0.79" stop-color="#0C89CA"/>
</linearGradient>
<linearGradient id="paint4_linear" x1="5.18445" y1="14.9115" x2="9.56737" y2="16.5281" gradientUnits="userSpaceOnUse">
<stop offset="0.13" stop-color="#F1E813"/>
<stop offset="0.3" stop-color="#EAE616"/>
<stop offset="0.53" stop-color="#D8DF1F"/>
<stop offset="0.8" stop-color="#BAD52D"/>
<stop offset="0.98" stop-color="#A2CC39"/>
</linearGradient>
<linearGradient id="paint5_linear" x1="4.25751" y1="10.2574" x2="6.03336" y2="5.69909" gradientUnits="userSpaceOnUse">
<stop offset="0.07" stop-color="#A2CC39"/>
<stop offset="0.26" stop-color="#81C45E"/>
<stop offset="0.92" stop-color="#0FA7DF"/>
</linearGradient>
</defs>
</svg>
