<svg width="20" height="20" viewBox="0 0 20 20" fill="none" xmlns="http://www.w3.org/2000/svg">
<g clip-path="url(#clip0)">
<path d="M0.00305576 9.99418C0.00305576 8.27881 -0.0063025 6.56345 0.00773489 4.84714C0.0133498 4.16446 0.0732427 3.47663 0.327319 2.82951C0.961341 1.22878 2.14469 0.319625 3.84228 0.0978344C4.39942 0.0320344 4.96017 0.00171493 5.52115 0.00705942C8.72573 -0.00105106 11.9303 -0.00105106 15.1349 0.00705942C15.8588 0.00986689 16.5854 0.0814575 17.2634 0.365012C18.7884 1.0009 19.6638 2.15103 19.902 3.77609C19.9686 4.26985 19.9998 4.76772 19.9956 5.26592C20.0034 8.55628 20.0034 11.8473 19.9956 15.1389C19.9956 15.808 19.9315 16.478 19.6914 17.1139C19.0752 18.7451 17.8862 19.6697 16.1713 19.8999C15.5719 19.9804 14.9604 19.9935 14.3544 19.9935C11.1966 20.0022 8.03884 20.0022 4.88105 19.9935C4.09402 19.9902 3.30746 19.9064 2.57845 19.5681C1.14944 18.9037 0.327319 17.7807 0.10085 16.2324C0.0357812 15.7386 0.00451426 15.241 0.00726697 14.743C-0.00443085 13.1601 0.00305576 11.5771 0.00305576 9.99418ZM5.99468 10.762C6.02275 11.0175 6.03586 11.236 6.07189 11.4503C6.56366 14.3514 9.44367 16.2441 12.3092 15.5502C15.1747 14.8563 16.8259 12.104 16.0637 9.19919C15.3829 6.60509 13.6741 4.97956 11.0631 4.45831C8.469 3.93986 6.27636 4.78163 4.60825 6.85683C3.76227 7.90776 3.36875 9.14538 3.30559 10.492C3.29529 10.7124 3.36595 10.7779 3.57978 10.7658C3.87504 10.7489 4.17216 10.7616 4.46882 10.7616L5.99468 10.762Z" fill="#FF335F"/>
<path d="M5.99475 10.7617H4.46889C4.1727 10.7617 3.87558 10.749 3.57986 10.7659C3.36555 10.778 3.29536 10.7125 3.30566 10.4921C3.36883 9.14502 3.76234 7.90739 4.60833 6.85646C6.27644 4.78126 8.46908 3.93949 11.0632 4.45747C13.6737 4.97872 15.383 6.60472 16.0638 9.19836C16.826 12.1032 15.1719 14.8564 12.3092 15.5493C9.44655 16.2423 6.56374 14.351 6.07196 11.4495C6.03593 11.2352 6.02283 11.0167 5.99475 10.7617ZM13.5118 10.7149C13.501 9.36166 12.4487 8.32196 11.0978 8.32851C10.7799 8.32986 10.4653 8.3939 10.1721 8.51696C9.87893 8.64003 9.61291 8.8197 9.38925 9.0457C9.1656 9.2717 8.98871 9.53959 8.86871 9.83404C8.74871 10.1285 8.68796 10.4437 8.68993 10.7617C8.70116 12.0606 9.79561 13.0961 11.1455 13.0862C12.487 13.0792 13.5225 12.0409 13.5118 10.7149Z" fill="white"/>
<path d="M13.5113 10.7151C13.5216 12.0397 12.4866 13.078 11.1451 13.0879C9.79518 13.0982 8.70073 12.0622 8.6895 10.7633C8.68753 10.4453 8.74828 10.1301 8.86828 9.83565C8.98828 9.5412 9.16516 9.27331 9.38882 9.04731C9.61247 8.8213 9.8785 8.64163 10.1717 8.51856C10.4649 8.3955 10.7794 8.33146 11.0974 8.33011C12.4459 8.32356 13.5006 9.36373 13.5113 10.7151Z" fill="#FF335F"/>
</g>
<defs>
<clipPath id="clip0">
<rect width="20" height="20" fill="white"/>
</clipPath>
</defs>
</svg>
