<svg width="173" height="24" viewBox="0 0 173 24" fill="none" xmlns="http://www.w3.org/2000/svg">
<path fill-rule="evenodd" clip-rule="evenodd" d="M26.8588 11.2278C25.8335 4.86592 20.2498 0 13.5113 0C6.05303 0 0 5.97195 0 13.3332H5.4014C5.4014 19.3387 10.4322 24.1893 16.5686 23.9943C23.1807 23.7872 27.8933 17.675 26.8588 11.2278ZM16.2104 18.6775C13.2209 18.6775 10.7966 16.2857 10.7966 13.3363C10.7966 10.3869 13.2209 7.99508 16.2104 7.99508C19.1998 7.99508 21.6241 10.3869 21.6241 13.3363C21.6241 16.2857 19.2029 18.6775 16.2104 18.6775ZM67.5468 4.84762L67.5252 6.81892C67.5252 6.81892 67.3183 6.57825 67.1515 6.37717C66.2991 5.36865 64.6624 4.4637 62.2474 4.4637C57.7971 4.4637 54.1777 8.4399 54.1777 13.3302V13.3332V13.3363C54.1777 18.2235 57.7971 22.2028 62.2474 22.2028C64.6593 22.2028 66.2961 21.3008 67.1515 20.2893C67.3214 20.0882 67.5252 19.8475 67.5252 19.8475L67.5468 21.8189H71.9384V13.3332V4.84762H67.5468ZM67.8093 13.3363C67.8093 16.24 66.0058 18.4855 63.2696 18.4855C60.5364 18.4855 58.6248 16.24 58.6248 13.3363V13.3332V13.3302C58.6248 10.4265 60.5334 8.18093 63.2696 8.18093C66.0058 8.18093 67.8093 10.4265 67.8093 13.3302V13.3332V13.3363ZM107.692 4.46677C102.698 4.46677 98.6338 8.44297 98.6338 13.3332C98.6338 18.3058 102.611 22.1997 107.692 22.1997C112.769 22.1997 116.749 18.3058 116.749 13.3332C116.749 8.44597 112.685 4.46677 107.692 4.46677ZM107.692 18.4825C105.02 18.4825 103.081 16.1303 103.081 13.3363C103.081 10.5392 105.02 8.187 107.692 8.187C110.298 8.187 112.265 10.5849 112.265 13.3363C112.265 16.1303 110.341 18.4825 107.692 18.4825ZM150.155 6.81892L150.177 4.84762H154.569V13.3332V21.8189H150.177L150.155 19.8475C150.155 19.8475 149.952 20.0882 149.781 20.2893C148.926 21.3008 147.289 22.2028 144.878 22.2028C140.427 22.2028 136.808 18.2235 136.808 13.3363V13.3332V13.3302C136.808 8.4399 140.427 4.4637 144.878 4.4637C147.293 4.4637 148.929 5.36865 149.781 6.37717C149.949 6.57825 150.155 6.81892 150.155 6.81892ZM145.897 18.4855C148.633 18.4855 150.437 16.24 150.437 13.3363V13.3332V13.3302C150.437 10.4265 148.633 8.18093 145.897 8.18093C143.16 8.18093 141.252 10.4265 141.252 13.3302V13.3332V13.3363C141.252 16.24 143.163 18.4855 145.897 18.4855ZM52.0529 11.0786H47.5997C46.7967 9.30525 45.3638 8.187 43.449 8.187C40.7344 8.187 38.8382 10.4143 38.8382 13.3363C38.8382 16.2583 40.7344 18.4825 43.449 18.4825C45.3638 18.4825 46.7936 17.3612 47.5997 15.5879H52.0529C50.9659 19.7347 47.7664 22.1997 43.449 22.1997C38.2885 22.1997 34.3941 18.3881 34.3941 13.3332C34.3941 8.27842 38.2854 4.46677 43.449 4.46677C47.7664 4.46677 50.9659 6.93173 52.0529 11.0786ZM79.9 4.85063H76.1197V21.8158H80.5333V11.3954L85.8108 18.0498L91.055 11.3893V21.8158H95.4647V4.85063H91.6882L85.7737 12.3003L79.9 4.85063ZM130.56 4.85063H135.755L128.599 13.2022L136.916 21.8158H131.289L124.303 14.485V21.8158H119.89V4.85063H124.303V12.3003L130.56 4.85063ZM163.222 21.8158H167.632V8.50087H172.823V4.85063H158.031V8.50087H163.222V21.8158Z" fill="#FF486F"/>
</svg>
