{
  "asset": {
    "generator": "Khronos glTF Blender I/O v1.6.16",
    "version": "2.0"
  },
  "scene": 0,
  "scenes": [
    {
      "name": "Scene",
      "nodes": [0, 1, 2, 3, 4, 5, 6, 7, 8]
    }
  ],
  "nodes": [
    {
      "mesh": 0,
      "name": "Plane.007"
    },
    {
      "mesh": 1,
      "name": "Plane.008",
      "translation": [2, 0, -4.2039384841918945]
    },
    {
      "mesh": 2,
      "name": "Plane.009",
      "rotation": [0, 0.035182129591703415, 0, 0.9993809461593628],
      "translation": [
        0.6913528442382812,
        -0.0006246864795684814,
        -3.954005479812622
      ]
    },
    {
      "mesh": 2,
      "name": "Plane.010",
      "rotation": [0, -0.0311967171728611, 0, 0.9995132684707642],
      "translation": [
        3.311262607574463,
        0.0029648244380950928,
        -3.9587717056274414
      ]
    },
    {
      "mesh": 3,
      "name": "Plane.011",
      "translation": [2, 1.4716205596923828, -4.2039384841918945]
    },
    {
      "mesh": 4,
      "name": "Plane.012",
      "rotation": [0, -0.7071068286895752, 0, 0.7071068286895752],
      "translation": [
        3.7799997329711914,
        0.0029648244380950928,
        -0.6580839157104492
      ]
    },
    {
      "mesh": 5,
      "name": "Plane.013",
      "rotation": [0, -0.17721520364284515, 0, 0.9841722249984741],
      "translation": [
        3.8135414123535156,
        0.7699998617172241,
        -0.5537328720092773
      ]
    },
    {
      "mesh": 6,
      "name": "SberPortal",
      "rotation": [0, -0.25600337982177734, 0, 0.966675877571106],
      "translation": [
        3.815688133239746,
        0.7699998617172241,
        -0.8246307373046875
      ]
    },
    {
      "mesh": 7,
      "name": "Bedroom_Character",
      "rotation": [0, -0.42949965596199036, 0, 0.9030670523643494],
      "scale": [1.204124927520752, 1.204124927520752, 1.204124927520752],
      "translation": [3.1441078186035156, 0, -1.4974968433380127]
    }
  ],
  "materials": [
    {
      "doubleSided": true,
      "name": "Sber_city",
      "pbrMetallicRoughness": {
        "baseColorTexture": {
          "index": 0
        },
        "metallicFactor": 0
      }
    },
    {
      "alphaCutoff": 0.9990000128746033,
      "alphaMode": "MASK",
      "doubleSided": true,
      "name": "Character",
      "pbrMetallicRoughness": {
        "baseColorTexture": {
          "index": 1
        },
        "metallicFactor": 0,
        "roughnessFactor": 0.5
      }
    }
  ],
  "meshes": [
    {
      "name": "Plane.008",
      "primitives": [
        {
          "attributes": {
            "POSITION": 0,
            "NORMAL": 1,
            "TEXCOORD_0": 2
          },
          "indices": 3,
          "material": 0
        }
      ]
    },
    {
      "name": "Plane.009",
      "primitives": [
        {
          "attributes": {
            "POSITION": 4,
            "NORMAL": 5,
            "TEXCOORD_0": 6
          },
          "indices": 7,
          "material": 0
        }
      ]
    },
    {
      "name": "Plane.001",
      "primitives": [
        {
          "attributes": {
            "POSITION": 8,
            "NORMAL": 9,
            "TEXCOORD_0": 10
          },
          "indices": 11,
          "material": 0
        }
      ]
    },
    {
      "name": "Plane.013",
      "primitives": [
        {
          "attributes": {
            "POSITION": 12,
            "NORMAL": 13,
            "TEXCOORD_0": 14
          },
          "indices": 15,
          "material": 0
        }
      ]
    },
    {
      "name": "Plane.014",
      "primitives": [
        {
          "attributes": {
            "POSITION": 16,
            "NORMAL": 17,
            "TEXCOORD_0": 18,
            "COLOR_0": 19
          },
          "indices": 20,
          "material": 0
        }
      ]
    },
    {
      "name": "Plane.016",
      "primitives": [
        {
          "attributes": {
            "POSITION": 21,
            "NORMAL": 22,
            "TEXCOORD_0": 23
          },
          "indices": 24,
          "material": 0
        }
      ]
    },
    {
      "name": "Icosphere",
      "primitives": [
        {
          "attributes": {
            "POSITION": 25,
            "NORMAL": 26,
            "TEXCOORD_0": 27
          },
          "indices": 28,
          "material": 0
        }
      ]
    },
    {
      "name": "Plane.041",
      "primitives": [
        {
          "attributes": {
            "POSITION": 29,
            "NORMAL": 30,
            "TEXCOORD_0": 31
          },
          "indices": 32,
          "material": 1
        }
      ]
    }
  ],
  "textures": [
    {
      "sampler": 0,
      "source": 0
    },
    {
      "sampler": 0,
      "source": 1
    }
  ],
  "images": [
    {
      "bufferView": 4,
      "mimeType": "image/png",
      "name": "sber_city_atlas"
    },
    {
      "bufferView": 34,
      "mimeType": "image/png",
      "name": "Image-17"
    }
  ],
  "accessors": [
    {
      "bufferView": 0,
      "componentType": 5126,
      "count": 270,
      "max": [4.399999618530273, 3, 0],
      "min": [0, -0.20000000298023224, -4.399999618530273],
      "type": "VEC3"
    },
    {
      "bufferView": 1,
      "componentType": 5126,
      "count": 270,
      "type": "VEC3"
    },
    {
      "bufferView": 2,
      "componentType": 5126,
      "count": 270,
      "type": "VEC2"
    },
    {
      "bufferView": 3,
      "componentType": 5123,
      "count": 510,
      "type": "SCALAR"
    },
    {
      "bufferView": 5,
      "componentType": 5126,
      "count": 189,
      "max": [0.9482024908065796, 0.9666666984558105, 3.7347254753112793],
      "min": [
        -0.9508083462715149,
        -1.1175870895385742e-8,
        2.384185791015625e-7
      ],
      "type": "VEC3"
    },
    {
      "bufferView": 6,
      "componentType": 5126,
      "count": 189,
      "type": "VEC3"
    },
    {
      "bufferView": 7,
      "componentType": 5126,
      "count": 189,
      "type": "VEC2"
    },
    {
      "bufferView": 8,
      "componentType": 5123,
      "count": 732,
      "type": "SCALAR"
    },
    {
      "bufferView": 9,
      "componentType": 5126,
      "count": 200,
      "max": [0.26999974250793457, 0.872934103012085, 0.21999973058700562],
      "min": [-0.2700002193450928, 0, -0.22617286443710327],
      "type": "VEC3"
    },
    {
      "bufferView": 10,
      "componentType": 5126,
      "count": 200,
      "type": "VEC3"
    },
    {
      "bufferView": 11,
      "componentType": 5126,
      "count": 200,
      "type": "VEC2"
    },
    {
      "bufferView": 12,
      "componentType": 5123,
      "count": 444,
      "type": "SCALAR"
    },
    {
      "bufferView": 13,
      "componentType": 5126,
      "count": 60,
      "max": [0.9248753786087036, 0.747672975063324, 0.043938636779785156],
      "min": [-0.9248751401901245, -0.28241419792175293, 0.0039386749267578125],
      "type": "VEC3"
    },
    {
      "bufferView": 14,
      "componentType": 5126,
      "count": 60,
      "type": "VEC3"
    },
    {
      "bufferView": 15,
      "componentType": 5126,
      "count": 60,
      "type": "VEC2"
    },
    {
      "bufferView": 16,
      "componentType": 5123,
      "count": 90,
      "type": "SCALAR"
    },
    {
      "bufferView": 17,
      "componentType": 5126,
      "count": 88,
      "max": [0.4699997305870056, 0.7670351266860962, 0.23999972641468048],
      "min": [
        -0.4700002074241638,
        -0.0029648542404174805,
        -0.22000029683113098
      ],
      "type": "VEC3"
    },
    {
      "bufferView": 18,
      "componentType": 5126,
      "count": 88,
      "type": "VEC3"
    },
    {
      "bufferView": 19,
      "componentType": 5126,
      "count": 88,
      "type": "VEC2"
    },
    {
      "bufferView": 20,
      "componentType": 5123,
      "count": 88,
      "normalized": true,
      "type": "VEC4"
    },
    {
      "bufferView": 21,
      "componentType": 5123,
      "count": 150,
      "type": "SCALAR"
    },
    {
      "bufferView": 22,
      "componentType": 5126,
      "count": 206,
      "max": [0.10383807867765427, 0.20645709335803986, 0.10383830219507217],
      "min": [-0.10383851081132889, 0, -0.10383830219507217],
      "type": "VEC3"
    },
    {
      "bufferView": 23,
      "componentType": 5126,
      "count": 206,
      "type": "VEC3"
    },
    {
      "bufferView": 24,
      "componentType": 5126,
      "count": 206,
      "type": "VEC2"
    },
    {
      "bufferView": 25,
      "componentType": 5123,
      "count": 348,
      "type": "SCALAR"
    },
    {
      "bufferView": 26,
      "componentType": 5126,
      "count": 155,
      "max": [0.07985076308250427, 0.30269312858581543, 0.2020719051361084],
      "min": [-0.10858193039894104, -6.705522537231445e-8, -0.2020719051361084],
      "type": "VEC3"
    },
    {
      "bufferView": 27,
      "componentType": 5126,
      "count": 155,
      "type": "VEC3"
    },
    {
      "bufferView": 28,
      "componentType": 5126,
      "count": 155,
      "type": "VEC2"
    },
    {
      "bufferView": 29,
      "componentType": 5123,
      "count": 558,
      "type": "SCALAR"
    },
    {
      "bufferView": 30,
      "componentType": 5126,
      "count": 4,
      "max": [0.3748452961444855, 1.7179996967315674, 7.50961532958172e-8],
      "min": [-0.3748452067375183, 0, 0],
      "type": "VEC3"
    },
    {
      "bufferView": 31,
      "componentType": 5126,
      "count": 4,
      "type": "VEC3"
    },
    {
      "bufferView": 32,
      "componentType": 5126,
      "count": 4,
      "type": "VEC2"
    },
    {
      "bufferView": 33,
      "componentType": 5123,
      "count": 6,
      "type": "SCALAR"
    }
  ],
  "bufferViews": [
    {
      "buffer": 0,
      "byteLength": 3240,
      "byteOffset": 0
    },
    {
      "buffer": 0,
      "byteLength": 3240,
      "byteOffset": 3240
    },
    {
      "buffer": 0,
      "byteLength": 2160,
      "byteOffset": 6480
    },
    {
      "buffer": 0,
      "byteLength": 1020,
      "byteOffset": 8640
    },
    {
      "buffer": 0,
      "byteLength": 521124,
      "byteOffset": 9660
    },
    {
      "buffer": 0,
      "byteLength": 2268,
      "byteOffset": 530784
    },
    {
      "buffer": 0,
      "byteLength": 2268,
      "byteOffset": 533052
    },
    {
      "buffer": 0,
      "byteLength": 1512,
      "byteOffset": 535320
    },
    {
      "buffer": 0,
      "byteLength": 1464,
      "byteOffset": 536832
    },
    {
      "buffer": 0,
      "byteLength": 2400,
      "byteOffset": 538296
    },
    {
      "buffer": 0,
      "byteLength": 2400,
      "byteOffset": 540696
    },
    {
      "buffer": 0,
      "byteLength": 1600,
      "byteOffset": 543096
    },
    {
      "buffer": 0,
      "byteLength": 888,
      "byteOffset": 544696
    },
    {
      "buffer": 0,
      "byteLength": 720,
      "byteOffset": 545584
    },
    {
      "buffer": 0,
      "byteLength": 720,
      "byteOffset": 546304
    },
    {
      "buffer": 0,
      "byteLength": 480,
      "byteOffset": 547024
    },
    {
      "buffer": 0,
      "byteLength": 180,
      "byteOffset": 547504
    },
    {
      "buffer": 0,
      "byteLength": 1056,
      "byteOffset": 547684
    },
    {
      "buffer": 0,
      "byteLength": 1056,
      "byteOffset": 548740
    },
    {
      "buffer": 0,
      "byteLength": 704,
      "byteOffset": 549796
    },
    {
      "buffer": 0,
      "byteLength": 704,
      "byteOffset": 550500
    },
    {
      "buffer": 0,
      "byteLength": 300,
      "byteOffset": 551204
    },
    {
      "buffer": 0,
      "byteLength": 2472,
      "byteOffset": 551504
    },
    {
      "buffer": 0,
      "byteLength": 2472,
      "byteOffset": 553976
    },
    {
      "buffer": 0,
      "byteLength": 1648,
      "byteOffset": 556448
    },
    {
      "buffer": 0,
      "byteLength": 696,
      "byteOffset": 558096
    },
    {
      "buffer": 0,
      "byteLength": 1860,
      "byteOffset": 558792
    },
    {
      "buffer": 0,
      "byteLength": 1860,
      "byteOffset": 560652
    },
    {
      "buffer": 0,
      "byteLength": 1240,
      "byteOffset": 562512
    },
    {
      "buffer": 0,
      "byteLength": 1116,
      "byteOffset": 563752
    },
    {
      "buffer": 0,
      "byteLength": 48,
      "byteOffset": 564868
    },
    {
      "buffer": 0,
      "byteLength": 48,
      "byteOffset": 564916
    },
    {
      "buffer": 0,
      "byteLength": 32,
      "byteOffset": 564964
    },
    {
      "buffer": 0,
      "byteLength": 12,
      "byteOffset": 564996
    },
    {
      "buffer": 0,
      "byteLength": 15843,
      "byteOffset": 565008
    }
  ],
  "samplers": [
    {
      "magFilter": 9729,
      "minFilter": 9987
    }
  ],
  "buffers": [
    {
      "byteLength": 580852,
      "uri": "data:application/octet-stream;base64,"
    }
  ]
}
