{
  "asset": {
    "generator": "Khronos glTF Blender I/O v1.6.16",
    "version": "2.0"
  },
  "scene": 0,
  "scenes": [
    {
      "name": "Scene",
      "nodes": [0, 1, 2, 3, 4, 5, 6, 7, 8, 9, 10, 11, 12, 13, 14]
    }
  ],
  "nodes": [
    {
      "mesh": 0,
      "name": "Plane.022"
    },
    {
      "mesh": 1,
      "name": "Plane.018"
    },
    {
      "mesh": 2,
      "name": "Plane.024",
      "rotation": [0, -0.11040284484624863, 0, 0.9938869476318359],
      "translation": [
        0.9243061542510986,
        0.9999997615814209,
        -0.9905190467834473
      ]
    },
    {
      "mesh": 3,
      "name": "Plane.025",
      "rotation": [0, -0.040661029517650604, 0, 0.999173104763031],
      "translation": [0.4502842426300049, 0, -0.6641197204589844]
    },
    {
      "mesh": 3,
      "name": "Plane.026",
      "rotation": [0, -0.20296436548233032, 0, 0.9791862368583679],
      "translation": [0.6711037158966064, 0, -1.4436802864074707]
    },
    {
      "mesh": 3,
      "name": "Plane.027",
      "rotation": [0, 0.9958063960075378, 0, 0.09148574620485306],
      "translation": [1.3284227848052979, 0, -1.2687149047851562]
    },
    {
      "mesh": 3,
      "name": "Plane.028",
      "rotation": [0, 0.9880022406578064, 0, 0.15443962812423706],
      "translation": [1.2103760242462158, 0, -0.4639415740966797]
    },
    {
      "mesh": 4,
      "name": "Circle.012",
      "rotation": [0, 0.6160622835159302, 0, 0.787697434425354],
      "translation": [1.664346694946289, 1.9999992847442627, -3.786226272583008]
    },
    {
      "mesh": 5,
      "name": "Circle.013",
      "rotation": [0, 0.8376964926719666, 0, 0.5461360812187195],
      "scale": [0.746410071849823, 0.746410071849823, 0.746410071849823],
      "translation": [
        1.664346694946289,
        1.9999992847442627,
        -3.6759185791015625
      ]
    },
    {
      "mesh": 6,
      "name": "Circle.014",
      "rotation": [0, 0.5275408029556274, 0, 0.8495296835899353],
      "scale": [0.6976410746574402, 0.6976410746574402, 0.6976410746574402],
      "translation": [
        1.599830150604248,
        1.9999992847442627,
        -3.7329750061035156
      ]
    },
    {
      "mesh": 7,
      "name": "Circle.015",
      "scale": [0.9613296389579773, 0.9613296389579773, 0.9613296389579773],
      "translation": [
        2.4049038887023926,
        1.6399991512298584,
        -3.7221126556396484
      ]
    },
    {
      "mesh": 8,
      "name": "Plane.029",
      "rotation": [0, -0.17721517384052277, 0, 0.9841722249984741],
      "translation": [
        1.8931264877319336,
        1.5999996662139893,
        -3.797161102294922
      ]
    },
    {
      "mesh": 9,
      "name": "Kettle",
      "rotation": [0, -0.922558605670929, 0, 0.3858570158481598],
      "scale": [0.17935539782047272, 0.17935538291931152, 0.17935539782047272],
      "translation": [
        3.3719162940979004,
        0.9999878406524658,
        -3.3386197090148926
      ]
    },
    {
      "mesh": 10,
      "name": "Kitchen_Character",
      "rotation": [0, -0.42949965596199036, 0, 0.9030670523643494],
      "scale": [1.204124927520752, 1.204124927520752, 1.204124927520752],
      "translation": [
        1.8836252689361572,
        0.02846027910709381,
        -2.3360068798065186
      ]
    },
    {
      "mesh": 11,
      "name": "Fridge",
      "translation": [0.7999999523162842, 0, -3.625]
    }
  ],
  "materials": [
    {
      "doubleSided": true,
      "name": "Sber_city",
      "pbrMetallicRoughness": {
        "baseColorTexture": {
          "index": 0
        },
        "metallicFactor": 0
      }
    },
    {
      "alphaCutoff": 0.9990000128746033,
      "alphaMode": "MASK",
      "doubleSided": true,
      "name": "Character",
      "pbrMetallicRoughness": {
        "baseColorTexture": {
          "index": 1
        },
        "metallicFactor": 0,
        "roughnessFactor": 0.5
      }
    }
  ],
  "meshes": [
    {
      "name": "Plane.032",
      "primitives": [
        {
          "attributes": {
            "POSITION": 0,
            "NORMAL": 1,
            "TEXCOORD_0": 2
          },
          "indices": 3,
          "material": 0
        }
      ]
    },
    {
      "name": "Plane.035",
      "primitives": [
        {
          "attributes": {
            "POSITION": 4,
            "NORMAL": 5,
            "TEXCOORD_0": 6,
            "COLOR_0": 7
          },
          "indices": 8,
          "material": 0
        }
      ]
    },
    {
      "name": "Plane.036",
      "primitives": [
        {
          "attributes": {
            "POSITION": 9,
            "NORMAL": 10,
            "TEXCOORD_0": 11
          },
          "indices": 12,
          "material": 0
        }
      ]
    },
    {
      "name": "Plane.037",
      "primitives": [
        {
          "attributes": {
            "POSITION": 13,
            "NORMAL": 14,
            "TEXCOORD_0": 15
          },
          "indices": 16,
          "material": 0
        }
      ]
    },
    {
      "name": "Circle.007",
      "primitives": [
        {
          "attributes": {
            "POSITION": 17,
            "NORMAL": 18,
            "TEXCOORD_0": 19
          },
          "indices": 20,
          "material": 0
        }
      ]
    },
    {
      "name": "Circle.008",
      "primitives": [
        {
          "attributes": {
            "POSITION": 21,
            "NORMAL": 22,
            "TEXCOORD_0": 23
          },
          "indices": 24,
          "material": 0
        }
      ]
    },
    {
      "name": "Circle.010",
      "primitives": [
        {
          "attributes": {
            "POSITION": 25,
            "NORMAL": 26,
            "TEXCOORD_0": 27
          },
          "indices": 28,
          "material": 0
        }
      ]
    },
    {
      "name": "Circle.012",
      "primitives": [
        {
          "attributes": {
            "POSITION": 29,
            "NORMAL": 30,
            "TEXCOORD_0": 31
          },
          "indices": 32,
          "material": 0
        }
      ]
    },
    {
      "name": "Plane.039",
      "primitives": [
        {
          "attributes": {
            "POSITION": 33,
            "NORMAL": 34,
            "TEXCOORD_0": 35
          },
          "indices": 36,
          "material": 0
        }
      ]
    },
    {
      "name": "Circle.014",
      "primitives": [
        {
          "attributes": {
            "POSITION": 37,
            "NORMAL": 38,
            "TEXCOORD_0": 39
          },
          "indices": 40,
          "material": 0
        }
      ]
    },
    {
      "name": "Plane.043",
      "primitives": [
        {
          "attributes": {
            "POSITION": 41,
            "NORMAL": 42,
            "TEXCOORD_0": 43
          },
          "indices": 44,
          "material": 1
        }
      ]
    },
    {
      "name": "Plane.002",
      "primitives": [
        {
          "attributes": {
            "POSITION": 45,
            "NORMAL": 46,
            "TEXCOORD_0": 47,
            "COLOR_0": 48
          },
          "indices": 49,
          "material": 0
        }
      ]
    }
  ],
  "textures": [
    {
      "sampler": 0,
      "source": 0
    },
    {
      "sampler": 0,
      "source": 1
    }
  ],
  "images": [
    {
      "bufferView": 4,
      "mimeType": "image/png",
      "name": "sber_city_atlas"
    },
    {
      "bufferView": 46,
      "mimeType": "image/png",
      "name": "Image-17"
    }
  ],
  "accessors": [
    {
      "bufferView": 0,
      "componentType": 5126,
      "count": 38,
      "max": [4.399999618530273, 2.999999761581421, 0],
      "min": [0, -0.20000003278255463, -4.399999618530273],
      "type": "VEC3"
    },
    {
      "bufferView": 1,
      "componentType": 5126,
      "count": 38,
      "type": "VEC3"
    },
    {
      "bufferView": 2,
      "componentType": 5126,
      "count": 38,
      "type": "VEC2"
    },
    {
      "bufferView": 3,
      "componentType": 5123,
      "count": 66,
      "type": "SCALAR"
    },
    {
      "bufferView": 5,
      "componentType": 5126,
      "count": 487,
      "max": [4, 2.999999761581421, 0],
      "min": [1.4000000953674316, 0, -4],
      "type": "VEC3"
    },
    {
      "bufferView": 6,
      "componentType": 5126,
      "count": 487,
      "type": "VEC3"
    },
    {
      "bufferView": 7,
      "componentType": 5126,
      "count": 487,
      "type": "VEC2"
    },
    {
      "bufferView": 8,
      "componentType": 5123,
      "count": 487,
      "normalized": true,
      "type": "VEC4"
    },
    {
      "bufferView": 9,
      "componentType": 5123,
      "count": 945,
      "type": "SCALAR"
    },
    {
      "bufferView": 10,
      "componentType": 5126,
      "count": 84,
      "max": [0.5000001192092896, -0.1499999463558197, 0.9000000953674316],
      "min": [-0.5000001192092896, -1, -0.9000000953674316],
      "type": "VEC3"
    },
    {
      "bufferView": 11,
      "componentType": 5126,
      "count": 84,
      "type": "VEC3"
    },
    {
      "bufferView": 12,
      "componentType": 5126,
      "count": 84,
      "type": "VEC2"
    },
    {
      "bufferView": 13,
      "componentType": 5123,
      "count": 126,
      "type": "SCALAR"
    },
    {
      "bufferView": 14,
      "componentType": 5126,
      "count": 112,
      "max": [0.27500006556510925, 1.1500000953674316, 0.27500003576278687],
      "min": [-0.3773074746131897, 0, -0.2750000059604645],
      "type": "VEC3"
    },
    {
      "bufferView": 15,
      "componentType": 5126,
      "count": 112,
      "type": "VEC3"
    },
    {
      "bufferView": 16,
      "componentType": 5126,
      "count": 112,
      "type": "VEC2"
    },
    {
      "bufferView": 17,
      "componentType": 5123,
      "count": 198,
      "type": "SCALAR"
    },
    {
      "bufferView": 18,
      "componentType": 5126,
      "count": 91,
      "max": [0.042335934937000275, 0.2981263995170593, 0.06251495331525803],
      "min": [
        -0.04233470559120178,
        1.7881393432617188e-6,
        -0.06251489371061325
      ],
      "type": "VEC3"
    },
    {
      "bufferView": 19,
      "componentType": 5126,
      "count": 91,
      "type": "VEC3"
    },
    {
      "bufferView": 20,
      "componentType": 5126,
      "count": 91,
      "type": "VEC2"
    },
    {
      "bufferView": 21,
      "componentType": 5123,
      "count": 258,
      "type": "SCALAR"
    },
    {
      "bufferView": 22,
      "componentType": 5126,
      "count": 91,
      "max": [0.042335934937000275, 0.2981263995170593, 0.06251495331525803],
      "min": [
        -0.04233470559120178,
        1.7881393432617188e-6,
        -0.06251489371061325
      ],
      "type": "VEC3"
    },
    {
      "bufferView": 23,
      "componentType": 5126,
      "count": 91,
      "type": "VEC3"
    },
    {
      "bufferView": 24,
      "componentType": 5126,
      "count": 91,
      "type": "VEC2"
    },
    {
      "bufferView": 25,
      "componentType": 5123,
      "count": 258,
      "type": "SCALAR"
    },
    {
      "bufferView": 26,
      "componentType": 5126,
      "count": 91,
      "max": [0.042335934937000275, 0.2981263995170593, 0.06251495331525803],
      "min": [
        -0.04233470559120178,
        1.7881393432617188e-6,
        -0.06251489371061325
      ],
      "type": "VEC3"
    },
    {
      "bufferView": 27,
      "componentType": 5126,
      "count": 91,
      "type": "VEC3"
    },
    {
      "bufferView": 28,
      "componentType": 5126,
      "count": 91,
      "type": "VEC2"
    },
    {
      "bufferView": 29,
      "componentType": 5123,
      "count": 258,
      "type": "SCALAR"
    },
    {
      "bufferView": 30,
      "componentType": 5126,
      "count": 45,
      "max": [0.05733596906065941, 0.3023950457572937, 0.05733542889356613],
      "min": [
        -0.05733465775847435,
        1.6624107956886292e-6,
        -0.05733519792556763
      ],
      "type": "VEC3"
    },
    {
      "bufferView": 31,
      "componentType": 5126,
      "count": 45,
      "type": "VEC3"
    },
    {
      "bufferView": 32,
      "componentType": 5126,
      "count": 45,
      "type": "VEC2"
    },
    {
      "bufferView": 33,
      "componentType": 5123,
      "count": 174,
      "type": "SCALAR"
    },
    {
      "bufferView": 34,
      "componentType": 5126,
      "count": 206,
      "max": [0.10383807867765427, 0.20645709335803986, 0.10383830219507217],
      "min": [-0.10383851081132889, 0, -0.10383830219507217],
      "type": "VEC3"
    },
    {
      "bufferView": 35,
      "componentType": 5126,
      "count": 206,
      "type": "VEC3"
    },
    {
      "bufferView": 36,
      "componentType": 5126,
      "count": 206,
      "type": "VEC2"
    },
    {
      "bufferView": 37,
      "componentType": 5123,
      "count": 348,
      "type": "SCALAR"
    },
    {
      "bufferView": 38,
      "componentType": 5126,
      "count": 183,
      "max": [1.0158087015151978, 2.251610040664673, 1.0158087015151978],
      "min": [-1.0158087015151978, 8.867665712841699e-9, -1.4280147552490234],
      "type": "VEC3"
    },
    {
      "bufferView": 39,
      "componentType": 5126,
      "count": 183,
      "type": "VEC3"
    },
    {
      "bufferView": 40,
      "componentType": 5126,
      "count": 183,
      "type": "VEC2"
    },
    {
      "bufferView": 41,
      "componentType": 5123,
      "count": 528,
      "type": "SCALAR"
    },
    {
      "bufferView": 42,
      "componentType": 5126,
      "count": 4,
      "max": [0.3748452961444855, 1.7179996967315674, 7.50961532958172e-8],
      "min": [-0.3748452067375183, 0, 0],
      "type": "VEC3"
    },
    {
      "bufferView": 43,
      "componentType": 5126,
      "count": 4,
      "type": "VEC3"
    },
    {
      "bufferView": 44,
      "componentType": 5126,
      "count": 4,
      "type": "VEC2"
    },
    {
      "bufferView": 45,
      "componentType": 5123,
      "count": 6,
      "type": "SCALAR"
    },
    {
      "bufferView": 47,
      "componentType": 5126,
      "count": 162,
      "max": [0.5, 2.2001090049743652, 0.5993106365203857],
      "min": [-0.4999999403953552, 0, -0.375],
      "type": "VEC3"
    },
    {
      "bufferView": 48,
      "componentType": 5126,
      "count": 162,
      "type": "VEC3"
    },
    {
      "bufferView": 49,
      "componentType": 5126,
      "count": 162,
      "type": "VEC2"
    },
    {
      "bufferView": 50,
      "componentType": 5123,
      "count": 162,
      "normalized": true,
      "type": "VEC4"
    },
    {
      "bufferView": 51,
      "componentType": 5123,
      "count": 528,
      "type": "SCALAR"
    }
  ],
  "bufferViews": [
    {
      "buffer": 0,
      "byteLength": 456,
      "byteOffset": 0
    },
    {
      "buffer": 0,
      "byteLength": 456,
      "byteOffset": 456
    },
    {
      "buffer": 0,
      "byteLength": 304,
      "byteOffset": 912
    },
    {
      "buffer": 0,
      "byteLength": 132,
      "byteOffset": 1216
    },
    {
      "buffer": 0,
      "byteLength": 521124,
      "byteOffset": 1348
    },
    {
      "buffer": 0,
      "byteLength": 5844,
      "byteOffset": 522472
    },
    {
      "buffer": 0,
      "byteLength": 5844,
      "byteOffset": 528316
    },
    {
      "buffer": 0,
      "byteLength": 3896,
      "byteOffset": 534160
    },
    {
      "buffer": 0,
      "byteLength": 3896,
      "byteOffset": 538056
    },
    {
      "buffer": 0,
      "byteLength": 1890,
      "byteOffset": 541952
    },
    {
      "buffer": 0,
      "byteLength": 1008,
      "byteOffset": 543844
    },
    {
      "buffer": 0,
      "byteLength": 1008,
      "byteOffset": 544852
    },
    {
      "buffer": 0,
      "byteLength": 672,
      "byteOffset": 545860
    },
    {
      "buffer": 0,
      "byteLength": 252,
      "byteOffset": 546532
    },
    {
      "buffer": 0,
      "byteLength": 1344,
      "byteOffset": 546784
    },
    {
      "buffer": 0,
      "byteLength": 1344,
      "byteOffset": 548128
    },
    {
      "buffer": 0,
      "byteLength": 896,
      "byteOffset": 549472
    },
    {
      "buffer": 0,
      "byteLength": 396,
      "byteOffset": 550368
    },
    {
      "buffer": 0,
      "byteLength": 1092,
      "byteOffset": 550764
    },
    {
      "buffer": 0,
      "byteLength": 1092,
      "byteOffset": 551856
    },
    {
      "buffer": 0,
      "byteLength": 728,
      "byteOffset": 552948
    },
    {
      "buffer": 0,
      "byteLength": 516,
      "byteOffset": 553676
    },
    {
      "buffer": 0,
      "byteLength": 1092,
      "byteOffset": 554192
    },
    {
      "buffer": 0,
      "byteLength": 1092,
      "byteOffset": 555284
    },
    {
      "buffer": 0,
      "byteLength": 728,
      "byteOffset": 556376
    },
    {
      "buffer": 0,
      "byteLength": 516,
      "byteOffset": 557104
    },
    {
      "buffer": 0,
      "byteLength": 1092,
      "byteOffset": 557620
    },
    {
      "buffer": 0,
      "byteLength": 1092,
      "byteOffset": 558712
    },
    {
      "buffer": 0,
      "byteLength": 728,
      "byteOffset": 559804
    },
    {
      "buffer": 0,
      "byteLength": 516,
      "byteOffset": 560532
    },
    {
      "buffer": 0,
      "byteLength": 540,
      "byteOffset": 561048
    },
    {
      "buffer": 0,
      "byteLength": 540,
      "byteOffset": 561588
    },
    {
      "buffer": 0,
      "byteLength": 360,
      "byteOffset": 562128
    },
    {
      "buffer": 0,
      "byteLength": 348,
      "byteOffset": 562488
    },
    {
      "buffer": 0,
      "byteLength": 2472,
      "byteOffset": 562836
    },
    {
      "buffer": 0,
      "byteLength": 2472,
      "byteOffset": 565308
    },
    {
      "buffer": 0,
      "byteLength": 1648,
      "byteOffset": 567780
    },
    {
      "buffer": 0,
      "byteLength": 696,
      "byteOffset": 569428
    },
    {
      "buffer": 0,
      "byteLength": 2196,
      "byteOffset": 570124
    },
    {
      "buffer": 0,
      "byteLength": 2196,
      "byteOffset": 572320
    },
    {
      "buffer": 0,
      "byteLength": 1464,
      "byteOffset": 574516
    },
    {
      "buffer": 0,
      "byteLength": 1056,
      "byteOffset": 575980
    },
    {
      "buffer": 0,
      "byteLength": 48,
      "byteOffset": 577036
    },
    {
      "buffer": 0,
      "byteLength": 48,
      "byteOffset": 577084
    },
    {
      "buffer": 0,
      "byteLength": 32,
      "byteOffset": 577132
    },
    {
      "buffer": 0,
      "byteLength": 12,
      "byteOffset": 577164
    },
    {
      "buffer": 0,
      "byteLength": 15843,
      "byteOffset": 577176
    },
    {
      "buffer": 0,
      "byteLength": 1944,
      "byteOffset": 593020
    },
    {
      "buffer": 0,
      "byteLength": 1944,
      "byteOffset": 594964
    },
    {
      "buffer": 0,
      "byteLength": 1296,
      "byteOffset": 596908
    },
    {
      "buffer": 0,
      "byteLength": 1296,
      "byteOffset": 598204
    },
    {
      "buffer": 0,
      "byteLength": 1056,
      "byteOffset": 599500
    }
  ],
  "samplers": [
    {
      "magFilter": 9729,
      "minFilter": 9987
    }
  ],
  "buffers": [
    {
      "byteLength": 600556,
      "uri": "data:application/octet-stream;base64,"
    }
  ]
}
