<svg width="150" height="24" viewBox="0 0 150 24" fill="none" xmlns="http://www.w3.org/2000/svg">
<g clip-path="url(#clip0)">
<path fill-rule="evenodd" clip-rule="evenodd" d="M39.2963 16.6453C40.2309 16.6508 41.1518 16.4203 41.9738 15.9753L42.661 15.5995L44.6685 17.0782C43.3456 18.4962 41.3925 19.2758 39.1568 19.2758C37.018 19.2758 35.0658 18.517 33.6677 17.1506C32.2697 15.7842 31.5 13.8818 31.5 11.8209C31.5 9.76 32.276 7.8866 33.6732 6.5691C35.0703 5.25159 37.0235 4.52539 39.1767 4.52539C41.1607 4.52539 42.8965 5.12845 44.1949 6.2721L44.3425 6.4016L42.1178 8.0378C41.2955 7.45 40.3069 7.1406 39.2963 7.1549C36.5001 7.1549 34.47 9.1479 34.47 11.9006C34.47 14.6533 36.5001 16.6453 39.2963 16.6453ZM82.0525 4.71465H76.1351V19.0866H79.2364V15.0119H82.0525C85.8284 15.0119 88.1745 13.027 88.1745 9.8506C88.1745 6.6741 85.8293 4.71465 82.0525 4.71465ZM81.9864 12.6223H79.2364V7.1079H81.9864C83.973 7.1079 85.065 8.0867 85.065 9.8651C85.065 11.6435 83.9703 12.6223 81.9864 12.6223ZM50.4003 10.3169H54.1779L54.1752 10.316C57.6034 10.316 59.4913 11.8282 59.4913 14.5718C59.4913 17.4413 57.4078 19.0875 53.775 19.0875H47.298V4.71465H59.6733L56.4254 7.1079H50.4003V10.3169ZM50.4003 16.6942H53.6347C55.5489 16.6942 56.5204 16.0604 56.5204 14.7021C56.5204 13.3765 55.6032 12.7101 53.6347 12.7101H50.4003V16.6942ZM73.2466 4.71465L69.9995 7.1079H65.4802V10.6211H72.1048V13.0144H65.4802V16.6943H73.2466V19.0866H62.378V4.71465H73.2466Z" fill="#219F38"/>
<path fill-rule="evenodd" clip-rule="evenodd" d="M96.8997 4.91151C96.0908 5.18497 95.4814 5.47261 95.0716 5.77444L95.0706 9.35296C95.2961 9.01416 95.5615 8.70376 95.8611 8.42846C96.1926 8.11806 96.557 7.84476 96.9477 7.61346C97.3662 7.36736 97.8153 7.17736 98.2833 7.04846C98.788 6.90876 99.311 6.84616 99.8344 6.86286C100.194 6.87366 100.552 6.91856 100.903 6.99686C101.207 7.06236 101.498 7.17666 101.766 7.33546C102.006 7.47696 102.205 7.67736 102.345 7.91776C102.488 8.17876 102.558 8.47266 102.551 8.76976C102.553 9.02936 102.508 9.28726 102.417 9.53036C102.326 9.76566 102.182 9.97676 101.996 10.1471C101.776 10.3405 101.516 10.4839 101.235 10.5672C100.856 10.6807 100.461 10.7342 100.064 10.7257H97.9066V12.84H100.09C101.213 12.84 102.025 12.9909 102.525 13.2927C103.024 13.5946 103.274 14.0669 103.274 14.7098C103.283 15.0484 103.197 15.3827 103.028 15.676C102.86 15.9531 102.632 16.1885 102.36 16.3642C102.054 16.5596 101.717 16.7019 101.364 16.7852C100.96 16.8835 100.546 16.9319 100.131 16.9292C99.5121 16.9334 98.8952 16.8678 98.2915 16.7336C97.7602 16.6178 97.2457 16.4353 96.7603 16.1903C96.3277 15.9714 95.9269 15.6948 95.5687 15.3681C95.2391 15.069 94.9554 14.723 94.7266 14.3413V17.5051C94.9582 17.7575 95.2247 17.9755 95.518 18.1525C95.8932 18.3843 96.2913 18.577 96.706 18.7275C97.2058 18.9101 97.721 19.0477 98.2453 19.1386C98.8525 19.2444 99.468 19.2959 100.084 19.2925C100.942 19.3063 101.797 19.1885 102.62 18.943C103.284 18.7454 103.907 18.4288 104.459 18.0085C104.936 17.6388 105.317 17.1596 105.569 16.6114C105.816 16.0664 105.943 15.4741 105.939 14.8755C105.939 12.9577 104.843 11.8346 102.651 11.5062C104.35 10.9044 105.199 9.77426 105.199 8.11606C105.199 7.48586 105.073 6.94496 104.819 6.49336C104.558 6.03376 104.184 5.64824 103.733 5.37331C103.209 5.05925 102.636 4.83692 102.037 4.71592C101.314 4.56598 100.577 4.49374 99.838 4.50042C98.6881 4.50102 97.7086 4.63805 96.8997 4.91151ZM108.466 19.0869V4.70592H114.714C117.947 4.70592 119.563 5.89755 119.563 8.28076C119.563 9.10236 119.392 9.78726 119.05 10.3354C118.708 10.8835 118.168 11.3012 117.431 11.5886C118.319 11.7389 118.968 12.0926 119.379 12.6498C119.79 13.207 119.996 13.957 119.996 14.8999C119.996 15.6388 119.866 16.2757 119.605 16.8105C119.353 17.3358 118.967 17.7855 118.486 18.1144C117.949 18.4719 117.349 18.723 116.718 18.8542C115.945 19.0203 115.155 19.0996 114.364 19.0905L108.466 19.0869ZM114.343 10.7872C115.165 10.7872 115.813 10.6161 116.285 10.2738C116.758 9.93146 116.994 9.45186 116.993 8.83496C116.993 8.26026 116.791 7.82206 116.388 7.52016C115.984 7.21836 115.323 7.06746 114.405 7.06746H111.037V10.7872H114.343ZM116.712 16.2418C116.246 16.5636 115.52 16.7245 114.533 16.7245H111.043V12.8001H114.575C115.479 12.8007 116.177 12.9447 116.67 13.232C117.163 13.5193 117.41 14.0122 117.41 14.7107C117.41 15.4097 117.177 15.9201 116.712 16.2418ZM126.428 16.6457C126.201 16.7693 125.946 16.8317 125.688 16.8268L125.692 16.8295C125.398 16.831 125.105 16.7789 124.829 16.6756C124.57 16.5826 124.333 16.4395 124.13 16.2546V18.9257C124.365 19.0217 124.607 19.0972 124.855 19.1512C125.162 19.2213 125.476 19.256 125.79 19.2544C126.141 19.2571 126.491 19.2086 126.828 19.1105C127.169 19.0044 127.486 18.8335 127.762 18.607C128.101 18.3282 128.398 18.0033 128.646 17.6418C128.982 17.153 129.271 16.6337 129.509 16.0907L134.791 4.70592H132.1L128.317 13.0473L123.694 4.70592H120.715L127.003 15.9684C126.838 16.2992 126.646 16.525 126.428 16.6457ZM136.517 19.0869H139.085V12.8617H141.366L146.585 19.0869H149.873L143.502 11.5469L148.989 4.70592H145.866L141.242 10.7456H139.085V4.70592H136.517V19.0869Z" fill="#5AB0FF"/>
<path d="M21.8678 4.66699C22.441 5.40243 22.9244 6.20364 23.3078 7.05364L12.3745 15.0536L7.81445 12.2403V8.80034L12.3745 11.6669L21.8678 4.66699Z" fill="#21A038"/>
<path d="M3.14833 12.0004C3.14833 11.8404 3.14833 11.6938 3.14833 11.5338L0.375 11.4004C0.375 11.6004 0.375 11.8004 0.375 12.0004C0.377801 15.1819 1.64392 18.2321 3.895 20.4804L5.855 18.5204C4.11916 16.7952 3.14469 14.4478 3.14833 12.0004Z" fill="url(#paint0_linear)"/>
<path d="M12.3745 2.77333H12.8412L12.9745 0H12.3745C9.19301 0.0028 6.14281 1.26892 3.89453 3.52L5.85453 5.48C7.58313 3.74915 9.92833 2.77558 12.3745 2.77333Z" fill="url(#paint1_linear)"/>
<path d="M12.3754 21.2262H11.9087L11.7754 23.9995H12.3754C15.5569 23.9967 18.6071 22.7306 20.8554 20.4795L18.8954 18.5195C17.1668 20.2504 14.8216 21.2239 12.3754 21.2262Z" fill="url(#paint2_linear)"/>
<path d="M17.575 4.38667L19.9083 2.66667C17.7756 0.94319 15.117 0.00209 12.375 0V2.77333C14.2315 2.77332 16.0445 3.33581 17.575 4.38667Z" fill="url(#paint3_linear)"/>
<path d="M24.3758 12.0001C24.3739 11.2806 24.3114 10.5625 24.1892 9.85352L21.6025 11.7468V12.0001C21.6027 14.6076 20.4981 17.093 18.5625 18.8401L20.3758 20.8935C22.9078 18.6288 24.3614 15.3971 24.3758 12.0001Z" fill="#21A038"/>
<path d="M12.3758 21.2265C9.7683 21.2268 7.28286 20.1221 5.53575 18.1865L3.48242 19.9999C5.74707 22.5319 8.97877 23.9854 12.3758 23.9999V21.2265Z" fill="url(#paint4_linear)"/>
<path d="M6.18833 5.16075L4.375 3.10742C1.84299 5.37207 0.389447 8.60373 0.375 12.0007H3.14833C3.14812 9.39333 4.25276 6.90783 6.18833 5.16075Z" fill="url(#paint5_linear)"/>
</g>
<defs>
<linearGradient id="paint0_linear" x1="7.09441" y1="17.6263" x2="1.29101" y2="11.5175" gradientUnits="userSpaceOnUse">
<stop offset="0.14" stop-color="#F2E913"/>
<stop offset="0.3" stop-color="#E7E518"/>
<stop offset="0.58" stop-color="#CADB26"/>
<stop offset="0.89" stop-color="#A3CD39"/>
</linearGradient>
<linearGradient id="paint1_linear" x1="7.14451" y1="6.3671" x2="12.3523" y2="0.91685" gradientUnits="userSpaceOnUse">
<stop offset="0.06" stop-color="#0FA8E0"/>
<stop offset="0.54" stop-color="#0099F9"/>
<stop offset="0.92" stop-color="#0291EB"/>
</linearGradient>
<linearGradient id="paint2_linear" x1="13.2457" y1="24.9964" x2="20.5066" y2="20.4795" gradientUnits="userSpaceOnUse">
<stop offset="0.12" stop-color="#A3CD39"/>
<stop offset="0.28" stop-color="#86C339"/>
<stop offset="0.87" stop-color="#21A038"/>
</linearGradient>
<linearGradient id="paint3_linear" x1="9.79624" y1="3.13055" x2="15.0926" y2="7.9325" gradientUnits="userSpaceOnUse">
<stop offset="0.06" stop-color="#0291EB"/>
<stop offset="0.79" stop-color="#0C8ACB"/>
</linearGradient>
<linearGradient id="paint4_linear" x1="1.83004" y1="22.3999" x2="7.99296" y2="27.794" gradientUnits="userSpaceOnUse">
<stop offset="0.13" stop-color="#F2E913"/>
<stop offset="0.3" stop-color="#EBE716"/>
<stop offset="0.53" stop-color="#D9E01F"/>
<stop offset="0.8" stop-color="#BBD62D"/>
<stop offset="0.98" stop-color="#A3CD39"/>
</linearGradient>
<linearGradient id="paint5_linear" x1="4.20375" y1="14.8634" x2="9.95261" y2="8.49453" gradientUnits="userSpaceOnUse">
<stop offset="0.07" stop-color="#A3CD39"/>
<stop offset="0.26" stop-color="#81C55F"/>
<stop offset="0.92" stop-color="#0FA8E0"/>
</linearGradient>
<clipPath id="clip0">
<rect width="150" height="24" fill="white"/>
</clipPath>
</defs>
</svg>
