<svg width="136" height="58" viewBox="0 0 136 58" fill="none" xmlns="http://www.w3.org/2000/svg">
<path fill-rule="evenodd" clip-rule="evenodd" d="M87.8215 57.8031C93.1071 57.8031 97.3918 51.8288 97.3918 44.4591C97.3918 37.0895 93.1071 31.1152 87.8215 31.1152C87.3066 31.1152 84.4003 31.1152 79.102 31.1152C78.5353 35.8165 78.252 40.2644 78.252 44.4591C78.252 47.9304 78.7782 52.3784 79.8301 57.8031C84.124 57.8031 86.7874 57.8031 87.8215 57.8031Z" fill="#393939"/>
<path d="M80.5618 57.803C85.8474 57.803 90.1314 51.8288 90.1314 44.4591C90.1314 37.0895 85.8474 31.1152 80.5618 31.1152C75.2762 31.1152 70.9922 37.0895 70.9922 44.4591C70.9922 51.8288 75.2762 57.803 80.5618 57.803Z" fill="#221C16"/>
<path d="M80.7255 55.1676C85.0088 55.1676 88.4811 50.2996 88.4811 44.2947C88.4811 38.2898 85.0088 33.4219 80.7255 33.4219C76.443 33.4219 72.9707 38.2898 72.9707 44.2947C72.9707 50.2996 76.443 55.1676 80.7255 55.1676Z" fill="#D8D8D8"/>
<path fill-rule="evenodd" clip-rule="evenodd" d="M20.8326 55.8265C26.1179 55.8265 30.4024 49.8522 30.4024 42.4826C30.4024 35.113 26.1179 29.1387 20.8326 29.1387C20.3173 29.1387 17.4108 29.1387 12.113 29.1387C11.5461 33.8399 11.2627 38.288 11.2627 42.4826C11.2627 45.9539 11.7888 50.4019 12.8412 55.8265C17.1347 55.8265 19.7985 55.8265 20.8326 55.8265Z" fill="#393939"/>
<path d="M12.9127 55.8265C18.198 55.8265 22.4825 49.8522 22.4825 42.4826C22.4825 35.113 18.198 29.1387 12.9127 29.1387C7.62736 29.1387 3.34277 35.113 3.34277 42.4826C3.34277 49.8522 7.62736 55.8265 12.9127 55.8265Z" fill="#221C16"/>
<path d="M12.7471 53.52C17.03 53.52 20.502 48.6521 20.502 42.6472C20.502 36.6423 17.03 31.7744 12.7471 31.7744C8.46417 31.7744 4.99219 36.6423 4.99219 42.6472C4.99219 48.6521 8.46417 53.52 12.7471 53.52Z" fill="#D8D8D8"/>
<path fill-rule="evenodd" clip-rule="evenodd" d="M54.1617 52.2025C59.447 52.2025 63.7315 46.2282 63.7315 38.8586C63.7315 31.4889 59.447 25.5146 54.1617 25.5146C53.6465 25.5146 50.74 25.5146 45.4422 25.5146C44.8753 30.2159 44.5918 34.6639 44.5918 38.8586C44.5918 42.3298 45.118 46.7778 46.1703 52.2025C50.4639 52.2025 53.1276 52.2025 54.1617 52.2025Z" fill="#393939"/>
<path d="M46.5718 52.2024C51.8571 52.2024 56.1417 46.2282 56.1417 38.8585C56.1417 31.4889 51.8571 25.5146 46.5718 25.5146C41.2865 25.5146 37.002 31.4889 37.002 38.8585C37.002 46.2282 41.2865 52.2024 46.5718 52.2024Z" fill="#221C16"/>
<path d="M46.4073 49.896C50.6902 49.896 54.1622 45.0281 54.1622 39.0232C54.1622 33.0183 50.6902 28.1504 46.4073 28.1504C42.1243 28.1504 38.6523 33.0183 38.6523 39.0232C38.6523 45.0281 42.1243 49.896 46.4073 49.896Z" fill="#D8D8D8"/>
<path fill-rule="evenodd" clip-rule="evenodd" d="M123.461 53.85C128.746 53.85 133.031 47.8757 133.031 40.506C133.031 33.1364 128.746 27.1621 123.461 27.1621C122.946 27.1621 120.039 27.1621 114.741 27.1621C114.175 31.8634 113.891 36.3113 113.891 40.506C113.891 43.9773 114.417 48.4253 115.47 53.85C119.763 53.85 122.427 53.85 123.461 53.85Z" fill="#393939"/>
<path d="M115.871 53.85C121.156 53.85 125.441 47.8757 125.441 40.5061C125.441 33.1364 121.156 27.1621 115.871 27.1621C110.585 27.1621 106.301 33.1364 106.301 40.5061C106.301 47.8757 110.585 53.85 115.871 53.85Z" fill="#221C16"/>
<path d="M115.707 51.5435C119.989 51.5435 123.462 46.6756 123.462 40.6707C123.462 34.6658 119.989 29.7979 115.707 29.7979C111.423 29.7979 107.951 34.6658 107.951 40.6707C107.951 46.6756 111.423 51.5435 115.707 51.5435Z" fill="#D8D8D8"/>
<path fill-rule="evenodd" clip-rule="evenodd" d="M134.826 26.6568L135.675 44.5725C135.769 46.5719 134.223 48.2693 132.22 48.3638C132.207 48.3644 132.195 48.3649 132.183 48.3653L90.9023 49.8962V44.036C90.9023 41.7008 90.4929 39.3836 89.6918 37.1895C88.9253 35.0895 87.2586 33.4416 85.1478 32.6968L84.0031 32.2931C81.4432 31.3899 78.6 31.8323 76.4367 33.4707L75.4082 34.2497C73.8201 35.4527 72.6266 37.1013 71.9813 38.9847C71.3282 40.8904 71.0775 42.9103 71.2432 44.9176L71.5868 49.0725L22.8121 47.3874L22.5509 39.723C22.4558 36.9305 21.3042 34.2777 19.3283 32.2991L19.0155 31.9858C17.2749 30.243 14.8197 29.4106 12.3761 29.7348C9.90793 30.0623 7.69481 31.42 6.28689 33.4704L5.81397 34.1591C4.07591 36.6903 3.2508 39.7361 3.47395 42.797L3.67226 45.5171C1.86687 45.5171 0.40332 44.0558 0.40332 42.2533C0.40332 42.0464 0.423019 41.84 0.462173 41.6368C1.44106 36.5555 1.96981 32.9585 2.04839 30.8461C2.14565 28.231 2.14565 24.89 2.04839 20.8232C17.8424 22.633 25.7394 23.5379 25.7394 23.5379L72.4226 25.2039L94.0912 28.0296L134.826 26.6568Z" fill="url(#paint0_linear)"/>
<path fill-rule="evenodd" clip-rule="evenodd" d="M103.093 38.0687C109.432 38.0687 110.592 36.594 110.592 34.4104C110.592 32.2268 109.423 29.6768 102.342 29.6768C95.2605 29.6768 94.0918 32.2268 94.0918 34.4104C94.0918 36.594 96.7544 38.0687 103.093 38.0687Z" fill="#F8F8F8"/>
<path fill-rule="evenodd" clip-rule="evenodd" d="M135.101 29.0928C129.148 29.3833 128.411 31.7055 128.411 33.7514C128.411 35.6819 130.492 37.0583 135.355 37.3514" fill="#F8F8F8"/>
<path fill-rule="evenodd" clip-rule="evenodd" d="M97.7832 19.9734C99.3989 23.4753 103.552 25.0067 107.059 23.3939C107.517 23.1834 107.951 22.9239 108.352 22.6203C110.562 20.9516 111.993 19.7271 112.646 18.9464C113.439 17.9996 113.782 16.9494 113.674 15.7957C113.578 14.7663 112.704 13.9845 111.669 14.0022L108.098 14.0636C104.863 14.1191 101.797 15.5153 99.6341 17.9176L97.7832 19.9734Z" fill="#8F3ABF"/>
<path fill-rule="evenodd" clip-rule="evenodd" d="M14.7271 15.624C8.62802 17.4436 4.94307 18.6168 3.67217 19.1434C2.40127 19.6702 1.90455 20.23 2.182 20.8229C19.1869 23.8618 34.2858 25.9748 47.4787 27.1619C67.2681 28.9425 93.358 29.0928 94.0911 29.0928C94.5799 29.0928 108.158 28.2807 134.826 26.6565L107.418 20.0112L14.7271 15.624Z" fill="url(#paint1_linear)"/>
<path fill-rule="evenodd" clip-rule="evenodd" d="M16.053 15.2279C17.353 13.9231 20.668 11.4175 25.9979 7.71122C29.5342 5.2521 33.5187 3.50842 37.7265 2.5786C42.0743 1.61783 46.8377 0.998268 52.0167 0.719925C59.0836 0.340134 66.6346 0.611193 74.6696 1.53313C77.1856 1.82177 79.6598 2.39856 82.0433 3.25212L85.1685 4.37119C88.6719 5.62574 91.9373 7.46303 94.8266 9.80524L107.418 20.011L71.3213 22.5838C42.0458 20.224 25.216 18.7643 20.8322 18.2046C14.2565 17.3651 14.5202 16.7664 16.053 15.2279Z" fill="url(#paint2_linear)"/>
<path fill-rule="evenodd" clip-rule="evenodd" d="M58.004 3.00682C69.2609 5.90933 68.7082 9.05218 71.9811 13.9646C73.6407 16.4557 74.2293 19.2711 73.7455 22.4109L71.3209 22.5837C42.0454 20.224 25.2156 18.7642 20.8318 18.2046C19.0334 17.9749 17.7465 17.7634 16.8573 17.5456L16.1476 17.3426C15.5449 17.137 15.2485 16.92 15.1699 16.6727C15.4029 16.2487 15.6314 15.834 15.8554 15.4282C15.9181 15.3635 15.9842 15.2966 16.0526 15.2278C17.3361 13.9395 20.5839 11.4807 25.7961 7.8513L25.9975 7.71111C29.5339 5.25204 33.5184 3.50835 37.7262 2.57854C39.9385 2.08967 42.2584 1.68913 44.686 1.37695C49.5111 1.58316 54.3169 2.0561 58.004 3.00682Z" fill="url(#paint3_linear)"/>
<path fill-rule="evenodd" clip-rule="evenodd" d="M20.832 31.7747L22.812 36.3608L30.4019 33.8729L25.5758 25.4707L20.832 31.7747Z" fill="#C369EA"/>
<path fill-rule="evenodd" clip-rule="evenodd" d="M24.2412 39.0228L31.4604 38.0684L27.8508 45.7769L24.2412 39.0228Z" fill="#C369EA"/>
<path fill-rule="evenodd" clip-rule="evenodd" d="M19.2246 31.1153L12.582 23.3466L14.562 19.8252L22.8119 20.8227L19.9865 24.6179L19.2246 31.1153Z" fill="#C369EA"/>
<path fill-rule="evenodd" clip-rule="evenodd" d="M109.985 42.4429L129.537 41.9058C130.335 41.8839 130.999 42.5116 131.021 43.308C131.021 43.3212 131.021 43.3345 131.021 43.3477V43.3879C131.021 44.1909 130.381 44.8479 129.577 44.87L110.026 45.4071C109.228 45.429 108.564 44.8012 108.542 44.0049C108.542 43.9917 108.541 43.9785 108.541 43.9653V43.925C108.541 43.1221 109.181 42.465 109.985 42.4429Z" fill="#C88D3E"/>
<path fill-rule="evenodd" clip-rule="evenodd" d="M68.297 22.254C67.0572 25.9052 63.0876 27.8616 59.4307 26.6238C58.9532 26.4622 58.4947 26.2495 58.063 25.9894C55.6915 24.5604 54.1399 23.4919 53.4081 22.7837C52.2435 21.6567 52.2561 20.2401 53.4456 18.5339C53.7799 18.0544 54.3095 17.7471 54.8923 17.6945L58.2564 17.3909C60.9453 17.1482 63.6137 18.0366 65.6186 19.842L68.297 22.254Z" fill="#C369EA"/>
<defs>
<linearGradient id="paint0_linear" x1="138.161" y1="35.8803" x2="9.8321" y2="20.0892" gradientUnits="userSpaceOnUse">
<stop stop-color="#DCA635"/>
<stop offset="1" stop-color="#F6D058"/>
</linearGradient>
<linearGradient id="paint1_linear" x1="1.99015" y1="22.3265" x2="119.221" y2="29.2469" gradientUnits="userSpaceOnUse">
<stop stop-color="#FDF700"/>
<stop offset="1" stop-color="#FFF986"/>
</linearGradient>
<linearGradient id="paint2_linear" x1="95.3246" y1="11.3601" x2="38.4903" y2="18.1106" gradientUnits="userSpaceOnUse">
<stop stop-color="#4F479D"/>
<stop offset="1" stop-color="#272264"/>
</linearGradient>
<linearGradient id="paint3_linear" x1="75.4732" y1="11.7912" x2="29.5253" y2="15.6112" gradientUnits="userSpaceOnUse">
<stop stop-color="white" stop-opacity="0.01"/>
<stop offset="1" stop-color="white" stop-opacity="0.28966"/>
</linearGradient>
</defs>
</svg>
