<svg width="47" height="52" viewBox="0 0 47 52" fill="none" xmlns="http://www.w3.org/2000/svg">
<g clip-path="url(#clip0)">
<path d="M23.39 43.14C12.22 43.14 2.89 36.6 0.57 27.86C0.197329 29.2393 0.00572024 30.6612 0 32.09C0 42.88 10.47 51.62 23.39 51.62C36.31 51.62 46.78 42.88 46.78 32.1C46.7751 30.6679 46.5835 29.2425 46.21 27.86C43.89 36.6 34.56 43.14 23.39 43.14Z" fill="#C60C1A"/>
<path d="M23.3898 43.1401C34.5598 43.1401 43.8898 36.6001 46.2098 27.8501C43.8898 19.1101 34.5598 12.5601 23.3898 12.5601C12.2198 12.5601 2.88982 19.1201 0.569824 27.8601C2.88982 36.6001 12.2198 43.1401 23.3898 43.1401Z" fill="#E40B13"/>
<path d="M28.1499 17.76C29.5618 17.5141 31.0094 17.5649 32.4005 17.9093C33.7916 18.2536 35.0958 18.8839 36.2299 19.76C37.4725 20.7337 38.4997 21.9545 39.2467 23.3452C39.9937 24.7359 40.4443 26.2664 40.5699 27.84C40.743 29.5149 40.6211 31.2072 40.2099 32.84C39.749 34.5169 38.7688 36.0048 37.4099 37.09C34.7399 39.23 30.8399 39.82 28.1599 37.94V37.28C29.9808 35.9672 31.5295 34.3132 32.7199 32.41C33.1799 31.67 33.6299 31.03 34.1499 30.33C34.7254 29.6104 35.1106 28.7576 35.2699 27.85C35.5559 25.834 35.0624 23.7848 33.8899 22.12C32.5393 20.1827 30.4814 18.8538 28.1599 18.42L28.1499 17.76Z" fill="#F07D58"/>
<path d="M0.569824 10.68C2.53986 9.98169 4.64482 9.74895 6.71982 10C8.75957 10.1583 10.785 10.4658 12.7798 10.92C16.7136 11.8469 20.5482 13.153 24.2298 14.82L21.2298 16.82C21.2298 15.42 21.3798 14.03 21.4498 12.63C21.5198 11.23 21.7098 9.84 21.8298 8.44C21.9498 7.04 22.1798 5.65 22.4498 4.25C22.6902 2.81818 23.004 1.39964 23.3898 0C23.7703 1.38008 24.0807 2.77853 24.3198 4.19C24.5898 5.59 24.7498 6.98 24.9398 8.38C25.1298 9.78 25.2698 11.17 25.3198 12.57C25.3698 13.97 25.5198 15.36 25.5398 16.76L25.5898 19.88L22.5898 18.74C18.9598 17.38 15.3098 15.92 11.6998 14.47L6.21982 12.32C4.40043 11.5732 2.5063 11.0234 0.569824 10.68Z" fill="#25632A"/>
<path d="M12.0002 0C12.4279 0.706664 12.9568 1.3468 13.5702 1.9L15.3102 3.66C16.4502 4.82 17.5802 6 18.7002 7.21C20.9002 9.63 23.0702 12.11 25.0802 14.67L22.3002 14.17C23.7348 13.4664 25.2754 13.0035 26.8602 12.8C28.3183 12.5703 29.7973 12.5032 31.2702 12.6C32.7151 12.6787 34.1487 12.8998 35.5502 13.26C36.9321 13.6105 38.273 14.1066 39.5502 14.74C38.1202 14.95 36.7502 15.06 35.3902 15.24C34.0302 15.42 32.7202 15.62 31.3902 15.84C30.0602 16.06 28.8502 16.38 27.6402 16.71C26.5514 17.0474 25.4941 17.479 24.4802 18L22.8902 18.88L21.7002 17.46C19.5376 14.9259 17.5656 12.2352 15.8002 9.41C14.9136 7.98531 14.1057 6.5131 13.3802 5C12.7502 3.41 11.8702 1.82 12.0002 0Z" fill="#25632A"/>
<path d="M16.7302 26.52C15.9773 25.4521 15.5486 24.1897 15.4954 22.8842C15.4422 21.5787 15.7667 20.2856 16.4302 19.16C17.1191 17.9506 18.0857 16.9223 19.2502 16.16C20.3402 15.4583 21.5353 14.9351 22.7902 14.61L21.7002 15.32C22.9017 13.9402 24.209 12.6563 25.6102 11.48C26.3202 10.88 27.0702 10.33 27.8502 9.78996C28.6463 9.23678 29.4857 8.74854 30.3602 8.32996C30.1007 9.26533 29.7662 10.1783 29.3602 11.06C28.9702 11.92 28.5702 12.76 28.1102 13.56C27.2096 15.1505 26.1865 16.6684 25.0502 18.1L24.7202 18.52L23.9602 18.8C23.5202 18.96 23.0802 19.13 22.6402 19.26C22.2002 19.39 21.8002 19.6 21.4302 19.81C20.6779 20.1866 19.9786 20.6607 19.3502 21.22C17.9393 22.6658 17.0222 24.521 16.7302 26.52Z" fill="#25632A"/>
<path d="M29.9299 24.6299C27.9299 22.7199 26.9299 21.4099 25.9299 20.3799C25.4164 19.8196 24.8651 19.295 24.2799 18.8099C23.6299 18.1899 22.7799 17.6799 21.6699 16.7599C22.1661 16.3031 22.7528 15.9558 23.392 15.7404C24.0311 15.5251 24.7084 15.4465 25.3799 15.5099C26.8005 15.6189 28.1283 16.2578 29.0999 17.2999C30.0425 18.2751 30.6486 19.5259 30.8299 20.8699C31.0121 22.1918 30.6908 23.5338 29.9299 24.6299Z" fill="#25632A"/>
</g>
<defs>
<clipPath id="clip0">
<rect width="46.78" height="51.62" fill="white"/>
</clipPath>
</defs>
</svg>
