<svg width="242" height="242" viewBox="0 0 242 242" fill="none" xmlns="http://www.w3.org/2000/svg">
<path d="M117.572 226.054H102.706L103.397 223.49L109.491 215.222H117.341L117.572 226.054Z" fill="#EFC44F"/>
<path d="M136.543 215.222V226.04H140.994V223.404L143.745 225.089C144.76 225.71 145.926 226.039 147.116 226.04H156.22C156.22 226.04 157.127 223.706 151.726 222.107C150.229 221.693 148.914 220.79 147.99 219.542C147.066 218.295 146.586 216.774 146.626 215.222H136.543Z" fill="#EFC44F"/>
<path d="M154.765 138.069L149.925 132.451L148.369 130.651C147.304 130.618 146.262 130.331 145.33 129.815C144.105 129.311 147.087 131.501 148.067 132.696C148.623 133.477 149.01 134.365 149.205 135.304C149.205 135.635 149.205 135.88 149.046 135.909C148.888 135.937 148.556 135.779 148.067 135.275C146.529 133.83 144.882 132.505 143.14 131.313C142.816 131.049 142.513 130.76 142.233 130.449L141.167 131.371L141.023 131.501C140.848 131.652 140.706 131.836 140.605 132.044C140.504 132.251 140.447 132.477 140.436 132.708C140.425 132.938 140.461 133.168 140.542 133.384C140.624 133.6 140.748 133.797 140.907 133.964L148.888 143.212C149.183 143.551 149.6 143.759 150.048 143.792C150.496 143.824 150.938 143.678 151.279 143.385L154.592 140.504C154.766 140.357 154.909 140.177 155.013 139.974C155.116 139.772 155.177 139.55 155.194 139.323C155.21 139.096 155.18 138.868 155.106 138.653C155.033 138.437 154.917 138.239 154.765 138.069ZM152.907 140.216C152.704 140.216 152.507 140.156 152.338 140.043C152.17 139.931 152.039 139.771 151.962 139.584C151.884 139.397 151.864 139.192 151.904 138.993C151.943 138.795 152.04 138.613 152.183 138.47C152.326 138.327 152.509 138.229 152.707 138.19C152.905 138.15 153.111 138.171 153.298 138.248C153.485 138.325 153.645 138.456 153.757 138.625C153.869 138.793 153.929 138.991 153.929 139.193C153.929 139.327 153.903 139.46 153.852 139.584C153.8 139.708 153.725 139.821 153.63 139.916C153.535 140.011 153.422 140.086 153.298 140.138C153.174 140.189 153.041 140.216 152.907 140.216Z" fill="#454240"/>
<path d="M152.907 138.171C152.704 138.171 152.507 138.231 152.338 138.343C152.17 138.456 152.039 138.615 151.962 138.802C151.884 138.989 151.864 139.195 151.903 139.393C151.943 139.592 152.04 139.774 152.183 139.917C152.326 140.06 152.509 140.157 152.707 140.197C152.905 140.236 153.111 140.216 153.298 140.139C153.485 140.061 153.645 139.93 153.757 139.762C153.869 139.594 153.929 139.396 153.929 139.194C153.929 138.922 153.822 138.662 153.63 138.47C153.438 138.279 153.178 138.171 152.907 138.171ZM152.907 139.799C152.787 139.799 152.67 139.763 152.57 139.697C152.471 139.63 152.393 139.536 152.348 139.425C152.302 139.315 152.29 139.193 152.313 139.076C152.336 138.958 152.394 138.85 152.479 138.766C152.563 138.681 152.671 138.624 152.788 138.6C152.906 138.577 153.028 138.589 153.138 138.635C153.249 138.68 153.343 138.758 153.41 138.858C153.476 138.957 153.512 139.074 153.512 139.194C153.493 139.349 153.416 139.491 153.295 139.591C153.174 139.69 153.019 139.739 152.863 139.727L152.907 139.799Z" fill="#6B767C"/>
<path d="M152.863 139.798C153.197 139.798 153.468 139.527 153.468 139.193C153.468 138.859 153.197 138.588 152.863 138.588C152.529 138.588 152.258 138.859 152.258 139.193C152.258 139.527 152.529 139.798 152.863 139.798Z" fill="white"/>
<path d="M149.205 135.404L149.046 136.009C149.219 135.937 149.248 135.692 149.205 135.404Z" fill="#FFCFA4"/>
<path d="M150.112 130.564L145.33 125.825L139.812 127.266L141.253 131.371L142.247 130.521C142.527 130.832 142.831 131.121 143.154 131.385C144.893 132.596 146.535 133.94 148.066 135.404C148.571 135.909 148.873 136.081 149.046 136.038L149.204 135.433C149.01 134.495 148.622 133.607 148.066 132.826C147.101 131.558 144.12 129.369 145.33 129.945C146.262 130.461 147.304 130.747 148.369 130.78L149.925 132.581L150.213 131.443C150.267 131.38 150.307 131.306 150.331 131.227C150.355 131.148 150.363 131.064 150.353 130.982C150.344 130.899 150.317 130.82 150.276 130.748C150.234 130.676 150.179 130.614 150.112 130.564Z" fill="#FFCFA4"/>
<path d="M101.525 115.916L101.554 115.8L101.525 115.916Z" fill="#FFCFA4"/>
<path d="M137.983 158.006C138.416 145.128 131.818 114.013 131.818 114.013V114.158V114.013L112.012 113.135C111.765 113.284 111.49 113.382 111.205 113.423L107.028 113.913C107.028 113.913 106.495 116.592 102.922 116.189C101.669 118.893 101.058 121.851 101.136 124.831C102.015 139.495 107.561 163.724 106.552 172.065C105.112 183.862 109.52 215.279 109.52 215.279H117.356C117.356 215.279 115.671 182.148 117.356 171.215C119.041 160.282 118.307 128.807 118.307 128.807L120.669 128.966L128.908 168.046C128.217 183.891 136.557 215.293 136.557 215.293H146.641C146.641 215.293 137.623 168.723 137.983 158.006Z" fill="#454240"/>
<path d="M106.84 107.575C106.754 107.566 106.667 107.566 106.581 107.575C106.415 107.543 106.244 107.544 106.078 107.579C105.912 107.613 105.755 107.681 105.616 107.776L102.98 109.735L101.539 115.814V115.944C102.011 116.071 102.493 116.157 102.98 116.203C106.552 116.592 107.085 113.927 107.085 113.927L111.262 113.437C111.548 113.396 111.822 113.298 112.069 113.149C112.214 113.063 112.349 112.962 112.472 112.847C112.673 112.678 112.839 112.473 112.962 112.242L113.985 110.153L106.84 107.575Z" fill="#FFCFA4"/>
<path d="M112.746 49.6962C112.226 49.1087 111.745 48.488 111.306 47.838C110.556 47.8955 109.806 47.7184 109.161 47.3313C108.516 46.9442 108.007 46.3662 107.705 45.6773C106.74 43.2717 104.103 39.1952 107.705 39.1952C107.705 39.1952 110.211 43.2141 110.081 36.6743C110.341 36.4295 109.534 35.7236 110.557 35.1186C111.58 34.5136 112.458 30.4659 114.648 29.8033C118.537 28.6221 124.285 33.5485 132.438 34.312C132.553 35.3203 132.654 36.343 132.755 37.3514C136.644 36.7031 138.444 24.1566 134.195 24.8768C129.946 25.5971 134.195 22.9178 120.467 23.3499C118.909 23.3936 117.355 23.5331 115.815 23.7677C115.526 23.4796 115.238 23.1771 114.936 22.9178C114 22.1255 110.499 19.1293 106.653 19.864C100.445 21.0308 95.5326 31.503 97.2036 39.3968C97.8374 42.3642 99.5515 45.7205 98.5576 46.412C97.5637 47.1034 95.6766 44.5825 94.2362 45.2452C92.7957 45.9078 92.3347 50.7478 94.2362 53.4415C97.1171 57.518 106.135 58.3823 112.962 55.026L112.775 49.6818L112.746 49.6962Z" fill="#934007"/>
<path d="M134.396 84.4413C135.382 81.4714 136.076 78.4128 136.471 75.3087C136.471 73.7818 132.149 69.4027 132.048 67.919C131.803 63.5976 131.4 62.8918 129.83 61.4369L123.247 58.6424L122.944 61.0336C122.944 61.0336 120.064 64.1162 113.063 58.9161V57.4756C112.098 57.6196 96.9007 60.1837 85.4057 77.6423C73.4641 95.605 101.525 115.916 101.525 115.916V115.786L102.965 109.65C102.965 109.65 88.5603 94.5534 92.8818 86.53C95.3532 81.8094 99.2702 78.0034 104.06 75.6688L107.92 89.3965C109.386 94.6072 109.195 100.145 107.373 105.242L106.595 107.561C106.681 107.552 106.768 107.552 106.854 107.561L113.942 110.111L112.919 112.199C112.796 112.431 112.63 112.636 112.429 112.804C112.306 112.919 112.171 113.021 112.026 113.107L131.832 113.985C131.832 113.985 131.832 113.582 131.832 112.833C131.832 111.292 131.976 108.281 132.048 104.464L139.798 127.238L145.315 125.797L134.396 84.4413Z" fill="#9162A1"/>
<path d="M123.362 56.5962C120.707 55.9842 118.237 54.7443 116.16 52.9806C114.94 51.9986 113.821 50.8985 112.818 49.6963L113.005 55.0405L113.092 57.5037V58.9441C120.049 64.1443 122.973 61.0616 122.973 61.0616L123.276 58.6705L123.535 56.6394L123.362 56.5962Z" fill="#EDA983"/>
<path d="M132.826 37.3375C132.725 36.3148 132.624 35.3065 132.509 34.2981C124.356 33.5347 118.609 28.5362 114.719 29.7895C112.53 30.4521 111.738 34.4422 110.628 35.1048C109.519 35.7674 110.412 36.4156 110.153 36.6605C110.268 43.2003 107.819 39.1237 107.776 39.1814C104.175 39.1814 106.811 43.2579 107.776 45.6635C108.079 46.3524 108.588 46.9304 109.233 47.3175C109.878 47.7046 110.627 47.8817 111.377 47.8242C111.817 48.4742 112.298 49.0949 112.818 49.6824C113.821 50.8847 114.94 51.9848 116.16 52.9667C118.237 54.7304 120.707 55.9703 123.362 56.5823C125.228 56.9739 127.17 56.7621 128.908 55.9773C133.69 53.7734 133.618 45.5915 132.826 37.3375Z" fill="#FFCFA4"/>
<path d="M127.309 49.1773L118.58 48.2842L122.21 51.3812C123.276 52.3031 125.97 53.081 126.863 51.9862L127.309 49.1773Z" fill="white"/>
<path d="M125.494 47.7804C125.303 47.8205 125.104 47.7831 124.94 47.6764C124.777 47.5697 124.663 47.4024 124.623 47.2114C124.582 47.0204 124.62 46.8212 124.727 46.6578C124.833 46.4944 125.001 46.38 125.192 46.3399C125.892 46.0314 126.539 45.6132 127.107 45.1011C125.721 44.1438 124.705 42.7408 124.226 41.1254C124.173 40.9344 124.198 40.7299 124.295 40.557C124.392 40.3841 124.554 40.257 124.745 40.2035C124.936 40.15 125.14 40.1746 125.313 40.2718C125.486 40.3691 125.613 40.531 125.667 40.7221C125.999 41.9734 126.752 43.0722 127.799 43.8335C128.047 43.9213 128.263 44.0827 128.418 44.2964C128.572 44.51 128.658 44.7656 128.663 45.0291C128.663 46.1671 126.877 47.1754 125.782 47.6651C125.696 47.7245 125.597 47.7638 125.494 47.7804Z" fill="#EDA983"/>
<path d="M109.476 45.7497C109.327 45.7508 109.181 45.7055 109.058 45.62C108.458 45.2807 107.978 44.7624 107.687 44.1375C107.395 43.5126 107.305 42.8123 107.431 42.1341C107.455 42.0395 107.498 41.9507 107.557 41.8727C107.616 41.7947 107.69 41.7291 107.774 41.6796C107.858 41.6301 107.951 41.5977 108.048 41.5843C108.145 41.5708 108.244 41.5765 108.338 41.6011C108.433 41.6257 108.521 41.6687 108.599 41.7276C108.677 41.7865 108.743 41.8602 108.793 41.9445C108.842 42.0287 108.874 42.1219 108.888 42.2187C108.901 42.3155 108.896 42.414 108.871 42.5086C108.871 42.5086 108.669 43.5313 109.951 44.4388C110.077 44.5268 110.172 44.6528 110.221 44.7985C110.271 44.9441 110.272 45.1017 110.225 45.2481C110.179 45.3946 110.086 45.5223 109.962 45.6126C109.837 45.7028 109.687 45.7508 109.534 45.7497H109.476Z" fill="#EDA983"/>
<path d="M120.38 40.4192C120.394 40.3186 120.385 40.2164 120.355 40.1194C120.325 40.0225 120.275 39.9331 120.208 39.8574C120.13 39.7777 120.035 39.7177 119.93 39.6826C119.824 39.6475 119.712 39.6383 119.603 39.6557H119.516H119.415C119.034 39.5555 118.674 39.3897 118.349 39.166C118.185 39.0666 117.988 39.0366 117.802 39.0825C117.615 39.1285 117.455 39.2466 117.355 39.4108C117.256 39.5751 117.226 39.7721 117.272 39.9585C117.318 40.1449 117.436 40.3054 117.6 40.4048C117.913 40.5949 118.24 40.7588 118.58 40.8945C118.58 40.8945 118.58 40.8945 118.58 40.981C118.58 41.73 118.998 42.335 119.531 42.335C120.064 42.335 120.481 41.73 120.481 40.981C120.477 40.7896 120.443 40.6 120.38 40.4192Z" fill="#454240"/>
<path d="M131.314 40.0455C131.252 39.9731 131.176 39.9137 131.091 39.8708C131.006 39.828 130.913 39.8024 130.818 39.7957C130.722 39.789 130.627 39.8013 130.536 39.8318C130.446 39.8623 130.363 39.9105 130.291 39.9735C130.114 40.1307 129.927 40.2752 129.729 40.4057C129.663 40.3271 129.582 40.2624 129.49 40.2154C129.399 40.1685 129.299 40.1401 129.196 40.132C128.678 40.132 128.246 40.737 128.246 41.486C128.246 42.2351 128.663 42.8401 129.196 42.8401C129.729 42.8401 129.974 42.4079 130.089 41.8461C130.502 41.6449 130.885 41.3881 131.227 41.0827C131.303 41.0215 131.365 40.9457 131.411 40.8597C131.456 40.7738 131.484 40.6795 131.492 40.5826C131.5 40.4856 131.489 40.3881 131.458 40.2958C131.427 40.2035 131.378 40.1184 131.314 40.0455Z" fill="#454240"/>
<path d="M120.481 37.5535C120.293 37.5546 120.112 37.4822 119.977 37.3518C118.364 35.7817 115.944 37.1645 115.843 37.2222C115.679 37.3157 115.485 37.341 115.302 37.2926C115.119 37.2443 114.963 37.1262 114.867 36.9638C114.771 36.8013 114.742 36.6075 114.787 36.4242C114.832 36.2408 114.948 36.0825 115.108 35.9833C115.252 35.8969 118.565 33.9811 120.971 36.3291C121.075 36.429 121.146 36.5576 121.176 36.6984C121.206 36.8393 121.193 36.9858 121.138 37.1191C121.084 37.2525 120.991 37.3665 120.871 37.4465C120.752 37.5265 120.611 37.5687 120.467 37.5679L120.481 37.5535Z" fill="#934007"/>
<path d="M131.631 37.986C131.475 37.986 131.323 37.9354 131.198 37.8419C131.126 37.8419 129.268 36.4014 128.317 37.6402C128.262 37.7242 128.189 37.7956 128.104 37.8498C128.02 37.904 127.924 37.9398 127.825 37.9549C127.725 37.97 127.623 37.964 127.526 37.9374C127.429 37.9107 127.339 37.864 127.261 37.8002C127.183 37.7364 127.119 37.657 127.074 37.5671C127.028 37.4772 127.002 37.3787 126.997 37.2781C126.993 37.1775 127.009 37.077 127.045 36.9831C127.081 36.8891 127.137 36.8039 127.208 36.7327C128.735 34.8745 131.112 35.8973 132.149 36.7327C132.265 36.8259 132.35 36.9526 132.391 37.0957C132.432 37.2387 132.428 37.3909 132.379 37.5314C132.33 37.672 132.238 37.7939 132.117 37.8804C131.996 37.967 131.851 38.0139 131.703 38.0148L131.631 37.986Z" fill="#934007"/>
</svg>
