<svg width="64" height="65" viewBox="0 0 64 65" fill="none" xmlns="http://www.w3.org/2000/svg">
<g clip-path="url(#clip0)">
<path d="M56.0001 13.71C53.7701 20.48 47.2001 30.11 32.6601 44.65C14.5301 62.78 3.00006 53 0.520059 41.12C-2.73994 55.35 9.52006 77.52 32.6601 54.41C56.2101 30.86 58.8701 20.16 56.0001 13.71Z" fill="#1D1C45"/>
<path d="M32.66 44.65C47.19 30.11 53.76 20.48 56 13.71C55.128 11.9306 53.9269 10.3324 52.46 9.00003C40.19 -2.99997 26.24 26.52 8.39002 31.68C4.11002 32.92 1.55002 36.63 0.52002 41.12C3.00002 53 14.53 62.78 32.66 44.65Z" fill="#212451"/>
<path d="M9.99999 34.16C13.68 32.72 17.57 33.8601 18.69 36.7001C19.81 39.5401 16.76 42.3701 13.08 43.8101C9.39999 45.2501 6.46999 44.81 5.34999 41.92C4.22999 39.03 6.33999 35.6 9.99999 34.16Z" fill="#5D557F"/>
<path d="M29.5601 26.21C30.5601 24.75 31.1201 23.34 32.1501 21.92C33.1801 20.5 34.3501 18.92 35.4501 17.6C36.5363 16.1929 37.8234 14.953 39.2701 13.92C40.7785 12.8 42.5288 12.0499 44.3801 11.73L44.6901 12.05C44.3201 14.14 43.0401 15.39 41.7801 16.9C40.7811 18.193 39.6407 19.3704 38.3801 20.41C37.0467 21.4833 35.6567 22.53 34.2101 23.55C32.7701 24.55 31.3701 25.55 29.8801 26.55L29.5601 26.21Z" fill="#5D557F"/>
<path d="M56.15 1.84997C58.58 2.46071 60.871 3.52985 62.9 4.99997C62.06 3.25997 56.9 0.479972 54.31 -2.75187e-05C51 -0.530028 51 8.20997 51 8.20997C51 8.20997 52 10.77 52.84 10.06C52.84 10.06 52.8 1.29997 56.15 1.84997Z" fill="#246C2D"/>
<path d="M62.4998 6.11006C62.6089 6.07603 62.7087 6.01719 62.7912 5.93815C62.8738 5.85911 62.9369 5.76201 62.9757 5.65448C63.0145 5.54695 63.0278 5.4319 63.0146 5.31836C63.0014 5.20482 62.9621 5.09587 62.8998 5.00006C60.8655 3.53941 58.5711 2.48047 56.1398 1.88006C52.7998 1.30006 52.7998 10.0001 52.7998 10.0001C53.0806 9.72408 53.284 9.37927 53.3898 9.00006C54.3198 5.79006 59.8998 7.28006 62.4998 6.11006Z" fill="#225B28"/>
<path d="M49.95 6.10995L33.77 1.69995C33.77 1.69995 36.9 8.99995 44.68 8.99995L39.26 14C39.26 14 46.04 14.31 51.06 11.81C51.06 11.81 49.23 17.98 52.52 21.04L54.86 11.81C54.86 11.81 54.69 20.81 58.86 21.04C58.87 21 60.51 8.99995 49.95 6.10995Z" fill="#246C2D"/>
</g>
<defs>
<clipPath id="clip0">
<rect width="63.03" height="64.43" fill="white"/>
</clipPath>
</defs>
</svg>
