<svg width="168" height="168" viewBox="0 0 168 168" fill="none" xmlns="http://www.w3.org/2000/svg">
<path d="M95.8399 37.83L95.6299 37.97L96.1299 40.92C96.1299 40.92 98.1299 43.06 102.99 39.45L103.22 33.04C101.49 35.1 98.7199 37.29 95.8399 37.83Z" fill="#EDA983"/>
<path d="M106.65 25.7501L106.54 25.6401C105.81 24.9601 101.26 21.2601 89.4801 22.3601C88.7701 28.7301 88.2501 35.6901 91.9801 37.4201C93.1864 37.9649 94.5347 38.112 95.8301 37.8401C98.7201 37.3001 101.49 35.1001 103.19 33.0501C103.551 32.6423 103.885 32.2114 104.19 31.7601C104.711 31.8 105.231 31.6771 105.679 31.4083C106.127 31.1396 106.48 30.7384 106.69 30.2601C107.32 28.5801 109.15 25.7501 106.65 25.7501Z" fill="#FFCFA4"/>
<path d="M98.4998 27.9396C98.8644 27.9396 99.1599 27.5187 99.1599 26.9996C99.1599 26.4804 98.8644 26.0596 98.4998 26.0596C98.1353 26.0596 97.8398 26.4804 97.8398 26.9996C97.8398 27.5187 98.1353 27.9396 98.4998 27.9396Z" fill="#454240"/>
<path d="M91.7899 28.2804C92.1544 28.2804 92.4499 27.8595 92.4499 27.3404C92.4499 26.8212 92.1544 26.4004 91.7899 26.4004C91.4254 26.4004 91.1299 26.8212 91.1299 27.3404C91.1299 27.8595 91.4254 28.2804 91.7899 28.2804Z" fill="#454240"/>
<path d="M96.7798 25.1695C96.7798 25.1695 99.5598 24.4695 100.5 25.1695C101.44 25.8695 100.16 23.4995 98.6398 23.2495C97.1198 22.9995 96.7798 25.1695 96.7798 25.1695Z" fill="#89471B"/>
<path d="M93.7002 24.7804C93.7002 24.7804 91.3402 24.6804 90.7702 25.5504C90.2002 26.4204 90.6102 23.8604 91.7702 23.3004C92.9302 22.7404 93.7002 24.7804 93.7002 24.7804Z" fill="#89471B"/>
<path d="M93.1001 32.6796L99.1601 32.0596L96.6401 34.2096C95.9001 34.8496 94.0301 35.3896 93.4101 34.6296L93.1001 32.6796Z" fill="white"/>
<path d="M94.3599 31.7197C94.2907 31.7349 94.2191 31.7349 94.1499 31.7197C93.4099 31.3797 92.1499 30.7197 92.1499 29.8897C92.1537 29.7068 92.2131 29.5294 92.3203 29.3811C92.4275 29.2328 92.5774 29.1207 92.7499 29.0597C93.478 28.5324 94.001 27.7691 94.2299 26.8997C94.2483 26.8341 94.2794 26.7727 94.3215 26.7191C94.3636 26.6654 94.4159 26.6206 94.4753 26.5872C94.5348 26.5538 94.6002 26.5324 94.6679 26.5242C94.7356 26.5161 94.8042 26.5214 94.8699 26.5397C94.9356 26.5581 94.997 26.5893 95.0506 26.6314C95.1042 26.6735 95.149 26.7258 95.1824 26.7852C95.2159 26.8446 95.2373 26.91 95.2454 26.9777C95.2536 27.0454 95.2483 27.1141 95.2299 27.1797C94.9071 28.3056 94.1993 29.2824 93.2299 29.9397C93.6278 30.2961 94.0802 30.5865 94.5699 30.7997C94.7025 30.8276 94.8186 30.907 94.8927 31.0204C94.9668 31.1339 94.9927 31.2721 94.9649 31.4047C94.937 31.5373 94.8577 31.6535 94.7442 31.7275C94.6307 31.8016 94.4925 31.8276 94.3599 31.7997V31.7197Z" fill="#EDA983"/>
<path d="M91.1302 74.0801C91.1302 74.0801 88.9902 99.4101 88.1302 107.25C87.2702 115.09 83.4902 151.42 83.4902 151.42H88.1302C88.1302 151.42 94.9202 126.25 94.4402 114.59L98.7802 85.7601H100.78C100.78 85.7601 101.27 108.93 102.44 116.93C103.61 124.93 102.44 151.43 102.44 151.43H107.88C107.88 151.43 111 126.25 110 117.58C109 108.91 109 74.0801 109 74.0801H91.1302Z" fill="#3A6988"/>
<path d="M73.1602 156.08H88.1602V151.41H83.5201L73.1602 153.75V156.08Z" fill="#454240"/>
<path d="M102.33 156.08H110.19L107.93 151.41H102.49L102.33 156.08Z" fill="#454240"/>
<path d="M95.9099 39.7402C95.6699 39.7402 90.6499 39.7402 84.1499 46.5702C90.4299 40.0002 95.3299 39.7502 95.9099 39.7402Z" fill="#62A5D2"/>
<path d="M114.24 43.3304C114.24 43.3304 115.66 41.0004 103 39.4404L95.9401 39.7404C87.7001 42.0004 89.0001 58.0804 89.0001 58.0804L91.1401 74.0804H109C109 74.0804 116.49 53.7504 114.24 43.3304Z" fill="#62A5D2"/>
<path d="M84.1602 62.0501V62.0901L88.9902 58.1201V58.0801L84.1602 62.0501Z" fill="#4488B7"/>
<path d="M96.0002 39.7402H95.9402C95.3502 39.7402 90.4502 40.0002 84.1802 46.6202V62.0502L89.0102 58.0502C89.0102 58.0502 87.7002 42.0002 96.0002 39.7402Z" fill="#4488B7"/>
<path d="M52.0801 42.6602V65.7702H84.1601V62.0902V62.0502V46.6202V46.5702V42.6602H52.0801Z" fill="#DCB57E"/>
<path d="M76.5699 65.0802L76.1899 65.0002C73.8183 64.3206 71.482 63.5229 69.1899 62.6102C68.4399 62.1102 67.2699 63.3602 69.1899 64.2802L64.4399 65.8102C64.4399 65.8102 69.2399 68.8902 70.5199 69.1202C73.5199 69.6702 75.7099 69.1202 75.3499 69.1202L76.5699 65.0802Z" fill="#FFCFA4"/>
<path d="M84.1498 46.1602H52.0698V47.9102H84.1498V46.1602Z" fill="#ECD1AD"/>
<path d="M84.1498 60.7197H52.0698V62.4697H84.1498V60.7197Z" fill="#ECD1AD"/>
<path d="M106.53 25.64L106.38 25.49C105.429 24.7314 104.362 24.1304 103.22 23.71C103.22 23.71 104.6 27.13 104.79 27.63C104.89 27.91 104.97 26.63 105.45 26.07C105.612 25.9254 105.807 25.8218 106.018 25.7678C106.228 25.7139 106.448 25.7112 106.66 25.76L106.53 25.64Z" fill="#89471B"/>
<path d="M103.91 23.4296C100.099 20.8819 95.5814 19.6012 91.0002 19.7696C90.2002 19.7696 89.7302 19.8596 89.7302 19.8596C82.0302 20.4096 83.6202 23.2096 83.6202 23.2096C93.7402 21.2096 99.8302 22.3896 103.18 23.7096C104.322 24.13 105.389 24.731 106.34 25.4896C105.59 24.7354 104.777 24.0462 103.91 23.4296Z" fill="#62A5D3"/>
<path d="M104.31 14.9096C100.65 10.2496 90.4798 12.4996 89.9998 17.7496C89.9398 18.4296 89.8598 19.1396 89.7798 19.8596C89.7798 19.8596 90.2498 19.7996 91.0598 19.7696C95.6343 19.6048 100.144 20.8854 103.95 23.4296C104.889 24.0882 105.766 24.8313 106.57 25.6496L106.66 25.7296C106.67 25.6196 107.94 19.5296 104.31 14.9096Z" fill="#4488B7"/>
<path d="M106.55 25.6402L106.38 25.4902L106.53 25.6402L106.64 25.7502L106.55 25.6402Z" fill="#4488B7"/>
<path d="M103.91 23.4297C100.099 20.8814 95.5813 19.6006 91 19.7697C95.5812 19.6013 100.099 20.882 103.91 23.4297Z" fill="#4488B7"/>
<path d="M106.63 25.7196L106.54 25.6396L106.63 25.7196Z" fill="#4488B7"/>
<path d="M103.91 23.4299C104.791 24.0447 105.617 24.7339 106.38 25.4899L106.55 25.6399C105.746 24.8216 104.869 24.0785 103.93 23.4199L103.91 23.4299Z" fill="#4488B7"/>
<path d="M90.8501 18.5005C90.8501 18.5005 96.3501 18.0005 99.9101 19.4405L100.41 17.7505C97.4033 16.8568 94.2506 16.5612 91.1301 16.8805L90.8501 18.5005Z" fill="white"/>
<path d="M105.44 30.3103C105.333 30.3111 105.229 30.2778 105.143 30.2151C105.056 30.1525 104.992 30.0638 104.96 29.9621C104.927 29.8604 104.928 29.7511 104.962 29.65C104.997 29.5489 105.062 29.4614 105.15 29.4003C106.05 28.7603 105.9 28.0803 105.9 28.0603C105.872 27.9332 105.894 27.8004 105.961 27.6888C106.028 27.5773 106.135 27.4955 106.26 27.4603C106.384 27.4291 106.516 27.447 106.628 27.5103C106.74 27.5736 106.823 27.6774 106.86 27.8003C106.947 28.2711 106.885 28.7573 106.682 29.1911C106.48 29.6249 106.147 29.9847 105.73 30.2203C105.645 30.2796 105.544 30.3111 105.44 30.3103Z" fill="#EDA983"/>
<path d="M95.97 39.7404L94.73 43.3104L98.32 41.5304L103.22 43.3104L102.99 39.4404L95.97 39.7404Z" fill="#4488B7"/>
<path d="M102.37 52.5996C102.37 52.5996 99.4701 53.1996 97.8501 52.5996V54.4996H103.22L102.37 52.5996Z" fill="white"/>
<path d="M76.5698 65.0805L90.9998 65.7705C90.9998 65.7705 102.2 55.1605 103.23 50.5805C104.26 46.0005 109 40.5805 112.67 41.5805C115.67 42.3505 117.19 47.5805 114.67 54.2605C111.97 61.4305 103.41 70.2605 93.9198 71.7105C75.5898 74.5405 75.0898 69.7105 75.0898 69.7105L76.5698 65.0805Z" fill="#4488B7"/>
<path d="M64.8998 56.6504H53.5698V58.7804H64.8998V56.6504Z" fill="#91745E"/>
<path d="M64.8998 53.21H53.5698V55.34H64.8998V53.21Z" fill="#91745E"/>
</svg>
