<svg width="24" height="24" viewBox="0 0 24 24" fill="none" xmlns="http://www.w3.org/2000/svg">
<path fill-rule="evenodd" clip-rule="evenodd" d="M11.849 23.2332C18.2647 23.2332 23.4657 18.0323 23.4657 11.6166C23.4657 5.20094 18.2647 0 11.849 0C5.43336 0 0.232422 5.20094 0.232422 11.6166C0.232422 18.0323 5.43336 23.2332 11.849 23.2332ZM17.6341 7.66149H14.1407V8.62582H17.6341V7.66149ZM11.817 9.42877C11.817 10.417 11.4125 11.0566 10.6403 11.477C11.6997 11.8197 12.211 12.7302 12.211 13.9615C12.211 15.954 10.7418 16.8107 9.17636 16.8107H5V7H9.06254C10.5387 7 11.817 7.4742 11.817 9.42877ZM8.67205 8.67364H6.89468V10.9629H8.81563C9.49331 10.9629 9.97136 10.6282 9.97136 9.79538C9.97136 8.89081 9.35672 8.67364 8.67205 8.67364ZM6.89293 15.145H8.9172C9.68943 15.145 10.3181 14.8322 10.3181 13.844C10.3181 12.8398 9.79099 12.4433 8.95747 12.4433H6.89293V15.145ZM15.9654 9.50847C17.9196 9.50847 19 11.2598 19 13.3618C19 13.4658 18.9952 13.5684 18.9906 13.6674C18.9896 13.6879 18.9886 13.7083 18.9877 13.7284H14.4892C14.4892 14.8661 15.0145 15.5356 16.0196 15.5356C16.5397 15.5356 17.2086 15.2168 17.3732 14.6091H18.8844C18.4204 16.2369 17.4555 17 15.9654 17C13.9971 17 12.7731 15.4818 12.7731 13.2702C12.7731 11.1363 14.0654 9.50847 15.9654 9.50847ZM15.9111 10.9789C15.0916 10.9789 14.5435 11.5627 14.4892 12.4971H17.2787C17.2034 11.5547 16.7726 10.9789 15.9111 10.9789Z" fill="#5498FF"/>
</svg>
