<svg width="106" height="137" viewBox="0 0 106 137" fill="none" xmlns="http://www.w3.org/2000/svg">
<path d="M53.5897 0.958556C57.5108 0.958556 60.9706 2.27657 64.3974 3.95703C67.8242 5.63749 69.4717 7.6145 69.4717 7.6145C71.4158 8.83365 72.9315 10.5141 75.238 13.9739C77.5445 17.4337 78.6319 24.0237 79.3239 30.2183C80.0158 36.413 79.0602 54.6015 78.8955 57.4681C78.7307 60.3348 77.7422 69.3632 77.7422 69.3632C76.0947 67.2214 71.976 64.2229 71.976 64.2229C72.0088 63.3421 71.9647 62.4601 71.8442 61.5869C71.6794 60.3019 71.3829 58.5555 71.3829 58.5555C71.3169 60.1042 70.592 64.0582 70.592 64.0582L66.2097 61.6858L65.9131 57.4681L65.0235 60.895C64.1199 60.2974 63.1727 59.7687 62.1898 59.3133C61.1683 58.885 59.5537 58.3907 59.5537 58.3907V61.6858C65.979 63.531 65.4189 63.8605 65.5177 64.9808C65.6166 66.1011 64.9576 68.7041 64.9576 68.7041C65.2212 69.3961 69.7353 70.121 70.1307 70.2199C70.5261 70.3187 71.3499 71.0107 73.1951 71.2413C75.0403 71.472 77.1821 71.8344 79.3897 73.1195C81.5974 74.4045 82.0917 73.8444 83.9039 75.1294C85.7162 76.4145 89.6373 81.1923 90.0986 82.1478C90.5599 83.1034 92.1085 86.8597 94.9422 95.954C97.776 105.048 104.333 135.692 104.333 135.692H1.16599C1.16599 135.692 2.38514 122.446 3.4066 113.681C4.42806 104.916 7.85488 88.4084 7.85488 88.4084C7.85488 88.4084 9.93074 78.9517 10.5568 78.2927C11.1828 77.6337 12.9951 74.3716 15.2028 72.6252C17.4104 70.8789 17.9047 70.154 18.333 69.2314C18.7614 68.3087 18.0694 68.3417 19.8158 66.6612C21.5622 64.9808 23.012 64.9149 23.012 64.9149C23.012 64.9149 22.1223 64.3218 22.1223 63.8275C22.1223 63.3333 22.5836 59.6429 22.6825 58.9179C22.7813 58.193 21.5951 57.5011 25.8786 56.6444C28.6464 56.0842 32.2051 55.9854 34.4127 55.9854H36.9169L37.0487 54.6015C35.4145 53.8416 33.8395 52.9605 32.3369 51.9655C30.2281 50.4827 30.0304 49.8896 30.0304 49.8896V43.2996C30.0304 43.2996 29.5691 45.0789 29.1078 46.957C28.8039 48.2916 28.5947 49.6459 28.4817 51.0099H28.1522C27.6909 51.0099 26.7353 50.8781 24.8901 50.285C22.0235 49.3624 21.1338 47.5831 21.1338 47.5831C21.1338 47.5831 21.035 45.7049 22.5836 37.3685C24.1323 29.0321 25.0219 20.3662 32.3369 11.898C39.6518 3.42982 47.4281 1.38691 52.0081 0.991508L53.5897 0.925606V0.958556ZM53.5897 0.0030026C53.0397 -0.0085951 52.4896 0.0134117 51.9422 0.068902C46.6702 0.530205 38.894 2.86967 31.612 11.272C24.8572 19.1141 23.4733 27.0551 22.0894 34.7325C21.9576 35.5563 21.8258 36.38 21.661 37.2038C20.1453 45.4084 20.1782 47.4183 20.1782 47.616V47.8137L20.2441 47.9785C20.31 48.0773 21.3645 50.1202 24.5606 51.1747C25.7054 51.5931 26.9033 51.8482 28.1192 51.9325C28.3431 51.9398 28.5664 51.9063 28.7782 51.8337L29.3384 51.636V51.0428C29.3405 50.9214 29.3515 50.8002 29.3714 50.6804C30.0783 51.4435 30.8749 52.1183 31.7438 52.6904C33.0327 53.5547 34.3754 54.3361 35.7637 55.0298H34.3468C31.8756 55.0298 28.3828 55.1616 25.615 55.7218C22.8472 56.2819 21.3315 56.9409 21.661 58.6873C21.661 58.7202 21.694 58.7532 21.694 58.7861C21.5622 59.6099 21.1668 63.2015 21.1338 63.7946C21.1428 64.0198 21.1873 64.2422 21.2656 64.4536C20.4558 64.8388 19.7198 65.363 19.0909 66.0022C17.8717 67.1884 17.6411 67.7156 17.5422 68.4406C17.5371 68.5778 17.5034 68.7125 17.4434 68.836C17.048 69.6268 16.6526 70.2528 14.5767 71.9003C12.5009 73.5478 11.4794 75.2612 10.5568 76.6122L9.89779 77.6666C9.63419 77.8973 9.33763 78.2597 8.05258 83.367C7.45947 85.8053 6.96522 88.1777 6.93227 88.2107C6.89932 88.2436 3.50545 104.883 2.48399 113.582C1.46254 122.281 0.24338 135.494 0.24338 135.626L0.144531 136.647H105.486L105.223 135.494C105.157 135.198 98.6656 104.719 95.8319 95.6904C92.6028 85.3111 91.0871 82.0819 90.9223 81.7195C90.3951 80.6651 86.3422 75.7225 84.4311 74.3716C83.6925 73.8263 82.8523 73.4342 81.9599 73.2183C81.2182 73.0082 80.5087 72.6978 79.851 72.2957L78.4342 71.5708L78.6648 69.462C78.6978 69.0996 79.6534 60.3678 79.8181 57.5011C79.8511 57.3034 81.0043 36.9731 80.2465 30.1195C79.2909 21.7501 77.9729 16.4451 75.9959 13.4796C73.7553 10.0199 72.1407 8.2076 70.1307 6.92254C69.7024 6.39534 68.2196 4.81373 64.7928 3.13327C61.366 1.45281 57.9392 0.0359523 53.5897 0.0359523V0.0030026ZM60.5093 60.9609V59.6428L61.8273 60.1371C62.7521 60.5778 63.6441 61.0843 64.4963 61.6528L65.32 62.18L65.7813 62.4436L70.1637 64.816L71.284 65.4421L71.3829 64.8819H71.4158C71.4488 64.9149 75.4357 67.8145 76.9844 69.8574L78.1706 71.3731C76.6139 70.7769 74.9852 70.3891 73.3269 70.2199C72.5041 70.127 71.7084 69.8693 70.9874 69.462C70.775 69.3571 70.5546 69.269 70.3284 69.1984L69.966 69.1325C68.6258 68.9291 67.3038 68.6206 66.012 68.2099C66.2097 67.2873 66.5062 65.7057 66.4403 64.816V64.5854C66.3744 62.9379 65.4518 62.3448 60.5093 60.895V60.9609Z" fill="url(#paint0_linear_80_1559)"/>
<path d="M74.4144 36.8086C74.5793 37.5995 74.6128 38.4122 74.5132 39.214C74.4065 39.6065 74.2744 39.9917 74.1178 40.3672L73.6236 41.4875C72.9646 42.9373 72.3385 44.3871 71.7454 45.8699C71.4159 46.6277 71.1523 47.3527 70.8887 48.1105C70.6251 48.8684 70.3945 49.6592 70.1309 50.3841C69.8552 51.1429 69.5249 51.8807 69.1424 52.5917C68.7505 53.3118 68.198 53.9319 67.5278 54.404L67.0006 54.7335L66.4404 54.9641C66.0767 55.1498 65.6884 55.283 65.2872 55.3595C64.4974 55.5289 63.6874 55.5844 62.8818 55.5243C61.2744 55.4116 59.6774 55.1803 58.104 54.8323C56.5293 54.5047 54.9774 54.0755 53.4581 53.5473C51.9187 53.0494 50.4467 52.3633 49.0757 51.5044H49.1086C50.515 52.257 51.9944 52.8642 53.524 53.3166C55.0397 53.7779 56.5883 54.1733 58.1699 54.5028C59.7215 54.8485 61.2964 55.0797 62.8818 55.1948C63.6736 55.2613 64.4707 55.2281 65.2542 55.0959C66.0248 54.9436 66.7615 54.6534 67.4289 54.2392C68.0865 53.8074 68.6383 53.233 69.0435 52.5588C69.4425 51.8604 69.7629 51.12 69.9991 50.3511C70.2627 49.5933 70.4604 48.8354 70.691 48.0776C70.9217 47.3197 71.1853 46.5289 71.4818 45.771C72.042 44.2883 72.701 42.8055 73.3929 41.3557L73.9201 40.2684C74.1001 39.9253 74.2331 39.5596 74.3155 39.181C74.4533 38.3977 74.4755 37.5984 74.3814 36.8086H74.4144Z" fill="#5498FF"/>
<path d="M58.1699 19.6083C59.7345 19.5316 61.3028 19.62 62.8488 19.8719L64.0021 20.0696L65.1553 20.3332L67.4619 20.7945C68.9986 21.1044 70.5167 21.5004 72.009 21.9807C72.7668 22.2113 73.5247 22.4749 74.2496 22.7715L75.3369 23.2328C75.7016 23.3856 76.0449 23.5849 76.3584 23.8259H76.3254C75.9895 23.6389 75.6364 23.4844 75.271 23.3646L74.1507 23.0021L71.9101 22.3102L67.4289 20.9592C66.6711 20.7615 65.9132 20.5638 65.1553 20.432L62.8159 20.1355L58.1699 19.6412V19.6083Z" fill="#5498FF"/>
<path d="M52.3704 30.9103C53.486 31.1522 54.5863 31.4603 55.6654 31.8329L57.3129 32.3931L58.0707 32.7556L58.8615 33.0851C59.9318 33.4773 61.0343 33.775 62.1566 33.9747C62.7219 34.0742 63.2969 34.1074 63.87 34.0736C64.1394 34.0651 64.3968 33.9599 64.5949 33.777C64.7855 33.566 64.9513 33.3338 65.0891 33.0851C65.6493 32.1295 66.1435 31.0751 66.6707 30.0536L67.3956 28.5379L67.5933 28.1425L67.6922 27.9448H67.7581C67.7845 27.8863 67.8314 27.8394 67.8899 27.813C68.0567 27.7449 68.2386 27.7222 68.4171 27.7471L68.8454 27.846L69.6692 28.1425L70.0646 28.2743H70.1305C70.1829 28.3088 70.2278 28.3537 70.2623 28.4061C70.2846 28.4464 70.296 28.4919 70.2952 28.5379C70.3198 28.6122 70.331 28.6903 70.3282 28.7686C70.383 29.349 70.405 29.932 70.3941 30.5149C70.3941 31.6352 70.3282 32.7885 70.2623 33.9418H70.2293L70.1305 30.5149C70.0975 29.9548 70.0975 29.3617 70.0316 28.8015C70.0052 28.7392 69.9939 28.6714 69.9987 28.6038C69.9657 28.6038 69.9657 28.5709 69.9657 28.5379V28.6038L69.5374 28.472L68.7136 28.1755L68.3182 28.1096C68.2221 28.0769 68.1178 28.0769 68.0217 28.1096C67.9585 28.1987 67.9137 28.2995 67.8899 28.4061L67.6922 28.7686L66.9014 30.3172C66.3819 31.3347 65.81 32.3246 65.188 33.2828C65.0503 33.5401 64.8723 33.7737 64.6608 33.9747C64.5589 34.0942 64.4195 34.1756 64.2654 34.2054L63.837 34.2713C63.2641 34.3216 62.6869 34.2883 62.1236 34.1724C60.9828 34.0215 59.8579 33.7678 58.7627 33.4146C58.2111 33.2291 57.6719 33.009 57.1481 32.7556L55.5665 32.1624L52.3374 31.0421L52.3704 30.9103Z" fill="#5498FF"/>
<path d="M70.7896 36.9731L72.3053 36.8742L73.0302 36.7754L73.788 36.7095C74.3152 36.6765 74.8095 36.7754 75.3037 36.7424C75.5445 36.7634 75.7867 36.7264 76.0102 36.6347C76.2338 36.543 76.4321 36.3992 76.5888 36.2152C76.6853 36.0029 76.7625 35.7824 76.8195 35.5562C76.8792 35.3178 76.9233 35.0756 76.9513 34.8313L77.149 33.3486C77.2808 32.3601 77.4126 31.3386 77.5773 30.3501H77.6103C77.6486 31.3625 77.6045 32.3763 77.4785 33.3815C77.4338 33.8803 77.3568 34.3756 77.2478 34.8643C77.2087 35.1201 77.1537 35.3732 77.0831 35.6221C76.9956 35.8688 76.8735 36.1017 76.7206 36.3141C76.5599 36.5318 76.3258 36.6839 76.0616 36.7424L75.3037 36.8742C74.8095 36.9072 74.2823 36.9072 73.821 36.9731C73.3597 37.039 72.8325 37.1049 72.3053 37.1049C71.7979 37.1378 71.2884 37.1046 70.7896 37.006V36.9731Z" fill="#5498FF"/>
<path d="M67.4949 28.8345C67.787 29.1557 68.0413 29.5095 68.2527 29.8889C68.5111 30.2584 68.7008 30.6713 68.8129 31.108C68.9033 31.5149 69.0591 31.9043 69.2742 32.2613C69.4972 32.6228 69.7508 32.9645 70.032 33.2827C70.3286 33.6122 70.5922 33.9417 70.8888 34.2383L71.1194 34.5019C71.1866 34.5934 71.2419 34.6931 71.2842 34.7985C71.3755 35.0175 71.4204 35.2531 71.416 35.4904C71.412 35.9428 71.2917 36.3865 71.0667 36.7789C70.8416 37.1713 70.5194 37.4992 70.1309 37.731H70.098C70.4059 37.4529 70.6506 37.1118 70.8155 36.731C70.9803 36.3501 71.0615 35.9383 71.0535 35.5234C71.0632 35.3299 71.0331 35.1365 70.9651 34.9552C70.8971 34.7738 70.7926 34.6083 70.6581 34.469C70.3768 34.1507 70.1233 33.809 69.9002 33.4475L69.1753 32.3601C68.9156 32.0057 68.7051 31.6178 68.5493 31.2069C68.2275 30.4195 67.8646 29.6496 67.4619 28.9004L67.4949 28.8345Z" fill="#5498FF"/>
<path d="M62.9806 35.2927C63.0039 35.5786 62.9928 35.8662 62.9477 36.1494C62.8994 36.2769 62.8662 36.4096 62.8488 36.5448C62.8468 36.6935 62.8807 36.8404 62.9477 36.9732L63.409 37.5992C63.5737 37.7969 63.8044 37.9617 64.0021 38.1594C63.6905 38.1515 63.3946 38.0213 63.1783 37.7969C62.9501 37.5801 62.8094 37.2869 62.7829 36.9732C62.7884 36.8296 62.7773 36.6859 62.75 36.5448C62.712 36.3938 62.69 36.2392 62.6841 36.0835C62.6861 35.7885 62.778 35.5011 62.9477 35.2598L62.9806 35.2927Z" fill="#5498FF"/>
<path d="M67.6925 37.4673C67.6925 37.4161 67.6806 37.3657 67.6577 37.3199C67.6348 37.2742 67.6016 37.2344 67.5607 37.2037L67.1983 37.0719L66.8029 36.9401L66.3745 37.006L65.6166 37.3025L65.2542 37.4673H65.1224C65.1037 37.4906 65.0935 37.5197 65.0935 37.5496C65.0935 37.5796 65.1037 37.6086 65.1224 37.632L64.9906 37.5661C64.9593 37.5173 64.9475 37.4585 64.9576 37.4014C64.9572 37.3547 64.9692 37.3088 64.9924 37.2682C65.0155 37.2277 65.049 37.1941 65.0894 37.1707C65.1906 37.0365 65.3277 36.9337 65.4848 36.8742C65.7562 36.764 66.0496 36.7189 66.3415 36.7424H67.2642C67.425 36.7587 67.5758 36.8282 67.6925 36.9401C67.7688 37.0077 67.816 37.1021 67.8243 37.2037C67.8283 37.2473 67.8214 37.2912 67.8041 37.3315C67.7868 37.3718 67.7598 37.4071 67.7255 37.4343L67.6925 37.4673Z" fill="#5498FF"/>
<path d="M59.6523 43.5304C60.8386 43.102 61.9918 42.7066 63.1121 42.2453L64.8585 41.5863C65.426 41.3138 66.042 41.157 66.6707 41.125H67.165C67.3309 41.168 67.4801 41.2599 67.5933 41.3886C67.824 41.6192 67.9887 41.9158 68.1864 41.9817H68.5489L69.0102 41.8499C69.105 41.8235 69.2045 41.8187 69.3015 41.8358C69.3984 41.8529 69.4903 41.8915 69.5703 41.9488L69.7681 42.1794C69.831 42.2438 69.8763 42.3232 69.8999 42.4101C70.0948 43.0171 70.1948 43.6506 70.1964 44.2882C70.2074 44.904 70.1854 45.52 70.1305 46.1334H70.0976C70.0317 45.5074 69.9987 44.9143 69.9328 44.2882C69.8821 43.6937 69.7604 43.1074 69.5703 42.5419C69.5374 42.476 69.5374 42.4101 69.5044 42.3771C69.4715 42.3442 69.4385 42.2783 69.3726 42.2453C69.3321 42.2113 69.284 42.1876 69.2324 42.1761C69.1808 42.1647 69.1272 42.1658 69.0761 42.1794C68.8125 42.2124 68.483 42.4101 68.0876 42.2783C67.9201 42.205 67.773 42.0919 67.6592 41.9488C67.5793 41.8224 67.4912 41.7013 67.3956 41.5863C67.3106 41.4713 67.197 41.3805 67.0661 41.3227H66.6707C66.0539 41.3037 65.4421 41.4396 64.8914 41.7181C64.3313 41.9488 63.8041 42.2783 63.2439 42.5419C62.1107 43.0523 60.9136 43.407 59.6853 43.5963L59.6523 43.5304Z" fill="#5498FF"/>
<path d="M60.6409 44.8481C61.476 45.1617 62.2721 45.5708 63.0133 46.0673L64.1006 46.8581L65.2539 47.5501C65.6458 47.7485 66.0536 47.9138 66.4731 48.0443C66.8734 48.1434 67.2919 48.1434 67.6922 48.0443C68.1133 47.9863 68.5174 47.8403 68.8784 47.616C69.271 47.4104 69.601 47.1031 69.834 46.7263H69.867C69.71 47.1556 69.4218 47.5245 69.0432 47.7807C68.667 48.076 68.2269 48.2791 67.7581 48.3738C67.2985 48.4667 66.823 48.444 66.3742 48.3079C65.9382 48.1482 65.5275 47.9263 65.1551 47.6489L64.0347 46.924C63.6617 46.6849 63.2768 46.465 62.8815 46.265C62.0907 45.8366 61.3658 45.3424 60.6079 44.8481H60.6409Z" fill="#5498FF"/>
<path d="M69.6033 45.8695L68.5159 45.4412L67.3626 45.1776L66.2423 44.8151C65.8701 44.6805 65.4828 44.5919 65.0891 44.5515L62.7496 44.222L60.4102 43.9255C61.9958 43.7707 63.5965 43.9274 65.122 44.3868L66.2753 44.7163L67.4286 44.9469C68.2275 45.0374 68.983 45.3579 69.6033 45.8695Z" fill="#5498FF"/>
<path d="M63.0137 43.8268C63.423 43.5664 63.8839 43.3978 64.3646 43.3325H65.1225L65.8474 43.2666H66.6052C66.8518 43.3128 67.0942 43.3789 67.3301 43.4643C67.7658 43.6105 68.2216 43.6883 68.6811 43.695H68.714C68.2296 43.8822 67.6972 43.9054 67.1983 43.7609L66.5393 43.5302L65.8474 43.3984H65.1225C64.8877 43.449 64.6566 43.5151 64.4305 43.5961C63.969 43.7345 63.494 43.8229 63.0137 43.8597V43.8268Z" fill="#5498FF"/>
<path d="M69.0104 45.3752C68.8868 45.2448 68.7964 45.0866 68.7468 44.9139C68.7502 44.8248 68.739 44.7358 68.7139 44.6503L68.5491 44.4526L68.3185 44.3208L68.1208 44.189L67.7583 43.7936H67.7913C67.9877 43.7688 68.1866 43.8156 68.3514 43.9254C68.4969 44.0503 68.61 44.2086 68.6809 44.3867L68.8127 44.6503C68.8457 44.7162 68.9445 44.7821 69.0104 44.848C69.0568 44.9332 69.0838 45.0276 69.0895 45.1244C69.0952 45.2212 69.0794 45.3181 69.0434 45.4082L69.0104 45.3752Z" fill="#5498FF"/>
<path d="M65.5506 10.4154L64.3973 11.5687L63.31 12.7878L61.2671 15.358C59.9682 17.1194 58.7585 18.945 57.6426 20.8277C56.5222 22.7058 55.5996 24.6829 54.5782 26.6269C53.5567 28.571 52.5353 30.515 51.5468 32.4591C51.0678 33.4318 50.6497 34.4332 50.2947 35.4576C49.9304 36.488 49.7087 37.5633 49.6357 38.6537C49.5368 40.8285 49.4709 43.0032 49.3721 45.2108L48.779 58.325V58.5227L48.6142 58.4239L46.0441 57.3365C45.6157 57.1717 45.1874 56.974 44.7261 56.8422L44.1 56.6116L43.7705 56.5127L43.6058 56.4469H43.3422V56.3809C42.8787 54.2591 42.5267 52.1144 42.2878 49.9557C42.156 48.8683 42.0571 47.7809 41.9912 46.7265C41.9253 45.6721 41.8924 44.5518 41.8594 43.4645H42.0571C41.9583 45.5074 41.9912 47.5832 42.0901 49.6262C42.123 50.6476 42.2219 51.6691 42.3207 52.6905C42.4196 53.712 42.5514 54.7334 42.7161 55.7549V55.8208H42.6502C41.4483 55.8342 40.2504 55.6789 39.0916 55.3595C37.9423 55.0718 36.8268 54.6631 35.7636 54.1403C34.6973 53.584 33.6633 52.9679 32.6663 52.2951L31.2165 51.2737C30.7325 50.9049 30.3003 50.4726 29.9315 49.9886C29.8985 47.715 29.8985 45.4415 29.9974 43.1679H30.1292C29.7667 44.453 29.4043 45.771 29.1077 47.1219C28.9539 47.7809 28.8221 48.4399 28.7123 49.099C28.5933 49.7621 28.5381 50.4352 28.5475 51.1089V51.2407H28.4487C27.748 51.1954 27.0531 51.0851 26.3728 50.9112C25.6842 50.7678 25.0111 50.5582 24.3629 50.2852C23.7114 50.0286 23.0922 49.6968 22.5177 49.2967C21.9419 48.8801 21.4311 48.3804 21.002 47.8139C21.1008 45.7051 21.3315 43.6292 21.628 41.5534C21.9246 39.4775 22.2541 37.4346 22.6495 35.3917C23.4403 31.2729 24.264 27.1541 25.7138 23.233C27.1236 19.2663 29.1959 15.5674 31.8426 12.2936C34.5485 9.07801 37.793 6.35753 41.4311 4.25373C43.2462 3.19168 45.1821 2.35095 47.1973 1.74952C49.2234 1.17276 51.3184 0.873478 53.4249 0.859863C54.4737 0.864424 55.5204 0.952569 56.5552 1.12346C57.5879 1.30831 58.6023 1.58396 59.5866 1.94722C61.5619 2.66589 63.4788 3.53617 65.32 4.55028C66.2421 5.0516 67.1235 5.6245 67.956 6.2637C68.8204 6.86982 69.5777 7.61595 70.1966 8.47136C70.8276 9.30524 71.4106 10.1743 71.9429 11.0744C72.2154 11.5319 72.4364 12.0181 72.6019 12.5242C72.7033 12.7747 72.7374 13.0473 72.7008 13.315C72.6804 13.3933 72.6434 13.4662 72.5922 13.5287C72.541 13.5913 72.4769 13.6421 72.4042 13.6775L72.0088 13.7763C69.9681 14.2073 68.01 14.9638 66.2096 16.017C64.4382 17.1059 62.8014 18.3999 61.333 19.8721H61.3C62.7494 18.36 64.3886 17.042 66.1766 15.9511C67.9628 14.8475 69.924 14.0564 71.9759 13.6116L72.3383 13.5127C72.386 13.4909 72.4284 13.4589 72.4625 13.4191C72.4966 13.3793 72.5217 13.3325 72.536 13.2821C72.5851 13.0362 72.5503 12.7809 72.4372 12.5572C72.2852 12.0666 72.0633 11.6005 71.7782 11.1733C71.2497 10.2708 70.6665 9.40146 70.0318 8.57021C69.4259 7.74475 68.6917 7.02167 67.8571 6.42845C67.0139 5.8145 66.1336 5.25328 65.2211 4.74799C63.3869 3.76137 61.4814 2.91328 59.5207 2.21082C58.549 1.85143 57.5448 1.5866 56.5222 1.42002C55.4984 1.25045 54.4627 1.1623 53.4249 1.15642C49.2582 1.23883 45.1834 2.39656 41.5958 4.51733C37.9872 6.60869 34.7659 9.30612 32.0732 12.4913C29.4794 15.6991 27.4412 19.3188 26.0433 23.2001C24.5935 27.1212 23.7698 31.207 22.979 35.2928C22.5836 37.3357 22.2211 39.4116 21.9246 41.4545C21.628 43.4974 21.3644 45.6062 21.2656 47.6821V47.6162C21.6718 48.1708 22.1608 48.6597 22.7154 49.066C23.2869 49.4428 23.8939 49.7628 24.5276 50.0216C25.1533 50.2943 25.8045 50.504 26.4717 50.6476C27.1439 50.8134 27.8264 50.9345 28.5146 51.0101L28.4157 51.1089C28.3997 50.4116 28.4661 49.7148 28.6134 49.0331C28.7123 48.3741 28.8441 47.715 29.0088 47.0231C29.3054 45.7051 29.6679 44.3871 30.0633 43.0691L30.228 42.476V43.102C30.1621 45.3756 30.1292 47.6491 30.1621 49.9227C30.5287 50.388 30.9489 50.8083 31.4142 51.1748L32.8311 52.1963C33.8196 52.8553 34.841 53.4813 35.8954 54.0415C36.9586 54.5643 38.0741 54.9729 39.2234 55.2606C40.3639 55.5595 41.5372 55.7144 42.7161 55.7219V55.7878C42.5514 54.7664 42.3866 53.7449 42.2878 52.7235C42.1889 51.702 42.0901 50.6806 42.0242 49.6262C41.9253 47.5832 41.8924 45.5074 41.9583 43.4645H42.156C42.156 44.5518 42.1889 45.6062 42.2878 46.6936C42.3866 47.7809 42.4525 48.8683 42.5843 49.9227C42.8479 52.0645 43.2104 54.2062 43.6717 56.315L43.5399 56.2162H43.7376L43.9023 56.2821C44.0268 56.2995 44.1486 56.3328 44.2648 56.3809L44.9238 56.6116L46.2418 57.1059L48.8119 58.1932L48.6472 58.325L49.2073 45.1779C49.3062 43.0032 49.3721 40.8285 49.5039 38.6208C49.5768 37.5196 49.7984 36.4334 50.1629 35.3917C50.5372 34.3591 50.9661 33.3472 51.4479 32.3603C52.4364 30.3832 53.5238 28.5051 54.5123 26.561C55.5008 24.617 56.4893 22.6399 57.6096 20.7618C58.721 18.8612 59.9537 17.0342 61.3 15.292C61.959 14.4353 62.651 13.5786 63.3429 12.7549C64.0349 11.9311 64.0678 11.9311 64.4632 11.5357C64.826 11.1292 65.2228 10.7544 65.6495 10.4154H65.5506Z" fill="#5498FF"/>
<path d="M59.6855 58.4237C60.6411 58.7202 61.5967 59.0497 62.4863 59.4122L63.8702 60.0382C64.3163 60.2627 64.727 60.5513 65.0894 60.8949H64.9576C65.2212 60.17 65.4189 59.4451 65.6166 58.6873C65.7854 57.941 65.8738 57.1788 65.8802 56.4137H66.1108C66.1767 57.2704 66.2426 58.1601 66.2756 59.0497C66.3085 59.9394 66.3744 60.7961 66.3415 61.7187L66.2756 61.5869L68.4832 62.806L70.7238 63.9593L70.4932 64.0582C70.7238 63.0367 70.8886 61.9823 71.0204 60.9608C71.1522 59.9394 71.1851 58.885 71.2181 57.8306H71.4817C71.6574 58.885 71.7892 59.9394 71.8771 60.9938C71.91 61.521 71.9759 62.0482 72.0089 62.5754C72.0418 63.1026 72.0418 63.6628 72.0418 64.19L71.9759 64.1241C73.0303 64.9149 74.0518 65.7386 75.0403 66.5624C76.0288 67.3861 76.0288 67.4191 76.4901 67.8804C76.996 68.3144 77.4298 68.826 77.7752 69.3961H77.6763C78.0058 66.7271 78.2694 64.0252 78.5001 61.3233C78.7307 58.6214 78.9284 55.9194 79.0602 53.2175C79.192 50.5156 79.2909 47.8137 79.3238 45.1118C79.3568 42.4099 79.3897 39.708 79.3568 37.006C79.3238 34.3041 79.2579 31.6022 78.9943 28.9003C78.8625 27.5493 78.6648 26.2313 78.4671 24.8804C78.2694 23.5294 77.9729 22.2114 77.6763 20.9263C77.6104 20.5639 77.5116 20.2673 77.4457 19.9378C77.3798 19.6083 77.2809 19.2788 77.1821 18.9493L76.8855 17.9938C76.7867 17.6643 76.6219 17.3677 76.5231 17.0382C76.0436 15.7775 75.448 14.5641 74.7438 13.4137C73.3871 11.0641 71.5448 9.03083 69.3399 7.44971H69.3729C71.6197 8.98244 73.5081 10.9833 74.9085 13.3148C75.63 14.4722 76.2369 15.6972 76.7208 16.9723C76.8613 17.283 76.9824 17.6021 77.0832 17.9279L77.4127 18.8834L77.7093 19.8719C77.7752 20.2014 77.874 20.5309 77.9399 20.8604C78.2694 22.1784 78.533 23.4965 78.7637 24.8474C78.9943 26.1984 79.192 27.5164 79.3238 28.8673C79.5874 31.5693 79.6863 34.2712 79.7192 37.006C79.7192 42.4099 79.6533 47.8137 79.2909 53.2505C78.9284 58.6873 78.4342 64.0252 77.8081 69.3961V69.5608L77.7093 69.429C77.3747 68.8801 76.9516 68.3902 76.4572 67.9792C75.9959 67.5179 75.5016 67.0896 75.0074 66.6612L71.91 64.2558H71.8441C71.8551 63.7278 71.8331 63.1996 71.7782 62.6742C71.7453 62.147 71.7123 61.6198 71.6464 61.0926C71.5146 60.0382 71.3828 58.9838 71.2181 57.9624H71.4817C71.4815 59.0199 71.4155 60.0763 71.284 61.1256C71.251 61.6528 71.1522 62.18 71.0863 62.7072C71.0204 63.2344 70.9215 63.7286 70.7897 64.2558V64.4206L70.625 64.3547C69.8671 63.9923 69.1093 63.5639 68.3844 63.1685L66.1767 61.9493H66.1108V61.8505C66.1379 60.9713 66.1159 60.0912 66.0449 59.2145C66.012 58.3578 65.979 57.4681 65.9131 56.5785H66.1438C66.1337 57.3583 66.0229 58.1335 65.8143 58.885C65.6448 59.6457 65.4246 60.3942 65.1553 61.1256L65.0894 61.2244L65.0235 61.1585C64.6793 60.808 64.2782 60.5184 63.8373 60.3018L62.4863 59.6428C61.5967 59.2474 60.6741 58.9179 59.7185 58.5884L59.6855 58.4237Z" fill="#5498FF"/>
<path d="M60.6412 55.1943C60.3137 55.9432 60.0384 56.7139 59.8174 57.5009C59.6044 58.2949 59.5374 59.1211 59.6197 59.9392C59.6856 60.7959 59.6856 61.6196 59.6856 62.4434C59.691 63.269 59.647 64.0943 59.5538 64.9146H59.5209C59.4168 64.0949 59.3618 63.2697 59.3561 62.4434C59.3397 61.6074 59.3727 60.7712 59.455 59.9392C59.4879 59.5438 59.4879 59.1154 59.5209 58.72C59.4989 58.3024 59.5099 57.8837 59.5538 57.4679C59.6201 57.0431 59.7536 56.6316 59.9492 56.2487C60.1251 55.8717 60.3464 55.5177 60.6082 55.1943H60.6412Z" fill="#5498FF"/>
<path d="M37.1147 54.7004C37.1751 55.3047 37.1529 55.9144 37.0488 56.5127C36.9829 56.8422 36.884 57.1387 36.8181 57.4353C36.7581 57.7292 36.7141 58.0262 36.6863 58.325C36.6554 58.639 36.5891 58.9485 36.4886 59.2476C36.3878 59.5412 36.2667 59.8275 36.1262 60.1043C35.8681 60.6703 35.5235 61.1928 35.1047 61.6529H35.0718C35.3024 61.0598 35.566 60.5326 35.8296 59.9725C36.0932 59.4123 36.2909 58.8851 36.4886 58.292C36.5963 58.0043 36.6736 57.7061 36.7193 57.4023C36.7473 57.0957 36.7583 56.7876 36.7522 56.4797C36.8169 55.8683 36.9271 55.2626 37.0817 54.6675L37.1147 54.7004Z" fill="#5498FF"/>
<path d="M59.5535 61.6857C60.3443 61.8505 61.1022 62.0811 61.893 62.3118C62.6677 62.5371 63.4272 62.8123 64.1665 63.1355C64.5477 63.3036 64.9028 63.5255 65.2209 63.7945C65.5011 64.1259 65.6531 64.5468 65.6493 64.9807C65.6502 65.8026 65.5506 66.6214 65.3527 67.4191C65.2539 67.8145 65.188 68.2099 65.1221 68.6053C65.0562 69.0007 65.0891 69.3961 65.0232 69.7915C64.9742 70.22 64.8153 70.6286 64.5619 70.9777C64.2738 71.3084 63.8962 71.5487 63.4746 71.6696C63.0635 71.7608 62.6435 71.805 62.2225 71.8014H58.565C55.3359 71.6916 52.1068 71.461 48.8776 71.1095C45.6815 70.78 42.4523 70.3187 39.2891 69.6926C36.1259 69.0666 32.9627 68.1769 29.8654 67.3202L25.2194 65.9033C24.4326 65.6556 23.6622 65.3585 22.9129 65.0137L22.6493 64.8819L22.3857 64.6842C22.2897 64.6048 22.2015 64.5166 22.1221 64.4206L22.1215 64.4206C22.0557 64.2559 22.0557 64.2559 21.9898 64.0912L21.9903 64.0911C21.9776 63.6726 21.9997 63.2538 22.0562 62.839L22.3857 60.4336C22.4186 60.0382 22.4845 59.6098 22.4845 59.2144C22.5119 59.018 22.5229 58.8196 22.5175 58.6213V58.3577C22.5006 58.2265 22.5006 58.0936 22.5175 57.9623C22.6289 57.7517 22.8011 57.5795 23.0117 57.4681C23.18 57.3377 23.3695 57.2373 23.5719 57.1715C23.9437 57.0054 24.3296 56.8731 24.7251 56.7761C25.5183 56.5963 26.3215 56.4643 27.1305 56.3807C30.3575 56.0242 33.607 55.914 36.8508 56.0512L32.0071 56.1501C30.3864 56.211 28.7698 56.354 27.1635 56.5784C26.3616 56.6684 25.5682 56.8226 24.791 57.0397C24.4086 57.1305 24.0339 57.2517 23.6707 57.4022L23.1765 57.6658C23.0298 57.7713 22.9065 57.9059 22.814 58.0612C22.8122 58.2375 22.8232 58.4137 22.847 58.5884C22.8533 58.7976 22.8423 59.007 22.814 59.2144C22.814 59.6098 22.7481 60.0382 22.7152 60.4336L22.3857 62.839C22.3318 63.2209 22.3097 63.6066 22.3198 63.9922C22.3857 64.2888 22.7481 64.5194 23.0776 64.6842C23.4071 64.8489 24.5604 65.2773 25.3183 65.5409C26.834 66.0681 28.4156 66.5294 29.9642 66.9907C33.0615 67.8804 36.1589 68.8359 39.3221 69.4949C42.4904 70.1547 45.6909 70.6496 48.9106 70.9777C52.1068 71.3072 55.3359 71.439 58.5979 71.5049H61.0033C61.8271 71.5049 62.6179 71.5708 63.3757 71.3731C63.7457 71.2928 64.0805 71.0966 64.3313 70.8129C64.5599 70.5028 64.7072 70.1403 64.7596 69.7585C64.7926 69.3631 64.7926 68.9677 64.8585 68.5723C64.9244 68.1769 65.0232 67.7486 65.0891 67.3532C65.3062 66.5801 65.4279 65.7834 65.4516 64.9807C65.4517 64.5987 65.3241 64.2276 65.0891 63.9263C64.7988 63.6614 64.4642 63.4496 64.1006 63.3003C63.3737 62.9557 62.6253 62.6585 61.86 62.4106C61.1022 62.147 60.3114 61.9164 59.5205 61.7187L59.5535 61.6857Z" fill="#5498FF"/>
<path d="M36.884 56.5786C34.4456 56.7434 32.0073 56.8752 29.602 57.0729C28.3828 57.2047 27.1637 57.3035 25.9774 57.5342C25.7035 57.5871 25.4376 57.6758 25.1866 57.7978C25.1207 57.8307 25.0548 57.8637 25.0548 57.8966C25.0548 57.9296 25.0219 57.9625 25.0219 57.9955C25.0219 58.0284 25.1537 58.1932 25.2525 58.2591C25.7585 58.5669 26.3009 58.8105 26.8671 58.984C31.4554 60.6055 36.1306 61.9695 40.8709 63.0698C42.0571 63.3664 43.2434 63.597 44.4296 63.7947C45.6158 63.9924 46.8349 64.1242 48.0541 64.256C50.4595 64.4867 52.8978 64.6514 55.3031 64.7832L58.9606 64.915C60.1468 64.948 61.366 64.948 62.5851 64.8821L63.4748 64.7832C63.7713 64.7503 64.1008 64.7173 64.2326 64.5196C64.2518 64.4988 64.2663 64.4741 64.2751 64.4473C64.2839 64.4204 64.2868 64.3919 64.2837 64.3638C64.2806 64.3357 64.2715 64.3086 64.257 64.2843C64.2425 64.26 64.2229 64.2391 64.1997 64.2231C64.1051 64.1176 63.9938 64.0286 63.8702 63.9595L63.0794 63.5311C61.9591 63.0698 60.7729 62.7403 59.6196 62.3778C60.8134 62.664 61.9904 63.016 63.1453 63.4322C63.4321 63.5369 63.708 63.6693 63.969 63.8277C64.1112 63.8971 64.2353 63.9986 64.3315 64.1242C64.3724 64.1549 64.4056 64.1947 64.4285 64.2404C64.4514 64.2862 64.4633 64.3367 64.4633 64.3878C64.4773 64.4336 64.4785 64.4823 64.4669 64.5287C64.4553 64.5752 64.4313 64.6176 64.3974 64.6514C64.3499 64.7274 64.2874 64.7928 64.2138 64.8438C64.1401 64.8948 64.0569 64.9302 63.969 64.948L63.5077 65.0468L62.5851 65.1457C60.1601 65.2939 57.7282 65.2939 55.3031 65.1457C52.8648 65.0468 50.4265 64.8821 48.0211 64.5855C45.5996 64.3259 43.1993 63.8965 40.838 63.3004C38.4656 62.7073 36.1261 62.0483 33.7866 61.3564C31.4472 60.6644 29.1077 60.0054 26.8012 59.2476C26.2006 59.0827 25.6244 58.8389 25.0878 58.5227C24.9268 58.4194 24.8006 58.2702 24.7253 58.0943C24.7181 58.0356 24.7232 57.9759 24.7402 57.9192C24.7572 57.8625 24.7858 57.8099 24.8242 57.7648C24.8716 57.6909 24.9407 57.6334 25.0219 57.6001C25.3036 57.4281 25.6176 57.3159 25.9445 57.2706C27.1444 57.072 28.3545 56.94 29.569 56.8752C32.0073 56.7104 34.4457 56.6116 36.851 56.5786H36.884Z" fill="#5498FF"/>
<path d="M54.8747 71.5708C54.7794 72.4185 54.928 73.2759 55.3031 74.0421C55.475 74.4367 55.7211 74.7947 56.028 75.0965C56.3246 75.426 56.6541 75.7225 56.9506 76.0191C57.5625 76.6504 58.1038 77.3465 58.5652 78.0949C59.0282 78.845 59.4145 79.6399 59.7184 80.4673H59.6855L58.2686 78.2926C57.8073 77.5677 57.346 76.8428 56.8188 76.1509C56.5454 75.8116 56.2481 75.4923 55.9292 75.1953L55.4678 74.7011C55.3179 74.5397 55.1853 74.363 55.0725 74.1739C54.8423 73.7846 54.7021 73.3489 54.6622 72.8985C54.6223 72.448 54.6837 71.9944 54.8418 71.5708H54.8747Z" fill="#5498FF"/>
<path d="M23.2756 64.9148C22.58 64.9795 21.9117 65.2174 21.3316 65.6067C20.75 65.9776 20.2089 66.4083 19.717 66.8918C19.4801 67.1289 19.2599 67.3821 19.058 67.6497L18.7944 68.078C18.7251 68.2117 18.6804 68.3568 18.6626 68.5064C18.6877 68.8832 18.6079 69.2595 18.432 69.5937C18.2614 69.9053 18.0509 70.1933 17.8059 70.4504C17.5697 70.7086 17.3165 70.9508 17.0481 71.1753L16.2572 71.8673L14.8074 73.3171C13.8334 74.3023 12.9096 75.3361 12.0396 76.4144C11.6442 76.9746 11.2159 77.5347 10.8534 78.1278C10.491 78.7209 10.5239 78.7209 10.3921 79.0175L10.1944 79.5117L10.0626 80.006C9.70015 81.324 9.2718 82.6749 8.9423 84.0259C8.25034 86.6949 7.65724 89.3968 7.13004 92.1316C6.04268 97.5684 5.15302 103.038 4.32926 108.541C3.93386 111.276 3.53846 114.011 3.20896 116.778C2.87945 119.546 2.517 122.281 2.22045 125.049H2.1875C2.3852 122.281 2.6488 119.513 2.94536 116.745L3.43961 112.594C3.60436 111.243 3.80206 109.859 3.99976 108.475C4.79057 102.972 5.77908 97.5025 6.93233 92.0987C7.22889 90.7148 7.55839 89.3968 7.85494 88.0458L8.34919 86.0029L8.84345 83.9929C9.0082 83.301 9.17295 82.642 9.37065 81.983L9.89785 79.9401L10.0297 79.4458L10.1944 78.9516C10.3282 78.6238 10.4823 78.3047 10.6557 77.996C11.0207 77.3938 11.4166 76.8109 11.8419 76.2497C12.7004 75.161 13.6132 74.1163 14.5768 73.1194C15.071 72.6251 15.5653 72.1309 16.0925 71.6696C16.6197 71.2083 17.1799 70.7799 17.6412 70.2857C18.1025 69.7914 18.4979 69.1983 18.4649 68.5393C18.4577 68.3441 18.5033 68.1506 18.5967 67.9792L18.8933 67.5508C19.109 67.2646 19.3518 66.9998 19.6182 66.76C20.1208 66.2705 20.6858 65.8495 21.2986 65.5079C21.8935 65.134 22.574 64.9185 23.2756 64.8818V64.9148Z" fill="#5498FF"/>
<path d="M64.9575 68.8032C65.5889 69.1603 66.282 69.3951 67.0004 69.4952L69.1751 69.9235C69.5344 69.9764 69.8876 70.0647 70.2296 70.1871C70.4165 70.2179 70.5956 70.2851 70.7568 70.3848L71.0204 70.5166L71.2181 70.6484C71.5438 70.7925 71.8873 70.8922 72.2395 70.945L73.3269 71.1097C74.7956 71.2555 76.2434 71.5649 77.6433 72.0323L78.6319 72.4936L79.5874 73.0538C80.1951 73.44 80.848 73.7499 81.5315 73.9764C82.2508 74.1617 82.9471 74.427 83.6073 74.7672C84.2142 75.1939 84.7578 75.7041 85.2219 76.2829C86.2104 77.3373 87.2319 78.3917 88.1874 79.512C88.6487 80.0722 89.11 80.6323 89.5384 81.2254C89.9432 81.8376 90.2854 82.4889 90.5598 83.1695L91.3506 85.2124L92.1085 87.2553C94.1184 92.758 95.8318 98.3595 97.3146 103.994C98.0725 106.828 98.7315 109.661 99.3905 112.528C100.049 115.395 100.676 118.228 101.236 121.095H101.203L99.1598 112.561L96.9851 104.093C95.4694 98.4584 93.8548 92.8569 91.9437 87.3212L91.2188 85.2783L90.461 83.2024C89.9667 81.8515 89.0441 80.6653 88.0886 79.5779C87.133 78.4906 86.1115 77.4362 85.0901 76.4147C84.5629 75.8875 84.1016 75.2944 83.4755 74.9649C82.8495 74.6354 82.1575 74.4707 81.4656 74.24C80.764 74.0066 80.09 73.6972 79.4556 73.3174L78.5001 72.7572C78.1833 72.5776 77.8527 72.4233 77.5115 72.2959C76.1407 71.8387 74.7279 71.5186 73.2939 71.3404L72.2066 71.1756C71.8318 71.1114 71.4666 71.0007 71.1192 70.8461L70.8886 70.6814L70.6579 70.5496L70.1636 70.3519L69.1422 70.0883L67.0004 69.627C66.2755 69.4293 65.5506 69.2645 64.9575 68.8362V68.8032Z" fill="#5498FF"/>
<path d="M72.4046 13.4795C72.4207 13.8806 72.5218 14.2737 72.7012 14.6327C72.8904 14.9848 73.0994 15.3258 73.3272 15.6542C73.5503 15.9864 73.7923 16.3055 74.0521 16.6098L74.4475 17.104L74.7441 17.6312C75.4941 19.0964 76.0692 20.6447 76.4575 22.2442C76.8256 23.8209 77.1115 25.4157 77.3142 27.022C77.5119 28.6366 77.7096 30.2511 77.8085 31.8657C77.9073 33.4803 77.9732 35.1278 77.9732 36.7423C77.9732 38.3569 78.0062 40.0044 78.0062 41.619C77.9732 44.881 77.8414 48.1101 77.6437 51.3393H77.6108V36.7423C77.6108 35.1278 77.6108 33.5132 77.5778 31.8987C77.4788 28.6561 76.9921 25.437 76.128 22.3101C75.8974 21.5193 75.6667 20.7285 75.4031 19.9707C75.1527 19.2071 74.8329 18.4682 74.4475 17.763C74.3816 17.5983 74.2498 17.4006 74.1839 17.2358L73.8215 16.7416C73.5908 16.4121 73.3272 16.0826 73.1295 15.7531C72.9066 15.4049 72.7084 15.0416 72.5364 14.6657C72.3807 14.2898 72.3023 13.8864 72.3058 13.4795H72.4046Z" fill="#5498FF"/>
<defs>
<linearGradient id="paint0_linear_80_1559" x1="52.8154" y1="0" x2="52.8154" y2="136.647" gradientUnits="userSpaceOnUse">
<stop stop-color="#5498FF"/>
<stop offset="1" stop-color="#5498FF" stop-opacity="0"/>
</linearGradient>
</defs>
</svg>
