<svg width="110" height="153" viewBox="0 0 110 153" fill="none" xmlns="http://www.w3.org/2000/svg">
<path fill-rule="evenodd" clip-rule="evenodd" d="M57.0837 1.25233C57.7992 1.10712 58.5285 1.04082 59.2584 1.05463C62.3558 1.05463 67.0676 1.91134 71.1864 3.16344C76.4584 4.778 83.6745 7.84237 84.7948 8.56728C85.9151 9.29218 87.7604 11.7964 90.0998 15.2891C92.4393 18.7818 93.296 20.8247 93.4278 23.988C93.5596 27.1512 92.7688 29.5236 92.3734 30.1497C92.1098 30.5488 91.7126 30.8409 91.2531 30.9734L89.2431 37.5305C88.3864 40.2324 86.5741 43.0991 86.5741 43.0991C86.7179 44.1911 86.7621 45.294 86.7059 46.3941C86.5412 47.6792 86.3435 49.3926 86.1458 51.2048C85.9481 53.0171 85.7833 53.6431 85.5197 54.0715C85.1742 54.6895 84.8661 55.3276 84.5971 55.9826C84.2676 56.7075 83.5098 58.2232 82.7849 58.4539C82.1157 58.7262 81.3984 58.8606 80.6761 58.8493C79.7886 58.8433 78.9085 58.6873 78.073 58.388C75.5029 57.5642 74.8768 55.7849 74.8768 55.7849C74.8768 55.7849 74.8768 55.719 73.3611 55.1918C72.6544 54.9721 71.9703 54.6852 71.3182 54.3351L71.1205 55.3895C71.1205 55.3895 72.8669 55.9167 73.6247 55.9826C74.3826 56.0485 75.0086 56.6416 75.9971 57.729C76.9091 58.7322 79.504 60.9414 80.78 62.0278C80.887 62.1189 80.9848 62.2021 81.0715 62.2761C82.1918 63.2316 81.3351 64.1872 81.3351 64.1872C81.3798 64.2018 81.4263 64.2169 81.4745 64.2326C84.4748 65.2083 93.963 68.2941 98.568 73.7098C103.247 79.2125 104.763 85.5389 106.212 93.2493C107.662 100.96 108.222 117.863 108.222 117.863C108.222 117.863 107.097 134.848 106.105 148.347H107.054C107.215 146.142 107.396 143.639 107.596 140.796C108.387 129.363 109.145 117.929 109.145 117.797C109.145 117.105 108.651 100.894 107.135 93.0516C105.619 85.2094 103.675 78.3228 99.26 73.0837C94.8446 67.8447 86.3435 64.8132 82.5542 63.5611C82.5814 63.4312 82.5925 63.2984 82.5872 63.1657C82.5525 62.8431 82.4528 62.5308 82.2943 62.2477C82.1357 61.9645 81.9215 61.7164 81.6646 61.5182L79.4899 59.673C79.8827 59.7279 80.2795 59.7499 80.6761 59.7389C81.4828 59.7337 82.2836 59.6002 83.0485 59.3435H83.1144C84.1029 59.014 84.9266 57.5313 85.4538 56.3451C85.7008 55.7341 85.987 55.1398 86.3105 54.5657C86.673 53.9397 86.8377 53.1159 87.0684 51.3037C87.299 49.4914 87.4967 47.778 87.6286 46.4929C87.7187 45.4383 87.6856 44.3767 87.5297 43.3297C88.5934 41.5948 89.4661 39.7498 90.1328 37.827L92.0109 31.6654C92.4889 31.4346 92.898 31.0824 93.1971 30.6439C93.7243 29.7872 94.5151 27.1841 94.3833 23.955C94.2515 20.7259 93.6914 19.0454 90.8577 14.7949C88.024 10.5443 86.5412 8.63318 85.2891 7.77647C84.037 6.91977 76.722 3.8554 71.483 2.27379C67.1994 0.955781 62.3887 0.0990752 59.2584 0.0990752V0.000224888C58.4509 -0.00474086 57.645 0.0725418 56.8531 0.230876C54.25 0.88988 50.5266 3.06459 49.0439 3.95425L48.7803 4.119C47.7259 4.74505 46.2431 5.63471 45.4853 6.78796C44.7274 7.94122 42.9151 11.7305 41.8278 14.9267C40.7404 18.1228 39.8178 21.8792 40.0485 25.8661C40.2791 29.8531 43.2447 38.2554 46.2102 40.2983C47.055 40.9245 47.9735 41.4446 48.945 41.847C48.9369 42.6002 49.0142 43.3518 49.1757 44.0876L49.2745 44.5489C49.3139 44.8144 49.362 45.0711 49.4067 45.3094C49.5117 45.8695 49.5977 46.3277 49.5052 46.5588C49.3734 46.8883 48.4837 48.7665 47.8906 50.0186C46.6839 49.6408 45.4311 49.4302 44.1673 49.3926C43.8134 49.3913 43.4603 49.4244 43.1129 49.4914C40.8393 49.8209 38.3351 51.106 37.3136 52.4569C36.9183 53.0284 36.5764 53.6351 36.2922 54.2692C36.1148 54.7377 35.8585 55.1724 35.5343 55.5542L35.2378 55.8178L35.1671 55.8762C34.4156 56.4966 33.4073 57.3289 32.8324 58.2232C32.4 58.9176 32.0463 59.6581 31.778 60.4309C30.5259 60.7933 27.4615 61.9466 23.4416 65.604L21.0362 67.7788C20.8885 67.9118 20.7426 68.0429 20.5986 68.1724C17.211 71.2181 14.8585 73.3331 12.9305 76.873C10.9205 80.5634 8.64696 86.0661 6.93355 98.7519C5.9854 105.863 2.88209 130.014 0.534119 148.347H1.48587C3.82436 130.06 6.89746 106.104 7.85616 98.9826C9.47072 86.9887 11.6125 81.3872 13.7542 77.4002C15.5744 74.0118 18.1086 71.742 21.9231 68.3254C22.597 67.7218 23.3108 67.0825 24.0676 66.3949C29.109 61.8148 32.5029 61.3205 32.5029 61.3205C32.7622 60.4552 33.1274 59.6251 33.5902 58.8493C34.107 58.0878 35.0502 57.3038 35.753 56.7197C35.9016 56.5962 36.0395 56.4816 36.1604 56.378C36.5312 56.0601 36.8169 55.4583 37.129 54.8007C37.3992 54.2315 37.6892 53.6205 38.0715 53.1159C38.8952 52.0286 41.0699 50.8094 43.2776 50.5129C43.5705 50.4556 43.8691 50.4335 44.1673 50.447C45.6042 50.5028 47.0253 50.7692 48.3849 51.2378C48.3849 51.2378 50.1642 47.4814 50.3619 47.0201C50.5506 46.5797 50.409 45.779 50.1378 44.245C50.1249 44.1723 50.1117 44.0978 50.0983 44.0217C49.8017 42.3412 49.8347 41.8799 49.9335 41.5175C49.9748 41.3663 49.867 41.324 49.5433 41.1971C49.0909 41.0196 48.2165 40.6766 46.7374 39.6393C44.2002 37.86 41.2017 29.9519 40.9711 25.932C40.7404 21.9121 41.5971 18.5512 42.7174 15.3221C43.8378 12.0929 45.5512 8.50138 46.2761 7.41402C46.9805 6.35731 48.4319 5.48731 49.4204 4.89475C49.4491 4.87757 49.4773 4.86062 49.5052 4.8439C50.4937 4.2508 54.4477 1.87839 57.0837 1.25233Z" fill="url(#paint0_linear_80_1451)"/>
<path d="M81.3352 64.187L84.6302 65.4391L87.9252 66.7901C90.1132 67.6808 92.2191 68.7613 94.2187 70.0192C96.2056 71.2884 97.9562 72.894 99.3919 74.764C100.794 76.6625 101.945 78.7333 102.819 80.9257L103.148 81.7495L103.445 82.5732L104.005 84.2537C104.108 84.5344 104.196 84.8204 104.269 85.1104L104.499 85.9671L104.993 87.6805C105.554 89.9541 105.916 92.2935 106.278 94.633C106.641 96.9725 106.872 99.3119 107.135 101.651C107.399 103.991 107.564 106.363 107.794 108.703H107.827C107.695 106.363 107.531 103.991 107.333 101.651C107.135 99.3119 106.905 96.9395 106.575 94.5671C106.266 92.2159 105.826 89.8837 105.257 87.5816C104.657 85.2974 103.886 83.0615 102.951 80.8928C102.053 78.695 100.891 76.6148 99.4908 74.6981L98.3375 73.3142L97.1183 72.0292L95.7674 70.8759C95.3061 70.5134 94.8448 70.151 94.3505 69.8215C92.3541 68.5378 90.2349 67.4561 88.0241 66.5924L84.6961 65.3073L81.3352 64.187Z" fill="#5498FF"/>
<path d="M71.2853 54.3682C71.0993 54.7984 70.9772 55.2535 70.9228 55.7191C70.8899 55.9498 70.9228 56.1804 70.8898 56.4111C70.8569 56.6417 70.791 56.8394 70.7581 57.0701C70.6197 57.5203 70.5313 57.9844 70.4944 58.454C70.4708 58.9267 70.5853 59.3962 70.824 59.8049H70.8569C70.7801 59.3586 70.769 58.9035 70.824 58.454C70.8569 58.0256 70.8898 57.5643 70.8898 57.103C70.9066 56.8704 70.9397 56.6391 70.9887 56.4111C71.0217 56.1804 71.1205 55.9827 71.1535 55.7521C71.2748 55.3011 71.3303 54.835 71.3182 54.3682H71.2853Z" fill="#5498FF"/>
<path d="M67.7595 2.24095C69.5389 2.66931 71.2852 3.19651 73.0316 3.78961C74.7779 4.38272 76.4913 4.97582 78.2047 5.63482C79.9182 6.29383 81.5986 7.01873 83.2461 7.80954L83.8722 8.10609L84.4653 8.43559C84.6648 8.54833 84.8524 8.6808 85.0254 8.83099C85.2228 8.94482 85.4008 9.08943 85.5526 9.25935C86.1691 9.92423 86.7414 10.6287 87.2661 11.3682C88.3534 12.8509 89.3749 14.3996 90.3634 15.9153L91.7802 18.2877C92.2455 19.0581 92.6005 19.8899 92.8346 20.759C93.2885 22.5332 93.4334 24.3723 93.263 26.1957C93.1923 27.0978 93.0378 27.9913 92.8017 28.8647C92.6805 29.2926 92.5032 29.7025 92.2745 30.0839C92.0444 30.4521 91.6957 30.731 91.286 30.8747H91.1871V30.9406C90.7917 32.4892 90.3304 34.0379 89.8362 35.5536C89.3419 37.0693 88.7818 38.585 88.1228 40.0348C87.8001 40.7683 87.4371 41.4833 87.0354 42.1766L86.7389 42.7038L86.5741 42.9674C86.5333 43.0254 86.5103 43.0942 86.5082 43.1651V43.2969C86.5738 43.7 86.6069 44.1077 86.607 44.5161C86.6453 45.3178 86.6343 46.1211 86.5741 46.9214C86.5082 47.7122 86.3764 48.503 86.2775 49.2938C86.1787 50.0846 86.1128 50.9084 86.0469 51.6992C86.0243 52.4952 85.8452 53.279 85.5197 54.0057C85.1114 54.7068 84.7483 55.4332 84.4323 56.1804C84.1028 56.9053 83.7733 57.6632 83.1473 58.1574C82.8166 58.3774 82.4479 58.5339 82.0599 58.6187C81.6822 58.7192 81.2963 58.7854 80.9067 58.8164C80.1055 58.8359 79.306 58.7359 78.5343 58.5199C77.7693 58.2833 77.0465 57.9274 76.3925 57.4655C75.7347 57.0122 75.202 56.4002 74.8438 55.6862H74.8109C73.0316 55.0601 71.3182 54.3352 69.6048 53.5444C67.8913 52.7536 66.2109 51.8639 64.5963 50.9084C61.3343 48.9973 58.171 46.9544 55.1396 44.7797C53.591 43.6594 52.0423 42.6049 50.3948 41.6164C49.604 41.1551 48.7802 40.6609 47.9235 40.2325L47.3304 39.936C47.1301 39.8119 46.9425 39.6684 46.7703 39.5076C46.4191 39.2113 46.0989 38.8801 45.8147 38.5191C44.6863 37.0135 43.7457 35.3759 43.0139 33.6425C42.2486 31.94 41.7059 30.1459 41.3994 28.3046C41.2478 27.3781 41.1597 26.4423 41.1358 25.5038C41.0919 24.5588 41.1139 23.612 41.2017 22.6701C41.3472 20.805 41.6896 18.9605 42.2231 17.1674C42.7953 15.3743 43.4664 13.6143 44.2331 11.8954C44.5956 11.0387 44.958 10.182 45.3864 9.32525C45.7621 8.47034 46.2376 7.66294 46.8032 6.91988C47.4293 6.22793 48.253 5.76663 49.0438 5.27237L51.5151 3.88846L54.0193 2.57046L55.2714 1.9444C55.6902 1.72101 56.1321 1.54422 56.5894 1.4172C57.4999 1.23 58.4278 1.14162 59.3572 1.1536C60.3041 1.15827 61.25 1.21327 62.191 1.31835C64.0644 1.51094 65.9241 1.81906 67.7595 2.24095ZM67.7595 2.208C65.9222 1.78009 64.0634 1.45012 62.191 1.2195C61.2615 1.10444 60.3266 1.03845 59.3902 1.0218C58.4384 0.993339 57.4867 1.08187 56.5565 1.2854C56.0926 1.39208 55.648 1.56992 55.2385 1.8126L53.9534 2.43866L51.4492 3.72371L48.9779 5.10762C48.1228 5.53851 47.3437 6.10613 46.6714 6.78808C46.0851 7.52934 45.5875 8.33661 45.1887 9.19344C44.7493 10.0501 44.3539 10.9069 44.0024 11.7636C43.2775 13.5099 42.4867 15.2233 41.9266 17.0685C41.3869 18.8826 41.0445 20.7496 40.9051 22.6371C40.8169 23.579 40.7949 24.5259 40.8392 25.4708C40.8874 26.42 40.9864 27.366 41.1358 28.3046C41.4226 30.1862 41.9774 32.017 42.7833 33.7413C43.5147 35.4852 44.4552 37.1338 45.5841 38.6509C45.9136 39.0134 46.2101 39.3758 46.5726 39.7053L47.1657 40.1337L47.8247 40.4632L50.263 41.8141C51.8775 42.8026 53.4262 43.8571 54.9749 44.9444C58.0392 47.1521 61.2354 49.162 64.4975 51.0731C66.1333 52.0147 67.8159 52.8725 69.5388 53.6433C71.2523 54.4341 72.9986 55.159 74.7779 55.785H74.712C75.0852 56.518 75.6414 57.1423 76.3266 57.5973C76.9886 58.0659 77.7234 58.4221 78.5013 58.6517C79.6665 59.0081 80.9047 59.0536 82.0929 58.7835C82.4947 58.6759 82.8741 58.4973 83.2132 58.2563C83.8722 57.7291 84.2017 56.9712 84.5312 56.2463C84.8293 55.4967 85.1817 54.7699 85.5856 54.0716C85.9285 53.336 86.1298 52.5423 86.1787 51.7322C86.2446 50.9413 86.3105 50.1505 86.4093 49.3597C86.5082 48.5689 86.64 47.7452 86.7059 46.9544C86.7718 46.1636 86.7718 45.3398 86.7718 44.549L86.6729 43.3298V43.198C86.6729 43.1651 86.7059 43.1321 86.7059 43.0662L86.8707 42.8356L87.1672 42.3084C87.5626 41.6164 87.9251 40.8915 88.2875 40.1666C88.9357 38.6923 89.5076 37.1856 90.0009 35.6525C90.542 34.1398 91.0039 32.6001 91.3848 31.0394L91.3189 31.1053C91.555 31.0483 91.7765 30.9426 91.9694 30.7951C92.1623 30.6476 92.3223 30.4615 92.4392 30.2486C92.6865 29.8493 92.8751 29.4165 92.9994 28.9636C93.2573 28.0697 93.4337 27.1544 93.5266 26.2287C93.6848 24.3816 93.5288 22.521 93.0653 20.726C92.834 19.8299 92.4674 18.9743 91.9779 18.1888C91.5166 17.398 91.0224 16.6072 90.5281 15.8494C89.5396 14.3007 88.5182 12.785 87.3979 11.3023C86.8719 10.5546 86.288 9.8495 85.6515 9.19344C85.4915 9.02256 85.3149 8.86803 85.1243 8.73214L84.5312 8.33674L83.9381 8.00724L83.312 7.71069C81.6645 6.91988 79.9511 6.22793 78.2377 5.60187C76.5243 4.97582 74.7779 4.31681 73.0645 3.75666C71.3511 3.19651 69.5389 2.60341 67.7595 2.208Z" fill="#5498FF"/>
<path d="M91.2861 30.9403L84.729 28.1395L81.434 26.7556L78.2379 25.2069L76.6562 24.3832L75.8325 23.9878L75.4041 23.856H75.1405L74.9099 23.9219C74.3997 24.2469 73.915 24.6104 73.4601 25.0092L72.0762 26.1295L71.4172 26.7556L71.1206 27.0851C71.0877 27.151 71.0218 27.1839 70.9888 27.2828H70.9559C70.9559 27.3157 70.9559 27.3816 70.9888 27.3816V27.4805C71.2854 28.0077 71.549 28.5349 71.8126 29.0621C72.3519 30.1191 72.8251 31.2085 73.2294 32.3242C73.4483 32.8757 73.6031 33.4506 73.6907 34.0376C73.7574 34.6283 73.7905 35.2224 73.7896 35.8169L73.8555 37.5962V39.046C73.8572 39.0918 73.8684 39.1366 73.8884 39.1778L73.9543 39.3096V39.4085C74.6463 40.4299 75.3712 41.3525 76.0961 42.3081L77.1505 43.7249C77.2957 43.9499 77.365 44.2155 77.3482 44.4828C77.3647 44.7791 77.3647 45.0761 77.3482 45.3724C77.3154 45.9783 77.3485 46.586 77.4471 47.1847C77.5573 47.7846 77.7342 48.3704 77.9743 48.9311L78.798 50.5127C79.0716 51.0231 79.2397 51.5834 79.2923 52.1602C79.3022 52.7514 79.1783 53.3371 78.9298 53.8736C78.7197 54.4106 78.3372 54.8626 77.8425 55.1587C77.3241 55.4472 76.7522 55.6266 76.162 55.6859C75.5766 55.7415 74.986 55.6969 74.4156 55.5541H74.3827C74.9566 55.7385 75.564 55.7948 76.162 55.7188C76.7762 55.702 77.3765 55.5321 77.9084 55.2246C78.4408 54.9312 78.8587 54.4668 79.0946 53.9065C79.3679 53.3527 79.5143 52.7448 79.5229 52.1272C79.4637 51.5203 79.2964 50.9288 79.0287 50.3809C78.7651 49.8537 78.4685 49.3265 78.2379 48.7663C77.9939 48.2441 77.8274 47.6891 77.7436 47.1188C77.6451 46.5312 77.6119 45.9344 77.6448 45.3395C77.6448 45.0429 77.6777 44.7464 77.6777 44.4498C77.6777 44.1533 77.6448 44.1533 77.6118 43.9885C77.5661 43.8269 77.4997 43.6718 77.4141 43.5272L76.3267 42.0774C75.6018 41.1548 74.844 40.1993 74.2179 39.2437L74.152 39.1449C74.15 39.1195 74.1381 39.0959 74.1191 39.079C74.0861 39.079 74.1191 38.9472 74.0861 38.8813V38.4529L74.0202 37.5632L73.9214 35.751C73.9103 35.1559 73.8663 34.5619 73.7896 33.9717C73.6752 33.3765 73.5098 32.7922 73.2953 32.2253C72.8761 31.1054 72.3807 30.0155 71.8126 28.9632L70.9888 27.4146L70.9229 27.3157L71.0547 27.151L71.3513 26.8215L72.0103 26.2284C72.8936 25.4369 73.8415 24.7205 74.844 24.0866C75.0746 23.9219 75.3712 24.0537 75.6348 24.1855L76.4256 24.5809L78.139 25.4376L81.3352 26.9862C82.4225 27.4805 83.5428 27.9088 84.6302 28.3372L91.2861 30.9732V30.9403Z" fill="#5498FF"/>
<path d="M84.8608 49.228C85.4567 47.5956 85.6489 45.8434 85.421 44.1207C85.3551 43.6923 85.2562 43.264 85.1903 42.8356C85.0743 42.4247 84.9862 42.0064 84.9268 41.5835C84.9268 41.4847 84.9926 41.4188 85.0256 41.3199L85.1903 41.0234L85.4869 40.4632L86.08 39.31C86.463 38.5348 86.7506 37.716 86.9367 36.8717C87.1236 35.9944 87.0666 35.0828 86.772 34.2356C86.6402 33.8402 86.4095 33.4119 86.6402 33.1812C86.9319 32.8635 87.1964 32.5218 87.431 32.1598C87.9286 31.4457 88.3069 30.6556 88.5513 29.8203H88.5183C88.1931 30.6048 87.7726 31.3463 87.2662 32.028C86.9982 32.3618 86.7122 32.6808 86.4095 32.9835C86.3218 33.0866 86.2648 33.2122 86.2448 33.346C86.2234 33.4785 86.2347 33.6142 86.2777 33.7414L86.4754 34.3674C86.7696 35.1454 86.8382 35.9906 86.6731 36.8058C86.5008 37.6413 86.247 38.458 85.9153 39.2441C85.7595 39.6373 85.5835 40.0222 85.3881 40.3973L85.0915 40.9904C85.0586 41.0893 84.9926 41.1552 84.9597 41.254L84.8608 41.4188C84.8295 41.4676 84.8178 41.5264 84.8279 41.5835C84.9597 42.4402 85.0915 43.2969 85.1574 44.1207C85.3627 45.8179 85.251 47.5386 84.8279 49.195L84.8608 49.228Z" fill="#5498FF"/>
<path d="M80.1489 44.6809C79.9803 44.548 79.7705 44.4781 79.5558 44.4832H78.9298C78.7154 44.4228 78.4901 44.4116 78.2708 44.4502C78.1599 44.4643 78.0531 44.5008 77.9568 44.5574C77.8605 44.6141 77.7768 44.6897 77.7106 44.7797L78.3367 44.7138L78.9298 44.582H79.2263L79.5229 44.6809H80.1489Z" fill="#5498FF"/>
<path d="M79.7535 46.7565C79.7864 46.4269 79.8523 46.0974 79.9182 45.7679C79.988 45.4476 80.0988 45.1375 80.2477 44.8453C80.2807 44.7794 80.3466 44.7135 80.3795 44.7135H81.0715L82.06 44.8783C82.3895 44.9533 82.7099 45.0638 83.0155 45.2078C83.3199 45.332 83.5991 45.5106 83.8393 45.735C84.3336 46.1963 84.5313 46.8883 84.6631 47.5473C84.7452 48.2139 84.7782 48.8857 84.7619 49.5572C84.7619 50.2162 84.696 50.9082 84.696 51.6001C84.696 52.2921 84.696 52.9511 84.7619 53.643C84.8389 54.3126 84.8167 54.9899 84.696 55.653H84.729C84.9314 54.9918 85.0206 54.3011 84.9926 53.6101C84.9596 52.9181 84.9926 52.2591 84.9926 51.5672C85.0255 50.2162 85.1573 48.8323 84.8278 47.4814C84.6887 46.8021 84.383 46.168 83.9382 45.6361C83.4134 45.1709 82.7956 44.8228 82.1259 44.6147C81.7923 44.5172 81.4503 44.4511 81.1044 44.417H80.2807C80.1957 44.4854 80.1184 44.5627 80.05 44.6476C79.9011 44.9694 79.8118 45.3155 79.7864 45.6691C79.7318 46.0067 79.7097 46.3487 79.7205 46.6906L79.7535 46.7565Z" fill="#5498FF"/>
<path d="M77.5786 46.2292L79.2262 46.6575C79.4924 46.733 79.7472 46.8438 79.984 46.987L80.1158 47.1518C80.1488 47.2177 80.2147 47.2506 80.2147 47.3165C80.2147 47.3824 80.2476 47.4483 80.2806 47.5142V47.7119C80.2878 47.9923 80.2431 48.2716 80.1488 48.5357C80.0499 48.7663 79.8852 48.9311 79.6545 48.8981L79.2921 48.7993L78.8967 48.6675L78.0729 48.4368H78.0399C78.2774 48.6142 78.5311 48.7687 78.7978 48.8981L79.1932 49.0958L79.6545 49.2276C79.832 49.2233 80.0041 49.1659 80.1488 49.0629C80.2599 48.9358 80.349 48.791 80.4124 48.6345C80.4882 48.3327 80.4995 48.0183 80.4453 47.7119C80.4453 47.646 80.4124 47.5801 80.4124 47.4813L80.3135 47.2836L80.2147 47.0859L80.0499 46.9211C79.8237 46.719 79.5682 46.5523 79.2921 46.4269C78.7508 46.2019 78.1601 46.1224 77.5786 46.1962V46.2292Z" fill="#5498FF"/>
<path d="M75.3051 56.6088C76.236 56.6865 77.1734 56.5972 78.0729 56.3452C78.5324 56.2009 78.9583 55.9655 79.325 55.6533C79.6545 55.3184 79.9222 54.928 80.1158 54.5C80.3064 54.0617 80.4179 53.5932 80.4453 53.1161C80.4781 52.6415 80.4448 52.1647 80.3465 51.6992C80.0829 50.8096 79.8193 49.9199 79.5227 49.0303H79.4898C79.5986 49.9535 79.7748 50.8676 80.017 51.7651C80.2585 52.6418 80.2356 53.5704 79.9511 54.4341C79.8269 54.8731 79.588 55.2712 79.2591 55.5874C78.8785 55.8333 78.4529 56.0013 78.007 56.0816C77.1164 56.297 76.2143 56.462 75.3051 56.5759V56.6088Z" fill="#5498FF"/>
<path d="M84.8608 49.4586C84.6936 49.2772 84.4753 49.1509 84.2348 49.0962H83.8723L83.5099 49.0303C83.2605 48.958 82.9942 48.9696 82.752 49.0632C82.6328 49.1258 82.5293 49.2147 82.4493 49.3232C82.3694 49.4316 82.3152 49.5568 82.2907 49.6893H82.3237C82.4867 49.5433 82.6771 49.4313 82.8838 49.3598L83.1804 49.2609L83.5099 49.195H83.8394L84.1689 49.3598C84.3803 49.4381 84.6027 49.4826 84.8279 49.4916L84.8608 49.4586Z" fill="#5498FF"/>
<path d="M84.7947 53.0828C84.6959 53.3464 84.4323 53.4453 84.2016 53.5771C84.0752 53.6358 83.9426 53.68 83.8062 53.7089C83.6629 53.7318 83.5161 53.7205 83.3779 53.6759C83.2543 53.6068 83.1429 53.5178 83.0484 53.4123C82.9525 53.3209 82.8643 53.2217 82.7848 53.1158L82.2246 52.4238C82.2371 52.7425 82.3399 53.0511 82.5212 53.3135C82.6192 53.446 82.7424 53.5579 82.8838 53.6428C83.0251 53.7276 83.1819 53.7836 83.3449 53.8077H84.2675C84.4335 53.7647 84.5827 53.6729 84.6959 53.5441C84.7581 53.4867 84.8032 53.4133 84.8265 53.332C84.8497 53.2506 84.8502 53.1644 84.8277 53.0828H84.7947Z" fill="#5498FF"/>
<path d="M81.4665 56.3452C81.3684 56.4583 81.3004 56.5943 81.2688 56.7406C81.2364 56.8816 81.2364 57.028 81.2688 57.169C81.3035 57.3187 81.3589 57.4629 81.4336 57.5973C81.4743 57.7346 81.5295 57.8672 81.5983 57.9927C81.6726 58.1332 81.7874 58.248 81.9278 58.3222L82.3891 58.454C82.5397 58.4665 82.6911 58.4465 82.8333 58.3953C82.9754 58.3441 83.1048 58.263 83.2129 58.1575H83.1799C82.9298 58.2072 82.6723 58.2072 82.4221 58.1575L82.0267 58.0916C81.9151 58.0635 81.8129 58.0067 81.7301 57.9268C81.6768 57.8879 81.6319 57.8387 81.5979 57.7821C81.564 57.7255 81.5417 57.6627 81.5324 57.5973C81.4989 57.4677 81.4989 57.3316 81.5324 57.2019C81.5324 56.9383 81.4995 56.6747 81.4995 56.3782L81.4665 56.3452Z" fill="#5498FF"/>
<path d="M84.037 55.2579C84.1029 55.1261 84.0041 54.9614 83.8723 54.8625C83.7565 54.775 83.6205 54.7183 83.4769 54.6978H83.1144L82.9826 54.7966C82.8814 54.9127 82.8032 55.0468 82.752 55.192C82.6861 55.4886 82.6531 55.7522 82.5872 56.0158C82.5409 56.2873 82.4635 56.5527 82.3566 56.8066C82.3163 56.9738 82.3398 57.15 82.4225 57.3008C82.4784 57.3803 82.5598 57.4384 82.6531 57.4656H82.9167C83.1993 57.3541 83.4408 57.1586 83.6087 56.9054C83.7725 56.6708 83.9054 56.4161 84.0041 56.1476C84.1039 55.861 84.1153 55.5511 84.037 55.2579ZM84.0041 55.2579C83.9973 55.5268 83.9176 55.7887 83.7734 56.0158C83.6619 56.2543 83.5178 56.4761 83.3451 56.6748C83.1803 56.8725 83.0156 57.1031 82.8179 57.169C82.6202 57.2349 82.6531 57.202 82.6202 57.1361C82.5777 57.1007 82.546 57.0543 82.5285 57.0019C82.511 56.9495 82.5085 56.8932 82.5213 56.8395C82.5604 56.5729 82.6154 56.3088 82.6861 56.0487L82.9826 55.2909L83.1803 54.9614H83.4439L83.8064 55.0273C83.9052 55.0602 84.0041 55.1261 84.0041 55.2579Z" fill="#5498FF"/>
<path d="M84.0702 51.6332C84.0702 51.3696 84.169 51.106 84.169 50.8094C84.1782 50.73 84.1681 50.6496 84.1394 50.575C84.1107 50.5004 84.0643 50.4338 84.0043 50.3811L83.8066 50.2822H83.5759C83.2134 50.3152 83.0487 50.6117 82.9169 50.8424C82.8123 51.0948 82.7457 51.3613 82.7192 51.6332C82.71 51.9168 82.7664 52.1987 82.8839 52.4569C82.9371 52.5987 83.0255 52.7245 83.1408 52.8225C83.2561 52.9205 83.3945 52.9875 83.543 53.0171H83.9384L84.0372 52.9512C84.0994 52.8938 84.1446 52.8204 84.1678 52.739C84.191 52.6577 84.1915 52.5715 84.169 52.4899C84.1005 52.2096 84.0672 51.9218 84.0702 51.6332ZM84.0372 51.6332C84.0043 52.0945 84.0702 52.8853 83.6089 52.6876C83.404 52.6158 83.2296 52.4763 83.1146 52.2922C82.9889 52.0808 82.9103 51.8448 82.8839 51.6002C82.8449 51.34 82.8912 51.0742 83.0157 50.8424C83.0753 50.7432 83.1567 50.659 83.2538 50.5962C83.3509 50.5334 83.4611 50.4936 83.5759 50.4799H83.7077L83.8725 50.5458C83.9366 50.6186 83.9718 50.7124 83.9713 50.8094C84.0483 51.0768 84.0707 51.357 84.0372 51.6332Z" fill="#5498FF"/>
<path d="M92.5381 29.9521C92.4399 29.9687 92.3397 29.9687 92.2415 29.9521L91.945 29.8862L91.3519 29.7214L90.1986 29.359L87.9251 28.5023L83.4438 26.5582C81.9611 25.8663 80.4783 25.2402 78.9956 24.5153L76.8208 23.4279L75.7664 22.8348L75.2722 22.5053C75.2063 22.4724 75.2063 22.4394 75.1404 22.3735H74.9427L74.6132 22.4394C74.2369 22.6231 73.8736 22.8323 73.5258 23.0655L72.5373 23.7574C71.8783 24.2517 71.2193 24.7459 70.6262 25.2732C70.3173 25.5604 70.041 25.8809 69.8024 26.2287C69.5538 26.5998 69.4166 27.0343 69.407 27.4808C69.4289 27.9201 69.5777 28.3436 69.8354 28.7L70.5603 29.6885C71.045 30.3198 71.4336 31.0193 71.7136 31.7643C71.8686 32.1344 71.9792 32.5215 72.0431 32.9176C72.11 33.3205 72.1431 33.7283 72.1419 34.1368C72.1749 34.9276 72.2408 35.7513 72.3067 36.5751C72.3726 37.3988 72.4055 37.3659 72.4714 37.7942C72.5373 38.2226 72.5703 38.1896 72.6032 38.3873C72.6455 38.5865 72.7237 38.7763 72.8339 38.9475H72.8668C72.7486 38.7836 72.68 38.5891 72.6691 38.3873L72.5703 37.7942L72.4714 36.5751C72.4055 35.7843 72.3726 34.9605 72.3726 34.1368C72.3834 33.7293 72.3614 33.3215 72.3067 32.9176C72.2391 32.5042 72.1399 32.0967 72.0101 31.6984C71.6932 30.9334 71.2956 30.2043 70.8239 29.5237L70.099 28.5352C69.8687 28.2441 69.7412 27.8849 69.7365 27.5138C69.7448 27.128 69.8588 26.7519 70.0661 26.4264C70.2724 26.0934 70.5279 25.7934 70.8239 25.5368C71.417 24.9766 72.0431 24.4823 72.6691 23.9551C73.2976 23.4555 73.9703 23.0143 74.6791 22.6371L74.9427 22.5383C75.0415 22.5383 75.0745 22.5712 75.1733 22.6371L75.7005 22.9666L76.7879 23.5268L78.9626 24.6471L83.345 26.8218C84.7948 27.5138 86.3105 28.1728 87.8262 28.7329C88.5841 29.0295 89.3749 29.2931 90.1657 29.5237L91.3189 29.8532L91.945 29.985H92.2415C92.3404 29.985 92.4392 30.018 92.5381 29.9521Z" fill="#5498FF"/>
<path d="M74.1191 39.1123C73.6981 38.8461 73.1909 38.7518 72.7023 38.8487L72.3398 38.9805L72.0762 39.2441C71.9154 39.4163 71.7719 39.6039 71.6479 39.8042C71.3513 40.1667 71.1207 40.595 70.8571 40.9575C70.5935 41.3199 70.2969 41.7153 70.0004 42.0778C69.7038 42.4402 68.8801 43.5605 68.3858 44.3513C67.8915 45.1421 67.1337 45.6364 66.3099 46.0648H66.3429C66.7907 45.9262 67.2217 45.7383 67.628 45.5046C68.0384 45.2422 68.387 44.8936 68.6494 44.4831L70.1322 42.1437L70.923 40.9904L71.8126 39.9031L72.2739 39.3759C72.4095 39.2196 72.5784 39.0958 72.7682 39.0134C73.2058 38.9203 73.6601 38.943 74.0862 39.0793L74.1191 39.1123Z" fill="#5498FF"/>
<path d="M63.9373 48.5027C63.8554 48.5001 63.7741 48.5166 63.6997 48.551C63.6254 48.5853 63.5601 48.6364 63.5089 48.7004C63.443 48.7334 63.4101 48.8322 63.3442 48.8981L63.1465 48.997C62.9881 49.0405 62.8417 49.1194 62.7181 49.2276C62.5897 49.3497 62.5081 49.5129 62.4875 49.6889H62.5204C62.6663 49.6392 62.8008 49.5608 62.9158 49.4583L63.2453 49.1288C63.2824 49.0585 63.3398 49.0011 63.4101 48.964L63.6407 48.8981C63.7893 48.8192 63.9058 48.691 63.9702 48.5357L63.9373 48.5027Z" fill="#5498FF"/>
<path d="M75.931 50.3481C75.8322 50.3152 75.7663 50.2822 75.6674 50.3481L75.4368 50.4799C75.3338 50.6245 75.2764 50.7967 75.272 50.9742C75.2775 51.1462 75.3294 51.3136 75.4222 51.4586C75.515 51.6036 75.6453 51.7208 75.7992 51.7979C75.8929 51.8329 75.9943 51.8423 76.0928 51.8249C76.1913 51.8075 76.2833 51.764 76.3594 51.6991C76.43 51.6249 76.4842 51.5367 76.5182 51.4402C76.5523 51.3436 76.5656 51.2409 76.5571 51.1389C76.5308 50.9573 76.4366 50.7925 76.2935 50.6776C76.1946 50.5458 76.0299 50.4799 75.931 50.3481ZM75.8981 50.3811C76.0221 50.479 76.1045 50.6203 76.1287 50.7765C76.1918 50.8988 76.2257 51.0342 76.2276 51.1719C76.2421 51.2859 76.219 51.4017 76.1617 51.5014C76.1278 51.5471 76.0827 51.5832 76.0308 51.6063C75.9788 51.6294 75.9217 51.6386 75.8651 51.6332C75.7889 51.6337 75.7141 51.6123 75.6498 51.5714C75.5855 51.5304 75.5344 51.4718 75.5027 51.4025C75.4546 51.2751 75.4546 51.1345 75.5027 51.0071L75.6015 50.5788L75.7004 50.414C75.7251 50.3875 75.7579 50.37 75.7936 50.364C75.8294 50.3581 75.8661 50.364 75.8981 50.3811Z" fill="#5498FF"/>
<path d="M93.1973 21.5495C92.9972 21.5664 92.7989 21.5995 92.6042 21.6484H92.4724L92.4065 21.7143C92.3945 21.7277 92.3855 21.7433 92.3798 21.7603C92.3741 21.7773 92.372 21.7953 92.3735 21.8131C92.3423 21.8967 92.2978 21.9745 92.2417 22.0438C92.1776 22.1093 92.1005 22.1607 92.0154 22.1948C91.9303 22.2288 91.8391 22.2447 91.7475 22.2415C91.5565 22.2406 91.3671 22.2072 91.1873 22.1426C90.4417 21.9289 89.7231 21.6304 89.0455 21.253C88.6873 21.0876 88.3453 20.889 88.0241 20.6599L87.5957 20.3304C87.4676 20.1905 87.357 20.0356 87.2662 19.8691C86.8848 19.162 86.3701 18.5354 85.7505 18.0239C84.5314 17.0024 83.1145 16.3105 81.7306 15.5526L77.5789 13.3449L73.4271 11.1373C72.7352 10.7748 72.0762 10.3465 71.3513 9.98402C70.6264 9.62157 69.9344 9.32502 69.2095 9.02846L67.0678 8.07291C66.712 7.94269 66.3868 7.74082 66.1122 7.4798C66.0754 7.41979 66.0529 7.35217 66.0463 7.2821V7.0185L66.244 6.4913C66.6065 5.79935 67.1007 5.17329 67.4632 4.48134C67.6671 4.13801 67.8329 3.77339 67.9574 3.39398C68.0319 3.21359 68.0872 3.02583 68.1222 2.83383C68.1497 2.63372 68.127 2.42991 68.0563 2.24072C68.1051 2.43541 68.1051 2.63914 68.0563 2.83383C68.0165 3.01394 67.9614 3.19032 67.8915 3.36103C67.7357 3.72211 67.5597 4.07414 67.3643 4.41544C66.936 5.07444 66.4417 5.66754 66.0463 6.39245C65.9499 6.5705 65.8725 6.75826 65.8157 6.9526C65.8157 7.0844 65.7827 7.18325 65.7827 7.2821C65.7843 7.40447 65.8313 7.52188 65.9145 7.61161C66.0453 7.7894 66.2142 7.93574 66.4088 8.03996L66.936 8.33651C67.6279 8.69896 68.3528 8.99551 69.0777 9.29207C69.8026 9.58862 70.5275 9.91812 71.2195 10.2806L73.2953 11.3679C74.6793 12.1258 76.0961 12.7848 77.513 13.5097C78.9298 14.2346 80.3137 14.8936 81.6976 15.6515C82.3896 16.0139 83.0486 16.4093 83.7076 16.8377C84.3861 17.2232 85.0165 17.6877 85.5858 18.2216C85.8845 18.4709 86.1602 18.7466 86.4095 19.0453C86.6371 19.3511 86.8461 19.6702 87.0356 20.0009C87.1385 20.1868 87.2722 20.3539 87.431 20.4951L87.8923 20.8905L88.9137 21.4836L90.0011 21.9449L91.1544 22.3074L91.7475 22.3733C91.9597 22.3553 92.1585 22.2618 92.3076 22.1097C92.3649 22.0173 92.4093 21.9176 92.4394 21.8131H92.5053L92.6371 21.7472L93.1973 21.6154V21.5495Z" fill="#5498FF"/>
<path d="M49.8019 4.74512L50.3621 4.90987C50.4483 4.9143 50.5301 4.94936 50.5927 5.00872V5.27232C50.5708 5.66795 50.5819 6.06472 50.6257 6.45853C50.6498 6.66352 50.7054 6.86356 50.7904 7.05163L50.8893 7.21638L51.054 7.31523L51.3506 7.41408L52.4709 7.74359L54.7445 8.27079L57.018 8.86389C57.7759 9.06159 58.5337 9.22634 59.3245 9.35814C59.5075 9.4098 59.6951 9.44292 59.8847 9.457H60.5108L61.664 9.19339C63.1573 8.72208 64.6208 8.1609 66.0464 7.51293C64.5636 7.97424 63.0809 8.50144 61.5981 8.89684C61.2371 9.03113 60.8608 9.11969 60.4778 9.16044C60.1031 9.18695 59.7265 9.1648 59.3575 9.09454L57.051 8.69914L54.7774 8.17194L52.5368 7.51293L51.4165 7.18343L51.1529 7.08458L51.054 7.01868L50.9881 6.95278C50.9098 6.78748 50.865 6.6083 50.8563 6.42558C50.7893 6.04485 50.7562 5.65891 50.7575 5.27232V5.04167C50.7245 5.00872 50.7245 5.00872 50.7245 4.97577C50.6399 4.90512 50.5372 4.85948 50.428 4.84397C50.2369 4.77938 50.0366 4.746 49.8349 4.74512H49.8019Z" fill="#5498FF"/>
<path d="M59.8516 6.22768C59.6339 6.07136 59.3876 5.9594 59.1267 5.89818H58.7313L58.3359 5.76638C58.1079 5.6447 57.8638 5.55595 57.611 5.50277C57.3539 5.41965 57.0772 5.41965 56.8201 5.50277H56.7872C57.0278 5.63002 57.282 5.72951 57.5451 5.79933L58.3029 5.93113C58.4381 5.9202 58.5739 5.94284 58.6983 5.99703L59.0608 6.16178C59.2974 6.27162 59.5588 6.31708 59.8186 6.29358L59.8516 6.22768Z" fill="#5498FF"/>
<path d="M81.8293 21.3517C81.8952 21.3517 81.9281 21.2858 81.9611 21.2529C81.994 21.2199 81.994 21.154 81.994 21.0881C82.021 20.9917 82.0322 20.8915 82.027 20.7916C82.0599 20.5939 82.0599 20.3632 82.0929 20.1655V19.7042C82.0955 19.6367 82.0843 19.5695 82.0599 19.5065C81.9999 19.4052 81.9218 19.3158 81.8293 19.2429L81.5657 19.0781C81.1973 18.8692 80.8114 18.6928 80.4124 18.5509L79.8523 18.3203L79.5228 18.2544L79.358 18.3532L79.2592 18.485C78.9915 18.817 78.7902 19.1974 78.6661 19.6054C78.6661 19.6713 78.6331 19.7042 78.6331 19.8031C78.6331 19.9019 78.6661 19.869 78.6661 19.9019C78.6661 19.9349 78.699 20.0008 78.732 20.0337L78.9956 20.2314L79.5557 20.528C80.2759 20.8971 81.0398 21.1738 81.8293 21.3517ZM81.8293 21.3188C81.4395 21.2223 81.0709 21.0548 80.7419 20.8245L79.6546 20.2644L79.1274 19.9678C79.0615 19.9019 78.9626 19.869 78.9297 19.8031H78.8967V19.7042C79.0018 19.323 79.157 18.9574 79.358 18.6168C79.4239 18.5509 79.4898 18.4191 79.5228 18.4191H79.7864L80.3465 18.6498C80.7096 18.8192 81.0522 19.0293 81.368 19.2759L81.5986 19.4406C81.6802 19.4887 81.7482 19.5568 81.7963 19.6383C81.7963 19.674 81.8079 19.7086 81.8293 19.7372V19.869L81.8952 20.1655C81.9333 20.3722 81.9554 20.5815 81.9611 20.7916V21.0881C81.9611 21.1211 81.9281 21.187 81.9281 21.2199C81.9281 21.2529 81.8952 21.3188 81.8293 21.3188Z" fill="#5498FF"/>
<path d="M47.5941 37.0692C46.5837 36.3284 45.7134 35.4135 45.024 34.3673C44.3235 33.3178 43.7484 32.1898 43.3106 31.0063C42.8854 29.8261 42.6086 28.5975 42.4868 27.3489C42.2239 24.8495 42.4934 22.3228 43.2776 19.9351C43.6678 18.7471 44.374 17.6878 45.3205 16.8707C46.2715 16.0338 47.4148 15.4451 48.6485 15.1573C49.8719 14.861 51.1484 14.861 52.3719 15.1573C53.5786 15.456 54.7039 16.0187 55.6669 16.8048C56.6229 17.6235 57.4262 18.6052 58.0393 19.7044C59.2195 21.9101 59.799 24.3873 59.7198 26.8876C59.6672 28.1344 59.4794 29.3718 59.1596 30.578C58.8201 31.7819 58.2978 32.9265 57.6109 33.9719C56.2228 36.0975 54.0794 37.6167 51.614 38.2224C52.8673 37.9902 54.0574 37.4962 55.1067 36.7726C56.1545 36.0432 57.0592 35.1274 57.7757 34.0707C58.5007 33.0216 59.0566 31.8653 59.4232 30.6439C59.7698 29.4087 59.9689 28.1367 60.0163 26.8546C60.1181 24.2916 59.514 21.7499 58.27 19.5067C57.642 18.3891 56.8027 17.4043 55.7987 16.6071C54.3031 15.3926 52.4292 14.7407 50.5028 14.7648C48.5764 14.7889 46.7194 15.4874 45.2546 16.7389C44.2779 17.5759 43.5392 18.6556 43.1129 19.8692C42.6805 21.0606 42.3928 22.2996 42.2562 23.5596C41.9468 26.0963 42.2404 28.6703 43.1129 31.0723C43.5669 32.2505 44.1645 33.3683 44.8922 34.4002C45.6002 35.4546 46.5067 36.3612 47.5611 37.0692H47.5941Z" fill="#5498FF"/>
<path d="M50.7571 36.5091C51.9799 36.4276 53.1606 36.0302 54.1839 35.3559C55.2009 34.6806 56.0469 33.7782 56.6552 32.7198C57.7865 30.5598 58.3211 28.137 58.2039 25.7015C58.1279 23.2636 57.412 20.8886 56.128 18.8149C55.482 17.785 54.6428 16.8899 53.6567 16.1788C53.1561 15.8188 52.614 15.5201 52.0422 15.2892C51.4781 15.081 50.8922 14.9373 50.2958 14.8608C51.4693 15.0895 52.5743 15.5856 53.5249 16.3106C53.9847 16.6826 54.4144 17.0902 54.81 17.5298C55.2006 17.9717 55.5533 18.4456 55.8644 18.9467C57.1148 20.9939 57.8602 23.3093 58.0391 25.7015C58.1441 26.8925 58.0663 28.0926 57.8085 29.2601L57.7096 29.6884L57.5778 30.1168C57.479 30.4133 57.3472 30.6769 57.2483 30.9735C57.1412 31.2431 57.0202 31.5071 56.8859 31.7643L56.6882 32.1597L56.4575 32.5551C55.8335 33.5624 55.0159 34.4359 54.0521 35.1252C53.0668 35.8065 51.9405 36.257 50.7571 36.4432V36.5091Z" fill="#5498FF"/>
<path d="M43.0467 25.8659C43.0569 26.7433 43.1675 27.6167 43.3762 28.469C43.603 29.3198 43.9586 30.131 44.4307 30.8743C44.8976 31.6216 45.5286 32.2526 46.2759 32.7195C47.031 33.2112 47.912 33.4744 48.813 33.4774C49.7077 33.4678 50.5793 33.1925 51.3172 32.6866C52.057 32.2103 52.6862 31.5811 53.1625 30.8414C54.0927 29.3453 54.6047 27.6271 54.6452 25.8659C54.6749 24.0935 54.1821 22.3517 53.2284 20.8575C52.7321 20.1138 52.0938 19.4756 51.3502 18.9793C50.5858 18.5122 49.7088 18.2617 48.813 18.2544C47.9111 18.2517 47.0285 18.5154 46.2759 19.0123C45.5203 19.4828 44.8878 20.1267 44.4307 20.8904C43.947 21.6275 43.5906 22.4406 43.3762 23.2958C43.1674 24.1369 43.0568 24.9993 43.0467 25.8659ZM43.0797 25.8659C43.0816 24.1247 43.6099 22.4248 44.5954 20.9893C45.0714 20.2874 45.6887 19.6926 46.4077 19.2429C47.1331 18.8011 47.9638 18.5622 48.813 18.551C49.6566 18.5627 50.4794 18.8142 51.1854 19.2759C51.9044 19.7256 52.5217 20.3204 52.9977 21.0222C53.9499 22.4576 54.4545 24.1434 54.4475 25.8659C54.5083 27.6066 54.0245 29.3228 53.0636 30.7755C52.6032 31.5105 51.9697 32.1214 51.2184 32.5548C50.4966 33.0011 49.6615 33.2298 48.813 33.2138C47.9638 33.2026 47.1331 32.9636 46.4077 32.5218C45.695 32.0506 45.0797 31.4465 44.5954 30.7425C44.092 30.0439 43.713 29.2636 43.4751 28.436C43.2264 27.6014 43.0933 26.7367 43.0797 25.8659Z" fill="#5498FF"/>
<path d="M45.5843 25.7343C45.5874 26.6354 45.8505 27.5164 46.3422 28.2715C46.5974 28.6704 46.9486 28.9989 47.3636 29.227C47.7742 29.45 48.2352 29.5641 48.7024 29.5583C49.1696 29.5525 49.6276 29.4271 50.0326 29.1941C50.4147 28.9483 50.7496 28.6358 51.0211 28.2715C51.5427 27.5247 51.8399 26.6444 51.8778 25.7343C51.9166 24.8021 51.6378 23.8843 51.087 23.1313C50.8124 22.7578 50.4649 22.4439 50.0655 22.2087C49.652 21.9781 49.1879 21.8536 48.7146 21.8462C48.24 21.8448 47.7737 21.9699 47.3636 22.2087C46.9486 22.4368 46.5974 22.7653 46.3422 23.1642C45.8352 23.9245 45.571 24.8207 45.5843 25.7343ZM45.6172 25.7343C45.6203 24.8427 45.935 23.9801 46.5069 23.296C46.7678 22.9562 47.1015 22.6791 47.4836 22.4853C47.8656 22.2914 48.2863 22.1856 48.7146 22.1757C49.133 22.1883 49.5432 22.2957 49.9142 22.4897C50.2852 22.6838 50.6073 22.9595 50.8563 23.296C51.3861 24.0012 51.6853 24.8527 51.713 25.7343C51.747 26.6201 51.4799 27.4912 50.9552 28.2056C50.6961 28.5554 50.3582 28.8391 49.9689 29.0337C49.5796 29.2284 49.1498 29.3285 48.7146 29.3259C48.2864 29.2989 47.8686 29.1823 47.4883 28.9837C47.108 28.785 46.7736 28.5087 46.5069 28.1726C45.935 27.4885 45.6203 26.626 45.6172 25.7343Z" fill="#5498FF"/>
<path d="M58.5335 32.7529L61.1695 35.0265C61.5979 35.3889 62.0592 35.7514 62.4546 36.1468L62.7841 36.4434C62.883 36.5422 62.9489 36.5752 62.9489 36.707C62.9999 36.9901 63.033 37.2763 63.0477 37.5637C63.1136 38.7169 63.2125 39.8702 63.2454 41.0234V41.8801C63.2454 42.0119 63.2784 42.1767 63.2784 42.3085C63.2652 42.4486 63.2201 42.5839 63.1466 42.7039C62.8536 43.1969 62.4993 43.6509 62.0921 44.0548C61.7189 44.4829 61.3112 44.8797 60.873 45.2411L60.5764 45.4717H60.181C59.9163 45.4235 59.6607 45.3346 59.4232 45.2081L59.0278 45.0434L58.6653 44.8127C58.4322 44.6667 58.2118 44.5014 58.0063 44.3184L56.6554 43.2311C55.7987 42.4732 54.909 41.7154 54.0853 40.9246C53.6395 40.5718 53.231 40.1743 52.8661 39.7384C52.5199 39.2857 52.2933 38.7531 52.2071 38.1897H52.1742C52.2305 38.7749 52.4223 39.3389 52.7343 39.8372C53.1034 40.2892 53.4995 40.7183 53.9205 41.1223C54.7443 41.9131 55.568 42.7039 56.4577 43.4617C57.3473 44.2196 57.3473 44.2196 57.8086 44.5491L58.5006 45.0763L58.896 45.307L59.2914 45.4717C59.5651 45.6235 59.8688 45.7135 60.181 45.7353H60.6753C60.8235 45.675 60.958 45.5853 61.0707 45.4717C61.4997 45.0756 61.8963 44.6459 62.2569 44.1866C62.6417 43.748 62.9838 43.2735 63.2784 42.7698C63.3568 42.64 63.4021 42.4929 63.4102 42.3414C63.4102 42.1767 63.3772 42.0449 63.3772 41.9131C63.3504 41.6283 63.3394 41.3423 63.3443 41.0564C63.3113 39.9031 63.3443 38.7499 63.2784 37.5637C63.2881 37.2765 63.266 36.9892 63.2125 36.707V36.4434L63.0477 36.2786C62.9463 36.1708 62.8361 36.0716 62.7182 35.982C62.2899 35.5866 61.8286 35.2242 61.3673 34.8617C60.9059 34.4993 59.555 33.4449 58.6324 32.7859L58.5335 32.7529Z" fill="#5498FF"/>
<path d="M58.0062 33.5766L60.9388 35.8502L61.6637 36.4433C61.8614 36.641 62.125 36.8717 62.125 37.1682C62.2071 37.7797 62.2401 38.3967 62.2238 39.0134V40.8586C62.1909 41.1881 62.1909 41.4847 62.1579 41.7812C62.1867 42.0733 62.1414 42.368 62.0261 42.6379C61.897 42.9121 61.7307 43.1671 61.5319 43.3958L60.9717 44.0878L60.3127 44.7797C60.1126 45.0013 59.8792 45.1903 59.6208 45.3399C59.772 45.294 59.9161 45.2275 60.0491 45.1422L60.4445 44.8456L61.1365 44.2196C61.5845 43.7818 61.9823 43.2956 62.3227 42.7697C62.4119 42.6085 62.4574 42.4268 62.4545 42.2425C62.4818 42.0904 62.4929 41.9357 62.4874 41.7812V40.8257C62.4865 40.2093 62.4535 39.5934 62.3886 38.9805C62.3556 38.3544 62.2897 37.7284 62.2238 37.1353C62.2292 37.0461 62.218 36.9567 62.1909 36.8717L62.0591 36.674L61.7955 36.2786L61.1035 35.6196C60.1574 34.813 59.1305 34.1063 58.0391 33.5107L58.0062 33.5766Z" fill="#5498FF"/>
<path d="M52.1742 38.3873C52.0249 38.3827 51.878 38.3482 51.7422 38.286C51.6064 38.2237 51.4844 38.1349 51.3834 38.0248C51.2342 37.7677 51.1232 37.4902 51.0539 37.2011C50.9568 36.9123 50.8905 36.6141 50.8562 36.3114C50.8182 36.1604 50.7962 36.0058 50.7903 35.8501C50.788 35.7536 50.7531 35.6607 50.6914 35.5865C50.6413 35.4947 50.5592 35.4243 50.4608 35.3888C50.1503 35.2987 49.8284 35.2543 49.5052 35.257C49.195 35.2568 48.8858 35.2237 48.5826 35.1582C48.278 35.0958 47.9699 35.0518 47.66 35.0264H47.4623L47.3964 35.0923C47.3598 35.1642 47.3374 35.2425 47.3305 35.3229C47.2946 35.4744 47.2725 35.6288 47.2646 35.7842C47.2268 36.4343 47.3633 37.0827 47.66 37.6624C47.8164 37.9489 47.9925 38.2242 48.1872 38.4861C48.4101 38.7192 48.6653 38.9189 48.9451 39.0792C49.5245 39.3617 50.1491 39.5402 50.7903 39.6065C51.4136 39.6778 52.0416 39.6998 52.6685 39.6724L50.8232 39.4087C50.2277 39.307 49.6504 39.1183 49.1098 38.8486C48.5965 38.5612 48.1828 38.1245 47.9236 37.5965C47.6305 37.0704 47.4615 36.4844 47.4293 35.8831C47.4225 35.7285 47.4336 35.5738 47.4623 35.4218C47.457 35.3434 47.4682 35.2648 47.4952 35.1911H47.66C47.9604 35.2027 48.2587 35.2469 48.5497 35.3229C48.8619 35.4097 49.182 35.4649 49.5052 35.4877C49.7984 35.5146 50.0866 35.5811 50.3619 35.6854C50.4072 35.7143 50.4455 35.753 50.474 35.7986C50.5025 35.8442 50.5205 35.8956 50.5267 35.949C50.5301 36.1048 50.5522 36.2597 50.5926 36.4103C50.65 36.7224 50.727 37.0305 50.8232 37.3329C50.9192 37.6396 51.0638 37.9288 51.2516 38.1896C51.3702 38.3118 51.5174 38.4024 51.6799 38.4532H52.1742V38.3873Z" fill="#5498FF"/>
<path d="M46.6385 36.2453C46.6385 35.9158 46.6055 35.5863 46.6055 35.2568V34.7625C46.5988 34.6189 46.6099 34.4751 46.6385 34.3342H46.935L47.4293 34.433L48.3848 34.6966C49.0438 34.8614 49.7028 34.9273 50.3618 35.0591C50.5101 35.0605 50.6563 35.0943 50.7902 35.1579C50.922 35.2238 50.9879 35.2568 51.0208 35.4215C51.089 35.7451 51.1771 36.0643 51.2844 36.3771H51.3174C51.3174 36.0476 51.2844 35.7181 51.2515 35.3886C51.2493 35.282 51.2148 35.1786 51.1526 35.092C51.1025 35.0002 51.0204 34.9298 50.922 34.8943C50.7588 34.8053 50.5796 34.7494 50.3948 34.7296C49.7358 34.5978 49.0768 34.5978 48.4178 34.5319C48.093 34.5009 47.7726 34.4347 47.4622 34.3342L47.0009 34.1694L46.7373 34.1035H46.5726C46.4737 34.1365 46.4078 34.2024 46.4078 34.2683C46.33 34.4325 46.2959 34.6141 46.309 34.7955C46.3419 34.9932 46.3419 35.1579 46.3749 35.3227C46.4167 35.6486 46.4941 35.9691 46.6055 36.2782L46.6385 36.2453Z" fill="#5498FF"/>
<path d="M63.0806 43.0002L66.6062 46.4271C66.9084 46.7072 67.1944 47.0042 67.4629 47.3167L68.2867 48.2064C68.5574 48.506 68.7898 48.838 68.9787 49.1949C69.0284 49.2784 69.0599 49.3714 69.0713 49.4679C69.0826 49.5644 69.0735 49.6623 69.0446 49.755C68.9802 49.9373 68.8512 50.0897 68.6821 50.1834C68.3492 50.3885 67.9719 50.5105 67.5819 50.5392C67.1919 50.5679 66.8008 50.5023 66.4415 50.3481C66.0671 50.2156 65.7207 50.0145 65.42 49.755L64.5304 48.9313L61.0377 45.4715H61.0047C62.0591 46.7566 63.1465 47.9757 64.2997 49.1619L65.2223 49.9857C65.5592 50.2623 65.9372 50.4847 66.3426 50.6447C66.7457 50.7894 67.1776 50.835 67.602 50.7777C68.0264 50.7203 68.4308 50.5617 68.781 50.3152C68.9711 50.1919 69.1112 50.005 69.1764 49.788C69.2084 49.5741 69.1739 49.3555 69.0775 49.1619C68.8854 48.7969 68.6533 48.4543 68.3855 48.1405C67.8254 47.5144 67.3641 46.8554 66.771 46.2623C66.1779 45.6692 65.6177 45.109 64.9917 44.5489C64.3917 43.9785 63.7531 43.4501 63.0806 42.9673V43.0002Z" fill="#5498FF"/>
<path d="M62.784 43.4944C63.2563 44.0935 63.774 44.6553 64.3326 45.1748L65.2223 45.9327L66.0131 46.7564C66.5073 47.3166 67.0345 47.8767 67.5617 48.404C67.8419 48.6621 68.106 48.9372 68.3525 49.2277C68.4901 49.3468 68.6022 49.4925 68.682 49.6561C68.7422 49.7284 68.7853 49.8133 68.8081 49.9046C68.8309 49.9959 68.8329 50.0911 68.8138 50.1833H68.8468C68.8867 50.0895 68.9072 49.9886 68.9072 49.8867C68.9072 49.7848 68.8867 49.6839 68.8468 49.5902L68.5502 49.063L67.7924 48.1733C67.2652 47.6461 66.705 47.1189 66.1119 46.6246C65.8136 46.387 65.5378 46.1222 65.2882 45.8338C65.0184 45.5639 64.7653 45.2778 64.5303 44.9771C63.9905 44.4376 63.4183 43.9314 62.8169 43.4614L62.784 43.4944Z" fill="#5498FF"/>
<path d="M62.1909 46.6247C62.3993 46.5255 62.5719 46.3644 62.6852 46.1634C62.7153 46.059 62.7597 45.9592 62.817 45.8669C62.8853 45.7819 62.9627 45.7046 63.0476 45.6362L63.5748 45.2079C63.7248 45.0465 63.8573 44.8698 63.9702 44.6807H63.9373C63.7157 44.7441 63.5115 44.8571 63.3402 45.0113C63.169 45.1654 63.0351 45.3566 62.9488 45.5703L62.7511 45.8339C62.6488 45.8926 62.5592 45.971 62.4875 46.0646C62.3207 46.2248 62.2059 46.4314 62.158 46.6577L62.1909 46.6247Z" fill="#5498FF"/>
<path d="M65.3211 45.9658C65.0957 46.0342 64.8916 46.159 64.728 46.3283C64.6737 46.4344 64.6073 46.5339 64.5303 46.6248C64.4585 46.7184 64.3689 46.7968 64.2667 46.8555C64.0693 46.9693 63.8913 47.1139 63.7395 47.2838C63.5915 47.4744 63.5001 47.7028 63.4759 47.9428L64.0031 47.4815L64.3985 46.9214L64.5962 46.6578L64.9257 46.493C65.11 46.3556 65.2572 46.1744 65.354 45.9658H65.3211Z" fill="#5498FF"/>
<path d="M68.7478 61.7817C68.7439 61.7124 68.7568 61.6433 68.7855 61.5802C68.8142 61.517 68.8578 61.4618 68.9126 61.4192L69.2091 61.1886L69.934 60.6943L70.5601 60.1012L71.1862 59.4752C71.3859 59.2425 71.512 58.9558 71.5486 58.6514C71.614 58.3594 71.6472 58.061 71.6475 57.7618C71.6053 57.1685 71.4 56.5983 71.0544 56.1143H71.0214C71.2126 56.6427 71.3129 57.1998 71.318 57.7618C71.3814 58.314 71.2902 58.873 71.0544 59.3763C70.9144 59.6318 70.7238 59.856 70.4942 60.0353C70.2623 60.2039 70.0202 60.358 69.7693 60.4966L69.0773 60.9909L68.7808 61.3204C68.7224 61.3804 68.6845 61.4574 68.6727 61.5403C68.6608 61.6232 68.6756 61.7077 68.7149 61.7817H68.7478Z" fill="#5498FF"/>
<path d="M71.2522 55.4226C72.0059 55.6921 72.7764 55.9122 73.5587 56.0816C73.9326 56.1759 74.2742 56.3695 74.5472 56.6418C74.8438 56.9054 75.1733 57.136 75.4698 57.4326L77.2491 59.0142L79.0614 60.6287C79.6875 61.1559 80.3135 61.6502 80.8737 62.2103C81.1417 62.4665 81.345 62.7828 81.4668 63.1329C81.5071 63.4942 81.4133 63.8577 81.2032 64.1544C80.8078 64.7805 80.1488 65.2747 79.5557 65.8019C79.3865 65.9271 79.2317 66.0708 79.0943 66.2303L78.8966 66.4609L78.7319 66.7245L78.1388 67.7789L78.8637 66.8234C78.966 66.6559 79.0877 66.5011 79.2262 66.3621L79.6875 65.9996C80.3135 65.5054 81.0055 65.0441 81.4668 64.3192C81.6066 64.1489 81.6977 63.9439 81.7304 63.726C81.8073 63.5147 81.8187 63.285 81.7633 63.067C81.6401 62.6558 81.3996 62.2893 81.0714 62.0126C80.4804 61.4519 79.8409 60.9447 79.1603 60.4969C78.5342 60.0027 77.9081 59.5084 77.315 58.9483L75.6346 57.2349C75.3424 56.9539 75.0344 56.6898 74.712 56.4441C74.4013 56.1456 74.0132 55.9401 73.5917 55.851C72.8338 55.7521 72.043 55.5544 71.2522 55.3896V55.4226Z" fill="#5498FF"/>
<path d="M77.7104 64.2201C77.6583 64.1831 77.5973 64.1606 77.5337 64.1548C77.47 64.149 77.406 64.1602 77.348 64.1871C77.2848 64.2138 77.2283 64.2543 77.1827 64.3056C77.1371 64.3569 77.1035 64.4177 77.0844 64.4837C77.0176 64.7095 77.0176 64.9498 77.0844 65.1756C77.1685 65.3865 77.2793 65.5859 77.4139 65.7687C77.5137 65.9535 77.5806 66.1542 77.6116 66.3618C77.6775 66.7902 77.7763 67.1856 77.8752 67.6139C78.0001 68.02 78.1543 68.4164 78.3365 68.8001C78.3417 68.3682 78.2975 67.937 78.2047 67.5151C78.0914 67.0989 77.9483 66.6915 77.7763 66.2959C77.5431 65.9393 77.3964 65.5331 77.348 65.1097C77.3051 64.9263 77.2939 64.7368 77.315 64.5496C77.348 64.3519 77.4468 64.2201 77.6775 64.253L77.7104 64.2201Z" fill="#5498FF"/>
<path d="M75.7666 61.2548C75.4827 61.2027 75.1903 61.2205 74.9148 61.3066C74.6392 61.3927 74.3888 61.5445 74.185 61.7491C73.9782 61.956 73.8159 62.203 73.7082 62.475C73.6006 62.7471 73.5498 63.0383 73.559 63.3307C73.6357 63.8842 73.7795 64.4264 73.9873 64.9452C74.1865 65.4498 74.3516 65.9672 74.4816 66.4939C74.7892 67.5432 75.0313 68.6107 75.2065 69.6901C75.3881 70.7562 75.4544 71.8388 75.4042 72.9192H75.4371C75.6571 71.8226 75.6794 70.6956 75.503 69.5912C75.3341 68.5086 75.0468 67.4478 74.6463 66.428C74.4486 65.9008 74.2509 65.4065 74.0862 64.8793C73.9053 64.3719 73.816 63.8364 73.8226 63.2977C73.8202 62.777 74.0076 62.2734 74.3498 61.8809C74.5235 61.6765 74.7411 61.514 74.9865 61.4056C75.2318 61.2971 75.4985 61.2456 75.7666 61.2548Z" fill="#5498FF"/>
<path d="M71.252 66.0981C70.9858 65.0834 70.5633 64.1163 69.9998 63.2314C69.4411 62.3566 68.8247 61.52 68.1546 60.7272C67.4662 59.9343 66.7171 59.1961 65.914 58.5195C65.1185 57.8386 64.2311 57.2729 63.278 56.8391C61.3998 55.8835 59.4558 55.1257 57.5117 54.3349C55.5677 53.544 53.6566 52.8191 51.6795 52.1601C50.691 51.7977 49.7025 51.5011 48.714 51.2046C47.7099 50.8863 46.6863 50.6332 45.6496 50.4467C44.6141 50.2658 43.555 50.2658 42.5194 50.4467C41.4593 50.613 40.4477 51.0064 39.5539 51.6C39.1148 51.8863 38.7159 52.2298 38.3677 52.6214C37.9861 53.0096 37.6839 53.4685 37.478 53.9724C37.2938 54.445 37.0619 54.8977 36.786 55.3234C36.5126 55.753 36.1921 56.1509 35.8305 56.5096L35.6987 56.5755C35.6328 56.6084 35.5339 56.6414 35.501 56.7073L35.1715 56.9379C34.9687 57.1079 34.7813 57.2953 34.6113 57.4981C34.2464 57.8744 33.9156 58.2824 33.6228 58.7172C33.3314 59.1562 33.0779 59.6192 32.865 60.1011C32.6767 60.584 32.5226 61.0795 32.4037 61.5839H32.4366C32.563 61.0841 32.7397 60.5983 32.9638 60.1341C33.1954 59.6658 33.4597 59.2143 33.7546 58.7831C34.0478 58.3588 34.3786 57.9618 34.7431 57.5969C34.9141 57.4151 35.1016 57.2497 35.3033 57.1027L35.5998 56.872L35.7646 56.7732L35.9623 56.6743C36.3563 56.3159 36.6999 55.9058 36.9838 55.4552C37.2876 55.0238 37.5418 54.5596 37.7416 54.0712C37.9331 53.6048 38.2128 53.1797 38.5654 52.8191C38.9302 52.4546 39.3272 52.1238 39.7516 51.8306C40.5971 51.273 41.552 50.9023 42.5523 50.7433C43.5654 50.5675 44.6001 50.5564 45.6167 50.7103C46.6382 50.8751 47.6596 51.1387 48.6481 51.4023L51.6136 52.3249C53.5906 52.9509 55.5677 53.6429 57.4788 54.4337L60.3454 55.6858L63.1462 57.0368C64.9998 57.9746 66.6468 59.2742 67.9899 60.859C68.6704 61.6399 69.2979 62.4655 69.868 63.3303C70.4612 64.1761 70.9171 65.1101 71.219 66.0981H71.252Z" fill="#5498FF"/>
<path d="M1.80473 152.085L6.30742 110.91C6.76872 107.154 7.26297 103.398 7.79018 99.6415C8.35033 95.8852 8.87753 92.1288 9.76719 88.4384C9.99784 87.5158 10.2285 86.5932 10.4921 85.7035C10.7557 84.8139 10.7557 84.7809 10.9204 84.3526L11.3488 83.0016C11.9933 81.2192 12.7755 79.4896 13.6883 77.8284C14.6083 76.179 15.7018 74.6326 16.9503 73.2154C18.2088 71.8032 19.5868 70.5023 21.0691 69.3273H21.1021L21.2009 69.1626H21.168C22.5519 67.9104 24.0017 66.6583 25.4515 65.4721C26.1764 64.879 26.9342 64.3189 27.6921 63.7587C28.4428 63.2031 29.2361 62.7073 30.0645 62.276C30.8883 61.8495 31.7805 61.5707 32.7005 61.4522C33.6276 61.31 34.5635 61.2329 35.5013 61.2216C37.3726 61.1276 39.2486 61.2159 41.1028 61.4851C42.9703 61.7323 44.8047 62.1854 46.5726 62.8361C48.3311 63.5011 50.0289 64.3169 51.6469 65.2744C53.2692 66.226 54.8419 67.2598 56.3588 68.3717C57.1166 68.8989 57.8745 69.492 58.5994 70.0852L59.6208 71.0407L60.1151 71.5679C60.2665 71.7452 60.3888 71.9454 60.4775 72.161C60.4143 71.9309 60.3019 71.7173 60.148 71.535L59.6538 71.0078C59.3374 70.6645 58.9959 70.3451 58.6323 70.0522C57.9404 69.4261 57.1825 68.833 56.4247 68.2729C54.9266 67.1241 53.3524 66.0783 51.7128 65.1426C50.0997 64.1577 48.4015 63.3196 46.6385 62.6384C44.8593 61.9807 43.0144 61.5167 41.1358 61.2545C39.2744 60.9471 37.3858 60.8366 35.5013 60.925C34.5508 60.9295 33.6026 61.0177 32.6676 61.1886C31.7138 61.2963 30.7873 61.5754 29.9327 62.0124C29.0887 62.4472 28.2839 62.9543 27.5273 63.5281C26.7365 64.0882 26.0116 64.6484 25.2867 65.2415C23.804 66.4606 22.3871 67.6798 21.0032 68.9648H20.9703L20.8714 69.1296H20.9044C19.4033 70.3067 18.0135 71.6192 16.7526 73.0507C15.4933 74.4786 14.3888 76.036 13.4576 77.6966C12.5523 79.3753 11.7917 81.128 11.184 82.9357L10.7227 84.2867C10.558 84.715 10.4591 85.1763 10.3273 85.6376C10.1955 86.0989 9.83309 87.4829 9.60244 88.4055C8.74574 92.0959 8.21853 95.8852 7.69133 99.6085C7.16413 103.332 6.63692 107.121 6.14267 110.91L4.69286 122.179C4.23156 125.936 3.7373 129.692 3.30895 133.481C2.45224 140.994 2.5626 144.54 1.77179 152.085H1.80473Z" fill="#5498FF"/>
<path d="M66.8043 70.0525C67.035 68.9981 67.1997 67.9766 67.3315 66.9222C67.4412 65.8716 67.4852 64.8151 67.4633 63.759C67.4155 63.2235 67.3162 62.6938 67.1667 62.1774C66.9522 61.6809 66.6114 61.2492 66.1782 60.9253C65.3691 60.2376 64.4714 59.6613 63.5093 59.2119C62.56 58.7419 61.5667 58.3666 60.5438 58.0916C59.5335 57.7851 58.4964 57.5755 57.4464 57.4655C56.386 57.3394 55.3175 57.2954 54.2503 57.3337C53.1956 57.3769 52.1475 57.5203 51.12 57.7621C52.154 57.5882 53.202 57.511 54.2503 57.5314L57.4135 57.7291C59.486 57.9798 61.5146 58.5119 63.4434 59.3107C64.4161 59.7123 65.3174 60.2687 66.1123 60.9582C66.3046 61.1286 66.4811 61.3161 66.6395 61.5184L66.8372 61.8479C66.8984 61.9658 66.9534 62.0868 67.002 62.2103C67.1368 62.7042 67.2034 63.2141 67.1997 63.726C67.1883 65.8198 67.0452 67.9108 66.7713 69.9866L66.8043 70.0525Z" fill="#5498FF"/>
<path d="M39.9829 59.8706L45.8151 61.2216L47.2978 61.5511L48.7476 61.8806L51.6472 62.7373L53.0641 63.2315L54.448 63.7587C55.3635 64.156 56.2547 64.6071 57.117 65.1097C57.9737 65.6369 58.7974 66.1641 59.5882 66.7572C60.379 67.3503 60.379 67.3832 60.7415 67.7457C61.123 68.0673 61.4658 68.4322 61.7629 68.8331H61.7959C61.2183 67.9974 60.5186 67.2532 59.72 66.6254C58.951 65.9694 58.1239 65.3849 57.2488 64.879C56.4028 64.3355 55.496 63.8931 54.5469 63.561L53.13 63.0338L51.6802 62.6055L45.881 61.0239C43.9389 60.5256 41.9696 60.1406 39.9829 59.8706Z" fill="#5498FF"/>
<path d="M49.7357 41.3525C49.7566 42.2039 49.8447 43.0523 49.9993 43.8897C50.0652 44.3181 50.1641 44.7464 50.23 45.1748C50.3048 45.5883 50.3489 46.0068 50.3618 46.4269C50.3715 46.5269 50.3603 46.6279 50.3288 46.7234L50.23 47.02L49.9664 47.6131L49.4062 48.7663C49.0482 49.5406 48.7292 50.3324 48.4507 51.1387H48.4837C48.912 50.4138 49.3404 49.656 49.7028 48.8981C49.8954 48.5149 50.0606 48.1185 50.197 47.7119C50.2935 47.511 50.3708 47.3014 50.4277 47.0859L50.5265 46.7893C50.5432 46.6691 50.5432 46.5471 50.5265 46.4269L50.3288 45.1418L50.23 43.8568C50.1402 43.0115 49.9859 42.1743 49.7687 41.3525H49.7357Z" fill="#5498FF"/>
<defs>
<linearGradient id="paint0_linear_80_1451" x1="54.8396" y1="0" x2="54.8396" y2="148.347" gradientUnits="userSpaceOnUse">
<stop stop-color="#5498FF"/>
<stop offset="1" stop-color="#5498FF" stop-opacity="0"/>
</linearGradient>
</defs>
</svg>
