<svg width="114" height="149" viewBox="0 0 114 149" fill="none" xmlns="http://www.w3.org/2000/svg">
<path fill-rule="evenodd" clip-rule="evenodd" d="M54.5808 2.99847C51.3315 1.65392 47.8499 0.959843 44.3333 0.955555V0.922605C35.6674 0.922605 28.5172 5.17318 25.0245 8.83065C20.2138 13.872 19.7195 19.9349 19.8513 24.4161C19.9252 26.9283 20.4133 28.2393 20.8455 29.3998C21.1841 30.3093 21.4884 31.1265 21.5318 32.3571C21.5856 33.8826 21.356 35.4961 21.1623 36.8568C21.0004 37.9943 20.8637 38.9551 20.9387 39.5402C21.1034 40.8253 21.6636 41.1218 21.6636 41.1218C21.6636 41.1218 19.2253 42.4728 20.3785 43.692C20.3785 43.692 19.1923 44.6805 18.9287 45.3395C18.7855 45.7985 18.7079 46.2755 18.6981 46.7563C18.6981 46.7563 17.1494 47.5471 16.5893 48.0414C16.0291 48.5356 15.6337 49.3264 15.7326 51.2046C15.8314 53.0828 16.787 56.4107 17.7755 58.3218C18.764 60.233 19.5877 61.1556 20.1479 61.7157C20.708 62.2759 21.2352 62.5724 21.5977 62.5724C21.7152 62.5749 21.8305 62.5403 21.9272 62.4736C22.2595 63.074 22.6224 63.6568 23.0146 64.2199H23.0805C23.377 64.2199 24.5303 63.495 24.5303 63.495C25.0137 63.6489 25.5099 63.7592 26.013 63.8245C26.9356 63.9563 29.0774 64.0552 29.0774 64.0552L29.1433 64.2199C28.7187 64.2911 28.2887 64.3242 27.8582 64.3188H27.1004L25.3211 64.187C25.171 64.1671 25.0189 64.2022 24.8927 64.2858C24.6621 64.4176 23.9042 65.9993 23.8054 66.4606C23.7451 66.6838 23.7346 66.9174 23.7744 67.1451C23.8143 67.3729 23.9036 67.5891 24.036 67.7786C24.3326 68.2728 27.1004 71.436 27.3969 71.6337C27.6935 71.8314 30.1647 72.4245 31.4498 72.4245L32.0759 72.3586C32.8667 72.0291 34.5142 70.4475 34.5471 70.0192C34.5616 69.7458 34.5048 69.4733 34.3824 69.2284L34.9755 68.141C34.9755 68.141 35.272 67.7456 35.2061 67.482C35.1729 67.3162 35.1056 67.1591 35.0084 67.0207C35.0084 67.0207 35.0414 66.8889 35.6345 66.8559H36.2276C36.6729 66.8716 37.1178 66.8159 37.5456 66.6912C37.966 66.5686 38.6472 66.3156 39.2128 66.1055C39.7112 65.9204 40.1199 65.7686 40.1816 65.7686C40.1929 65.7799 40.2928 65.8258 40.4193 65.884C40.6629 65.9961 41.0054 66.1536 41.0054 66.1969C41.0054 66.2628 41.269 67.8445 41.269 67.8445C40.8069 68.0737 40.3206 68.2505 39.8192 68.3717C38.9625 68.5694 38.3694 68.8659 37.282 69.8874C36.1946 70.9088 33.3609 73.413 32.4054 74.0061C31.9795 74.2705 31.7434 74.4432 31.5688 74.571C31.3516 74.7298 31.2295 74.8192 30.9556 74.9287C30.912 74.9462 30.7642 74.994 30.5272 75.0707C28.0736 75.8646 16.0648 79.7502 11.3172 84.9786C6.1111 90.7119 2.05823 101.025 1.46513 112.624C1.14188 118.945 1.20034 135.024 1.32045 148.347H0.393141C0.28515 134.929 0.234525 118.718 0.54252 112.558C1.10267 101.355 4.9908 90.5142 10.6253 84.3196C14.9418 79.5747 24.8268 75.8843 30.3295 74.1379L30.6261 74.0391C30.7886 73.9883 30.9358 73.8977 31.0544 73.7755L31.6475 73.3471H31.4498C30.2306 73.3471 27.4299 72.787 26.8697 72.4245C26.3096 72.0621 23.5418 68.7671 23.2452 68.2728C23.0551 67.9845 22.925 67.6609 22.8627 67.3212C22.8004 66.9815 22.8072 66.6328 22.8828 66.2958C22.981 65.9068 23.1248 65.5308 23.3111 65.1755H23.0805C22.8305 65.1779 22.587 65.0968 22.3885 64.9448C22.2896 64.846 22.1579 64.7142 21.4329 63.528C20.8398 63.4621 20.2797 63.1326 19.4889 62.3418C18.6981 61.551 18.0391 60.7602 16.9517 58.7502C15.8644 56.7402 14.8759 53.2146 14.81 51.2705C14.7441 49.3265 15.0736 48.1402 15.9632 47.3494C16.5319 46.8861 17.1508 46.4882 17.8084 46.1632C17.8438 45.7687 17.9324 45.3807 18.072 45.01C18.3355 44.432 18.7171 43.9157 19.1923 43.4943C19.1159 43.2375 19.1046 42.9657 19.1594 42.7035C19.2582 41.9786 19.8184 41.3525 20.3126 40.9241C20.148 40.5137 20.048 40.0802 20.0161 39.6391C19.9172 38.9142 20.049 37.9257 20.2467 36.6736C20.4683 35.2561 20.5895 33.8246 20.6092 32.39C20.5652 31.4696 20.353 30.565 19.9831 29.7211C19.299 28.0355 18.9411 26.2352 18.9287 24.4161C18.7969 20.0337 19.2253 13.5425 24.3326 8.2046C27.9571 4.41533 35.3709 0 44.3333 0L44.3004 0.164751C47.9373 0.171033 51.5392 0.87575 54.9104 2.24061C67.8856 7.49642 68.4823 19.138 68.6817 23.0293L68.6835 23.0651C68.7108 23.2284 68.7219 23.394 68.7165 23.5594C68.8265 25.2817 68.8375 27.009 68.7494 28.7326C69.0218 29.0692 69.2134 29.4637 69.3096 29.8858C69.3031 31.0865 69.1482 32.2818 68.8483 33.4445C68.5517 34.5318 67.5632 35.1579 66.9701 35.4215C66.6077 36.5747 65.6521 39.6391 65.059 41.682L64.9778 41.9615C64.38 44.0205 63.473 47.1436 63.3785 47.6789C63.2797 48.2391 62.5218 52.9839 62.2582 55.0598C61.8958 57.6958 61.8628 59.7387 62.0935 61.1226C62.2721 61.9889 62.5833 62.8225 63.0161 63.5939C65.1434 62.9015 67.3112 62.3403 69.5073 61.9134C70.1281 61.8096 70.7561 61.7545 71.3855 61.7487C73.8567 61.7487 75.4054 62.2429 76.8552 63.3303C78.305 64.4176 78.931 65.4061 79.2276 66.0322C79.6161 66.6987 80.0805 67.3179 80.6115 67.8774C81.4524 68.3837 82.2271 68.9925 82.918 69.6897C83.7304 70.522 84.3492 71.5233 84.7303 72.6222L85.7847 72.9517C86.7883 73.3051 87.7679 73.7234 88.7173 74.2038H88.8491L94.7142 78.4544H94.7471C94.7781 78.4854 94.9914 78.6604 95.3249 78.934C96.409 79.8236 98.763 81.7551 100.25 83.1663L100.316 83.2322C102.293 85.0774 105.621 88.3395 108.257 96.0828C110.729 103.344 111.955 113.735 112.152 115.408C112.165 115.519 112.174 115.591 112.178 115.622L113.534 148.347H112.642L111.288 115.688C111.288 115.688 110.036 104.09 107.4 96.3464C104.836 88.8136 101.71 85.8023 99.7825 83.9454C99.7286 83.8935 99.6757 83.8425 99.6238 83.7924C97.7126 81.9471 94.187 79.1464 94.187 79.1464L88.3218 74.8958C87.4117 74.4471 86.4766 74.051 85.5211 73.7096C85.0406 73.523 84.5443 73.3796 84.0383 73.2812C84.0383 73.2812 83.5111 71.3372 82.3249 70.2498C81.6688 69.61 80.9514 69.0361 80.1832 68.5364C79.8207 68.3717 78.6674 66.8559 78.4038 66.2628C78.1402 65.6697 77.5142 64.846 76.328 63.9563C74.8702 63.0032 73.1599 62.5096 71.4184 62.5395C70.8437 62.5469 70.2706 62.602 69.705 62.7042C66.7724 63.1985 62.6207 64.5824 62.6207 64.5824C61.9486 63.5215 61.4689 62.3502 61.2038 61.1226C60.9073 59.4092 61.072 57.0697 61.3686 54.8291C61.6651 52.5885 62.4889 47.3494 62.4889 47.3494L64.2023 41.2866C64.8284 39.046 66.2452 34.5977 66.2452 34.5977C66.2452 34.5977 67.6621 34.1364 67.9916 33.049C68.2549 32.0041 68.3877 30.9305 68.387 29.8529C68.3492 29.6825 68.2772 29.5216 68.1752 29.38C68.0732 29.2383 67.9435 29.119 67.7939 29.0291C67.9392 27.1762 67.9502 25.3151 67.8268 23.4605C67.8173 23.3058 67.8084 23.1309 67.7985 22.9377C67.6021 19.1002 67.0351 8.01781 54.5808 2.99847ZM37.8092 67.5809C37.2975 67.7408 36.7637 67.8187 36.2276 67.8115L36.1287 67.7786C36.0892 68.0921 35.9638 68.3886 35.7663 68.6353L35.4038 69.2943C35.473 69.5521 35.5063 69.8182 35.5027 70.0851C35.4804 70.1254 35.469 70.1708 35.4697 70.2169L36.6559 69.1625C37.8751 68.0092 38.633 67.6468 39.5885 67.4161L40.2475 67.2514L40.1487 66.7571H40.1157L39.5885 66.9548L37.8092 67.5809Z" fill="url(#paint0_linear_80_1322)"/>
<path d="M31.5486 74.7639C29.5716 75.4229 27.5946 76.1478 25.6506 76.9386C23.7065 77.7294 21.7624 78.4873 19.8513 79.344L18.4345 80.003L17.0506 80.7279C16.585 80.9646 16.1339 81.2287 15.6996 81.5187L15.0076 81.947L14.3816 82.4083C12.6608 83.6027 11.1376 85.0592 9.86741 86.7248C8.59822 88.3919 7.51539 90.1929 6.6383 92.0957C5.75354 93.9919 4.98331 95.9395 4.33178 97.9279C4.03523 98.9164 3.77163 99.9049 3.44213 100.926C3.11263 101.948 2.91492 102.936 2.68427 103.958C2.25592 106.001 1.92642 108.077 1.59692 110.152H1.56396C1.79462 108.077 2.05822 105.968 2.45362 103.925C2.65132 102.87 2.88197 101.849 3.14558 100.828C3.40918 99.8061 3.70573 98.8176 4.03523 97.7961L4.52948 96.3133C4.68723 95.8086 4.87427 95.3135 5.08964 94.8306C5.48504 93.875 5.88044 92.8865 6.37469 91.9639C6.86895 91.0413 6.80304 91.0084 7.06665 90.5471L7.8904 89.1961C8.154 88.7348 8.48351 88.3064 8.78006 87.8781C9.06942 87.4392 9.38869 87.0209 9.73561 86.626C11.0721 84.9978 12.6113 83.5473 14.3157 82.3095C16.0268 81.0807 17.8466 80.0108 19.7525 79.1133C21.6306 78.2237 23.6076 77.4329 25.5517 76.708C27.4958 75.9831 29.5387 75.2911 31.5486 74.731V74.7639Z" fill="#5498FF"/>
<path d="M41.0711 66.23C41.285 66.9263 41.4176 67.645 41.4665 68.3717C41.4995 68.7334 41.4995 69.0974 41.4665 69.4591C41.4603 69.8381 41.4049 70.2146 41.3018 70.5794C41.047 71.2937 40.5281 71.8833 39.852 72.2269C39.204 72.5797 38.5029 72.8246 37.7761 72.9518H37.7432C38.4022 72.6223 39.0612 72.3257 39.6872 71.9633C39.9802 71.7925 40.2561 71.5939 40.511 71.3702C40.758 71.1269 40.9688 70.8495 41.137 70.5464C41.295 70.2177 41.374 69.8567 41.3677 69.492V69.2284C41.3347 69.1296 41.3347 69.0637 41.3018 68.9648C41.2848 68.7865 41.2517 68.61 41.2029 68.4376C41.0977 67.7174 41.0427 66.9908 41.0382 66.2629L41.0711 66.23Z" fill="#5498FF"/>
<path d="M21.4659 41.1218C21.1529 40.7223 20.9588 40.2427 20.9057 39.7379C20.8123 39.2267 20.8012 38.7039 20.8728 38.1893C20.9057 37.695 21.0375 37.1678 21.1034 36.6735C21.1693 36.1793 21.2682 35.685 21.3341 35.1908C21.4821 34.1874 21.5153 33.1703 21.4329 32.1594C21.3559 31.159 21.1109 30.1787 20.708 29.2598C20.3142 28.3106 20.0483 27.3134 19.9172 26.2942C19.7532 25.2801 19.6542 24.2566 19.6207 23.2299C19.609 22.2169 19.664 21.2042 19.7854 20.1984C19.8892 19.1744 20.0765 18.1605 20.3456 17.167C20.8673 15.191 21.7016 13.3111 22.8169 11.5984C23.9371 9.89145 25.3154 8.3686 26.9027 7.08427C28.4799 5.79583 30.2056 4.7007 32.0429 3.8222C33.8762 2.91502 35.7972 2.19738 37.7762 1.68044C41.7379 0.631884 45.8892 0.519078 49.9019 1.35094C53.9253 2.16668 57.6838 3.96668 60.8414 6.59002C61.6328 7.24441 62.371 7.96058 63.0491 8.73178C63.719 9.50916 64.3147 10.3476 64.8284 11.236C65.7974 13.0418 66.5179 14.9704 66.9701 16.9693C67.9234 20.9363 68.2019 25.0355 67.7939 29.095H67.7609C67.8982 27.065 67.8871 25.0276 67.728 22.9992C67.5808 20.9853 67.25 18.989 66.7395 17.0352C66.2748 15.0618 65.5315 13.1646 64.5318 11.4007C64.0289 10.5341 63.4441 9.71755 62.7855 8.96243C62.1214 8.21058 61.4058 7.50593 60.6437 6.85362C57.5043 4.28681 53.8 2.50246 49.836 1.64749C45.865 0.790368 41.75 0.858011 37.8092 1.84519C35.8412 2.33428 33.9305 3.03011 32.1088 3.92105C30.2708 4.78501 28.5447 5.86934 26.9686 7.15017C23.8315 9.75017 21.604 13.2818 20.6092 17.2329C20.0996 19.1898 19.8667 21.2084 19.9172 23.2299C19.9396 24.245 20.0276 25.2576 20.1808 26.2613C20.3165 27.2547 20.5709 28.2282 20.9387 29.1609C21.3417 30.1143 21.5865 31.1271 21.6636 32.1594C21.7192 33.1717 21.6751 34.1871 21.5318 35.1908C21.4329 35.718 21.367 36.2122 21.2682 36.7065C21.1693 37.2007 21.0375 37.695 20.9716 38.1893C20.9057 38.6923 20.9057 39.2019 20.9716 39.705C21.0058 40.2084 21.1894 40.6903 21.4988 41.0889L21.4659 41.1218Z" fill="#5498FF"/>
<path d="M62.6865 64.7471C61.9747 63.6637 61.4408 62.4734 61.1049 61.2214C60.7424 59.9034 60.8413 58.5854 60.9402 57.3003C61.039 56.0153 61.2697 54.6973 61.4674 53.4452C61.6651 52.1931 61.8628 50.875 62.0605 49.59C62.3967 47.0056 62.9702 44.4577 63.7739 41.9785C64.4988 39.4743 65.3555 37.036 66.2122 34.5977H66.2451C65.5861 37.1019 64.8283 39.5731 64.1034 42.0774C63.7409 43.3295 63.3785 44.5486 63.049 45.8007C62.8714 46.4295 62.7284 47.0674 62.6206 47.7118L62.2252 49.6229C61.9946 50.875 61.7639 52.1601 61.5992 53.4452C61.4344 54.7302 61.3026 56.0153 61.2038 57.3003C61.1708 57.9593 61.1379 58.5854 61.1379 59.2444C61.1221 59.8873 61.1885 60.5295 61.3356 61.1555C61.6552 62.4026 62.1197 63.6079 62.7195 64.7471H62.6865Z" fill="#5498FF"/>
<path d="M41.2029 67.9101C40.8508 68.1115 40.4743 68.2665 40.0825 68.3714L39.4894 68.5362C39.3025 68.567 39.1234 68.6342 38.9622 68.7339C38.3064 69.1892 37.6792 69.6844 37.0841 70.2167C35.8649 71.2711 34.6458 72.3255 33.3607 73.314C32.7347 73.8412 32.1086 74.3025 31.5484 74.8626C31.2804 75.1207 31.0966 75.4538 31.0213 75.8182C31.0292 76.1847 31.1697 76.5358 31.4167 76.8067C31.9595 77.3906 32.5675 77.9102 33.2289 78.3554L33.6902 78.7508C33.8319 78.8991 33.9537 79.0653 34.0527 79.245L34.7117 80.2665H34.6787C34.4481 79.937 34.1845 79.6404 33.9209 79.3109C33.8167 79.1548 33.6951 79.0111 33.5584 78.8826L33.0642 78.5201C32.362 78.0899 31.7194 77.5692 31.153 76.9714C30.8566 76.6365 30.7029 76.199 30.7247 75.7523C30.7897 75.315 31.0124 74.9165 31.3508 74.632C31.9422 74.0816 32.5818 73.5853 33.2619 73.1492C33.9344 72.7025 34.5731 72.2069 35.173 71.6665L36.9193 70.019C37.4967 69.4428 38.1379 68.9343 38.8304 68.5032C39.0266 68.4029 39.2382 68.3361 39.4565 68.3055L40.0496 68.1737C40.441 68.0902 40.8263 67.9801 41.2029 67.8442V67.9101Z" fill="#5498FF"/>
<path d="M35.1404 76.708C35.1955 76.6782 35.256 76.6599 35.3183 76.6542C35.3806 76.6486 35.4434 76.6556 35.5029 76.675C35.5666 76.691 35.6247 76.7239 35.6712 76.7703C35.7176 76.8168 35.7505 76.8749 35.7665 76.9386C35.8577 77.1584 35.8694 77.4031 35.7994 77.6306C35.7229 77.8552 35.6118 78.0664 35.4699 78.2566C35.3678 78.4436 35.2903 78.6429 35.2393 78.8498C35.1734 79.2781 35.0745 79.6735 34.9757 80.1019C34.851 80.5187 34.6968 80.9261 34.5144 81.3211H34.4814C34.4854 80.8768 34.5407 80.4346 34.6462 80.003C34.7562 79.5814 34.9108 79.1727 35.1075 78.7839C35.193 78.5798 35.2921 78.3816 35.404 78.1908C35.4947 78.0064 35.5399 77.803 35.5358 77.5976C35.5794 77.4031 35.5905 77.2027 35.5688 77.0045C35.5366 76.9315 35.492 76.8646 35.437 76.8068L35.1404 76.7409V76.708Z" fill="#5498FF"/>
<path d="M37.6773 85.4068C37.4415 84.2787 37.4192 83.1164 37.6114 81.98C37.8093 80.8502 38.1297 79.7453 38.567 78.685C38.7647 78.1248 38.9624 77.5976 39.1271 77.0704C39.2203 76.8031 39.2865 76.5271 39.3248 76.2467C39.358 75.9731 39.358 75.6965 39.3248 75.4229C39.2263 74.8789 39.0129 74.3622 38.6988 73.9072C38.5437 73.68 38.3414 73.4889 38.1057 73.347C37.9054 73.202 37.6604 73.1321 37.4137 73.1493L37.1172 73.2152L37.249 72.9187C37.4701 72.4936 37.7235 72.086 38.0068 71.6995C38.3065 71.321 38.6255 70.958 38.9624 70.6122C39.2982 70.2806 39.6747 69.9927 40.0827 69.7555C40.4836 69.4888 40.9305 69.2988 41.4007 69.1953C40.9731 69.3864 40.5648 69.6181 40.1816 69.8873C39.8003 70.159 39.4471 70.4681 39.1271 70.8099C38.8158 71.1512 38.5294 71.5146 38.2704 71.8972C37.9907 72.268 37.7479 72.6653 37.5455 73.0834L37.3808 72.8528C37.537 72.8301 37.6961 72.8388 37.8489 72.8784C38.0016 72.9181 38.145 72.9877 38.2704 73.0834C38.5218 73.269 38.7439 73.4911 38.9294 73.7424C39.2565 74.2361 39.4599 74.8012 39.5225 75.39C39.5616 75.6753 39.5504 75.9652 39.4896 76.2467C39.4237 76.5432 39.3248 76.8068 39.2589 77.1034L38.9624 77.8942L38.6988 78.7179C38.3624 79.7999 38.0874 80.9 37.875 82.0129C37.6717 83.1321 37.6163 84.2732 37.7103 85.4068H37.6773Z" fill="#5498FF"/>
<path d="M42.126 78.5206C42.4238 77.4637 42.8912 76.4622 43.5099 75.555C44.7209 73.7201 46.2235 72.0951 47.9582 70.7443C48.8431 70.0716 49.8055 69.5074 50.8248 69.0638C52.8018 68.1412 54.8448 67.3504 56.8877 66.5596C58.9306 65.7688 60.9735 65.0439 63.0493 64.352C64.1038 63.9895 65.1252 63.66 66.1796 63.3635L67.7612 62.9351L68.552 62.7374L69.3758 62.5726C70.4759 62.3965 71.5931 62.3522 72.7038 62.4408C73.8151 62.5699 74.8901 62.917 75.867 63.4623C76.3494 63.72 76.8024 64.0293 77.2179 64.3849C77.6587 64.7532 78.0274 65.2001 78.3053 65.7029L78.47 66.0654C78.5187 66.1889 78.5737 66.3099 78.6348 66.4278L79.0631 67.1198C79.3772 67.558 79.7184 67.9762 80.0846 68.3719L80.3811 68.5696L80.7766 68.7673L81.4356 69.2615C81.8607 69.6152 82.2473 70.0128 82.5888 70.4478C83.3028 71.2932 83.8004 72.2997 84.0386 73.3803H84.0057C83.8714 72.8525 83.6721 72.3434 83.4126 71.8646C83.1352 71.4049 82.827 70.9646 82.49 70.5466C82.1304 70.1484 81.7452 69.7742 81.3367 69.4263L80.6777 68.965L80.3153 68.7673C80.1852 68.7059 80.0635 68.6284 79.9528 68.5366C79.5547 68.1516 79.1909 67.7326 78.8654 67.2845C78.6927 67.0555 78.5384 66.8131 78.4041 66.5596L78.2064 66.1972C78.1578 66.0736 78.1028 65.9526 78.0417 65.8347L77.844 65.5052L77.5804 65.2087L77.3168 64.9121L77.0202 64.6485C76.6248 64.2825 76.1814 63.9722 75.7022 63.7259C74.7523 63.2119 73.7116 62.8873 72.6379 62.7703C71.573 62.6551 70.4974 62.6884 69.4417 62.8692C67.3007 63.2864 65.1878 63.8366 63.1152 64.5167C61.0394 65.1757 58.9635 65.8677 56.9206 66.6585L53.8892 67.9106C52.9007 68.3719 51.9122 68.8002 50.9237 69.2945C48.9536 70.2134 47.1843 71.5123 45.7175 73.1167C44.9628 73.9091 44.2689 74.7572 43.6417 75.6539C42.9898 76.5244 42.4784 77.4917 42.126 78.5206Z" fill="#5498FF"/>
<path d="M109.904 105.803C109.421 103.453 108.828 101.113 108.125 98.7846C107.447 96.475 106.577 94.2264 105.522 92.0628C103.465 87.6865 100.323 83.9092 96.3946 81.0904L96.2628 80.9256C94.7471 79.6406 93.1655 78.4214 91.551 77.2352C90.7382 76.6421 89.9144 76.082 89.0797 75.5547C88.2449 75.0147 87.3753 74.5303 86.4766 74.1049C85.5526 73.7172 84.5748 73.4728 83.577 73.38C82.5885 73.2812 81.6 73.1823 80.6115 73.1823C78.616 73.1499 76.6212 73.2821 74.6475 73.5777C72.6752 73.8554 70.7335 74.3188 68.8483 74.9616C66.9719 75.6364 65.1536 76.4628 63.4115 77.4329C61.6651 78.3885 59.9517 79.4429 58.3042 80.5632C57.4805 81.1233 56.6897 81.7164 55.8988 82.3425L54.7456 83.298C54.5808 83.4957 54.3831 83.6605 54.2184 83.8252C54.0449 84.0045 53.9103 84.2176 53.823 84.4513H53.79C53.8692 84.204 54.0045 83.9785 54.1854 83.7923C54.3502 83.6275 54.5149 83.4298 54.7126 83.2651L55.8329 82.2436C56.5908 81.6176 57.3816 80.9915 58.2054 80.4314C59.8529 79.2781 61.5333 78.1908 63.2797 77.2023C65.0317 76.2107 66.8609 75.3622 68.7494 74.6651C70.6561 74.0113 72.6197 73.537 74.6146 73.2482C76.6011 72.9734 78.6069 72.8632 80.6115 72.9187C81.615 72.9288 82.6167 73.0058 83.61 73.1494C84.6207 73.2493 85.6099 73.505 86.5425 73.9072C87.4426 74.3423 88.3123 74.8377 89.1456 75.39C90.0023 75.9502 90.8261 76.5432 91.6169 77.1364C93.2314 78.3226 94.813 79.5747 96.3287 80.8268H96.3617L96.4605 80.9915C98.4256 82.4136 100.227 84.0491 101.831 85.8681L102.985 87.285L104.006 88.7678C104.67 89.7922 105.264 90.86 105.785 91.9639C106.83 94.1471 107.679 96.4186 108.323 98.7517C108.982 101.058 109.509 103.431 109.937 105.803H109.904Z" fill="#5498FF"/>
<path d="M46.9691 82.4084C46.7078 81.3336 46.5098 80.2444 46.376 79.1463C46.2218 78.0442 46.1666 76.9304 46.2113 75.8184C46.2442 75.6866 46.2442 75.5548 46.2772 75.39C46.3101 75.2253 46.3101 75.1264 46.3431 74.9946C46.3765 74.8488 46.4206 74.7056 46.4749 74.5663C46.5075 74.4301 46.5758 74.305 46.6726 74.2038C46.9817 73.7306 47.3856 73.3267 47.8588 73.0176C48.75 72.3724 49.7117 71.8307 50.7255 71.4031C51.7394 70.9519 52.7858 70.5775 53.8557 70.2828C54.9341 69.9868 56.0369 69.7883 57.1508 69.6896C58.2443 69.5635 59.3457 69.5195 60.4458 69.5578C61.5551 69.5718 62.6597 69.7043 63.7408 69.9533C62.6507 69.788 61.5478 69.7218 60.4458 69.7556C59.3694 69.7995 58.2821 69.8654 57.1837 69.9533C55.0007 70.2231 52.8558 70.7427 50.7914 71.5019C49.7729 71.8921 48.8093 72.4126 47.9247 73.0506C47.486 73.3788 47.1071 73.7801 46.8044 74.2368C46.7558 74.3603 46.7008 74.4813 46.6396 74.5992C46.6067 74.731 46.6067 74.8628 46.5737 74.9946C46.5408 75.1264 46.5408 75.2582 46.5078 75.39C46.4805 75.5311 46.4695 75.6748 46.4749 75.8184C46.4365 76.9075 46.4806 77.998 46.6067 79.0804C46.7055 80.1678 46.8373 81.2881 47.0021 82.3755L46.9691 82.4084Z" fill="#5498FF"/>
<path d="M75.8006 71.8972C73.7248 72.4244 71.6489 72.8857 69.573 73.347L67.9914 73.6765L66.4428 74.006C65.3884 74.2696 64.3669 74.5662 63.3455 74.8957C62.8512 75.0604 62.357 75.2581 61.8298 75.3899L60.347 75.9501C59.3612 76.3332 58.4033 76.7846 57.4803 77.301C56.5486 77.8216 55.6466 78.3936 54.7784 79.0144C54.3392 79.3152 53.9208 79.6455 53.5263 80.0029C53.1129 80.3341 52.7372 80.7098 52.406 81.1232H52.373C53.0104 80.2442 53.7769 79.4666 54.6466 78.8167C55.4839 78.1486 56.3768 77.5533 57.3156 77.0374C59.1608 75.9501 61.2696 75.2911 63.3125 74.7309L69.5071 73.0834C71.583 72.5892 73.6918 72.1608 75.8006 71.8643V71.8972Z" fill="#5498FF"/>
<path d="M23.2452 40.6604C23.6291 40.3791 23.9925 40.0708 24.3326 39.7378C24.5223 39.5872 24.6888 39.4096 24.8268 39.2106C24.9551 38.9946 25.1228 38.8046 25.3211 38.6504C25.717 38.3678 26.165 38.1662 26.6391 38.0573C26.899 38.0305 27.1613 38.0762 27.3969 38.1891L28.023 38.5845C28.3862 38.9148 28.7172 39.2789 29.0115 39.6719L29.4399 40.232L29.9341 40.7593C30.6292 41.4235 31.4039 41.999 32.2406 42.4727L32.8667 42.7692L33.5257 42.9669L34.2176 42.8681L34.8766 42.6374C35.7992 42.3409 36.6889 41.9455 37.5456 41.583L40.1816 40.3638L42.8176 39.1117C43.7109 38.7335 44.6238 38.4035 45.5525 38.1232C46.4946 37.8733 47.4523 37.6861 48.4192 37.5631L51.2858 37.2006L52.7356 37.0029C53.2165 36.9421 53.7023 36.9311 54.1854 36.97L54.5479 37.1018L54.9103 37.2006C55.1495 37.2928 55.3639 37.4394 55.5364 37.629C55.7004 37.8259 55.8035 38.0664 55.8329 38.3209C55.8842 38.5597 55.9173 38.802 55.9318 39.0458C55.9977 40.0014 55.9977 40.9899 56.0306 41.9455V42.6704C56.0188 42.9167 55.9745 43.1605 55.8988 43.3953C55.73 43.8507 55.4848 44.2741 55.1739 44.6474L54.9103 44.911C54.8073 44.9986 54.6817 45.0557 54.5479 45.0757L54.3502 44.9769L54.1854 44.878L53.8889 44.6803C53.4836 44.4361 53.0526 44.2372 52.6038 44.0872C51.6743 43.8135 50.7045 43.7021 49.7372 43.7577C48.7791 43.8121 47.8293 43.9667 46.9035 44.219C45.0428 44.6942 43.2573 45.4262 41.5985 46.3937C39.9454 47.3896 38.4468 48.6218 37.1502 50.0512L36.2276 51.1386L35.7333 51.6987C35.5701 51.8883 35.3816 52.0546 35.1732 52.193C34.7331 52.4499 34.233 52.5863 33.7234 52.5884C33.2234 52.6155 32.7224 52.5598 32.2406 52.4236C31.3066 52.1366 30.4106 51.7383 29.5717 51.2374C28.7388 50.723 27.9358 50.162 27.1663 49.557C26.4084 48.9639 25.6835 48.3048 24.9586 47.6458C24.2337 46.9868 23.5747 46.3278 22.8498 45.7018C22.4952 45.399 22.0948 45.1544 21.6636 44.9769C21.4558 44.8764 21.2334 44.8097 21.0046 44.7792L20.3127 44.7133C20.0981 44.7026 19.8846 44.7488 19.6936 44.8471C19.5027 44.9455 19.3411 45.0926 19.2253 45.2734C18.9844 45.6653 18.8273 46.1029 18.764 46.5585C18.6294 47.4892 18.7667 48.4389 19.1594 49.2934C19.5915 50.1197 20.2264 50.8226 21.0046 51.3363H21.0705C21.4439 52.0831 21.7734 52.841 22.059 53.6098C22.4012 54.3836 22.666 55.1893 22.8498 56.0152C23.2782 57.5968 23.6406 59.2443 24.0031 60.8589L24.2667 62.078L24.3985 62.6711V63.0006C24.3964 63.0574 24.4077 63.1138 24.4314 63.1654V63.2642C24.5728 63.3903 24.7423 63.4807 24.9257 63.5278L25.5188 63.6596L26.7709 63.8244C27.5946 63.8903 28.4184 64.0221 29.2422 64.0221C29.6524 64.0273 30.0617 63.983 30.4613 63.8903C30.8674 63.8244 31.2454 63.6411 31.5487 63.3631H31.5816C31.2867 63.6652 30.9079 63.8718 30.4943 63.9562C30.0832 64.0473 29.6632 64.0915 29.2422 64.088C28.4055 64.0942 27.5693 64.0502 26.7379 63.9562L25.5188 63.8244L24.8927 63.6926C24.6672 63.6428 24.461 63.5283 24.2996 63.3631C24.2877 63.3497 24.2786 63.334 24.273 63.3171C24.2673 63.3001 24.2652 63.2821 24.2667 63.2642V63.0336L24.2008 62.7041L24.1019 62.111L23.8054 60.8918C23.4539 59.2882 23.0585 57.6737 22.6192 56.0481C22.4051 55.2632 22.141 54.4928 21.8284 53.7416L20.8069 51.4681V51.534C20.4042 51.2514 20.0291 50.9315 19.6866 50.5784C19.3251 50.2311 19.0342 49.8171 18.8299 49.3593C18.4114 48.4423 18.2628 47.4251 18.4016 46.4267C18.4816 45.929 18.649 45.4494 18.8958 45.0098C19.0466 44.775 19.2648 44.5912 19.5219 44.4826C19.7559 44.3629 20.0171 44.3061 20.2797 44.3179C20.5341 44.3057 20.7891 44.3278 21.0376 44.3838C21.2866 44.4187 21.5302 44.4851 21.7625 44.5815C22.2184 44.7784 22.6408 45.0452 23.0146 45.3723C23.7724 45.9983 24.4644 46.6903 25.1893 47.3493C25.9142 48.0083 26.6061 48.6343 27.331 49.2275C28.0872 49.8249 28.8795 50.3751 29.7035 50.875C30.5153 51.3829 31.3905 51.7818 32.3065 52.0612C33.1971 52.3377 34.158 52.2791 35.0084 51.8964L35.5027 51.4351C35.674 51.2636 35.8285 51.076 35.964 50.875L36.9525 49.8206C38.2638 48.3803 39.7858 47.1472 41.4667 46.1631C43.1486 45.1949 44.9559 44.4631 46.8375 43.9884C47.7794 43.7653 48.7383 43.622 49.7042 43.56C50.6844 43.5139 51.6652 43.6365 52.6038 43.9225C53.0641 44.0839 53.5059 44.2938 53.9218 44.5485L54.5149 44.911C54.6241 44.8955 54.7268 44.8498 54.8115 44.7792L55.0421 44.5156C55.3659 44.1696 55.603 43.7518 55.7341 43.2964C55.8255 43.0774 55.8704 42.8418 55.8659 42.6045V41.8796C55.8329 40.924 55.8 39.9355 55.7341 38.9799C55.7011 38.5186 55.7011 37.9914 55.3716 37.6619C55.0421 37.3324 54.5479 37.2336 54.1195 37.1018C53.6474 37.064 53.1726 37.0751 52.7027 37.1347L51.2858 37.3324L48.4192 37.7608C47.4647 37.9077 46.5187 38.1057 45.5854 38.3539C44.6627 38.6196 43.7599 38.9499 42.8835 39.3424C42.0268 39.7048 41.1372 40.1332 40.2805 40.5616L37.6444 41.7478C36.7548 42.1432 35.8651 42.5056 34.9425 42.8351L34.2176 43.0328C33.9857 43.1166 33.7386 43.1503 33.4927 43.1317C33.2289 43.1208 32.9704 43.0533 32.7349 42.934L32.0759 42.6045C31.2376 42.1073 30.463 41.5098 29.7694 40.8252L29.2751 40.2979L28.8468 39.7048C28.5722 39.3159 28.2513 38.9618 27.8912 38.6504L27.2981 38.255C27.0926 38.154 26.868 38.0978 26.6391 38.0903C26.1841 38.2294 25.7593 38.453 25.387 38.7493C25.1912 38.8797 25.0232 39.0477 24.8927 39.2435L24.3985 39.7707L23.2782 40.6933L23.2452 40.6604Z" fill="#5498FF"/>
<path d="M21.4657 42.5386C21.3286 42.8244 21.1385 43.0815 20.9055 43.2964L20.5101 43.56C20.404 43.6665 20.3151 43.7887 20.2465 43.9225C20.0818 44.1861 19.884 44.4167 19.6863 44.6803L19.0603 45.3393H19.0273C19.0905 45.0268 19.2259 44.7334 19.4227 44.4826C19.6256 44.2468 19.8459 44.0265 20.0818 43.8236L20.4442 43.5271L20.7078 43.1317C20.8933 42.8739 21.1433 42.6693 21.4327 42.5386H21.4657Z" fill="#5498FF"/>
<path d="M20.3126 43.6588C20.2065 43.5524 20.1176 43.4301 20.049 43.2964C19.9769 43.1541 19.9537 42.9919 19.9831 42.8351C20.0289 42.6941 20.0955 42.5609 20.1808 42.4397L20.3785 42.0443C20.7056 41.5516 21.1464 41.1448 21.6636 40.8581C21.9336 40.7258 22.2227 40.6369 22.5203 40.5945C22.8085 40.5249 23.1121 40.56 23.377 40.6933C23.9042 40.9569 24.3984 41.2535 24.8927 41.55L25.6176 42.0113L25.9471 42.3408L26.013 42.4397C26.0533 42.4853 26.0766 42.5436 26.0789 42.6044C26.066 42.7089 26.0324 42.8097 25.98 42.901C25.77 43.1254 25.5252 43.3145 25.2551 43.4611L24.9256 43.6918H24.8268L24.6291 43.7577H24.3655C23.7724 43.527 23.344 43.2305 22.8168 42.9998C22.5685 42.8564 22.3027 42.7456 22.026 42.6703C21.8972 42.624 21.7599 42.6059 21.6235 42.6173C21.487 42.6287 21.3546 42.6692 21.2352 42.7362C21.3497 42.6455 21.4841 42.5833 21.6273 42.5547C21.7705 42.526 21.9184 42.5318 22.059 42.5715C22.3515 42.6024 22.6392 42.6688 22.9157 42.7692L23.7065 43.1316L24.4643 43.4282H24.7279L25.0904 43.1646C25.323 43.0463 25.5346 42.8904 25.7164 42.7033C25.7494 42.6703 25.7823 42.6374 25.7823 42.6044H25.7494V42.5385C25.6679 42.4237 25.5677 42.3235 25.4528 42.242L24.8268 41.7148C24.3632 41.3872 23.8789 41.0901 23.377 40.8251C23.2552 40.7635 23.1216 40.7286 22.9852 40.7229C22.8487 40.7172 22.7127 40.7409 22.5862 40.7922L21.8283 41.1217C21.3643 41.415 20.9615 41.7955 20.6421 42.242L20.3785 42.5715C20.3007 42.6737 20.2344 42.7842 20.1808 42.901C20.1562 43.0341 20.1611 43.171 20.1953 43.3019C20.2294 43.4329 20.292 43.5548 20.3785 43.6588H20.3126Z" fill="#5498FF"/>
<path d="M25.6173 42.1431C25.4588 42.3453 25.2824 42.5328 25.0901 42.7032L24.7935 42.9339L24.6288 43.0327H24.3322L23.7062 42.6373C23.4883 42.511 23.2559 42.4114 23.0142 42.3408C22.5776 42.158 22.1254 42.0146 21.6632 41.9124C21.2179 41.9313 20.7904 42.093 20.4441 42.3737H20.4111C20.5218 42.135 20.7068 41.9385 20.9383 41.8136C21.0419 41.7249 21.1627 41.6587 21.2932 41.619C21.4236 41.5793 21.5608 41.567 21.6962 41.5829C21.9625 41.604 22.2211 41.6827 22.4541 41.8136L23.1131 42.176C23.31 42.316 23.5196 42.4374 23.7391 42.5385L24.4311 42.7691L24.6288 42.6373L24.9583 42.4396L25.5843 42.0772L25.6173 42.1431Z" fill="#5498FF"/>
<path d="M26.1777 38.2551L26.7379 37.3325L27.0344 36.8712C27.1564 36.7225 27.3155 36.6088 27.4957 36.5417C27.8389 36.3823 28.2065 36.2821 28.5831 36.2451H29.1762L29.4398 36.344L29.6705 36.4758C30.3624 36.8053 30.8237 37.3984 31.318 37.8926L32.7348 39.4742C33.1973 40.0047 33.7293 40.4702 34.3164 40.8581C34.6054 41.0347 34.9338 41.1366 35.272 41.1547C35.6139 41.1812 35.9578 41.159 36.2934 41.0888C37.6773 40.924 39.0942 40.5945 40.4781 40.3309C39.1282 40.8128 37.7391 41.1766 36.3264 41.4183C35.9657 41.4622 35.6017 41.4732 35.239 41.4512C34.8534 41.4161 34.4812 41.292 34.1517 41.0888C33.5572 40.6702 33.0343 40.1584 32.603 39.5731C32.1775 39.0053 31.7152 38.4659 31.2191 37.9585C30.988 37.6837 30.7221 37.44 30.4283 37.2336C30.1718 37.0058 29.8831 36.8171 29.5716 36.6735L29.308 36.5746L29.0773 36.5087H28.616C28.2767 36.5346 27.9433 36.6124 27.6275 36.7394C27.4717 36.789 27.3264 36.8672 27.1992 36.97L26.8697 37.3984C26.6684 37.6871 26.4482 37.9623 26.2107 38.2221L26.1777 38.2551Z" fill="#5498FF"/>
<path d="M55.8001 38.4529C54.548 38.5517 53.3288 38.7494 52.1426 38.9471C50.9564 39.1448 49.7372 39.4414 48.551 39.7379C47.3665 40.0577 46.2004 40.4427 45.0583 40.8912L43.3449 41.6161C42.7848 41.8797 42.2246 42.1103 41.6974 42.4069C39.4897 43.4943 37.315 44.6146 35.0415 45.636C34.4846 45.9005 33.9124 46.1316 33.3281 46.328C32.7436 46.5576 32.136 46.7234 31.5158 46.8222C30.8926 46.899 30.2631 46.91 29.6376 46.8552C29.0034 46.8384 28.3778 46.7043 27.7924 46.4598L27.5947 46.328L27.8254 46.2621C28.0363 46.1779 28.2356 46.0672 28.4185 45.9326L28.9127 45.4713C29.061 45.2975 29.173 45.0958 29.2422 44.8782C29.336 44.6715 29.3811 44.446 29.374 44.2192H29.407C29.4486 44.7031 29.3075 45.185 29.0116 45.5701C28.8725 45.7587 28.7059 45.9253 28.5173 46.0644C28.3294 46.2265 28.1184 46.3597 27.8913 46.4598V46.2621C29.0395 46.6355 30.2631 46.7148 31.4499 46.4927C32.0496 46.3982 32.6359 46.2323 33.1963 45.9985C33.7894 45.8008 34.3495 45.5372 34.9097 45.3065C36.03 44.8452 37.1503 44.318 38.2706 43.7908L41.6315 42.2751L43.312 41.5172L44.9924 40.7594C46.1224 40.243 47.29 39.8134 48.4851 39.4743C50.8681 38.8105 53.3266 38.4561 55.8001 38.4199V38.4529Z" fill="#5498FF"/>
<path d="M26.3426 44.6805C26.0512 44.4645 25.8513 44.147 25.7825 43.7908C25.717 43.6098 25.717 43.4117 25.7825 43.2307C25.7949 43.1282 25.8311 43.0302 25.8884 42.9443C25.9456 42.8585 26.0222 42.7873 26.112 42.7364C26.4369 42.5707 26.8063 42.5129 27.1664 42.5717C27.5196 42.634 27.8561 42.7686 28.1549 42.9671C28.4687 43.1736 28.6925 43.4916 28.7809 43.8567C28.8099 44.0568 28.7872 44.261 28.715 44.4498L28.5832 44.7134L28.3526 44.9441C28.1938 45.0482 28.0158 45.1194 27.829 45.1533C27.6422 45.1873 27.4505 45.1834 27.2652 45.1418C26.9309 45.0487 26.6177 44.8921 26.3426 44.6805ZM26.3426 44.6475C26.619 44.8476 26.9583 44.9412 27.2982 44.9111C27.6008 44.8937 27.8948 44.8032 28.1549 44.6475C28.2568 44.5576 28.3359 44.4446 28.3855 44.318C28.4525 44.1853 28.4864 44.0383 28.4844 43.8897C28.4158 43.5848 28.2547 43.3086 28.0231 43.0989C27.9137 42.9793 27.7816 42.8828 27.6345 42.8149C27.4874 42.747 27.3283 42.7091 27.1664 42.7035C27.0079 42.6834 26.847 42.6965 26.6939 42.7418C26.5407 42.7872 26.3987 42.8639 26.2767 42.9671C26.1617 43.0446 26.0795 43.162 26.0461 43.2966C26.0081 43.4476 25.986 43.6022 25.9802 43.7579C25.9731 43.9235 26.0018 44.0887 26.0644 44.2422C26.1269 44.3958 26.2218 44.534 26.3426 44.6475Z" fill="#5498FF"/>
<path d="M25.8152 43.626C25.8109 44.0018 25.8441 44.377 25.9141 44.7463C25.969 44.9242 26.0716 45.0837 26.2106 45.2076C26.3441 45.3446 26.5168 45.4367 26.7049 45.4712H27.4627L27.6604 45.3394L28.4842 44.5156H28.5171C28.3991 44.9136 28.1839 45.2759 27.8911 45.57C27.8093 45.6512 27.7067 45.7082 27.5945 45.7348C27.4922 45.7849 27.3787 45.8076 27.265 45.8007C27.0461 45.7973 26.8312 45.7408 26.639 45.6359L26.1118 45.3064C25.9445 45.1774 25.7997 45.0215 25.6834 44.8451C25.5716 44.6568 25.5363 44.4327 25.5846 44.2191C25.6156 44.0114 25.6825 43.8107 25.7823 43.626H25.8152Z" fill="#5498FF"/>
<path d="M26.6061 44.0871C26.5175 44.0223 26.4448 43.9382 26.3934 43.8412C26.342 43.7441 26.3134 43.6367 26.3096 43.527C26.3111 43.4101 26.3453 43.2959 26.4084 43.1975C26.4949 43.1047 26.6119 43.0462 26.7379 43.0327C26.9515 43.0143 27.1664 43.0482 27.364 43.1316C27.5649 43.1854 27.7546 43.2747 27.9241 43.3952C27.9768 43.415 28.0246 43.4458 28.0643 43.4856C28.1041 43.5254 28.1349 43.5732 28.1548 43.6258C28.1964 43.7419 28.2077 43.8666 28.1877 43.9883C28.1731 44.1115 28.1256 44.2285 28.0503 44.327C27.9749 44.4256 27.8744 44.502 27.7594 44.5484C27.5244 44.6009 27.2783 44.5657 27.0674 44.4496L26.6061 44.0871ZM26.6061 44.0542C26.7513 44.1605 26.9181 44.2333 27.0947 44.2675C27.2713 44.3016 27.4533 44.2963 27.6276 44.2519C27.6972 44.2223 27.7592 44.1772 27.8087 44.1199C27.8581 44.0627 27.8938 43.9948 27.9129 43.9216C27.932 43.8484 27.934 43.7718 27.9188 43.6976C27.9036 43.6235 27.8716 43.5538 27.8253 43.494C27.6918 43.3571 27.5191 43.265 27.331 43.2304C27.1557 43.1917 26.973 43.2031 26.8038 43.2634C26.6391 43.2963 26.5732 43.3952 26.5073 43.5599C26.4637 43.641 26.4497 43.7346 26.4677 43.8248C26.4858 43.9151 26.5347 43.9962 26.6061 44.0542Z" fill="#5498FF"/>
<path d="M32.9985 52.3247C32.9886 53.0443 32.9113 53.7613 32.7678 54.4665C32.7019 54.796 32.603 55.1255 32.5371 55.4879C32.4712 55.8504 32.4383 56.1799 32.4053 56.5423L32.2076 58.6511C32.1417 59.3431 32.0429 60.035 32.0099 60.7599H31.977C31.8297 60.0559 31.7963 59.3328 31.8781 58.6182C31.9371 57.9082 32.0472 57.2035 32.2076 56.5094C32.3065 56.1799 32.3724 55.8174 32.4383 55.4879C32.5042 55.1584 32.4712 54.763 32.5042 54.4006C32.5948 53.6961 32.7492 53.0013 32.9655 52.3247H32.9985Z" fill="#5498FF"/>
<path d="M31.12 52.4239C31.1788 52.4118 31.2397 52.4145 31.2972 52.4318C31.3547 52.449 31.4071 52.4803 31.4495 52.5228C31.5296 52.6181 31.586 52.731 31.6143 52.8523C31.6953 53.0735 31.729 53.3092 31.7131 53.5443C31.6907 54.0198 31.6357 54.4932 31.5484 54.9611C31.3836 55.8508 31.153 56.7734 30.9882 57.663C30.8243 58.5775 30.7252 59.5024 30.6917 60.4308V61.8147C30.6587 62.0454 30.6587 62.276 30.6257 62.5396C30.6339 62.664 30.6113 62.7885 30.5598 62.9021C30.5269 62.9351 30.461 63.0339 30.3951 63.0339H30.2962L30.2303 62.968L30.1644 62.8691C29.9919 62.4288 29.8488 61.9775 29.7361 61.5182L29.4395 60.1672L28.9453 57.3994L28.8464 56.7075C28.8464 56.6086 28.8135 56.5098 28.8135 56.3121L28.9123 55.9496C29.0876 55.5058 29.2969 55.0761 29.5384 54.6646C29.769 54.2692 29.9997 53.8738 30.2633 53.4784L30.6587 52.9182C30.7884 52.7326 30.9437 52.5662 31.12 52.4239ZM31.153 52.4569C30.9666 52.5922 30.8189 52.774 30.7246 52.9841C30.5919 53.1743 30.4709 53.3724 30.3621 53.5772C30.1276 53.9698 29.9184 54.377 29.7361 54.7964C29.5323 55.2127 29.3562 55.6419 29.2089 56.0814C29.1759 56.1803 29.1759 56.3121 29.143 56.378C29.11 56.4439 29.1759 56.5757 29.1759 56.7075L29.3077 57.3665L29.769 60.1343L29.9997 61.4852C30.0745 61.9434 30.1847 62.3951 30.3292 62.8362V62.9021C30.2962 62.8691 30.2962 62.9021 30.2962 62.8691C30.2962 62.8362 30.3621 62.8691 30.3621 62.8032C30.4286 62.7189 30.4636 62.614 30.461 62.5067C30.4993 62.2779 30.5213 62.0467 30.5269 61.8147C30.5599 61.3534 30.5598 60.8921 30.5598 60.4308V59.014C30.5928 58.5527 30.6258 58.0914 30.6917 57.6301C30.8339 56.7045 31.0431 55.7905 31.3177 54.8952C31.4403 54.4524 31.5285 54.0007 31.5813 53.5443C31.6195 53.3139 31.6083 53.078 31.5484 52.8523C31.5182 52.7479 31.4739 52.6481 31.4166 52.5557C31.3507 52.4898 31.2518 52.4239 31.153 52.4569Z" fill="#5498FF"/>
<path d="M30.4287 51.5339C29.9344 52.5554 29.4072 53.5768 28.8471 54.5324C28.2869 55.488 27.4632 56.4106 27.7927 57.5968C28.1222 58.783 28.1551 59.8044 28.3858 60.8918C28.6164 61.9792 28.8141 63.0665 29.1107 64.1539H29.0777C28.6132 63.1178 28.2598 62.0353 28.0233 60.9248C27.8105 59.8155 27.6783 58.6922 27.6279 57.5638V56.7071C27.6653 56.4189 27.7546 56.1398 27.8915 55.8834C28.1551 55.3891 28.3528 54.8619 28.6164 54.3676C29.1466 53.3744 29.741 52.4168 30.3957 51.501L30.4287 51.5339Z" fill="#5498FF"/>
<path d="M28.9456 51.4352C28.6759 51.3249 28.4213 51.181 28.1877 51.0069C27.9342 50.8726 27.6918 50.7183 27.4628 50.5456L26.0459 49.5241L24.662 48.4368C24.1889 48.0799 23.7378 47.6948 23.3111 47.2835C22.9346 46.8569 22.515 46.4704 22.059 46.1302C21.8351 45.9696 21.5746 45.8676 21.3011 45.8337C21.0151 45.836 20.7333 45.9036 20.4774 46.0314C20.2342 46.1817 20.0397 46.3991 19.9172 46.6575C19.8131 46.9214 19.7465 47.1987 19.7195 47.4812C19.6578 48.0467 19.7139 48.6189 19.8843 49.1617C19.9649 49.4214 20.0873 49.6662 20.2467 49.8866C20.4349 50.0895 20.6582 50.257 20.9057 50.3808L21.7295 50.7103C21.8882 50.7488 22.0283 50.8421 22.1249 50.9739L22.2237 51.0728V51.2046L22.3226 51.4023L22.8827 53.0498C22.9816 53.3134 23.0804 53.6099 23.1793 53.8406L23.2781 54.0383L23.344 54.1042L23.7065 54.203C24.2728 54.296 24.846 54.3401 25.4199 54.3349C25.9834 54.3923 26.5527 54.3476 27.1003 54.203C27.34 54.0964 27.5453 53.9253 27.6934 53.7088C27.8582 53.4781 27.99 53.2145 28.1547 52.9509C28.3195 52.6873 28.7149 51.9624 28.9456 51.4352ZM28.9785 51.4352C28.7874 51.9954 28.5674 52.5453 28.3195 53.0827C28.1965 53.346 28.0533 53.5994 27.8912 53.8406C27.8226 53.9743 27.7337 54.0966 27.6275 54.203C27.5264 54.3373 27.3893 54.4401 27.2321 54.4996C26.9424 54.5863 26.6441 54.6415 26.3425 54.6644H25.4528C24.868 54.6708 24.2837 54.6267 23.7065 54.5325C23.5357 54.5157 23.3687 54.4712 23.2122 54.4008C23.1537 54.3743 23.1068 54.3275 23.0804 54.269L23.0145 54.1701L22.9157 53.9724C22.7915 53.6925 22.6816 53.4066 22.5862 53.1157L22.059 51.4682C22.026 51.3364 21.9601 51.1716 21.8942 51.1387C21.8283 51.1057 21.7295 50.9739 21.5977 50.941L20.8069 50.5785C20.5259 50.4491 20.2781 50.2576 20.0819 50.0184C19.9067 49.7711 19.7834 49.4909 19.7195 49.1946C19.561 48.6156 19.5163 48.0114 19.5877 47.4153C19.6254 47.1166 19.7146 46.8268 19.8513 46.5586C19.9836 46.2879 20.1891 46.0596 20.4444 45.8996C20.7084 45.7577 21.0016 45.6788 21.3011 45.6689C21.6056 45.6759 21.9021 45.7672 22.1578 45.9325C22.6434 46.2612 23.0959 46.6364 23.5088 47.0529L24.1678 47.646C24.4015 47.8033 24.6219 47.9797 24.8268 48.1732L26.1777 49.2605L27.5616 50.3808C28.023 50.7433 28.4513 51.1057 28.9785 51.4352Z" fill="#5498FF"/>
<path d="M21.6632 45.9324C21.3299 46.1861 21.0594 46.513 20.8724 46.8879C20.7939 47.0648 20.7492 47.2548 20.7406 47.4481C20.7177 47.6572 20.7288 47.8686 20.7736 48.0741C20.7788 48.5047 20.8684 48.9301 21.0372 49.3262C21.127 49.5058 21.2793 49.6465 21.4655 49.7216L21.795 49.7875L22.1245 49.8534L22.7506 50.117C22.9153 50.2818 23.146 50.3806 23.2119 50.7431C23.2569 51.1549 23.334 51.5625 23.4425 51.9622C23.5284 52.389 23.6496 52.8078 23.805 53.2144C23.9309 53.6255 24.1198 54.0145 24.3651 54.3676H24.3322C23.9975 54.0756 23.728 53.7163 23.5414 53.3132C23.3643 52.9084 23.221 52.4896 23.113 52.0611C22.9856 51.6321 22.9082 51.1899 22.8824 50.7431C22.8824 50.6442 22.7506 50.4795 22.5858 50.3477L22.0586 50.0182L21.7621 49.9193C21.6482 49.9017 21.5374 49.8684 21.4326 49.8205C21.2171 49.7321 21.0414 49.568 20.9383 49.3592C20.7132 48.9747 20.5675 48.5489 20.51 48.1071C20.3737 47.657 20.4211 47.1713 20.6418 46.7561C20.8749 46.3627 21.2352 46.0605 21.6632 45.8994V45.9324Z" fill="#5498FF"/>
<path d="M24.0028 58.2228C23.9343 57.8451 23.8463 57.4711 23.7392 57.1025C23.6607 56.9257 23.616 56.7357 23.6074 56.5424C23.6356 56.4211 23.6921 56.3082 23.7722 56.2129L24.0687 56.0811H26.507L26.5729 56.1799L26.6388 56.3447C26.6718 56.4435 26.6718 56.5094 26.7047 56.6083L26.8036 57.1684L26.9683 58.2887C27.1001 59.0466 27.2649 59.7715 27.4296 60.5293C27.5944 61.2872 27.5944 61.2542 27.6603 61.6496L27.7591 62.2098V62.3416C27.7921 62.3745 27.7591 62.5393 27.7262 62.5722C27.6333 62.6709 27.5212 62.7494 27.3967 62.8029C27.0207 62.906 26.6332 62.9613 26.2434 62.9676L25.6503 62.9017C25.4404 62.8808 25.2377 62.8133 25.0572 62.704C24.8628 62.5854 24.7213 62.3967 24.6618 62.1768C24.577 62.0002 24.5214 61.8111 24.4971 61.6167C24.4312 61.2213 24.3653 60.8588 24.3323 60.4964C24.2994 60.1339 24.1346 58.9477 24.0028 58.2228ZM24.0358 58.1899C24.1676 58.9477 24.3653 59.6726 24.53 60.3975C24.6948 61.1224 24.6948 61.1554 24.7936 61.5178C24.8925 61.8803 24.9913 62.2427 25.222 62.3745L25.6833 62.5393H26.2434C26.5978 62.5572 26.9529 62.5239 27.2978 62.4404C27.3637 62.4075 27.4626 62.3745 27.4626 62.3416V62.2098C27.4568 62.0215 27.4348 61.8341 27.3967 61.6496L27.2649 60.5293C27.1331 59.7715 27.0342 59.0466 26.8695 58.2887C26.7047 57.5309 26.7377 57.5638 26.6388 57.2014C26.54 56.8389 26.54 56.806 26.4741 56.6412C26.4675 56.5502 26.4452 56.461 26.4082 56.3776L26.3423 56.2788H24.1017L23.871 56.3447C23.8394 56.3583 23.8128 56.3816 23.7951 56.4111C23.7774 56.4407 23.7693 56.4751 23.7722 56.5094C23.751 56.6966 23.7622 56.8861 23.8051 57.0696C23.871 57.465 23.9699 57.8274 24.0358 58.1899Z" fill="#5498FF"/>
<path d="M25.2551 56.2129C25.0904 56.4765 24.8927 56.7401 24.7609 57.0037L24.695 57.1684V57.8604C24.7279 58.1899 24.7279 58.5194 24.7609 58.8159C24.7918 59.1407 24.8581 59.4611 24.9586 59.7715C25.0574 60.068 25.1563 60.3975 25.2222 60.6941C25.2383 60.8338 25.285 60.9683 25.359 61.0879C25.4331 61.2075 25.5326 61.3093 25.6505 61.386L26.0459 61.5178H26.5072C26.8284 61.5164 27.1487 61.5496 27.4628 61.6167H27.4958L26.5072 61.7485H26.0459C25.8621 61.7243 25.6837 61.6685 25.5187 61.5837C25.3556 61.4875 25.2196 61.3514 25.1233 61.1883C25.0385 61.0234 24.9828 60.845 24.9586 60.6611C24.8963 60.3454 24.8523 60.0264 24.8268 59.7056C24.799 59.385 24.755 59.0661 24.695 58.75C24.6291 58.4205 24.5302 58.124 24.4643 57.7945C24.4262 57.6323 24.4041 57.4667 24.3984 57.3002V57.0366C24.4285 56.9425 24.4729 56.8535 24.5302 56.773C24.7294 56.5016 24.9748 56.2674 25.2551 56.0811V56.2129Z" fill="#5498FF"/>
<path d="M26.9356 61.6498C26.7385 61.1639 26.6056 60.6544 26.5402 60.1341C26.5073 59.8705 26.5073 59.6069 26.4743 59.3762L26.2766 58.6184C26.1119 58.1241 25.9801 57.5969 25.8483 57.1356V57.0368H24.5962L25.354 56.8061L25.7494 56.7402H26.046L26.1448 56.8391V56.905C26.1433 56.9228 26.1455 56.9408 26.1511 56.9578C26.1568 56.9748 26.1659 56.9905 26.1778 57.0038C26.2376 57.2534 26.2817 57.5065 26.3096 57.7617C26.3587 58.023 26.3917 58.2871 26.4084 58.5525C26.4364 58.8076 26.4804 59.0608 26.5402 59.3103C26.6061 59.5739 26.705 59.8046 26.7709 60.0682C26.9101 60.5719 26.9658 61.0951 26.9356 61.6169V61.6498Z" fill="#5498FF"/>
<path d="M31.5814 62.1111C31.6802 61.7487 31.7132 61.3862 31.845 61.0238C31.9951 60.6541 32.2325 60.3262 32.5369 60.0682C32.8407 59.8289 33.1874 59.65 33.5584 59.541C33.9396 59.4106 34.3471 59.3766 34.7446 59.4422C35.1307 59.5229 35.495 59.6852 35.8133 59.9182C36.1315 60.1511 36.3963 60.4495 36.5898 60.7931C36.7384 61.1401 36.8382 61.5061 36.8864 61.8805C36.9576 62.2605 36.9798 62.6481 36.9523 63.0337C36.9577 63.2211 36.9467 63.4085 36.9193 63.5939C36.8952 63.7989 36.8396 63.9989 36.7546 64.187C36.5747 64.5485 36.3017 64.8556 35.9638 65.0767C35.2762 65.4771 34.4838 65.6609 33.6902 65.6039C33.2918 65.6114 32.9007 65.4964 32.5699 65.2744C32.2238 65.0629 31.9485 64.7532 31.7791 64.3847C31.4852 63.6642 31.4163 62.8716 31.5814 62.1111ZM31.6143 62.1441C31.4664 62.8783 31.5956 63.6412 31.9768 64.2858C32.1622 64.5808 32.42 64.8235 32.7257 64.9907C33.0314 65.158 33.3747 65.2443 33.7232 65.2414C34.4419 65.3009 35.1625 65.1522 35.799 64.8131C36.1035 64.629 36.3536 64.3675 36.5239 64.0552C36.6806 63.7246 36.7702 63.3662 36.7875 63.0008C36.8204 62.6391 36.8204 62.2751 36.7875 61.9134C36.7434 61.5382 36.6435 61.1717 36.491 60.8261C36.2865 60.5182 36.0165 60.2594 35.7002 60.0682C35.3969 59.8853 35.0613 59.7622 34.7117 59.7058C33.992 59.66 33.2764 59.8447 32.6687 60.233C32.353 60.4322 32.1014 60.7182 31.9438 61.0567C31.7949 61.4062 31.6844 61.7708 31.6143 62.1441Z" fill="#5498FF"/>
<path d="M35.8649 63.1983C35.8523 63.596 35.6871 63.9735 35.4036 64.2527C35.1009 64.537 34.6985 64.6909 34.2833 64.6811C33.8813 64.646 33.5006 64.4845 33.196 64.2198C32.8861 63.9629 32.6858 63.5977 32.6358 63.1983C32.6214 62.9855 32.6589 62.7724 32.745 62.5773C32.831 62.3821 32.9632 62.2108 33.1301 62.078C33.4573 61.817 33.8648 61.6773 34.2833 61.6826C34.4896 61.672 34.6958 61.7047 34.8887 61.7784C35.0816 61.8522 35.257 61.9655 35.4036 62.111C35.695 62.3982 35.8609 62.7891 35.8649 63.1983ZM35.832 63.1983C35.821 63.0105 35.7641 62.8282 35.6665 62.6674C35.5689 62.5066 35.4334 62.3721 35.2718 62.2757C34.9706 62.104 34.6301 62.0132 34.2833 62.0121C33.9361 62.0066 33.5979 62.1232 33.3278 62.3416C33.1901 62.4419 33.075 62.57 32.9899 62.7176C32.9047 62.8651 32.8515 63.0289 32.8335 63.1983C32.8213 63.3757 32.8542 63.5534 32.9291 63.7147C33.004 63.876 33.1185 64.0157 33.2619 64.1209C33.5572 64.3339 33.9218 64.428 34.2833 64.3845C34.6352 64.3875 34.9797 64.2841 35.2718 64.088C35.4328 63.9991 35.5686 63.8709 35.6666 63.7153C35.7645 63.5597 35.8214 63.3819 35.832 63.1983Z" fill="#5498FF"/>
<path d="M36.8535 63.0339C36.6999 62.4308 36.3803 61.8829 35.9309 61.4523C35.7029 61.2201 35.4193 61.05 35.1071 60.958C34.7944 60.8804 34.4689 60.8692 34.1516 60.9251L33.2619 61.1887C32.9756 61.3139 32.7091 61.4804 32.4711 61.6829C32.2377 61.8899 32.0277 62.122 31.8451 62.3749C31.6684 62.6301 31.5554 62.9238 31.5156 63.2316H31.4826C31.4276 62.8963 31.4734 62.5522 31.6144 62.2431C31.7659 61.9294 31.9788 61.6493 32.2405 61.4193C32.7793 60.9801 33.4566 60.7466 34.1516 60.7603L35.1401 60.8592C35.4794 60.9157 35.8042 61.0389 36.0956 61.2216C36.3678 61.4341 36.5826 61.7111 36.7207 62.0276C36.8588 62.344 36.9157 62.6899 36.8864 63.0339H36.8535Z" fill="#5498FF"/>
<path d="M54.1853 45.3725C52.5799 44.6672 50.8273 44.3619 49.078 44.4828C48.2091 44.5176 47.347 44.6502 46.5079 44.8782C45.6632 45.0994 44.837 45.3858 44.0366 45.7349C43.241 46.0886 42.4704 46.4959 41.7301 46.9541C41.3676 47.1518 41.0052 47.4483 40.6427 47.679L39.6213 48.5027C39.2871 48.7821 38.9682 49.079 38.6657 49.3924L37.809 50.3809C37.2559 51.067 36.791 51.8197 36.4251 52.6215C36.2697 53.0142 36.1591 53.4232 36.0956 53.8407C36.0408 54.2777 36.0188 54.7183 36.0297 55.1587C36.0696 56.0249 36.1909 56.8854 36.3922 57.7288C36.6011 58.5691 36.8653 59.3946 37.183 60.2001C37.5125 61.0238 37.842 61.8476 38.2044 62.6384C38.5551 63.4376 38.9856 64.1993 39.4895 64.9119C39.7226 65.2549 40.0123 65.5558 40.3462 65.8016C40.7072 66.0039 41.1197 66.0956 41.5324 66.0652C42.3994 65.9929 43.2527 65.8045 44.0696 65.505C44.8962 65.2127 45.691 64.8373 46.442 64.3847H46.4749C45.7386 64.8788 44.9549 65.2982 44.1355 65.6368C43.316 65.9763 42.4491 66.1875 41.5653 66.2629H40.8734C40.6372 66.224 40.4123 66.134 40.2144 65.9993C39.8307 65.742 39.496 65.4184 39.2259 65.0437C38.6939 64.3257 38.241 63.5524 37.8749 62.7372C37.1111 61.1448 36.5148 59.4774 36.0956 57.7617C35.8869 56.8983 35.7763 56.014 35.7661 55.1257C35.7663 54.6736 35.7993 54.2221 35.865 53.7748C35.9466 53.3432 36.0794 52.9229 36.2604 52.5227C36.6537 51.7213 37.1404 50.9692 37.7102 50.282C38.2741 49.5975 38.891 48.9585 39.5554 48.3709C40.8744 47.1966 42.3491 46.2098 43.9378 45.4384C45.5495 44.6796 47.2978 44.2537 49.078 44.1863C50.8582 44.1237 52.6256 44.5089 54.2182 45.3066L54.1853 45.3725Z" fill="#5498FF"/>
<path d="M40.1156 56.6743C39.912 55.3596 39.9567 54.0184 40.2474 52.7202C40.5455 51.4143 41.0817 50.1745 41.829 49.0628C42.5988 47.9745 43.5723 47.0457 44.6957 46.3279C45.828 45.6041 47.0763 45.0803 48.3861 44.7793C49.7042 44.5265 51.0593 44.5377 52.373 44.8122C53.6745 45.1071 54.913 45.6315 56.0305 46.3609C57.1443 47.1113 58.0874 48.0881 58.7983 49.2275C59.4067 50.4106 59.8396 51.676 60.0834 52.9838C60.3249 54.2976 60.2686 55.6488 59.9186 56.9379C59.5483 58.2331 58.9454 59.4501 58.1393 60.5294C56.617 62.7765 54.2749 64.3379 51.6152 64.8789C50.2886 65.1366 48.9259 65.1477 47.5953 64.9118C46.9419 64.8019 46.3015 64.6252 45.6842 64.3846C45.0558 64.1503 44.4584 63.8405 43.9048 63.462C42.802 62.6938 41.9075 61.6634 41.3018 60.4635C40.7293 59.2629 40.3299 57.9871 40.1156 56.6743ZM40.1485 56.6743C40.2803 57.3003 40.4121 57.9593 40.6098 58.5854C40.8053 59.217 41.0705 59.8248 41.4006 60.3976C42.0127 61.5574 42.9082 62.5435 44.0037 63.2643C44.563 63.6153 45.1598 63.9026 45.783 64.121C46.3887 64.3551 47.0187 64.5209 47.6612 64.6153C48.9508 64.8243 50.2674 64.8019 51.5493 64.5494C52.1824 64.4281 52.8008 64.2403 53.3945 63.9892C53.9924 63.7343 54.566 63.4255 55.1079 63.0666C55.6477 62.7052 56.1549 62.2973 56.6236 61.8474C57.0786 61.3769 57.5076 60.882 57.9087 60.3647C58.6756 59.2975 59.2755 58.1198 59.688 56.872C60.0441 55.6189 60.1228 54.3033 59.9186 53.0168C59.8201 52.3645 59.6544 51.724 59.4244 51.1057C59.2315 50.4726 58.9891 49.8556 58.6995 49.2605C57.9987 48.142 57.0661 47.1869 55.9646 46.4597C54.8699 45.7354 53.6403 45.2394 52.3494 45.0016C51.0585 44.7638 49.7329 44.7891 48.452 45.0758C47.1767 45.3545 45.9608 45.8564 44.8604 46.5586C43.7476 47.2491 42.775 48.1434 41.9937 49.1946C41.2028 50.2531 40.6416 51.4652 40.3462 52.7532C40.0331 54.036 39.966 55.3665 40.1485 56.6743Z" fill="#5498FF"/>
<path d="M45.4204 63.6925C45.0943 63.5573 44.7935 63.3679 44.5307 63.1324C44.2445 62.9166 43.9797 62.6739 43.7399 62.4075C43.2591 61.876 42.8594 61.2764 42.5537 60.6282C42.219 59.9921 41.9644 59.3169 41.7958 58.6182C41.697 58.2887 41.664 57.9262 41.5981 57.5967C41.5322 57.2672 41.5322 56.8718 41.5322 56.5094C41.5623 55.0814 41.8995 53.6767 42.5207 52.3906C43.1738 51.1371 44.0313 50.0012 45.0579 49.0297C46.0923 48.0487 47.2986 47.2668 48.6165 46.7232L49.638 46.3607L50.6924 46.1301C51.4014 46.0203 52.1221 46.0093 52.8341 46.0971L53.3613 46.196L53.8886 46.3278L54.1521 46.3937L54.4158 46.4925L54.91 46.6902C55.5519 47.0117 56.1592 47.3982 56.7223 47.8435C57.2736 48.3018 57.7711 48.8214 58.205 49.3921C58.6298 49.9512 58.9634 50.574 59.1935 51.2374H59.1606C58.9019 50.5868 58.5341 49.9851 58.0732 49.458C57.6179 48.9251 57.1101 48.4394 56.5575 48.0082C56.0036 47.5945 55.4071 47.241 54.7782 46.9538L54.284 46.7891L54.0533 46.6902L53.7897 46.6243L53.2955 46.4925L52.8012 46.3937C51.4218 46.2426 50.0266 46.4468 48.7483 46.9868C47.446 47.4871 46.2415 48.212 45.1897 49.1285C44.1204 50.0432 43.2464 51.1638 42.6196 52.4236C42.0351 53.6926 41.7531 55.0799 41.7958 56.4764C41.7958 56.8059 41.8617 57.1684 41.8947 57.4979C41.9416 57.8418 42.0076 58.1828 42.0924 58.5194C42.2383 59.205 42.4708 59.8694 42.7843 60.4964C43.0759 61.1197 43.4409 61.706 43.8717 62.2427C44.3059 62.7883 44.8295 63.2563 45.4204 63.6266V63.6925Z" fill="#5498FF"/>
<path d="M45.1573 59.5079C44.1358 58.1569 43.9052 56.3117 44.3006 54.6642C44.7336 52.9911 45.7232 51.5151 47.1066 50.4791C48.4899 49.4431 50.1847 48.9087 51.9121 48.9638C52.7563 48.9967 53.5854 49.1984 54.3504 49.5569C54.7371 49.76 55.1016 50.0029 55.4378 50.2818C55.6051 50.4109 55.7498 50.5668 55.8661 50.7431C56.0162 50.8969 56.1388 51.0752 56.2286 51.2704C56.6631 52.0081 56.9433 52.8264 57.0523 53.6757C57.1567 54.53 57.1456 55.3945 57.0194 56.2458C56.8798 57.0981 56.6015 57.9218 56.1956 58.6841C56.0939 58.8723 55.9724 59.049 55.8332 59.2113C55.7014 59.409 55.5366 59.5409 55.4048 59.7056L54.8776 60.1339C54.7153 60.2732 54.5386 60.3947 54.3504 60.4964C52.9288 61.4712 51.2287 61.9569 49.5067 61.8803C48.6422 61.8338 47.7984 61.5976 47.0354 61.1884C46.3061 60.7556 45.6682 60.1848 45.1573 59.5079ZM45.1902 59.5079C45.7087 60.1639 46.3599 60.7029 47.1013 61.0895C47.8448 61.4715 48.671 61.6639 49.5067 61.6497C50.3325 61.6448 51.1535 61.5227 51.945 61.2872C52.7356 61.0373 53.4892 60.6827 54.1856 60.2328L54.6799 59.8704L55.1412 59.4749C55.2824 59.3295 55.4145 59.1754 55.5366 59.0136L55.8991 58.5194C56.2939 57.7903 56.5614 56.9991 56.6899 56.1799C56.855 55.3668 56.8884 54.5324 56.7887 53.7087C56.7097 52.8813 56.475 52.0763 56.0968 51.3363C55.684 50.6197 55.0636 50.0452 54.3174 49.6887C53.5751 49.3004 52.7499 49.0969 51.9121 49.0956C50.2262 49.0638 48.5824 49.6234 47.2661 50.6772C45.9646 51.7125 45.001 53.112 44.4983 54.6972C44.2572 55.4973 44.1788 56.3375 44.2676 57.1684C44.3916 58.0087 44.7073 58.8092 45.1902 59.5079Z" fill="#5498FF"/>
<path d="M46.4423 50.6114C47.8873 49.2767 49.725 48.4445 51.6813 48.239C52.6712 48.1346 53.6719 48.247 54.6139 48.5685C55.5421 48.9374 56.3673 49.5252 57.0193 50.2819C57.6313 51.0508 58.0798 51.9366 58.3373 52.885C58.5733 53.8439 58.6292 54.8382 58.502 55.8175C58.3766 56.7762 58.075 57.7034 57.6124 58.5524C57.1255 59.4057 56.4894 60.1646 55.7342 60.793C54.9785 61.4288 54.1487 61.9709 53.263 62.4076C52.3701 62.8244 51.4109 63.0809 50.4292 63.1654C49.4392 63.26 48.4414 63.1013 47.5296 62.7041C46.6149 62.3109 45.7948 61.7268 45.1243 60.9907C44.4024 60.3022 43.8692 59.44 43.5756 58.4865C43.2795 57.5357 43.2453 56.5226 43.4768 55.5539C43.7034 54.5938 44.0935 53.6798 44.63 52.852C45.1314 52.0276 45.7409 51.274 46.4423 50.6114ZM46.4752 50.6114C45.06 51.9435 44.0929 53.6819 43.7074 55.5869C43.5148 56.5187 43.5716 57.4849 43.8722 58.3877C44.1852 59.2782 44.6916 60.0885 45.3549 60.7601C46.0056 61.4499 46.7905 61.9994 47.6614 62.3746C48.5279 62.7693 49.4798 62.9392 50.4292 62.8689C51.3767 62.7915 52.3027 62.546 53.1641 62.144C54.0314 61.7456 54.8496 61.248 55.6024 60.6612C56.3648 60.0699 57.0125 59.344 57.5135 58.5195C57.9906 57.6768 58.2931 56.7467 58.4032 55.7846C58.5171 54.8316 58.4324 53.8653 58.1546 52.9466C57.8767 52.028 57.4116 51.1768 56.7886 50.4467C56.179 49.7331 55.396 49.1885 54.5151 48.865C53.6265 48.5101 52.6683 48.3636 51.7143 48.4367C50.7517 48.5069 49.8064 48.7293 48.9135 49.0957C48.0241 49.4656 47.2006 49.9775 46.4752 50.6114Z" fill="#5498FF"/>
<path d="M19.1594 49.623C19.4183 50.4556 19.6274 51.3028 19.7855 52.1602C19.8843 52.5886 19.9173 53.0169 20.0161 53.4453C20.1178 53.8716 20.2499 54.29 20.4115 54.6974L20.8728 55.8836L21.3671 57.0698C21.6646 57.8835 22.0169 58.6761 22.4215 59.4422H22.3885C22.0989 59.107 21.8449 58.7426 21.6307 58.3549L21.0376 57.2016C20.6991 56.3893 20.4237 55.552 20.2138 54.6974C20.15 54.2725 20.0508 53.8537 19.9173 53.4453L19.5219 52.1932C19.3095 51.3508 19.1771 50.4903 19.1265 49.623H19.1594Z" fill="#5498FF"/>
<path d="M18.5661 46.8222L17.5776 47.5142C17.2493 47.7404 16.9407 47.9939 16.655 48.2721C16.1633 48.8797 15.8854 49.6324 15.8642 50.4138C15.8545 51.2297 15.9096 52.045 16.0289 52.8521C16.1605 53.6472 16.3589 54.4298 16.622 55.1916C17.1163 56.7403 17.6764 58.2889 18.5661 59.6069C18.9856 60.2986 19.4832 60.9398 20.0489 61.518C20.3136 61.8154 20.6122 62.0808 20.9385 62.3088C21.0855 62.436 21.264 62.5214 21.4552 62.5561C21.6464 62.5909 21.8435 62.5738 22.0259 62.5065H22.0588C21.8658 62.6024 21.6503 62.6438 21.4355 62.6264C21.2207 62.609 21.0147 62.5334 20.8397 62.4077C20.484 62.2039 20.1525 61.9607 19.8512 61.6828C19.2542 61.1068 18.7237 60.4658 18.2695 59.7717C17.8159 59.0843 17.4506 58.3426 17.1822 57.564C16.8762 56.8056 16.6337 56.0231 16.4573 55.2245C16.2596 54.4337 16.0948 53.61 15.9301 52.8192C15.7674 52.0144 15.6574 51.1999 15.6006 50.3809C15.602 49.9558 15.6687 49.5335 15.7983 49.1288C15.9534 48.7309 16.1764 48.363 16.4573 48.0414C17.1128 47.5396 17.8197 47.1089 18.5661 46.7563V46.8222Z" fill="#5498FF"/>
<path d="M23.4432 58.8818C22.8349 59.339 22.1839 59.7362 21.4991 60.068L21.2355 60.1669L21.1037 60.2328H21.0378C21.0378 60.2657 21.0708 60.3975 21.0708 60.4634L21.1696 60.727C21.3122 61.0836 21.4888 61.4257 21.6968 61.7485L22.7842 63.6925L23.0478 64.1209H23.1796L23.4432 64.022L24.4646 63.5607C24.185 63.817 23.8751 64.0383 23.542 64.2197L23.2455 64.3515H22.9489L22.8501 64.2856C22.7084 64.1372 22.5866 63.9711 22.4876 63.7914C22.1152 63.1255 21.7957 62.4314 21.5321 61.7155C21.3983 61.3664 21.2443 61.0253 21.0708 60.6941C21.0473 60.5974 21.0022 60.5073 20.939 60.4305C20.8946 60.3263 20.8722 60.2142 20.8731 60.101V59.9692H20.939L21.0708 59.9033L21.3014 59.7385C21.9618 59.3644 22.657 59.0554 23.3773 58.8159L23.4432 58.8818Z" fill="#5498FF"/>
<path d="M24.5634 64.7473C24.6105 64.5925 24.7022 64.455 24.827 64.3519C24.9523 64.2639 25.1023 64.2177 25.2554 64.2201C25.5742 64.1982 25.8944 64.2093 26.2109 64.2531H28.0561C28.6804 64.1928 29.3084 64.1817 29.9343 64.2201L30.4286 64.319C30.5825 64.3873 30.7266 64.4759 30.8569 64.5826L31.5489 65.2416C32.3726 66.1972 33.0975 67.2186 33.8224 68.2401C34.0019 68.4942 34.1669 68.7582 34.3167 69.0309C34.5081 69.2905 34.6223 69.5989 34.6462 69.9205C34.6437 70.0944 34.5726 70.2602 34.4485 70.3818C34.3597 70.5105 34.2605 70.6318 34.1519 70.7443L33.5259 71.4363L32.8339 72.0623L32.4385 72.3589L32.2079 72.4577H31.9443L30.0661 72.293L28.2209 72.0294L27.7596 71.9305L27.496 71.8646H27.3642L27.2653 71.7658L26.6063 71.0738C25.7826 70.1512 24.9588 69.1956 24.2339 68.2071C24.0392 67.9451 23.8631 67.6699 23.7067 67.3834C23.6453 67.2259 23.6338 67.0533 23.6738 66.8891C23.7024 66.7314 23.7466 66.5769 23.8056 66.4278C24.0042 65.8448 24.258 65.2821 24.5634 64.7473ZM24.5964 64.7473C24.2937 65.2907 24.0507 65.8652 23.8715 66.4608C23.8335 66.6118 23.8114 66.7664 23.8056 66.9221C23.7646 67.0531 23.7765 67.195 23.8385 67.3175C24.0033 67.5811 24.201 67.8117 24.3987 68.0753C25.1895 68.9979 26.0462 69.9205 26.8699 70.8431L27.496 71.5021L27.5619 71.5681H27.6278L27.8255 71.6339L28.2868 71.7328L30.0991 72.0294L31.9443 72.2271H32.142L32.3067 72.1282L32.7021 71.8976L33.3941 71.3044L34.0531 70.6454C34.2508 70.4148 34.5144 70.2171 34.5144 69.9205C34.4959 69.6132 34.3933 69.3168 34.2178 69.0638C34.0724 68.7991 33.9072 68.5458 33.7236 68.306C33.3761 67.784 32.9907 67.2884 32.5703 66.8232L31.3512 65.4393L30.6922 64.8133L30.3297 64.5826L29.9014 64.5167C29.3082 64.4508 28.6822 64.4837 28.0561 64.4508C27.4385 64.4574 26.8214 64.4133 26.2109 64.319L25.2554 64.2531C25.1023 64.2507 24.9523 64.2968 24.827 64.3849C24.7245 64.4873 24.6458 64.6111 24.5964 64.7473Z" fill="#5498FF"/>
<path d="M24.1016 66.9878C24.9347 66.8999 25.7753 66.9109 26.6058 67.0207C27.0341 67.0537 27.4625 67.1525 27.8579 67.2184L28.4839 67.3502C28.7016 67.4317 28.8945 67.5679 29.0441 67.7456C29.3462 68.0258 29.6323 68.3228 29.9008 68.6353L30.7246 69.6238C31.235 70.2932 31.6974 70.9979 32.1085 71.7326H32.0755L30.428 69.8215C29.9337 69.1625 29.4395 68.4705 28.9123 67.8115C28.7475 67.6797 28.6487 67.482 28.451 67.4491C28.2616 67.3738 28.0613 67.3293 27.8579 67.3173C27.4428 67.2633 27.0242 67.2413 26.6058 67.2514C25.7665 67.2142 24.9302 67.1262 24.1016 66.9878Z" fill="#5498FF"/>
<path d="M30.3957 64.4507C30.3296 64.726 30.2061 64.9843 30.0333 65.2085L29.7367 65.5051C29.6461 65.6106 29.5787 65.7341 29.539 65.8675C29.4341 66.1333 29.3016 66.3873 29.1436 66.6254C28.978 66.8731 28.7653 67.0858 28.5176 67.2514C28.5785 66.97 28.6902 66.7021 28.8471 66.4606C29.0045 66.2269 29.1808 66.0065 29.3743 65.8016C29.4797 65.7071 29.5688 65.5957 29.6379 65.4721C29.7038 65.3733 29.7367 65.2085 29.8026 65.0767C29.9432 64.8309 30.1341 64.6176 30.3628 64.4507H30.3957Z" fill="#5498FF"/>
<path d="M33.8882 65.5049C34.1893 65.7173 34.4466 65.9858 34.646 66.2957C34.7449 66.4604 34.7778 66.6252 34.8767 66.7899L35.2391 67.2183L35.305 67.3171C35.3255 67.3325 35.3421 67.3524 35.3535 67.3753C35.365 67.3981 35.3709 67.4234 35.3709 67.4489V67.5148C35.3643 67.6058 35.3421 67.695 35.305 67.7784C35.2742 67.9654 35.2071 68.1445 35.1073 68.3056C34.9605 68.6331 34.76 68.9338 34.5142 69.1953H34.4813C34.5408 68.83 34.6517 68.4751 34.8108 68.1409L35.0085 67.6796L35.1403 67.4489C35.1403 67.416 35.1073 67.383 35.1073 67.3501C35.0393 67.1858 34.9507 67.0308 34.8437 66.8888L34.4483 66.4934C34.2055 66.2236 34.0155 65.9107 33.8882 65.5708V65.5049Z" fill="#5498FF"/>
<path d="M34.2834 65.4389C34.5852 65.8082 34.9406 66.1303 35.3378 66.3944C35.4281 66.4571 35.53 66.501 35.6376 66.5236C35.7451 66.5462 35.856 66.5471 35.9639 66.5262L36.6559 66.2626C37.0816 66.0168 37.5217 65.7967 37.9739 65.6036C38.4335 65.4046 38.907 65.2394 39.3907 65.1094C38.9949 65.4225 38.5636 65.688 38.1057 65.9002L37.4467 66.1638L36.7218 66.3944L35.9969 66.5921L35.6014 66.691L35.206 66.6251C34.9589 66.5145 34.7518 66.3304 34.6129 66.0979C34.4482 65.9054 34.3248 65.6811 34.2505 65.4389H34.2834Z" fill="#5498FF"/>
<path d="M34.9424 66.9548C35.4039 66.9737 35.8662 66.9627 36.3263 66.9218C37.3477 66.823 40.1156 65.8345 40.1156 65.8345" fill="black"/>
<path d="M34.9426 66.889C35.1491 66.7631 35.3705 66.6634 35.6016 66.5925C35.8022 66.5215 36.0167 66.4989 36.2277 66.5266C36.439 66.6049 36.6614 66.6494 36.8867 66.6584C37.1166 66.6334 37.3342 66.5418 37.5127 66.3948L38.0729 66.0323C38.2675 65.9216 38.479 65.8437 38.6989 65.8017C39.153 65.6859 39.6288 65.6859 40.0829 65.8017V65.9005C39.791 66.2716 39.4038 66.5563 38.9626 66.7243C38.753 66.8139 38.5306 66.8695 38.3035 66.889H37.6116C37.3794 66.8434 37.139 66.8663 36.9196 66.9549C36.7219 67.0208 36.4913 67.2185 36.2606 67.2844C36.0493 67.3613 35.8196 67.3728 35.6016 67.3174C35.3416 67.2848 35.0989 67.1692 34.9097 66.9879L34.9426 66.889Z" fill="#5498FF"/>
<path d="M53.3613 36.9372C53.6248 36.6531 53.9374 36.4187 54.2839 36.2453C54.6392 36.0515 55.0331 35.9389 55.4372 35.9158H56.5575C56.9255 35.8333 57.2804 35.7002 57.6119 35.5204C58.3038 35.1909 58.9299 34.8284 59.5889 34.433C59.9362 34.2204 60.3349 34.1065 60.7421 34.1035C60.9499 34.1121 61.1529 34.1684 61.3353 34.2683C61.4335 34.3047 61.5163 34.3735 61.5702 34.4634C61.6241 34.5532 61.6458 34.6587 61.6318 34.7625H61.5989C61.5835 34.6773 61.5445 34.598 61.4862 34.5339C61.4279 34.4698 61.3528 34.4235 61.2694 34.4001C61.0972 34.3561 60.9184 34.345 60.7421 34.3671C60.3873 34.4024 60.0472 34.5271 59.7536 34.7296C59.1021 35.1379 58.4055 35.4696 57.6778 35.7181L56.5575 36.0146L55.9973 36.1135H55.4372C54.7075 36.2077 54.0089 36.4668 53.3943 36.8713L53.3613 36.9372Z" fill="#5498FF"/>
<path d="M54.6138 37.1017C55.5125 36.8318 56.4256 36.6118 57.3486 36.4427C57.8159 36.3897 58.2785 36.3016 58.7326 36.1791L59.4245 35.9814L59.754 35.8496H59.9847L60.1494 35.9485C60.2611 36.0233 60.3518 36.1254 60.413 36.245C60.444 36.3208 60.4542 36.4035 60.4426 36.4846C60.431 36.5657 60.3981 36.6422 60.3471 36.7063C60.1523 36.8928 59.9147 37.0285 59.6552 37.1017C59.19 37.2243 58.7164 37.3124 58.2383 37.3653C57.3157 37.4642 56.3601 37.4971 55.4046 37.5301C56.3296 37.3283 57.2644 37.1743 58.2053 37.0688L59.5893 36.8381C59.7924 36.7906 59.9833 36.7008 60.1494 36.5745C60.1779 36.544 60.1987 36.5072 60.2101 36.4671C60.2216 36.427 60.2234 36.3848 60.2153 36.3439L60.0506 36.1132L59.9188 36.0144H59.787L59.4575 36.1132L58.7655 36.3439C58.3371 36.4757 57.8758 36.6404 57.4145 36.7393C56.4955 36.9647 55.5582 37.108 54.6138 37.1676V37.1017Z" fill="#5498FF"/>
<path d="M56.0635 42.3409C56.4616 42.2183 56.8695 42.1302 57.2826 42.0773L58.5018 42.0114C58.9135 42.0075 59.323 41.9521 59.721 41.8467L60.314 41.6819L60.5776 41.5501L60.7754 41.3854C60.6435 40.5616 60.5447 39.7049 60.4458 38.8482C60.347 37.9915 60.4129 38.0244 60.38 37.5961V36.311H60.4129C60.5117 36.7394 60.5777 37.1348 60.6436 37.5631C60.7095 37.9915 60.7754 38.4198 60.8083 38.8152C60.8413 39.2106 60.9401 40.5287 60.9401 41.3854C60.8672 41.4837 60.7624 41.5536 60.6436 41.5831L60.347 41.7149L59.7539 41.9126C59.3568 42.0461 58.9489 42.1454 58.5347 42.2091L57.3156 42.275H56.0635V42.3409Z" fill="#5498FF"/>
<path d="M55.9648 39.8367C56.3496 39.7125 56.7478 39.6351 57.1511 39.606H57.7442L58.3373 39.4742C58.7165 39.356 59.1014 39.257 59.4905 39.1777C59.8664 39.1182 60.2323 39.0073 60.5779 38.8481H60.6109C60.4992 39.0224 60.3388 39.1599 60.1496 39.2436L59.5564 39.4742C59.1692 39.5773 58.7709 39.6327 58.3702 39.639H57.7442L57.184 39.8037C56.7796 39.8754 56.3648 39.8642 55.9648 39.7708V39.8367Z" fill="#5498FF"/>
<path d="M59.8529 35.883L60.7426 35.2569C61.0553 35.0401 61.3999 34.8733 61.764 34.7627H61.9617L62.1265 34.8615C62.1739 34.9539 62.229 35.0421 62.2912 35.1251L62.4889 35.6524C62.5813 36.0185 62.6256 36.3951 62.6207 36.7727C62.6427 37.1354 62.6317 37.4993 62.5878 37.86C62.5548 38.2225 62.5548 38.5849 62.5548 38.9474V40.0347C62.5395 40.414 62.4136 40.7806 62.1924 41.0891C61.7993 41.7377 61.2111 42.2452 60.5119 42.5389L59.4905 42.9673L58.502 43.3627L57.5134 43.791C57.1913 43.9399 56.8826 44.1163 56.5908 44.3182L56.4261 44.483L56.3272 44.7136L56.1295 45.2079C56.0307 45.5374 55.9318 45.8998 55.8 46.2623H55.7671L55.9648 45.2079C56.0307 45.0102 56.0636 44.8454 56.1295 44.6807L56.2284 44.3841C56.2613 44.2853 56.3602 44.2194 56.4261 44.1535C57.0168 43.6969 57.6719 43.3304 58.3702 43.0661L59.3916 42.6707L60.3801 42.3083C61.0442 42.0363 61.6241 41.5928 62.0606 41.0232C62.2817 40.7524 62.4089 40.417 62.423 40.0677C62.4559 39.706 62.4559 39.342 62.423 38.9803V37.893C62.423 37.5305 62.423 37.1681 62.3901 36.8056C62.3571 36.4432 62.2912 36.1137 62.2253 35.7842C62.1904 35.6134 62.1351 35.4475 62.0606 35.2899C62.0276 35.224 61.9947 35.1251 61.9288 35.0922C61.9267 35.0668 61.9149 35.0432 61.8958 35.0263H61.8299C61.4942 35.1272 61.173 35.2711 60.8744 35.4547L59.8859 35.9489L59.8529 35.883Z" fill="#5498FF"/>
<path d="M59.9189 52.16C60.0837 51.7646 60.2814 51.4021 60.4791 51.0067C60.5596 50.8254 60.6257 50.6382 60.6768 50.4465C60.7144 50.3518 60.7367 50.2517 60.7427 50.15C60.7463 50.0501 60.7352 49.9501 60.7098 49.8534C60.7098 49.4251 60.7098 48.9967 60.6768 48.5684C60.6457 48.1463 60.5796 47.7275 60.4791 47.3163C60.3473 46.4596 60.2155 45.6029 60.1166 44.7791C60.0536 44.3388 60.0794 43.8904 60.1926 43.4603C60.3058 43.0302 60.504 42.6271 60.7756 42.2749H60.8086C60.44 43.0313 60.3245 43.8861 60.4791 44.7132C60.5889 45.5699 60.6548 46.4266 60.6768 47.2833C60.6769 47.7136 60.71 48.1432 60.7756 48.5684C60.8415 48.9967 60.9404 49.4251 61.0063 49.8534C61.0722 50.2818 61.0393 50.0511 61.0393 50.1829C61.0363 50.2957 61.014 50.4072 60.9734 50.5124C60.9056 50.7291 60.8174 50.9387 60.7098 51.1385C60.476 51.5032 60.223 51.8551 59.9519 52.1929L59.9189 52.16Z" fill="#5498FF"/>
<path d="M61.9946 34.9601C62.5079 34.2235 63.105 33.549 63.7739 32.9501C64.1026 32.6475 64.4552 32.372 64.8283 32.1264L65.9486 31.4015C66.3364 31.1872 66.7008 30.9332 67.036 30.6436C67.3866 30.3943 67.6605 30.0519 67.8268 29.6551C67.8434 29.5569 67.8434 29.4567 67.8268 29.3585C67.8191 29.303 67.8081 29.248 67.7938 29.1938V29.062V28.9961L67.9915 29.0949L68.1234 29.2267L68.321 29.4903C68.4301 29.7047 68.4865 29.9418 68.4858 30.1823L68.4199 30.8413L68.2881 32.1593C68.2552 32.39 68.2551 32.5877 68.2222 32.8183V32.9831C68.227 33.0506 68.2157 33.1184 68.1892 33.1808C68.1548 33.2997 68.0989 33.4113 68.0245 33.5103C67.7221 33.8697 67.3665 34.1808 66.9701 34.4329C66.585 34.6441 66.2111 34.875 65.8498 35.1248C65.1175 35.6055 64.4527 36.1818 63.8728 36.8382C63.6017 37.176 63.3487 37.528 63.1149 37.8926C62.9041 38.2673 62.7382 38.6654 62.6207 39.0789H62.5877C62.6315 38.6324 62.7543 38.1973 62.9502 37.7938C63.149 37.3912 63.3804 37.0055 63.6421 36.6405C64.2017 35.9269 64.8686 35.3044 65.6191 34.7953C66.344 34.2681 67.2337 33.9716 67.7279 33.3126C67.7848 33.2318 67.8292 33.1429 67.8597 33.049C67.8717 33.0356 67.8807 33.0199 67.8864 33.0029C67.8921 32.9859 67.8942 32.968 67.8927 32.9501C67.8879 32.8825 67.8992 32.8148 67.9256 32.7524C67.9313 32.5314 67.9534 32.3112 67.9915 32.0934L68.1892 30.7754L68.321 30.1164C68.3252 29.911 68.28 29.7076 68.1892 29.5233C68.1426 29.4225 68.0752 29.3327 67.9915 29.2597L67.8927 29.1608L67.7938 29.062H67.8268V29.1608C67.8671 29.2065 67.8904 29.2647 67.8927 29.3256C67.9266 29.444 67.9266 29.5696 67.8927 29.688C67.8365 29.9111 67.7229 30.1156 67.5632 30.2812C67.447 30.4672 67.3025 30.6339 67.1348 30.7754C66.8066 31.0884 66.454 31.3749 66.0804 31.6321L64.9601 32.357C64.5989 32.5927 64.2573 32.8571 63.9387 33.1478C63.2621 33.7088 62.6236 34.3142 62.0276 34.9601H61.9946Z" fill="#5498FF"/>
<defs>
<linearGradient id="paint0_linear_80_1322" x1="56.9216" y1="0" x2="56.9216" y2="148.347" gradientUnits="userSpaceOnUse">
<stop stop-color="#5498FF"/>
<stop offset="1" stop-color="#5498FF" stop-opacity="0"/>
</linearGradient>
</defs>
</svg>
