<svg width="24" height="23" viewBox="0 0 24 23" fill="none" xmlns="http://www.w3.org/2000/svg">
<path d="M11.9656 0.000736893C5.61213 0.000736893 0.464844 5.28211 0.464844 11.7912C0.464844 17.0033 3.7598 21.421 8.3263 22.9796C8.9035 23.0908 9.11195 22.7261 9.11195 22.4107C9.11195 22.1306 9.10548 21.3901 9.10116 20.407C5.90037 21.1174 5.22614 18.822 5.22614 18.822C4.70214 17.4631 3.94597 17.0983 3.94597 17.0983C2.90515 16.3695 4.02863 16.385 4.02863 16.385C5.18158 16.4653 5.78824 17.5972 5.78824 17.5972C6.81396 19.4012 8.47941 18.8794 9.13854 18.5758C9.23917 17.8161 9.53891 17.2936 9.86524 17.0025C7.31208 16.707 4.62739 15.6938 4.62739 11.1759C4.62739 9.88554 5.07304 8.83472 5.8098 8.00939C5.68258 7.71389 5.29299 6.51274 5.91115 4.88861C5.91115 4.88861 6.87362 4.57395 9.07385 6.09787C9.99463 5.83627 10.9722 5.70583 11.949 5.6992C12.9266 5.70583 13.9034 5.837 14.8242 6.09787C17.0115 4.57395 17.9733 4.88861 17.9733 4.88861C18.5907 6.51274 18.2011 7.71316 18.089 8.00939C18.8186 8.83472 19.2642 9.88628 19.2642 11.1759C19.2642 15.7041 16.5759 16.7026 14.0199 16.9908C14.4195 17.3437 14.794 18.0696 14.794 19.1712C14.794 20.7482 14.7796 22.0186 14.7796 22.4026C14.7796 22.7091 14.9809 23.0776 15.5732 22.9589C20.1735 21.4166 23.4648 16.9952 23.4648 11.7904C23.4648 5.28138 18.3176 0 11.9641 0L11.9656 0.000736893Z" fill="#5498FF"/>
</svg>
