<svg width="24" height="24" viewBox="0 0 24 24" fill="none" xmlns="http://www.w3.org/2000/svg">
<path fill-rule="evenodd" clip-rule="evenodd" d="M11.6166 23.2332C18.0323 23.2332 23.2332 18.0323 23.2332 11.6166C23.2332 5.20094 18.0323 0 11.6166 0C5.20094 0 0 5.20094 0 11.6166C0 18.0323 5.20094 23.2332 11.6166 23.2332ZM5.83398 6.424C5.83398 5.51388 6.57523 4.77344 7.48636 4.77344C8.39676 4.77344 9.13745 5.51388 9.13741 6.424C9.13741 7.33449 8.39676 8.07525 7.48636 8.07525C6.57523 8.07525 5.83398 7.33453 5.83398 6.424ZM6.23439 8.77344H8.73846C8.8496 8.77344 8.93965 8.86353 8.93965 8.97462V17.0191C8.93965 17.1303 8.8496 17.2203 8.73846 17.2203H6.23439C6.12325 17.2203 6.0332 17.1303 6.0332 17.0191V8.97462C6.0332 8.86353 6.12325 8.77344 6.23439 8.77344ZM15.1061 8.57422C14.1003 8.57422 13.3569 9.00657 12.9059 9.49782V8.97534C12.9059 8.86425 12.8159 8.77416 12.7047 8.77416H10.3067C10.1955 8.77416 10.1055 8.86425 10.1055 8.97534V17.0199C10.1055 17.131 10.1955 17.221 10.3067 17.221H12.8053C12.9164 17.221 13.0064 17.131 13.0064 17.0199V13.0397C13.0064 11.6985 13.3707 11.1759 14.3057 11.1759C15.3239 11.1759 15.4049 12.0136 15.4049 13.1087V17.0199C15.4049 17.131 15.4949 17.2211 15.606 17.2211H18.1056C18.2167 17.2211 18.3067 17.131 18.3067 17.0199V12.6073C18.3067 10.613 17.9265 8.57422 15.1061 8.57422Z" fill="#5498FF"/>
</svg>
